<!DOCTYPE svg PUBLIC "-//W3C//DTD SVG 20010904//EN" "http://www.w3.org/TR/2001/REC-SVG-20010904/DTD/svg10.dtd">
<svg version="1.0" xmlns="http://www.w3.org/2000/svg" width="1495px" height="134px" viewBox="0 0 12000 1080" preserveAspectRatio="xMidYMid meet">
<g id="layer101" fill="#cd7f32" stroke="none">
 <path d="M0 540 l0 -540 6000 0 6000 0 0 540 0 540 -6000 0 -6000 0 0 -540z"/>
 </g>
<g id="layer102" fill="#ffffff" stroke="none">
 <path d="M0 540 l0 -540 6000 0 6000 0 0 540 0 540 -6000 0 -6000 0 0 -540z m732 484 c105 -35 171 -133 172 -254 1 -52 -4 -74 -24 -110 -31 -55 -108 -115 -178 -137 l-53 -17 38 -18 c46 -22 80 -54 100 -92 20 -38 20 -131 1 -176 -24 -55 -83 -116 -140 -144 l-52 -26 -273 0 c-175 0 -273 4 -273 10 0 6 11 10 25 10 13 0 40 14 60 31 l35 31 0 403 c0 454 4 432 -79 470 -23 10 -41 22 -41 27 0 4 143 8 318 8 262 0 327 -3 364 -16z m708 6 c0 -5 -14 -10 -30 -10 -42 0 -96 -24 -109 -48 -7 -13 -11 -101 -11 -236 l0 -216 43 0 c50 0 113 28 146 64 14 14 65 108 115 208 79 158 97 187 134 216 25 18 55 32 70 32 26 -1 26 -2 -9 -20 -63 -33 -122 -111 -199 -262 -40 -79 -82 -155 -92 -171 -18 -25 -18 -27 -2 -27 30 0 89 74 170 216 54 94 98 158 140 201 l62 63 73 -1 c70 -2 71 -2 23 -8 -27 -3 -62 -14 -76 -23 -32 -21 -79 -94 -149 -227 -62 -120 -130 -200 -197 -233 l-47 -23 80 -6 c142 -11 210 -41 244 -107 30 -59 35 -104 17 -164 -29 -102 -140 -178 -292 -200 -90 -13 -554 -2 -554 13 0 5 11 9 25 9 33 0 81 25 89 45 3 9 6 201 6 425 l0 409 -27 26 c-16 14 -43 30 -60 36 -70 23 -28 29 192 29 143 0 225 -4 225 -10z m1300 -4 c109 -34 238 -140 292 -242 76 -140 76 -330 2 -477 -42 -81 -147 -180 -240 -224 -73 -35 -87 -38 -186 -41 -87 -3 -120 0 -175 16 -187 57 -327 223 -354 418 -10 68 -9 93 5 165 23 109 55 168 141 255 70 71 124 106 200 130 55 17 258 17 315 0z m750 5 c0 -5 -18 -11 -39 -15 -52 -8 -120 -61 -151 -116 l-25 -45 -3 -334 c-2 -195 0 -332 6 -330 5 2 92 94 193 204 101 110 199 216 217 235 18 19 110 119 205 222 125 137 178 188 195 188 l22 0 0 -397 c0 -247 4 -412 11 -436 14 -50 64 -106 117 -129 23 -10 42 -21 42 -23 0 -3 -95 -5 -211 -5 -137 0 -208 3 -204 10 3 6 16 10 28 10 34 0 121 55 156 97 17 21 31 33 31 28 0 -18 -39 -69 -72 -97 l-33 -27 83 -1 83 0 -17 32 c-32 62 -35 96 -34 403 l1 310 -43 -48 c-24 -26 -182 -198 -353 -382 l-310 -334 -153 0 c-100 -1 -151 2 -147 9 3 6 14 10 23 10 29 0 120 47 131 69 7 13 11 139 11 373 0 323 -2 356 -19 393 -25 53 -55 84 -108 107 -23 10 -43 21 -43 23 0 3 92 5 205 5 113 0 205 -4 205 -9z m1670 -20 c0 -42 27 -152 55 -227 13 -35 21 -64 16 -64 -4 0 -50 42 -102 93 -103 102 -181 154 -276 186 -54 18 -86 21 -233 21 -93 0 -170 -2 -170 -5 0 -3 98 -139 217 -303 119 -163 264 -362 321 -442 58 -80 118 -162 134 -183 l30 -37 -414 2 -413 3 -7 61 c-5 33 -16 93 -26 132 -22 84 -11 94 31 28 38 -60 133 -147 193 -177 46 -22 62 -24 233 -27 l184 -3 -18 27 c-10 16 -166 232 -347 480 -180 249 -328 455 -328 458 0 3 207 6 460 6 l460 0 0 -29z m1003 -54 c9 -45 27 -115 40 -155 13 -40 21 -74 19 -77 -3 -3 -27 20 -54 50 -61 68 -198 161 -304 205 -64 27 -93 33 -152 34 -72 1 -74 0 -108 -36 l-34 -38 0 -210 0 -210 98 0 c73 0 107 5 138 19 64 29 114 109 114 182 0 16 5 29 10 29 6 0 10 -82 10 -225 0 -210 -9 -279 -24 -185 -15 92 -115 152 -256 154 l-85 1 -3 -170 c-1 -93 0 -180 3 -193 9 -37 61 -62 130 -62 157 0 326 84 387 191 32 57 42 49 35 -28 -4 -38 -7 -94 -7 -125 l0 -58 -421 0 c-382 0 -469 5 -379 24 17 3 42 17 55 30 l25 25 0 403 c0 460 5 434 -86 474 -30 13 -54 26 -54 29 0 3 200 5 443 5 l444 0 16 -83z m1622 36 c5 -39 50 -192 72 -250 11 -29 -27 -10 -57 27 -40 51 -167 146 -250 187 -127 64 -263 80 -311 37 -47 -41 -49 -60 -49 -458 0 -219 4 -385 10 -400 12 -33 66 -66 108 -66 17 0 32 -4 32 -10 0 -6 -80 -10 -221 -10 -144 0 -218 3 -214 10 3 6 11 10 17 10 25 0 76 33 87 56 8 17 11 146 11 419 l0 393 -25 30 c-14 16 -43 37 -65 46 -22 9 -40 18 -40 21 0 3 200 5 444 5 l444 0 7 -47z m1009 -40 c10 -49 26 -114 37 -145 31 -92 24 -98 -33 -33 -63 70 -196 160 -305 205 -63 27 -92 33 -151 34 -72 1 -74 0 -108 -36 l-34 -38 0 -210 0 -210 98 0 c73 0 107 5 138 19 64 29 114 109 114 182 0 16 5 29 10 29 6 0 10 -82 10 -225 0 -143 -4 -225 -10 -225 -5 0 -10 11 -10 25 0 57 -46 111 -125 146 -38 17 -70 22 -135 23 l-85 1 -3 -170 c-1 -93 0 -180 3 -192 9 -36 65 -63 132 -63 157 0 338 91 388 195 27 59 39 44 31 -42 -3 -42 -6 -98 -6 -125 l0 -48 -421 0 c-379 0 -469 5 -381 23 15 3 40 15 55 27 l27 21 0 413 0 413 -22 21 c-13 11 -44 30 -70 41 -27 11 -48 23 -48 26 0 3 199 5 443 5 l443 0 18 -87z m691 -65 c38 -84 101 -225 142 -312 40 -88 72 -161 70 -162 -2 -2 -50 93 -108 211 -57 118 -106 215 -109 215 -7 0 -205 -436 -247 -543 -31 -82 -34 -95 -24 -128 13 -43 61 -87 103 -96 79 -16 18 -23 -191 -23 -127 0 -231 3 -231 8 0 4 14 14 31 22 17 9 44 34 60 56 22 30 336 723 399 882 19 45 37 22 105 -130z m1414 80 c7 -40 24 -107 37 -148 13 -41 24 -81 24 -88 0 -8 -28 15 -62 51 -74 76 -180 147 -292 195 -137 59 -251 48 -285 -26 -7 -14 -11 -103 -11 -227 l0 -205 95 0 c98 0 150 13 188 48 29 25 57 86 64 137 14 103 23 31 23 -180 0 -143 -4 -225 -10 -225 -5 0 -10 9 -10 20 0 12 -9 39 -20 61 -39 75 -152 124 -272 117 l-53 -3 -3 -178 c-1 -110 2 -185 8 -197 21 -39 67 -53 154 -47 149 10 280 75 344 172 19 28 38 52 43 54 10 3 4 -173 -7 -227 l-4 -22 -416 0 c-374 0 -464 5 -376 23 15 3 40 17 55 31 l27 25 0 406 0 407 -28 28 c-16 15 -47 34 -70 41 -23 7 -42 16 -42 21 0 4 199 8 443 8 l443 0 13 -72z m991 5 c7 -38 26 -106 42 -152 33 -99 32 -91 14 -91 -8 0 -28 18 -46 40 -40 51 -167 146 -250 187 -127 64 -263 80 -311 37 -47 -41 -49 -60 -49 -458 0 -219 4 -385 10 -400 12 -33 66 -66 107 -66 17 0 35 -4 38 -10 4 -7 -72 -10 -220 -10 -211 0 -265 7 -185 25 16 4 41 20 55 37 l25 30 0 398 0 398 -25 31 c-14 16 -41 35 -60 41 -19 6 -35 16 -35 21 0 5 177 9 438 9 l438 0 14 -67z m-2042 -824 c29 -31 68 -64 87 -73 19 -9 35 -19 35 -21 0 -3 -74 -5 -165 -5 -103 0 -165 4 -165 10 0 6 10 10 23 10 50 0 97 62 97 129 0 17 -13 67 -30 113 -16 45 -30 84 -29 87 0 3 22 -39 48 -94 31 -65 66 -120 99 -156z"/>
 <path d="M413 1020 c-17 -6 -41 -22 -52 -36 -20 -25 -21 -40 -21 -245 l0 -219 105 0 c127 0 156 10 213 75 102 116 91 308 -22 399 -32 26 -45 30 -113 32 -43 2 -92 -1 -110 -6z"/>
 <path d="M159 985 l31 -36 0 -392 c0 -301 3 -396 13 -406 10 -10 4 -19 -28 -47 l-40 -34 105 0 105 0 -30 25 c-16 13 -33 24 -37 25 -5 0 -8 188 -8 417 l0 417 32 33 32 33 -103 0 -103 0 31 -35z"/>
 <path d="M665 988 c61 -53 80 -100 80 -198 -1 -96 -22 -154 -80 -216 -36 -38 -29 -42 30 -15 47 21 108 79 131 123 25 48 30 131 10 182 -29 76 -124 156 -185 156 -19 0 -17 -4 14 -32z"/>
 <path d="M547 504 c-3 -4 8 -16 26 -28 44 -29 77 -98 77 -161 0 -88 -24 -148 -83 -206 l-52 -52 44 7 c73 11 125 55 167 141 62 128 -5 266 -147 299 -14 3 -29 3 -32 0z"/>
 <path d="M348 494 c-5 -4 -8 -89 -8 -190 l0 -182 31 -26 c77 -65 196 -7 244 118 37 96 3 226 -68 263 -34 18 -186 31 -199 17z"/>
 <path d="M1098 994 l32 -25 0 -404 c0 -351 2 -404 15 -415 14 -12 12 -17 -17 -47 l-32 -33 95 0 94 0 -32 26 -33 25 0 412 0 412 31 38 30 37 -108 0 -108 0 33 -26z"/>
 <path d="M1290 316 c0 -177 1 -186 23 -211 43 -50 163 -56 242 -12 22 12 53 41 69 64 26 37 30 53 34 125 3 73 1 88 -20 127 -37 69 -77 85 -225 89 l-123 4 0 -186z"/>
 <path d="M1643 443 c28 -39 32 -54 36 -124 4 -96 -14 -154 -64 -204 l-33 -33 34 11 c48 15 113 73 135 121 49 107 -4 235 -108 265 l-31 9 31 -45z"/>
 <path d="M2480 1015 c-89 -28 -151 -100 -192 -222 -21 -61 -23 -87 -23 -253 0 -166 2 -192 23 -255 29 -89 78 -156 139 -192 45 -26 55 -28 160 -28 l111 0 59 40 c104 72 153 208 153 430 0 214 -31 326 -115 411 -38 40 -63 56 -104 68 -66 19 -150 20 -211 1z"/>
 <path d="M2310 953 c-81 -54 -157 -157 -189 -256 -61 -192 -19 -360 124 -504 40 -40 78 -73 83 -73 6 0 -11 29 -37 64 -77 101 -111 215 -111 366 0 134 42 261 121 368 22 28 38 52 37 52 -2 0 -15 -7 -28 -17z"/>
 <path d="M2829 933 c67 -85 101 -215 101 -393 0 -184 -33 -308 -107 -398 l-36 -44 29 15 c43 22 118 106 148 165 60 119 74 304 33 435 -28 88 -83 174 -142 222 -55 45 -63 44 -26 -2z"/>
 <path d="M3920 848 c-255 -283 -506 -552 -624 -670 l-108 -108 59 0 58 0 106 108 c122 124 266 280 508 549 l172 193 -3 55 -3 56 -165 -183z"/>
 <path d="M3204 984 c20 -20 38 -45 41 -55 4 -11 9 -19 13 -19 7 0 42 88 42 104 0 3 -29 6 -65 6 l-66 0 35 -36z"/>
 <path d="M4303 973 c19 -27 114 -160 212 -298 159 -223 335 -461 420 -567 26 -33 35 -38 73 -38 24 0 42 4 40 9 -1 4 -156 218 -342 475 l-339 466 -49 0 -50 0 35 -47z"/>
 <path d="M4925 992 c71 -39 143 -90 193 -136 l43 -40 -27 70 c-14 38 -31 84 -37 102 l-10 32 -106 0 -106 0 50 -28z"/>
 <path d="M4340 207 c0 -3 9 -35 20 -71 l21 -66 71 0 72 0 -47 30 c-26 16 -67 48 -92 71 -25 23 -45 39 -45 36z"/>
 <path d="M5384 980 l36 -40 0 -385 c0 -288 3 -390 12 -405 11 -17 8 -23 -22 -49 l-35 -30 103 -1 c56 0 102 2 102 5 0 3 -18 17 -40 31 l-41 27 3 410 3 409 39 34 39 34 -117 0 -118 0 36 -40z"/>
 <path d="M5831 1016 c2 -2 32 -15 65 -30 83 -34 178 -91 225 -133 45 -41 47 -39 16 19 -12 24 -33 67 -45 96 l-23 52 -121 0 c-67 0 -119 -2 -117 -4z"/>
 <path d="M5827 531 c-15 -10 -29 -20 -32 -23 -5 -5 68 -58 80 -58 3 0 5 23 5 50 0 55 -8 60 -53 31z"/>
 <path d="M6040 176 c-19 -20 -64 -51 -100 -71 l-65 -35 89 2 90 3 13 50 c21 80 14 92 -27 51z"/>
 <path d="M7014 989 l26 -31 0 -387 c0 -345 2 -389 17 -410 16 -24 16 -25 -23 -58 l-39 -33 98 0 99 0 -31 26 -31 26 0 414 0 413 31 36 31 35 -102 0 -102 0 26 -31z"/>
 <path d="M7555 976 c50 -23 114 -60 144 -81 60 -43 59 -46 19 63 l-23 62 -115 0 -115 -1 90 -43z"/>
 <path d="M8001 997 c15 -12 32 -32 38 -44 8 -15 11 -139 11 -402 0 -285 3 -386 12 -401 11 -17 8 -23 -22 -49 l-35 -30 103 -1 c56 0 102 2 102 5 0 3 -18 17 -40 31 l-40 27 0 394 c0 429 0 429 57 472 l28 20 -120 0 -120 0 26 -22z"/>
 <path d="M8461 1016 c2 -2 28 -14 58 -26 77 -30 188 -97 238 -143 l43 -40 -50 104 -49 104 -123 3 c-67 1 -120 1 -117 -2z"/>
 <path d="M8457 531 c-15 -10 -29 -20 -32 -23 -3 -3 12 -17 34 -31 21 -14 42 -23 45 -20 3 4 6 26 6 50 0 48 -9 52 -53 24z"/>
 <path d="M8671 175 c-19 -19 -64 -50 -100 -69 l-66 -36 89 3 90 2 17 68 c9 37 14 67 10 67 -3 0 -21 -16 -40 -35z"/>
 <path d="M9376 955 c-15 -33 -65 -145 -111 -250 -237 -542 -245 -558 -288 -602 l-31 -33 132 0 132 0 -35 46 c-68 88 -50 158 130 509 139 270 144 286 118 346 l-20 44 -27 -60z"/>
 <path d="M10124 980 l36 -40 0 -385 c0 -275 3 -391 12 -404 9 -16 6 -23 -23 -49 l-34 -31 103 -1 c56 0 102 2 102 5 0 3 -18 16 -40 30 l-40 25 0 407 0 406 40 39 41 38 -117 0 -116 0 36 -40z"/>
 <path d="M10590 1008 c128 -57 228 -116 283 -166 25 -24 24 -19 -20 76 l-47 102 -121 -1 c-97 0 -115 -3 -95 -11z"/>
 <path d="M10595 550 c-3 -6 -22 -18 -41 -28 l-34 -17 45 -27 45 -28 0 55 c0 55 -3 64 -15 45z"/>
 <path d="M10780 175 c-19 -19 -64 -50 -100 -70 l-65 -35 89 2 89 3 14 59 c7 33 12 64 11 68 -2 5 -19 -7 -38 -27z"/>
 <path d="M11114 989 l26 -31 0 -390 c0 -359 1 -393 17 -411 17 -18 17 -20 -22 -53 l-40 -34 98 0 99 0 -31 26 -31 26 0 414 0 413 31 36 31 35 -102 0 -102 0 26 -31z"/>
 <path d="M11646 981 c45 -21 110 -58 144 -81 69 -47 68 -50 28 58 l-23 62 -115 -1 -115 0 81 -38z"/>
 <path d="M9758 124 l-26 -54 54 0 54 0 -12 28 c-7 15 -19 39 -28 53 l-15 26 -27 -53z"/>
 </g>

</svg>