<?xml version="1.0" encoding="UTF-8" standalone="no"?>
<!DOCTYPE svg PUBLIC "-//W3C//DTD SVG 1.1//EN" "http://www.w3.org/Graphics/SVG/1.1/DTD/svg11.dtd">
<svg version="1.1" xmlns="http://www.w3.org/2000/svg" xmlns:xlink="http://www.w3.org/1999/xlink" preserveAspectRatio="xMidYMid meet" viewBox="0 0 512 512" width="512" height="512"><defs><path d="M506 256C506 393.98 393.98 506 256 506C118.02 506 6 393.98 6 256C6 118.02 118.02 6 256 6C393.98 6 506 118.02 506 256Z" id="c4YZekxFf"></path><path d="M19.74 277.59C17.54 254.79 19.74 224.89 25.54 200.59C46.14 113.29 118.94 42.69 206.84 24.69C222.64 21.49 244.44 19.19 251.34 19.99C251.84 19.99 250.44 21.99 248.14 24.39C245.84 26.69 241.94 31.89 239.34 35.99C218.74 67.99 205.34 123.19 198.94 202.09C194.94 250.89 195.54 312.29 200.14 316.69C202.54 319.19 237.94 326.49 261.34 329.49C306.14 335.19 351.94 334.69 390.74 327.99C432.84 320.79 467.24 306.89 485.94 289.39C490.64 284.99 490.84 284.89 490.84 287.39C490.84 288.69 489.94 294.49 488.74 300.19C469.34 398.29 389.94 473.59 290.44 488.19C273.24 490.69 243.64 491.39 229.34 489.69C154.44 480.49 89.94 438.69 51.34 374.29C34.34 345.89 23.04 311.19 19.74 277.59Z" id="a22X3WPDV0"></path><path d="M227 289.51C232.3 282.91 241.5 271.21 247.6 263.51C253.6 255.81 261 246.51 264 242.91C264.36 242.48 266.16 240.31 269.4 236.41C278.46 237.79 283.49 238.56 284.5 238.71C306.7 242.01 348 247.91 352.6 248.51C354.8 248.71 369 250.81 384.1 253.01C420.9 258.51 439.4 261.21 465.1 265.01C476.9 266.71 487.2 268.31 487.9 268.61C490 269.21 483.8 277.11 476.2 283.51C450.5 305.21 403.3 319.01 344.6 322.01C323.4 323.11 318.3 323.11 296.1 321.91C271.1 320.51 227.8 314.01 213.2 309.41C211.7 308.91 212.3 308.01 227 289.51Z" id="a1r0B5HUmT"></path><path d="M232.2 76.51C238.8 57.61 249.6 37.71 257.5 30.11C257.74 29.88 258.94 28.71 261.1 26.61C261.1 33.32 261.1 66.85 261.1 127.21C261.1 187.63 261.1 221.2 261.1 227.91C257.2 232.89 255.03 235.66 254.6 236.21C235.1 261.11 211.6 290.71 210.1 292.31C208.5 294.01 208.3 294.01 207.7 292.51C206.8 290.11 207 263.11 208.1 236.21C210.8 171.71 219.7 112.91 232.2 76.51Z" id="e55CM2OEZf"></path><path d="M272.4 225.01C272.2 225.01 272.1 179.11 272.1 123.11C272.1 42.71 272.4 21.11 273.4 20.81C275.6 20.01 301.8 23.81 312.8 26.51C345.1 34.61 378.3 50.81 403.4 70.71C407.4 73.81 415.7 81.41 421.9 87.51C442.6 107.61 456.2 126.31 469.1 152.41C484.1 182.81 491.5 211.11 492.8 243.31C492.84 244.22 493.04 248.79 493.4 257.01C491.06 256.95 489.76 256.92 489.5 256.91C487.4 256.81 471.2 254.61 453.6 252.01C419.9 246.91 403.4 244.51 322.6 232.41C295.1 228.41 272.5 225.01 272.4 225.01Z" id="b5PuQy0mQ"></path><path d="M21.7 287.01C20.9 280.71 19.9 271.11 19.5 265.81C19.46 265.16 19.26 261.89 18.9 256.01C20.46 256.01 21.33 256.01 21.5 256.01C22.9 256.01 27.3 255.51 31.2 254.81C31.67 254.73 34.04 254.33 38.3 253.61C43.04 248.57 45.67 245.77 46.2 245.21C58.5 232.21 60.6 226.91 62.6 205.21C64.2 186.81 65.9 182.41 73.5 177.31C81.3 172.01 88.4 170.71 118.6 169.11C136.4 168.21 141.2 167.11 145.9 162.71C153.2 155.91 154.7 145.31 153.1 111.01C151.9 86.81 152.2 51.81 153.7 45.71C154.5 42.51 157.2 40.91 171.2 35.71C182.7 31.41 198.6 26.71 209.6 24.51C218.7 22.61 240.4 20.01 247 20.01C247.29 20.01 248.72 20.01 251.3 20.01C249.08 22.47 247.85 23.84 247.6 24.11C226.3 47.71 209.5 101.21 201.7 170.01C197.7 205.11 196.7 223.41 196.7 264.51C196.6 307.41 197.3 316.01 200.9 317.91C201.8 318.41 204.9 319.31 207.6 319.91C210.4 320.51 216.7 321.91 221.6 323.01C289.6 338.31 366.2 337.51 423.9 321.01C429.5 319.31 434.2 318.01 434.4 318.01C434.5 318.01 434.6 331.41 434.5 347.81C434.5 384.61 434 386.71 423.8 393.21C418.7 396.41 418.4 396.51 407.6 396.41C392.4 396.31 386.4 394.21 348.5 375.01C316.2 358.71 305.2 354.21 295.2 353.31C281.8 352.11 273.7 359.11 271.1 374.11C270.4 377.61 269.7 396.21 269.5 415.51C269 455.41 268.8 456.31 261.2 472.01C258.4 477.71 255.8 484.11 255.5 486.21C255.45 486.46 255.22 487.73 254.8 490.01C248.74 489.95 245.37 489.92 244.7 489.91C239.2 489.81 231.9 489.41 228.6 488.91C199.9 485.01 176.8 478.21 152.6 466.51C81.6 432.11 31.8 363.81 21.7 287.01Z" id="hAqP6W8wZ"></path><path d="M229.9 285.91C230.72 284.88 234.82 279.71 242.2 270.41C247.66 271.79 250.69 272.56 251.3 272.71C304.1 286.01 384.3 279.61 412.4 259.81C412.59 259.68 413.52 259.01 415.2 257.81C436.92 260.93 448.99 262.66 451.4 263.01C471.3 265.91 487.9 268.61 488.3 268.91C488.7 269.21 487.4 271.61 485.3 274.21C464.4 300.71 411.7 318.61 344.6 322.01C323.5 323.11 318.3 323.11 296.8 321.91C271.3 320.51 228 314.01 213.3 309.41C211.7 308.91 212.4 308.01 229.9 285.91Z" id="gMTevbB1b"></path><path d="M232.1 77.01C238.4 58.21 249.4 37.91 257.5 30.11C257.74 29.88 258.94 28.71 261.1 26.61C261.1 45.87 261.1 56.57 261.1 58.71C261.1 84.61 260.8 90.91 259.8 91.31C258.2 91.91 251.4 104.71 247.7 114.01C238.6 137.11 232.6 164.41 229.5 197.01C227.6 216.61 228 261.91 230 264.41C231 265.61 229.3 268.41 220.1 279.91C214 287.71 208.8 294.01 208.6 294.01C208.5 294.01 208 293.31 207.7 292.41C206.8 290.01 207 263.41 208.1 236.51C210.9 171.11 219.3 115.21 232.1 77.01Z" id="dbQieR4iG"></path><path d="M418.1 241.91C418.1 233.81 415 213.01 412.1 201.51C404.1 169.81 388 142.81 366.2 124.71C355.9 116.21 353.7 114.81 341.9 108.51C324.3 99.21 301.4 92.81 281 91.31C280.41 91.27 277.44 91.07 272.1 90.71C272.1 88.39 272.1 76.79 272.1 55.91C272.1 34.97 272.1 23.34 272.1 21.01C274.98 21.01 276.58 21.01 276.9 21.01C298.1 21.11 335 31.31 361.6 44.51C384.8 55.91 402.5 68.51 421.9 87.51C442.6 107.51 456.2 126.31 469.1 152.41C484.4 183.31 493.1 218.41 493.1 249.01C493.1 249.54 493.1 252.21 493.1 257.01C490.88 256.95 489.65 256.92 489.4 256.91C487.3 256.81 470.4 254.51 451.9 251.71C447.39 251.03 436.13 249.33 418.1 246.61C418.1 243.79 418.1 242.22 418.1 241.91Z" id="d7dt8RHyz"></path><path d="M260.2 247.81C260.51 247.43 262.04 245.53 264.8 242.11C267.5 238.69 269 236.79 269.3 236.41C288.92 239.29 299.82 240.89 302 241.21C319.9 243.91 337.8 246.51 341.6 247.21C342.07 247.29 344.4 247.69 348.6 248.41C344.7 249.13 342.53 249.53 342.1 249.61C327.6 252.51 305.7 253.61 288.1 252.31C282 251.91 269.5 250.11 264.4 248.81C264.12 248.74 262.72 248.41 260.2 247.81Z" id="anMIEjWvJ"></path><path d="M260.7 139.01C260.9 139.01 261.1 159.01 261.1 183.41C261.1 186.38 261.1 201.21 261.1 227.91C257.5 232.41 255.5 234.91 255.1 235.41C251.8 239.61 248.7 243.01 248.2 243.01C247.8 243.01 247.1 239.61 246.7 235.31C245.2 217.01 246.9 191.41 251.1 170.91C253.1 161.01 259.7 139.01 260.7 139.01Z" id="b4VVAfvhd4"></path><path d="M272.1 175.31C272.1 172 272.1 155.47 272.1 125.71C277.68 126.07 280.78 126.27 281.4 126.31C298.4 127.41 318.8 134.21 331.8 143.11C348.3 154.41 361.8 173.31 368.4 194.61C373.1 209.41 375.7 235.01 372.9 237.81C371.1 239.61 368 239.31 319.1 231.91C294.1 228.21 273.3 225.11 272.9 225.01C272.4 225.01 272.1 202.71 272.1 175.31Z" id="ae7vZWVbx"></path></defs><g><g><g><use xlink:href="#c4YZekxFf" opacity="1" fill="#000000" fill-opacity="1"></use></g><g><use xlink:href="#a22X3WPDV0" opacity="1" fill="#1f7544" fill-opacity="1"></use><g><use xlink:href="#a22X3WPDV0" opacity="1" fill-opacity="0" stroke="#000000" stroke-width="1" stroke-opacity="0"></use></g></g><g><use xlink:href="#a1r0B5HUmT" opacity="1" fill="#f7c404" fill-opacity="1"></use><g><use xlink:href="#a1r0B5HUmT" opacity="1" fill-opacity="0" stroke="#000000" stroke-width="1" stroke-opacity="0"></use></g></g><g><use xlink:href="#e55CM2OEZf" opacity="1" fill="#f7c404" fill-opacity="1"></use><g><use xlink:href="#e55CM2OEZf" opacity="1" fill-opacity="0" stroke="#000000" stroke-width="1" stroke-opacity="0"></use></g></g><g><use xlink:href="#b5PuQy0mQ" opacity="1" fill="#f7c404" fill-opacity="1"></use><g><use xlink:href="#b5PuQy0mQ" opacity="1" fill-opacity="0" stroke="#000000" stroke-width="1" stroke-opacity="0"></use></g></g><g><use xlink:href="#hAqP6W8wZ" opacity="1" fill="#6fc1cd" fill-opacity="1"></use><g><use xlink:href="#hAqP6W8wZ" opacity="1" fill-opacity="0" stroke="#000000" stroke-width="1" stroke-opacity="0"></use></g></g><g><use xlink:href="#gMTevbB1b" opacity="1" fill="#f4db4c" fill-opacity="1"></use><g><use xlink:href="#gMTevbB1b" opacity="1" fill-opacity="0" stroke="#000000" stroke-width="1" stroke-opacity="0"></use></g></g><g><use xlink:href="#dbQieR4iG" opacity="1" fill="#f4db4c" fill-opacity="1"></use><g><use xlink:href="#dbQieR4iG" opacity="1" fill-opacity="0" stroke="#000000" stroke-width="1" stroke-opacity="0"></use></g></g><g><use xlink:href="#d7dt8RHyz" opacity="1" fill="#f4db4c" fill-opacity="1"></use><g><use xlink:href="#d7dt8RHyz" opacity="1" fill-opacity="0" stroke="#000000" stroke-width="1" stroke-opacity="0"></use></g></g><g><use xlink:href="#anMIEjWvJ" opacity="1" fill="#ffffff" fill-opacity="1"></use><g><use xlink:href="#anMIEjWvJ" opacity="1" fill-opacity="0" stroke="#000000" stroke-width="1" stroke-opacity="0"></use></g></g><g><use xlink:href="#b4VVAfvhd4" opacity="1" fill="#ffffff" fill-opacity="1"></use><g><use xlink:href="#b4VVAfvhd4" opacity="1" fill-opacity="0" stroke="#000000" stroke-width="1" stroke-opacity="0"></use></g></g><g><use xlink:href="#ae7vZWVbx" opacity="1" fill="#ffffff" fill-opacity="1"></use><g><use xlink:href="#ae7vZWVbx" opacity="1" fill-opacity="0" stroke="#000000" stroke-width="1" stroke-opacity="0"></use></g></g></g></g></svg>