<!DOCTYPE svg PUBLIC "-//W3C//DTD SVG 20010904//EN" "http://www.w3.org/TR/2001/REC-SVG-20010904/DTD/svg10.dtd">
<svg version="1.0" xmlns="http://www.w3.org/2000/svg" width="296px" height="110px" viewBox="0 0 2960 1100" preserveAspectRatio="xMidYMid meet">
<g id="layer101" fill="#000000" stroke="none">
 <path d="M0 550 l0 -550 1480 0 1480 0 0 550 0 550 -1480 0 -1480 0 0 -550z"/>
 </g>
<g id="layer102" fill="#ffffff" stroke="none">
 <path d="M0 550 l0 -550 1480 0 1480 0 0 550 0 550 -1480 0 -1480 0 0 -550z m1400 489 c49 17 76 14 107 -13 24 -21 28 -32 28 -76 0 -56 -11 -70 -104 -132 -29 -20 -41 -35 -41 -52 0 -57 70 -62 107 -7 l23 34 0 -49 c0 -33 -3 -44 -9 -35 -8 12 -14 13 -36 3 -65 -30 -125 6 -125 75 0 48 18 74 78 115 56 38 62 45 62 79 0 80 -98 60 -128 -26 -9 -27 -10 -23 -11 35 0 41 3 60 8 51 7 -11 15 -11 41 -2z m-710 -19 c-18 -18 -20 -33 -20 -187 0 -97 4 -163 9 -158 5 6 34 90 65 189 32 98 60 175 64 171 4 -3 35 -90 68 -193 l62 -187 1 177 c1 172 0 177 -21 192 -21 15 -17 16 62 16 73 -1 82 -3 68 -14 -16 -12 -18 -34 -18 -206 0 -172 2 -194 18 -206 15 -12 8 -13 -50 -14 l-66 0 -43 135 c-23 74 -45 135 -49 135 -3 0 -26 -61 -50 -135 l-43 -135 -66 0 c-57 1 -64 2 -48 14 15 12 17 34 17 206 0 172 -2 194 -17 206 -16 12 -12 13 30 14 l47 0 -20 -20z m448 10 c-12 -8 -14 -17 -9 -38 6 -23 13 -28 46 -30 24 -2 41 2 46 10 13 20 11 56 -3 61 -7 3 13 6 46 6 46 1 56 -2 48 -11 -5 -7 -20 -47 -32 -88 -61 -209 -73 -243 -80 -229 -4 8 -27 77 -50 154 -23 77 -49 148 -58 158 -14 16 -12 17 24 17 30 -1 35 -3 22 -10z m595 0 c-22 -9 -23 -13 -23 -155 l0 -146 28 3 c19 2 32 13 44 38 l18 35 0 -47 0 -48 -120 0 -120 0 0 48 0 47 18 -35 c12 -25 25 -36 45 -38 l27 -3 0 146 c0 142 -1 146 -22 155 -17 6 -3 9 52 9 55 0 69 -3 53 -9z m312 -2 c2 -7 6 -31 10 -53 l6 -40 -20 32 c-24 38 -49 53 -89 53 -36 0 -42 -13 -42 -86 0 -39 4 -54 13 -54 17 0 43 29 50 55 2 11 5 -18 5 -65 0 -64 -2 -78 -8 -56 -9 30 -25 46 -47 46 -9 0 -13 -20 -13 -66 l0 -65 42 3 c35 2 46 9 65 37 l23 34 0 -47 0 -46 -112 0 c-82 1 -108 3 -95 11 15 9 17 27 17 154 0 127 -2 145 -17 154 -13 8 13 10 95 11 82 0 114 -3 117 -12z m153 1 c-14 -8 -18 -24 -18 -74 0 -36 4 -65 8 -65 4 0 24 34 45 75 l37 75 41 0 c34 0 38 -2 27 -13 -7 -8 -26 -41 -42 -74 l-28 -60 26 -26 c19 -19 26 -36 26 -64 -1 -71 -39 -93 -158 -93 -57 1 -73 3 -59 11 15 9 17 27 17 154 0 127 -2 145 -17 154 -14 8 -2 10 47 10 49 0 61 -2 48 -10z m-444 -533 c41 -17 76 -50 76 -72 0 -12 -11 -6 -40 20 -75 67 -147 41 -169 -63 -32 -150 13 -301 91 -301 46 0 68 17 93 73 l24 52 0 -80 c0 -70 -1 -78 -13 -62 -14 18 -16 18 -63 1 -91 -32 -169 7 -213 108 -18 42 -21 65 -18 133 2 69 7 88 31 124 46 70 129 97 201 67z m546 -8 c19 -13 36 -30 38 -38 3 -8 -9 -2 -27 13 -38 32 -73 35 -100 8 -26 -26 -34 -73 -29 -165 3 -62 7 -79 27 -100 41 -44 86 -28 118 42 10 25 11 22 12 -33 0 -40 -2 -55 -8 -46 -8 13 -15 13 -49 2 -23 -8 -52 -11 -68 -7 -127 32 -150 279 -31 331 46 20 79 18 117 -7z m-1947 5 c3 -5 8 -35 11 -68 l7 -60 -21 37 c-24 45 -55 67 -104 75 -56 9 -66 -6 -66 -103 0 -65 3 -84 14 -84 24 0 55 33 65 70 7 28 9 11 9 -80 0 -113 0 -114 -14 -74 -12 35 -44 64 -69 64 -3 0 -5 -43 -5 -95 l0 -95 30 0 c27 0 100 23 100 32 0 2 7 21 15 43 l14 40 1 -67 0 -68 -147 1 c-82 0 -141 3 -133 6 36 13 40 34 40 213 0 179 -4 200 -40 213 -8 3 53 6 137 6 83 1 154 -2 156 -6z m98 -2 c-9 -6 -11 -18 -6 -40 6 -29 10 -31 50 -31 40 0 43 2 49 32 4 21 2 34 -6 40 -8 4 12 8 45 8 56 0 58 -1 44 -20 -7 -11 -34 -87 -58 -170 -24 -82 -46 -150 -49 -150 -3 0 -25 66 -50 147 -24 80 -50 157 -57 170 -11 22 -10 23 20 23 22 0 28 -3 18 -9z m327 -2 c-14 -8 -18 -24 -18 -74 0 -36 4 -65 8 -65 4 0 24 34 45 75 l37 75 42 -1 c24 0 37 -3 30 -6 -7 -3 -29 -37 -48 -75 -28 -56 -33 -73 -22 -79 7 -5 16 -9 19 -9 10 0 29 -50 29 -75 0 -13 -11 -37 -24 -52 -23 -26 -30 -28 -117 -32 -87 -3 -91 -2 -76 14 24 24 25 275 1 299 -14 15 -10 16 48 16 48 -1 59 -3 46 -11z m335 1 c-22 -9 -23 -13 -23 -155 l0 -146 27 3 c17 2 32 12 40 28 12 24 13 24 13 -12 l0 -38 -115 0 -115 0 1 48 c1 43 2 44 9 18 10 -34 25 -46 58 -46 22 0 22 1 22 138 0 139 -3 154 -30 165 -8 3 19 5 60 6 55 0 69 -3 53 -9z m207 3 c-25 -10 -30 -25 -30 -90 l0 -63 50 0 50 0 0 70 c0 55 -3 71 -17 79 -14 8 0 10 52 10 39 -1 62 -3 53 -6 -16 -4 -18 -20 -18 -158 0 -138 2 -154 18 -158 9 -3 -14 -5 -53 -5 -38 0 -62 2 -52 5 14 4 17 16 17 74 l0 69 -50 0 -50 0 0 -57 c0 -61 6 -76 30 -86 8 -3 -16 -6 -55 -6 -52 0 -66 2 -52 10 15 9 17 27 17 154 0 127 -2 145 -17 154 -14 8 0 10 52 10 39 0 63 -3 55 -6z m593 0 c-15 -5 -17 -41 -4 -61 5 -8 22 -12 46 -10 33 2 40 7 46 30 5 21 3 30 -9 38 -12 7 0 9 46 10 54 0 61 -2 50 -14 -8 -7 -34 -81 -57 -162 -24 -82 -46 -152 -50 -157 -7 -7 -18 25 -77 216 -15 49 -33 95 -41 103 -13 12 -9 14 24 13 21 0 32 -3 26 -6z m565 0 c-15 -4 -18 -16 -18 -79 l0 -74 50 0 50 0 0 63 c0 65 -5 80 -30 90 -8 3 17 6 55 6 52 0 66 -2 53 -10 -16 -9 -18 -27 -18 -154 0 -127 2 -145 18 -154 13 -8 -1 -10 -53 -10 -38 0 -63 3 -55 6 24 10 30 25 30 86 l0 57 -50 0 -50 0 0 -69 c0 -58 3 -70 18 -74 9 -3 -14 -5 -53 -6 -52 0 -66 2 -52 10 15 9 17 28 17 159 0 133 -2 149 -17 153 -10 3 14 5 52 5 39 0 62 -2 53 -5z m417 -5 c2 -7 6 -31 10 -53 l6 -40 -20 32 c-24 38 -49 53 -89 53 -36 0 -42 -13 -42 -86 0 -39 4 -54 13 -54 17 0 43 29 50 55 2 11 5 -18 5 -65 0 -64 -2 -78 -8 -56 -9 30 -25 46 -47 46 -9 0 -13 -20 -13 -66 l0 -65 42 3 c35 2 46 9 65 37 l23 34 0 -47 0 -46 -112 0 c-82 1 -108 3 -95 11 15 9 17 27 17 154 0 127 -2 145 -17 154 -13 8 13 10 95 11 82 0 114 -3 117 -12z"/>
 <path d="M1150 934 c0 -19 24 -94 30 -94 4 0 10 12 14 28 3 15 8 37 12 50 6 19 3 22 -25 22 -17 0 -31 -3 -31 -6z"/>
 <path d="M2187 873 c-4 -3 -7 -37 -7 -75 0 -64 1 -68 23 -68 35 0 47 19 47 71 0 38 -5 51 -22 63 -25 18 -32 19 -41 9z"/>
 <path d="M466 378 c16 -50 33 -92 33 -83 1 6 8 31 16 58 l14 47 -35 0 c-32 0 -35 -2 -28 -22z"/>
 <path d="M760 266 c0 -74 1 -76 25 -76 29 0 45 26 45 72 0 39 -16 63 -47 73 -22 6 -23 4 -23 -69z"/>
 <path d="M1924 375 c3 -13 11 -37 17 -52 l11 -28 13 35 c22 58 19 70 -16 70 -28 0 -31 -2 -25 -25z"/>
 </g>

</svg>