<?xml version="1.0" encoding="UTF-8" standalone="no"?>
<!DOCTYPE svg PUBLIC "-//W3C//DTD SVG 1.1//EN" "http://www.w3.org/Graphics/SVG/1.1/DTD/svg11.dtd">
<svg version="1.1" xmlns="http://www.w3.org/2000/svg" xmlns:xlink="http://www.w3.org/1999/xlink" preserveAspectRatio="xMidYMid meet" viewBox="0 0 888 320" width="300" height="108.11"><defs><path d="M0 0L888 0L888 320L0 320L0 0Z" id="b1Mqki4LDv"></path><path d="M160 310C77.21 310 10 242.79 10 160C10 77.21 77.21 10 160 10C242.79 10 310 77.21 310 160C310 242.79 242.79 310 160 310Z" id="b1YoPg5cFR"></path><path d="M160 310C77.21 310 10 242.79 10 160C10 77.21 77.21 10 160 10C242.79 10 310 77.21 310 160C310 242.79 242.79 310 160 310Z" id="ct0pffgv7"></path><path d="M159 275.6C94.15 275.6 41.5 222.95 41.5 158.1C41.5 93.25 94.15 40.6 159 40.6C223.85 40.6 276.5 93.25 276.5 158.1C276.5 222.95 223.85 275.6 159 275.6Z" id="au3BgDUsI"></path><path d="M50.68 132.06C60.36 91.02 94.58 57.84 135.89 49.38C143.32 47.88 153.56 46.8 156.81 47.17C157.04 47.17 156.38 48.11 155.3 49.24C154.22 50.32 152.39 52.77 151.17 54.69C141.48 69.73 135.19 95.68 132.18 132.76C130.3 155.7 130.58 184.55 132.74 186.62C133.87 187.8 150.51 191.23 161.51 192.64C182.56 195.32 204.09 195.08 222.32 191.93C242.11 188.55 258.28 182.02 267.07 173.79C269.28 171.72 269.37 171.68 269.37 172.85C269.37 173.46 268.95 176.19 268.38 178.87C259.27 224.97 221.95 260.37 175.18 267.23C167.1 268.4 153.19 268.73 146.47 267.93C111.26 263.61 80.95 243.96 62.81 213.69C54.82 200.35 49.51 184.04 47.95 168.25C46.92 157.53 47.95 143.48 50.68 132.06Z" id="aPyOLOqkV"></path><path d="M50.68 132.06C60.36 91.02 94.58 57.84 135.89 49.38C143.32 47.88 153.56 46.8 156.81 47.17C157.04 47.17 156.38 48.11 155.3 49.24C154.22 50.32 152.39 52.77 151.17 54.69C141.48 69.73 135.19 95.68 132.18 132.76C130.3 155.7 130.58 184.55 132.74 186.62C133.87 187.8 150.51 191.23 161.51 192.64C182.56 195.32 204.09 195.08 222.32 191.93C242.11 188.55 258.28 182.02 267.07 173.79C269.28 171.72 269.37 171.68 269.37 172.85C269.37 173.46 268.95 176.19 268.38 178.87C259.27 224.97 221.95 260.37 175.18 267.23C167.1 268.4 153.19 268.73 146.47 267.93C111.26 263.61 80.95 243.96 62.81 213.69C54.82 200.35 49.51 184.04 47.95 168.25C46.92 157.53 47.95 143.48 50.68 132.06Z" id="bvrBXNkSD"></path><path d="M155.05 161.63C157.87 158.01 161.35 153.64 162.76 151.95C162.93 151.74 163.77 150.72 165.29 148.89C169.55 149.54 171.92 149.9 172.39 149.97C182.83 151.52 202.24 154.3 204.4 154.58C205.43 154.67 212.11 155.66 219.2 156.69C236.5 159.28 245.19 160.55 257.27 162.33C262.82 163.13 267.66 163.88 267.99 164.03C268.98 164.31 266.06 168.02 262.49 171.03C250.41 181.23 228.23 187.71 200.64 189.12C190.67 189.64 188.28 189.64 177.84 189.08C166.09 188.42 145.74 185.36 138.88 183.2C138.18 182.97 138.46 182.54 145.37 173.85C147.86 170.75 152.18 165.25 155.05 161.63Z" id="grkoIyBql"></path><path d="M155.05 161.63C157.87 158.01 161.35 153.64 162.76 151.95C162.93 151.74 163.77 150.72 165.29 148.89C169.55 149.54 171.92 149.9 172.39 149.97C182.83 151.52 202.24 154.3 204.4 154.58C205.43 154.67 212.11 155.66 219.2 156.69C236.5 159.28 245.19 160.55 257.27 162.33C262.82 163.13 267.66 163.88 267.99 164.03C268.98 164.31 266.06 168.02 262.49 171.03C250.41 181.23 228.23 187.71 200.64 189.12C190.67 189.64 188.28 189.64 177.84 189.08C166.09 188.42 145.74 185.36 138.88 183.2C138.18 182.97 138.46 182.54 145.37 173.85C147.86 170.75 152.18 165.25 155.05 161.63Z" id="d43Bm2d4S"></path><path d="M159.7 51.93C159.81 51.82 160.38 51.27 161.39 50.29C161.39 53.44 161.39 69.2 161.39 97.57C161.39 125.96 161.39 141.74 161.39 144.9C159.56 147.24 158.54 148.54 158.34 148.8C149.17 160.5 138.13 174.41 137.42 175.16C136.67 175.96 136.58 175.96 136.3 175.26C135.87 174.13 135.97 161.44 136.48 148.8C137.75 118.48 141.94 90.85 147.81 73.74C150.91 64.86 155.99 55.5 159.7 51.93Z" id="b4RMXuiGoQ"></path><path d="M159.7 51.93C159.81 51.82 160.38 51.27 161.39 50.29C161.39 53.44 161.39 69.2 161.39 97.57C161.39 125.96 161.39 141.74 161.39 144.9C159.56 147.24 158.54 148.54 158.34 148.8C149.17 160.5 138.13 174.41 137.42 175.16C136.67 175.96 136.58 175.96 136.3 175.26C135.87 174.13 135.97 161.44 136.48 148.8C137.75 118.48 141.94 90.85 147.81 73.74C150.91 64.86 155.99 55.5 159.7 51.93Z" id="c2BqqHPNe7"></path><path d="M166.56 95.64C166.56 57.85 166.7 47.7 167.17 47.56C168.21 47.18 180.52 48.97 185.69 50.24C200.87 54.05 216.48 61.66 228.27 71.01C230.15 72.47 234.06 76.04 236.97 78.91C246.7 88.36 253.09 97.14 259.15 109.41C266.2 123.7 269.68 137 270.29 152.13C270.31 152.56 270.41 154.71 270.57 158.57C269.47 158.55 268.86 158.53 268.74 158.53C267.75 158.48 260.14 157.45 251.87 156.22C236.03 153.83 228.27 152.7 190.3 147.01C177.37 145.13 166.75 143.53 166.7 143.53C166.61 143.53 166.56 121.96 166.56 95.64Z" id="c2EytMsFz5"></path><path d="M166.56 95.64C166.56 57.85 166.7 47.7 167.17 47.56C168.21 47.18 180.52 48.97 185.69 50.24C200.87 54.05 216.48 61.66 228.27 71.01C230.15 72.47 234.06 76.04 236.97 78.91C246.7 88.36 253.09 97.14 259.15 109.41C266.2 123.7 269.68 137 270.29 152.13C270.31 152.56 270.41 154.71 270.57 158.57C269.47 158.55 268.86 158.53 268.74 158.53C267.75 158.48 260.14 157.45 251.87 156.22C236.03 153.83 228.27 152.7 190.3 147.01C177.37 145.13 166.75 143.53 166.7 143.53C166.61 143.53 166.56 121.96 166.56 95.64Z" id="a1TiUvfSmi"></path><path d="M47.84 162.71C47.82 162.4 47.73 160.87 47.56 158.1C48.29 158.1 48.7 158.1 48.78 158.1C49.44 158.1 51.51 157.87 53.34 157.54C53.56 157.5 54.68 157.31 56.68 156.98C58.91 154.61 60.14 153.29 60.39 153.03C66.17 146.92 67.16 144.43 68.1 134.23C68.85 125.58 69.65 123.51 73.22 121.11C76.89 118.62 80.22 118.01 94.42 117.26C102.78 116.84 105.04 116.32 107.25 114.25C110.68 111.06 111.39 106.07 110.63 89.95C110.07 78.58 110.21 62.13 110.92 59.26C111.29 57.76 112.56 57.01 119.14 54.56C124.55 52.54 132.02 50.33 137.19 49.3C141.47 48.41 151.66 47.18 154.77 47.18C154.9 47.18 155.57 47.18 156.79 47.18C155.74 48.34 155.17 48.98 155.05 49.11C145.04 60.2 137.14 85.35 133.48 117.68C131.6 134.18 131.13 142.78 131.13 162.1C131.08 182.26 131.41 186.3 133.1 187.2C133.52 187.43 134.98 187.85 136.25 188.14C137.56 188.42 140.53 189.08 142.83 189.59C174.79 196.78 210.79 196.41 237.91 188.65C240.54 187.85 242.75 187.24 242.84 187.24C242.89 187.24 242.94 193.54 242.89 201.25C242.89 218.55 242.66 219.53 237.86 222.59C235.47 224.09 235.32 224.14 230.25 224.09C223.1 224.04 220.28 223.06 202.47 214.03C187.29 206.37 182.12 204.26 177.42 203.83C171.12 203.27 167.32 206.56 166.09 213.61C165.76 215.26 165.44 224 165.34 233.07C165.11 251.82 165.01 252.24 161.44 259.62C160.12 262.3 158.9 265.31 158.76 266.3C158.74 266.41 158.63 267.01 158.43 268.08C155.58 268.06 154 268.04 153.69 268.04C151.1 267.99 147.67 267.8 146.12 267.57C132.63 265.73 121.77 262.54 110.4 257.04C77.03 240.87 53.62 208.77 48.88 172.67C48.5 169.71 48.03 165.2 47.84 162.71Z" id="b641qrAVS"></path><path d="M47.84 162.71C47.82 162.4 47.73 160.87 47.56 158.1C48.29 158.1 48.7 158.1 48.78 158.1C49.44 158.1 51.51 157.87 53.34 157.54C53.56 157.5 54.68 157.31 56.68 156.98C58.91 154.61 60.14 153.29 60.39 153.03C66.17 146.92 67.16 144.43 68.1 134.23C68.85 125.58 69.65 123.51 73.22 121.11C76.89 118.62 80.22 118.01 94.42 117.26C102.78 116.84 105.04 116.32 107.25 114.25C110.68 111.06 111.39 106.07 110.63 89.95C110.07 78.58 110.21 62.13 110.92 59.26C111.29 57.76 112.56 57.01 119.14 54.56C124.55 52.54 132.02 50.33 137.19 49.3C141.47 48.41 151.66 47.18 154.77 47.18C154.9 47.18 155.57 47.18 156.79 47.18C155.74 48.34 155.17 48.98 155.05 49.11C145.04 60.2 137.14 85.35 133.48 117.68C131.6 134.18 131.13 142.78 131.13 162.1C131.08 182.26 131.41 186.3 133.1 187.2C133.52 187.43 134.98 187.85 136.25 188.14C137.56 188.42 140.53 189.08 142.83 189.59C174.79 196.78 210.79 196.41 237.91 188.65C240.54 187.85 242.75 187.24 242.84 187.24C242.89 187.24 242.94 193.54 242.89 201.25C242.89 218.55 242.66 219.53 237.86 222.59C235.47 224.09 235.32 224.14 230.25 224.09C223.1 224.04 220.28 223.06 202.47 214.03C187.29 206.37 182.12 204.26 177.42 203.83C171.12 203.27 167.32 206.56 166.09 213.61C165.76 215.26 165.44 224 165.34 233.07C165.11 251.82 165.01 252.24 161.44 259.62C160.12 262.3 158.9 265.31 158.76 266.3C158.74 266.41 158.63 267.01 158.43 268.08C155.58 268.06 154 268.04 153.69 268.04C151.1 267.99 147.67 267.8 146.12 267.57C132.63 265.73 121.77 262.54 110.4 257.04C77.03 240.87 53.62 208.77 48.88 172.67C48.5 169.71 48.03 165.2 47.84 162.71Z" id="aiD43D8Fj"></path><path d="M152.51 164.87C155.08 165.52 156.5 165.88 156.79 165.95C181.6 172.2 219.3 169.2 232.5 159.89C232.59 159.83 233.03 159.51 233.82 158.95C244.03 160.42 249.7 161.23 250.83 161.39C260.19 162.76 267.99 164.03 268.18 164.17C268.37 164.31 267.75 165.44 266.77 166.66C256.94 179.11 232.18 187.53 200.64 189.12C190.72 189.64 188.28 189.64 178.17 189.08C166.19 188.42 145.84 185.36 138.93 183.2C138.18 182.97 138.5 182.54 146.73 172.16C147.11 171.67 149.04 169.24 152.51 164.87Z" id="a2VOHmsTKN"></path><path d="M152.51 164.87C155.08 165.52 156.5 165.88 156.79 165.95C181.6 172.2 219.3 169.2 232.5 159.89C232.59 159.83 233.03 159.51 233.82 158.95C244.03 160.42 249.7 161.23 250.83 161.39C260.19 162.76 267.99 164.03 268.18 164.17C268.37 164.31 267.75 165.44 266.77 166.66C256.94 179.11 232.18 187.53 200.64 189.12C190.72 189.64 188.28 189.64 178.17 189.08C166.19 188.42 145.84 185.36 138.93 183.2C138.18 182.97 138.5 182.54 146.73 172.16C147.11 171.67 149.04 169.24 152.51 164.87Z" id="c9yd2YyEjR"></path><path d="M159.7 51.93C159.81 51.82 160.38 51.27 161.39 50.29C161.39 59.34 161.39 64.37 161.39 65.37C161.39 77.55 161.25 80.51 160.78 80.69C160.03 80.98 156.83 86.99 155.1 91.36C150.82 102.22 148 115.05 146.54 130.37C145.65 139.59 145.84 160.88 146.78 162.05C147.25 162.62 146.45 163.93 142.12 169.34C139.26 173 136.81 175.96 136.72 175.96C136.67 175.96 136.44 175.63 136.3 175.21C135.87 174.08 135.97 161.58 136.48 148.94C137.8 118.2 141.75 91.93 147.76 73.97C150.72 65.14 155.89 55.6 159.7 51.93Z" id="gps6c0NiD"></path><path d="M159.7 51.93C159.81 51.82 160.38 51.27 161.39 50.29C161.39 59.34 161.39 64.37 161.39 65.37C161.39 77.55 161.25 80.51 160.78 80.69C160.03 80.98 156.83 86.99 155.1 91.36C150.82 102.22 148 115.05 146.54 130.37C145.65 139.59 145.84 160.88 146.78 162.05C147.25 162.62 146.45 163.93 142.12 169.34C139.26 173 136.81 175.96 136.72 175.96C136.67 175.96 136.44 175.63 136.3 175.21C135.87 174.08 135.97 161.58 136.48 148.94C137.8 118.2 141.75 91.93 147.76 73.97C150.72 65.14 155.89 55.6 159.7 51.93Z" id="a57MPXwlSv"></path><path d="M232.36 132.49C228.6 117.59 221.04 104.9 210.79 96.39C205.95 92.4 204.92 91.74 199.37 88.78C191.1 84.41 180.33 81.4 170.75 80.69C170.47 80.68 169.07 80.58 166.56 80.41C166.56 79.32 166.56 73.87 166.56 64.06C166.56 54.21 166.56 48.75 166.56 47.65C167.92 47.65 168.67 47.65 168.82 47.65C178.78 47.7 196.13 52.49 208.63 58.7C219.53 64.06 227.85 69.98 236.97 78.91C246.7 88.31 253.09 97.14 259.15 109.41C266.34 123.93 270.43 140.43 270.43 154.81C270.43 155.06 270.43 156.32 270.43 158.57C269.39 158.55 268.81 158.53 268.69 158.53C267.71 158.48 259.76 157.4 251.07 156.08C248.95 155.76 243.66 154.96 235.18 153.69C235.18 152.36 235.18 151.62 235.18 151.48C235.18 147.67 233.73 137.89 232.36 132.49Z" id="aiD9xsH8e"></path><path d="M232.36 132.49C228.6 117.59 221.04 104.9 210.79 96.39C205.95 92.4 204.92 91.74 199.37 88.78C191.1 84.41 180.33 81.4 170.75 80.69C170.47 80.68 169.07 80.58 166.56 80.41C166.56 79.32 166.56 73.87 166.56 64.06C166.56 54.21 166.56 48.75 166.56 47.65C167.92 47.65 168.67 47.65 168.82 47.65C178.78 47.7 196.13 52.49 208.63 58.7C219.53 64.06 227.85 69.98 236.97 78.91C246.7 88.31 253.09 97.14 259.15 109.41C266.34 123.93 270.43 140.43 270.43 154.81C270.43 155.06 270.43 156.32 270.43 158.57C269.39 158.55 268.81 158.53 268.69 158.53C267.71 158.48 259.76 157.4 251.07 156.08C248.95 155.76 243.66 154.96 235.18 153.69C235.18 152.36 235.18 151.62 235.18 151.48C235.18 147.67 233.73 137.89 232.36 132.49Z" id="b1g7bcYzv7"></path><path d="M163.13 151.57C164.4 149.96 165.11 149.07 165.25 148.89C174.47 150.24 179.59 151 180.62 151.15C189.03 152.42 197.44 153.64 199.23 153.97C199.45 154 200.54 154.19 202.52 154.53C200.69 154.87 199.67 155.06 199.46 155.1C192.65 156.46 182.36 156.98 174.08 156.36C171.22 156.18 165.34 155.33 162.94 154.72C162.81 154.69 162.15 154.53 160.97 154.25C161.12 154.07 161.84 153.18 163.13 151.57Z" id="bLeh6cPDh"></path><path d="M163.13 151.57C164.4 149.96 165.11 149.07 165.25 148.89C174.47 150.24 179.59 151 180.62 151.15C189.03 152.42 197.44 153.64 199.23 153.97C199.45 154 200.54 154.19 202.52 154.53C200.69 154.87 199.67 155.06 199.46 155.1C192.65 156.46 182.36 156.98 174.08 156.36C171.22 156.18 165.34 155.33 162.94 154.72C162.81 154.69 162.15 154.53 160.97 154.25C161.12 154.07 161.84 153.18 163.13 151.57Z" id="eHGdkOzqL"></path><path d="M161.39 123.98C161.39 125.38 161.39 132.35 161.39 144.9C159.7 147.01 158.76 148.19 158.57 148.42C157.02 150.4 155.57 151.99 155.33 151.99C155.14 151.99 154.81 150.4 154.63 148.37C153.92 139.77 154.72 127.74 156.69 118.11C157.63 113.45 160.74 103.11 161.21 103.11C161.3 103.11 161.39 112.51 161.39 123.98Z" id="d2ej0MAZzC"></path><path d="M161.39 123.98C161.39 125.38 161.39 132.35 161.39 144.9C159.7 147.01 158.76 148.19 158.57 148.42C157.02 150.4 155.57 151.99 155.33 151.99C155.14 151.99 154.81 150.4 154.63 148.37C153.92 139.77 154.72 127.74 156.69 118.11C157.63 113.45 160.74 103.11 161.21 103.11C161.3 103.11 161.39 112.51 161.39 123.98Z" id="alMSvZGOw"></path><path d="M166.56 96.86C169.19 97.03 170.64 97.13 170.93 97.14C178.92 97.66 188.51 100.86 194.62 105.04C202.38 110.35 208.72 119.23 211.82 129.25C214.03 136.2 215.26 148.23 213.94 149.55C213.09 150.4 211.64 150.25 188.65 146.78C176.9 145.04 167.13 143.58 166.94 143.53C166.7 143.53 166.56 133.05 166.56 120.17C166.56 118.62 166.56 110.85 166.56 96.86Z" id="b26zwC7W2O"></path><path d="M166.56 96.86C169.19 97.03 170.64 97.13 170.93 97.14C178.92 97.66 188.51 100.86 194.62 105.04C202.38 110.35 208.72 119.23 211.82 129.25C214.03 136.2 215.26 148.23 213.94 149.55C213.09 150.4 211.64 150.25 188.65 146.78C176.9 145.04 167.13 143.58 166.94 143.53C166.7 143.53 166.56 133.05 166.56 120.17C166.56 118.62 166.56 110.85 166.56 96.86Z" id="e1HrzeQWFv"></path><path d="M359 31L580.5 31L802 31L802 100.77L802 170.54L580.5 170.54L359 170.54L359 100.77L359 31Z" id="c64J62Jp5B"></path><path d="M357 29L582 29L807 29L807 101.46L807 173.93L582 173.93L357 173.93L357 101.46L357 29ZM586.11 164.18C589.76 161.41 590.37 159.96 590.37 154.16C590.37 146.79 588.69 144.94 574.55 136.77C570.15 134.14 568.32 132.16 568.32 129.92C568.32 122.41 578.96 121.75 584.59 129C584.82 129.3 585.99 130.79 588.09 133.48C588.09 129.61 588.09 127.45 588.09 127.02C588.09 122.67 587.63 121.23 586.72 122.41C585.5 123.99 584.59 124.12 581.24 122.81C571.36 118.85 562.24 123.6 562.24 132.69C562.24 139.01 564.98 142.44 574.1 147.84C582.61 152.85 583.52 153.77 583.52 158.25C583.52 168.79 568.63 166.15 564.06 154.82C562.7 151.27 562.54 151.79 562.39 159.43C562.39 164.84 562.85 167.34 563.61 166.15C564.67 164.7 565.89 164.7 569.84 165.89C577.29 168.13 581.4 167.73 586.11 164.18ZM458.86 138.75C458.86 125.97 459.47 117.27 460.23 117.93C460.99 118.72 465.4 129.79 470.11 142.83C474.98 155.75 479.23 165.89 479.84 165.36C480.45 164.97 485.16 153.51 490.18 139.93C490.81 138.29 493.95 130.08 499.61 115.3C499.7 129.29 499.75 137.06 499.76 138.62C499.91 161.28 499.76 161.94 496.56 163.91C493.37 165.89 493.98 166.02 505.99 166.02C517.09 165.89 518.46 165.63 516.33 164.18C513.9 162.6 513.59 159.7 513.59 137.04C513.59 114.37 513.9 111.48 516.33 109.89C518.61 108.31 517.54 108.18 508.73 108.05C508.06 108.05 504.71 108.05 498.69 108.05C494.77 118.72 492.59 124.65 492.16 125.84C488.66 135.59 485.31 143.62 484.71 143.62C484.25 143.62 480.75 135.59 477.11 125.84C476.67 124.65 474.49 118.72 470.57 108.05C464.55 108.05 461.2 108.05 460.53 108.05C451.87 108.18 450.8 108.31 453.24 109.89C455.52 111.48 455.82 114.37 455.82 137.04C455.82 159.7 455.52 162.6 453.24 164.18C450.8 165.76 451.41 165.89 457.8 166.02C458.27 166.02 460.66 166.02 464.94 166.02L461.9 163.39C459.88 160.49 458.86 152.28 458.86 138.75ZM528.64 159.7C529.55 156.67 530.62 156.01 535.64 155.75C539.28 155.48 541.87 156.01 542.63 157.06C544.61 159.7 544.3 164.44 542.17 165.1C541.11 165.5 544.15 165.89 549.17 165.89C556.16 166.02 557.68 165.63 556.46 164.44C555.7 163.52 553.42 158.25 551.6 152.85C542.32 125.31 540.5 120.83 539.44 122.67C538.83 123.73 535.33 132.82 531.84 142.97C528.34 153.11 524.39 162.46 523.02 163.78C520.89 165.89 521.19 166.02 526.67 166.02C531.23 165.89 531.99 165.63 530.01 164.7C528.19 163.65 527.88 162.46 528.64 159.7ZM616.97 144.28C616.97 143 616.97 136.59 616.97 125.05C619.52 125.28 620.94 125.42 621.23 125.44C624.12 125.71 626.09 127.15 627.92 130.45C628.1 130.76 629.01 132.29 630.65 135.06L630.65 128.87L630.65 122.54L612.41 122.54L594.17 122.54L594.17 128.87L594.17 135.06C595.81 132.29 596.72 130.76 596.9 130.45C598.73 127.15 600.7 125.71 603.74 125.44C604.02 125.42 605.39 125.28 607.85 125.05C607.85 136.59 607.85 143 607.85 144.28C607.85 162.99 607.7 163.52 604.5 164.7C601.92 165.5 604.05 165.89 612.41 165.89C620.77 165.89 622.9 165.5 620.47 164.7C617.12 163.52 616.97 162.99 616.97 144.28ZM669.42 157.46C669.48 157.11 669.78 155.35 670.33 152.19C668.51 154.72 667.49 156.12 667.29 156.4C663.64 161.41 659.84 163.39 653.76 163.39C648.29 163.39 647.38 161.67 647.38 152.06C647.38 146.92 647.98 144.94 649.35 144.94C651.94 144.94 655.89 148.76 656.95 152.19C657.26 153.64 657.71 149.82 657.71 143.62C657.71 135.19 657.41 133.35 656.5 136.25C655.13 140.2 652.7 142.31 649.35 142.31C647.98 142.31 647.38 139.67 647.38 133.61C647.38 133.04 647.38 130.18 647.38 125.05C651.21 125.28 653.34 125.42 653.76 125.44C659.08 125.71 660.75 126.63 663.64 130.32C663.88 130.62 665.04 132.11 667.14 134.8L667.14 128.6L667.14 122.54C656.92 122.54 651.25 122.54 650.11 122.54C637.65 122.67 633.69 122.94 635.67 123.99C637.95 125.18 638.25 127.55 638.25 144.28C638.25 161.02 637.95 163.39 635.67 164.57C633.69 165.63 637.65 165.89 650.11 166.02C662.58 166.02 667.44 165.63 667.9 164.44C668.2 163.52 668.81 160.36 669.42 157.46ZM688.42 154.82C688.42 150.08 689.03 146.26 689.64 146.26C690.25 146.26 693.29 150.74 696.48 156.14C696.86 156.8 698.73 160.09 702.11 166.02C705.85 166.02 707.92 166.02 708.34 166.02C713.51 166.02 714.12 165.76 712.44 164.31C711.38 163.26 708.49 158.91 706.06 154.56C705.77 154.03 704.36 151.4 701.8 146.65C704.17 144.6 705.49 143.46 705.75 143.23C708.64 140.73 709.71 138.49 709.71 134.8C709.55 125.44 703.78 122.54 685.69 122.54C677.02 122.67 674.59 122.94 676.72 123.99C679 125.18 679.3 127.55 679.3 144.28C679.3 161.02 679 163.39 676.72 164.57C674.59 165.63 676.41 165.89 683.86 165.89C691.31 165.89 693.14 165.63 691.16 164.57C689.03 163.52 688.42 161.41 688.42 154.82ZM635.21 84.86C635.21 83.28 633.54 84.07 629.13 87.5C617.73 96.32 606.78 92.9 603.44 79.2C598.57 59.43 605.42 39.54 617.27 39.54C624.27 39.54 627.61 41.78 631.41 49.16C631.66 49.61 632.87 51.9 635.06 56.01C635.06 49.68 635.06 46.17 635.06 45.47C635.06 36.24 634.91 35.19 633.09 37.3C630.96 39.67 630.65 39.67 623.51 37.43C609.67 33.21 597.81 38.35 591.13 51.66C588.39 57.19 587.93 60.22 588.39 69.18C588.69 78.27 589.45 80.78 593.1 85.52C600.1 94.74 612.71 98.3 623.66 94.35C629.89 92.11 635.21 87.76 635.21 84.86ZM712.44 88.29C712.9 87.23 711.07 88.02 708.34 90C702.56 94.22 697.24 94.61 693.14 91.05C689.18 87.63 687.97 81.44 688.73 69.31C689.18 61.15 689.79 58.91 692.83 56.14C699.06 50.34 705.91 52.45 710.77 61.67C712.29 64.97 712.44 64.57 712.6 57.32C712.6 52.05 712.29 50.08 711.38 51.26C710.16 52.98 709.1 52.98 703.93 51.53C700.43 50.47 696.02 50.08 693.59 50.61C674.28 54.82 670.79 87.36 688.88 94.22C695.87 96.85 700.89 96.59 706.67 93.29C709.55 91.58 712.14 89.34 712.44 88.29ZM412.34 84.99C412.41 84.47 412.77 81.83 413.41 77.09C411.49 80.01 410.43 81.64 410.21 81.96C406.56 87.89 401.85 90.79 394.4 91.84C385.89 93.03 384.37 91.05 384.37 78.27C384.37 69.71 384.82 67.21 386.5 67.21C390.15 67.21 394.86 71.55 396.38 76.43C397.44 80.12 397.75 77.88 397.75 65.89C397.75 51 397.75 50.87 395.62 56.14C393.79 60.75 388.93 64.57 385.13 64.57C384.67 64.57 384.37 58.91 384.37 52.05C384.37 51.22 384.37 47.05 384.37 39.54C387.11 39.54 388.63 39.54 388.93 39.54C393.03 39.54 404.13 42.57 404.13 43.75C404.13 44.02 405.2 46.52 406.41 49.42C406.55 49.77 407.26 51.53 408.54 54.69L408.69 45.86L408.69 36.9C395.28 36.98 387.84 37.03 386.35 37.03C373.88 37.03 364.91 37.43 366.13 37.82C371.6 39.54 372.21 42.3 372.21 65.89C372.21 89.47 371.6 92.24 366.13 93.95C364.91 94.35 374.18 94.74 386.95 94.74C399.57 94.87 410.37 94.48 410.67 93.95C411.13 93.29 411.89 89.34 412.34 84.99ZM424.66 88.42C425.57 84.6 426.18 84.33 432.26 84.33C438.34 84.33 438.79 84.6 439.71 88.55C440.31 91.32 440.01 93.03 438.79 93.82C437.58 94.35 440.62 94.87 445.64 94.87C454.15 94.87 454.45 94.74 452.32 92.24C451.26 90.79 447.16 80.78 443.51 69.84C439.86 59.04 436.51 50.08 436.06 50.08C435.6 50.08 432.26 58.77 428.46 69.45C424.81 79.99 420.86 90.13 419.79 91.84C418.12 94.74 418.27 94.87 422.83 94.87C426.18 94.87 427.09 94.48 425.57 93.69C424.2 92.9 423.9 91.32 424.66 88.42ZM472.54 83.68C472.54 78.93 473.15 75.11 473.76 75.11C474.37 75.11 477.41 79.59 480.6 84.99C480.98 85.65 482.85 88.95 486.23 94.87C490.06 94.8 492.19 94.75 492.61 94.74C496.26 94.74 498.24 94.35 497.17 93.95C496.11 93.56 492.76 89.08 489.88 84.07C485.62 76.69 484.86 74.45 486.53 73.66C487.6 73 488.96 72.48 489.42 72.48C490.94 72.48 493.83 65.89 493.83 62.59C493.83 60.88 492.16 57.72 490.18 55.74C486.68 52.32 485.62 52.05 472.39 51.53C459.17 51.13 458.56 51.26 460.84 53.37C464.49 56.53 464.64 89.6 460.99 92.77C458.86 94.74 459.47 94.87 468.29 94.87C475.59 94.74 477.26 94.48 475.28 93.43C473.15 92.37 472.54 90.26 472.54 83.68ZM522.71 73.14C522.71 71.85 522.71 65.44 522.71 53.9C525.18 54.14 526.54 54.27 526.82 54.29C529.4 54.56 531.68 55.88 532.9 57.98C534.72 61.15 534.88 61.15 534.88 56.4C534.88 56.07 534.88 54.4 534.88 51.4L517.39 51.4L499.91 51.4C500 55.19 500.05 57.3 500.06 57.72C500.21 63.39 500.37 63.52 501.43 60.09C502.95 55.61 505.23 54.03 510.25 54.03C513.59 54.03 513.59 54.16 513.59 72.21C513.59 90.53 513.14 92.5 509.03 93.95C507.81 94.35 511.92 94.61 518.15 94.74C526.51 94.74 528.64 94.35 526.21 93.56C522.87 92.37 522.71 91.84 522.71 73.14ZM553.12 82.09C553.12 81.54 553.12 78.77 553.12 73.79L560.72 73.79L568.32 73.79C568.32 79.33 568.32 82.4 568.32 83.02C568.32 90.26 567.87 92.37 565.74 93.43C563.61 94.48 565.74 94.74 573.64 94.74C579.57 94.61 583.07 94.35 581.7 93.95C579.27 93.43 578.96 91.32 578.96 73.14C578.96 54.95 579.27 52.84 581.7 52.32C583.07 51.92 579.57 51.66 573.64 51.66C567.87 51.66 564.22 51.92 565.74 52.32C567.87 52.84 568.32 54.43 568.32 62.07C568.32 62.67 568.32 65.7 568.32 71.16L560.72 71.16L553.12 71.16C553.12 66.65 553.12 64.15 553.12 63.65C553.12 55.61 554.03 53.64 557.68 52.32C558.9 51.92 555.25 51.53 549.32 51.53C541.41 51.53 539.28 51.79 541.41 52.84C543.69 54.03 544 56.4 544 73.14C544 89.87 543.69 92.24 541.41 93.43C539.28 94.48 541.41 94.74 549.32 94.74C555.25 94.74 558.9 94.35 557.68 93.95C553.88 92.63 553.12 90.66 553.12 82.09ZM647.22 85.92C647.98 84.86 650.57 84.33 654.22 84.6C659.23 84.86 660.3 85.52 661.21 88.55C661.97 91.32 661.67 92.5 659.84 93.56C658.02 94.48 659.84 94.74 666.84 94.87C675.04 94.87 676.11 94.61 674.44 93.03C673.22 92.11 669.27 82.36 665.77 71.69C662.12 60.88 658.78 51.66 658.17 51C657.11 50.08 655.43 54.29 646.46 79.46C644.18 85.92 641.45 91.98 640.23 93.03C638.25 94.61 638.86 94.87 643.88 94.74C647.07 94.74 648.74 94.35 647.83 93.95C645.55 93.29 645.25 88.55 647.22 85.92ZM730.99 83.54C730.99 82.89 730.99 79.64 730.99 73.79L738.59 73.79L746.19 73.79C746.19 78.77 746.19 81.54 746.19 82.09C746.19 90.66 745.43 92.63 741.63 93.95C740.42 94.35 744.22 94.74 749.99 94.74C757.9 94.74 760.03 94.48 758.05 93.43C755.62 92.24 755.31 89.87 755.31 73.14C755.31 56.4 755.62 54.03 758.05 52.84C760.03 51.79 757.9 51.53 749.99 51.53C744.22 51.53 740.42 51.92 741.63 52.32C745.28 53.64 746.19 55.61 746.19 63.65C746.19 64.15 746.19 66.65 746.19 71.16L738.59 71.16L730.99 71.16C730.99 65.7 730.99 62.67 730.99 62.07C730.99 54.43 731.45 52.84 733.73 52.32C735.1 51.92 731.6 51.66 725.67 51.53C717.76 51.53 715.64 51.79 717.76 52.84C720.04 54.03 720.35 56.53 720.35 73.79C720.35 91.32 720.04 93.43 717.76 93.95C716.24 94.35 719.89 94.61 725.67 94.61C731.6 94.61 735.1 94.35 733.73 93.95C731.45 93.43 730.99 91.84 730.99 83.54ZM798.64 86.31C798.7 85.96 799.01 84.2 799.55 81.04C797.73 83.57 796.72 84.98 796.51 85.26C792.87 90.26 789.06 92.24 782.98 92.24C777.51 92.24 776.6 90.53 776.6 80.91C776.6 75.77 777.21 73.79 778.57 73.79C781.16 73.79 785.11 77.61 786.18 81.04C786.48 82.49 786.94 78.67 786.94 72.48C786.94 64.04 786.63 62.2 785.72 65.1C784.35 69.05 781.92 71.16 778.57 71.16C777.21 71.16 776.6 68.52 776.6 62.46C776.6 61.89 776.6 59.04 776.6 53.9C780.43 54.14 782.56 54.27 782.98 54.29C788.3 54.56 789.98 55.48 792.87 59.17C793.1 59.47 794.26 60.96 796.36 63.65L796.36 57.46L796.36 51.4C786.15 51.4 780.47 51.4 779.34 51.4C766.87 51.53 762.92 51.79 764.89 52.84C767.17 54.03 767.48 56.4 767.48 73.14C767.48 89.87 767.17 92.24 764.89 93.43C762.92 94.48 766.87 94.74 779.34 94.87C791.8 94.87 796.67 94.48 797.12 93.29C797.43 92.37 798.03 89.21 798.64 86.31Z" id="fjEesoKPA"></path><path d="M536.4 139.67C537 139.67 537.92 141.25 538.52 143.36C538.98 145.34 539.74 148.24 540.35 149.95C541.26 152.45 540.8 152.85 536.55 152.85C533.96 152.85 531.84 152.45 531.84 152.06C531.84 149.55 535.48 139.67 536.4 139.67Z" id="fOR0vvfGf"></path><path d="M688.42 134.14C688.42 125.71 688.57 125.18 691.92 125.18C697.24 125.18 699.06 127.68 699.06 134.53C699.06 139.54 698.3 141.25 695.72 142.83C691.92 145.2 690.86 145.34 689.49 144.02C688.88 143.62 688.42 139.14 688.42 134.14Z" id="cYWf0sA0I"></path><path d="M432.87 67.86C433.02 68.66 434.08 71.95 435.3 75.51C435.44 75.92 436.15 77.98 437.43 81.7C434.23 81.7 432.46 81.7 432.11 81.7C427.24 81.7 426.78 81.44 427.85 78.8C430.28 72.21 432.87 66.68 432.87 67.86Z" id="h96QA5tYg"></path><path d="M476.35 54.03C480.75 54.03 483.19 57.46 483.19 63.52C483.19 68.66 480.75 71.82 476.04 73.14C472.7 73.93 472.54 73.66 472.54 64.04C472.54 54.29 472.7 54.03 476.35 54.03Z" id="b10nBJJ4L4"></path><path d="M652.09 71.55C652.2 71.31 652.76 70.08 653.76 67.86C654.95 70.63 655.61 72.17 655.74 72.48C659.08 80.12 658.63 81.7 653.3 81.7C649.05 81.7 648.59 81.44 649.5 78.41C649.96 76.69 651.18 73.53 652.09 71.55Z" id="bzErsCcU"></path><path d="M342 228L590.5 228L839 228L839 249L839 270L590.5 270L342 270L342 249L342 228Z" id="a1LtVgXpDQ"></path><path d="M340.86 226.77L590.86 226.77L840.86 226.77L840.86 249.27L840.86 271.77L590.86 271.77L340.86 271.77L340.86 249.27L340.86 226.77ZM378.52 258.85C378.57 256.68 378.36 255.77 377.52 254.27C376.23 251.97 373.02 249.47 370.11 248.56C369.96 248.51 369.22 248.27 367.9 247.85C368.85 247.4 369.38 247.15 369.48 247.1C371.4 246.18 372.82 244.85 373.65 243.27C374.48 241.68 374.48 237.81 373.69 235.93C372.69 233.64 370.23 231.1 367.86 229.93C367.71 229.86 366.99 229.5 365.69 228.85C358.87 228.85 355.07 228.85 354.32 228.85C347.02 228.85 342.94 229.02 342.94 229.27C342.94 229.52 343.4 229.68 343.98 229.68C344.52 229.68 345.65 230.27 346.48 230.97C346.58 231.06 347.07 231.49 347.94 232.27C347.94 242.34 347.94 247.94 347.94 249.06C347.94 267.97 348.11 267.06 344.65 268.64C343.69 269.06 342.94 269.56 342.94 269.77C342.94 269.93 348.9 270.1 356.19 270.1C367.11 270.1 369.82 269.97 371.36 269.43C375.73 267.97 378.48 263.89 378.52 258.85ZM399.61 269.27C397.86 269.27 395.61 268.27 395.07 267.27C394.77 266.72 394.61 263.06 394.61 257.43C394.61 256.83 394.61 253.83 394.61 248.43C395.68 248.43 396.28 248.43 396.4 248.43C398.48 248.43 401.11 249.6 402.48 251.1C403.07 251.68 405.19 255.6 407.27 259.77C410.57 266.35 411.32 267.56 412.86 268.77C413.9 269.52 415.15 270.1 415.77 270.1C416.86 270.06 416.86 270.02 415.4 269.27C412.77 267.89 410.32 264.64 407.11 258.35C405.44 255.06 403.69 251.89 403.27 251.22C402.52 250.18 402.52 250.1 403.19 250.1C404.44 250.1 406.9 253.18 410.27 259.1C412.52 263.02 414.36 265.68 416.11 267.47C416.28 267.65 417.14 268.52 418.69 270.1C420.52 270.07 421.53 270.06 421.73 270.06C424.65 269.97 424.69 269.97 422.69 269.72C421.57 269.6 420.11 269.14 419.52 268.77C418.19 267.89 416.23 264.85 413.32 259.31C410.73 254.31 407.9 250.97 405.11 249.6C404.98 249.54 404.32 249.22 403.15 248.64C405.15 248.49 406.26 248.41 406.48 248.39C412.4 247.93 415.23 246.68 416.65 243.93C417.9 241.47 418.11 239.6 417.36 237.1C416.15 232.85 411.52 229.68 405.19 228.77C401.44 228.22 382.11 228.68 382.11 229.31C382.11 229.52 382.57 229.68 383.15 229.68C384.52 229.68 386.52 230.72 386.86 231.56C386.98 231.93 387.11 239.93 387.11 249.27C387.11 250.4 387.11 256.08 387.11 266.31C386.43 266.96 386.06 267.32 385.98 267.39C385.32 267.97 384.19 268.64 383.48 268.89C380.57 269.85 382.32 270.1 391.48 270.1C397.44 270.1 400.86 269.93 400.86 269.68C400.86 269.47 400.27 269.27 399.61 269.27ZM467.19 259.43C470.36 253.6 470.36 245.68 467.27 239.56C465.52 236.18 461.15 232.06 457.27 230.22C454.23 228.77 453.65 228.64 449.52 228.52C445.9 228.39 444.52 228.52 442.23 229.18C434.44 231.56 428.61 238.47 427.48 246.6C427.07 249.43 427.11 250.47 427.69 253.47C428.65 258.02 429.98 260.47 433.57 264.1C436.48 267.06 438.73 268.52 441.9 269.52C444.19 270.22 452.65 270.22 455.02 269.52C459.57 268.1 464.94 263.68 467.19 259.43ZM484.65 269.1C482.48 268.77 479.65 266.56 478.36 264.27C478.29 264.14 477.94 263.52 477.32 262.39C477.24 254.04 477.2 249.4 477.19 248.47C477.11 240.35 477.19 234.64 477.44 234.72C477.65 234.81 481.27 238.64 485.48 243.22C489.69 247.81 493.77 252.22 494.52 253.02C495.27 253.81 499.11 257.97 503.07 262.27C508.27 267.97 510.48 270.1 511.19 270.1C511.25 270.1 511.56 270.1 512.11 270.1C512.11 260.17 512.11 254.66 512.11 253.56C512.11 243.27 512.27 236.39 512.57 235.39C513.15 233.31 515.23 230.97 517.44 230.02C518.4 229.6 519.19 229.14 519.19 229.06C519.19 228.93 515.23 228.85 510.4 228.85C504.69 228.85 501.73 228.97 501.9 229.27C502.02 229.52 502.57 229.68 503.07 229.68C504.48 229.68 508.11 231.97 509.57 233.72C510.27 234.6 510.86 235.1 510.86 234.89C510.86 234.14 509.23 232.02 507.86 230.85C507.77 230.77 507.31 230.4 506.48 229.72L509.94 229.68L513.4 229.68C512.97 230.48 512.74 230.93 512.69 231.02C511.36 233.6 511.23 235.02 511.27 247.81C511.28 248.67 511.29 252.97 511.32 260.72C510.24 259.52 509.64 258.86 509.52 258.72C508.52 257.64 501.94 250.47 494.82 242.81C493.95 241.88 489.65 237.24 481.9 228.89C478.07 228.89 475.95 228.89 475.52 228.89C471.36 228.85 469.23 228.97 469.4 229.27C469.52 229.52 469.98 229.68 470.36 229.68C471.57 229.68 475.36 231.64 475.82 232.56C476.11 233.1 476.27 238.35 476.27 248.1C476.27 261.56 476.19 262.93 475.48 264.47C474.44 266.68 473.19 267.97 470.98 268.93C470.02 269.35 469.19 269.81 469.19 269.89C469.19 270.02 473.02 270.1 477.73 270.1C482.44 270.1 486.27 269.93 486.27 269.72C486.27 269.52 485.52 269.27 484.65 269.1ZM558.15 259.43C558.69 257.97 559.02 256.77 558.82 256.77C558.65 256.77 556.73 258.52 554.57 260.64C550.27 264.89 547.02 267.06 543.07 268.39C540.82 269.14 539.48 269.27 533.36 269.27C529.48 269.27 526.27 269.18 526.27 269.06C526.27 268.93 530.36 263.27 535.32 256.43C540.27 249.64 546.32 241.35 548.69 238.02C551.11 234.68 553.61 231.27 554.27 230.39C554.36 230.29 554.77 229.77 555.52 228.85L538.27 228.93L521.07 229.06C520.89 230.58 520.79 231.43 520.77 231.6C520.57 232.97 520.11 235.47 519.69 237.1C518.77 240.6 519.23 241.02 520.98 238.27C522.57 235.77 526.52 232.14 529.02 230.89C530.94 229.97 531.61 229.89 538.73 229.77C539.24 229.76 541.8 229.72 546.4 229.64C545.95 230.32 545.7 230.69 545.65 230.77C545.23 231.43 538.73 240.43 531.19 250.77C523.69 261.14 517.52 269.72 517.52 269.85C517.52 269.97 526.15 270.1 536.69 270.1C537.97 270.1 544.36 270.1 555.86 270.1L555.86 268.89C556.61 264.67 557.37 261.52 558.15 259.43ZM599.32 260.18C599.86 258.52 600.19 257.1 600.11 256.97C599.98 256.85 598.98 257.81 597.86 259.06C595.32 261.89 589.61 265.77 585.19 267.6C582.52 268.72 581.32 268.97 578.86 269.02C575.86 269.06 575.77 269.02 574.36 267.52C574.26 267.41 573.79 266.88 572.94 265.93L572.94 257.18L572.94 248.43C575.39 248.43 576.75 248.43 577.02 248.43C580.07 248.43 581.48 248.64 582.77 249.22C585.44 250.43 587.52 253.77 587.52 256.81C587.52 257.47 587.73 258.02 587.94 258.02C588.19 258.02 588.36 254.6 588.36 248.64C588.36 239.89 587.98 237.02 587.36 240.93C586.73 244.77 582.57 247.27 576.69 247.35C576.45 247.35 575.27 247.37 573.15 247.39C573.07 243.14 573.03 240.78 573.02 240.31C572.98 236.43 573.02 232.81 573.15 232.27C573.52 230.72 575.69 229.68 578.57 229.68C585.11 229.68 592.15 233.18 594.69 237.64C596.02 240.02 596.44 239.68 596.15 236.47C595.98 234.89 595.86 232.56 595.86 231.27C595.86 231.11 595.86 230.3 595.86 228.85C585.33 228.85 579.48 228.85 578.32 228.85C562.4 228.85 558.77 229.06 562.52 229.85C563.23 229.97 564.27 230.56 564.82 231.1C564.88 231.17 565.23 231.52 565.86 232.14C565.86 242.22 565.86 247.81 565.86 248.93C565.86 268.1 566.07 267.02 562.27 268.68C561.02 269.22 560.02 269.77 560.02 269.89C560.02 270.02 568.36 270.1 578.48 270.1C579.72 270.1 585.88 270.1 596.98 270.1L597.65 266.64C598.4 263.45 598.95 261.29 599.32 260.18ZM668.23 257.72C668.69 256.52 667.11 257.31 665.86 258.85C664.19 260.97 658.9 264.93 655.44 266.64C650.15 269.31 644.48 269.97 642.48 268.18C640.52 266.47 640.44 265.68 640.44 249.1C640.44 239.97 640.61 233.06 640.86 232.43C641.36 231.06 643.61 229.68 645.36 229.68C646.07 229.68 646.69 229.52 646.69 229.27C646.69 229.02 643.36 228.85 637.48 228.85C631.48 228.85 628.4 228.97 628.57 229.27C628.69 229.52 629.02 229.68 629.27 229.68C630.32 229.68 632.44 231.06 632.9 232.02C633.23 232.72 633.36 238.1 633.36 249.47C633.36 250.57 633.36 256.02 633.36 265.85C632.73 266.6 632.38 267.02 632.32 267.1C631.73 267.77 630.52 268.64 629.61 269.02C628.69 269.39 627.94 269.77 627.94 269.89C627.94 270.02 636.27 270.1 646.44 270.1C647.67 270.1 653.84 270.1 664.94 270.1L665.23 268.14C666.62 262.81 667.62 259.34 668.23 257.72ZM708.82 260.43C710.11 256.6 709.82 256.35 707.44 259.06C704.82 261.97 699.27 265.72 694.73 267.6C692.11 268.72 690.9 268.97 688.44 269.02C685.44 269.06 685.36 269.02 683.94 267.52C683.85 267.41 683.37 266.88 682.52 265.93L682.52 257.18L682.52 248.43C684.97 248.43 686.33 248.43 686.61 248.43C689.65 248.43 691.07 248.64 692.36 249.22C695.02 250.43 697.11 253.77 697.11 256.81C697.11 257.47 697.32 258.02 697.52 258.02C697.77 258.02 697.94 254.6 697.94 248.64C697.94 242.68 697.77 239.27 697.52 239.27C697.32 239.27 697.11 239.72 697.11 240.31C697.11 242.68 695.19 244.93 691.9 246.39C690.32 247.1 688.98 247.31 686.27 247.35C686.04 247.35 684.86 247.37 682.73 247.39C682.66 243.14 682.62 240.78 682.61 240.31C682.57 236.43 682.61 232.81 682.73 232.31C683.11 230.81 685.44 229.68 688.23 229.68C694.77 229.68 702.32 233.47 704.4 237.81C705.52 240.27 706.02 239.64 705.69 236.06C705.57 234.31 705.44 231.97 705.44 230.85C705.44 230.72 705.44 230.05 705.44 228.85C694.92 228.85 689.07 228.85 687.9 228.85C672.11 228.85 668.36 229.06 672.02 229.81C672.65 229.93 673.69 230.43 674.32 230.93C674.39 230.99 674.77 231.28 675.44 231.81L675.44 249.02L675.44 266.22C674.89 266.75 674.58 267.04 674.52 267.1C673.98 267.56 672.69 268.35 671.61 268.81C670.48 269.27 669.61 269.77 669.61 269.89C669.61 270.02 677.9 270.1 688.07 270.1C689.3 270.1 695.45 270.1 706.52 270.1L707.27 266.47C708 263.31 708.51 261.29 708.82 260.43ZM741.98 250.77C743.65 247.1 744.98 244.06 744.9 244.02C744.82 243.93 742.82 247.89 740.4 252.81C738.02 257.72 735.98 261.77 735.86 261.77C735.57 261.77 727.32 243.6 725.57 239.14C724.27 235.72 724.15 235.18 724.57 233.81C725.11 232.02 727.11 230.18 728.86 229.81C732.15 229.14 729.61 228.85 720.9 228.85C715.61 228.85 711.27 228.97 711.27 229.18C711.27 229.35 711.86 229.77 712.57 230.1C713.27 230.47 714.4 231.52 715.07 232.43C715.98 233.68 729.07 262.56 731.69 269.18C732.48 271.06 733.23 270.1 736.07 263.77C737.65 260.27 740.27 254.39 741.98 250.77ZM796.52 260.93C797.07 259.22 797.52 257.56 797.52 257.27C797.52 256.93 796.36 257.89 794.94 259.39C791.86 262.56 787.44 265.52 782.77 267.52C777.07 269.97 772.32 269.52 770.9 266.43C770.61 265.85 770.44 262.14 770.44 256.97C770.44 256.41 770.44 253.56 770.44 248.43C772.82 248.43 774.13 248.43 774.4 248.43C778.48 248.43 780.65 248.97 782.23 250.43C783.44 251.47 784.61 254.02 784.9 256.14C785.48 260.43 785.86 257.43 785.86 248.64C785.86 242.68 785.69 239.27 785.44 239.27C785.23 239.27 785.02 239.64 785.02 240.1C785.02 240.6 784.65 241.72 784.19 242.64C782.57 245.77 777.86 247.81 772.86 247.52C772.71 247.51 771.97 247.47 770.65 247.39C770.57 242.94 770.53 240.47 770.52 239.97C770.48 235.39 770.61 232.27 770.86 231.77C771.73 230.14 773.65 229.56 777.27 229.81C783.48 230.22 788.94 232.93 791.61 236.97C792.4 238.14 793.19 239.14 793.4 239.22C793.82 239.35 793.57 232.02 793.11 229.77C793.1 229.71 793.04 229.4 792.94 228.85C782.54 228.85 776.76 228.85 775.61 228.85C760.02 228.85 756.27 229.06 759.94 229.81C760.57 229.93 761.61 230.52 762.23 231.1C762.31 231.17 762.68 231.52 763.36 232.14L763.36 249.06L763.36 266.02C762.66 266.72 762.27 267.11 762.19 267.18C761.52 267.81 760.23 268.6 759.27 268.89C758.32 269.18 757.52 269.56 757.52 269.77C757.52 269.93 765.82 270.1 775.98 270.1C777.21 270.1 783.37 270.1 794.44 270.1L794.98 267.1C795.65 264.13 796.16 262.07 796.52 260.93ZM838.02 260.97C839.4 256.85 839.36 257.18 838.61 257.18C838.27 257.18 837.44 257.93 836.69 258.85C835.02 260.97 829.73 264.93 826.27 266.64C820.98 269.31 815.32 269.97 813.32 268.18C811.36 266.47 811.27 265.68 811.27 249.1C811.27 239.97 811.44 233.06 811.69 232.43C812.19 231.06 814.44 229.68 816.15 229.68C816.86 229.68 817.61 229.52 817.73 229.27C817.9 228.97 814.73 228.85 808.57 228.85C799.77 228.85 797.52 229.14 800.86 229.89C801.52 230.06 802.57 230.72 803.15 231.43C803.22 231.52 803.57 231.93 804.19 232.68L804.19 249.27L804.19 265.85C803.57 266.62 803.22 267.06 803.15 267.14C802.57 267.81 801.44 268.6 800.65 268.85C799.86 269.1 799.19 269.52 799.19 269.72C799.19 269.93 806.57 270.1 817.44 270.1C818.66 270.1 824.74 270.1 835.69 270.1L836.27 267.31C837 264.36 837.58 262.25 838.02 260.97ZM754.82 229.93C755.61 229.56 756.27 229.14 756.27 229.06C756.27 228.93 753.19 228.85 749.4 228.85C745.11 228.85 742.52 229.02 742.52 229.27C742.52 229.52 742.94 229.68 743.48 229.68C745.57 229.68 747.52 232.27 747.52 235.06C747.52 235.77 746.98 237.85 746.27 239.77C745.61 241.64 745.02 243.27 745.07 243.39C745.07 243.52 745.98 241.77 747.07 239.47C748.36 236.77 749.82 234.47 751.19 232.97C752.4 231.68 754.02 230.31 754.82 229.93Z" id="a2VmSpeOXu"></path><path d="M355.9 267.77C355.07 266.72 355.02 266.1 355.02 257.56C355.02 256.95 355.02 253.91 355.02 248.43C357.65 248.43 359.11 248.43 359.4 248.43C364.69 248.43 365.9 248.85 368.27 251.56C372.52 256.39 372.07 264.39 367.36 268.18C366.02 269.27 365.48 269.43 362.65 269.52C360.86 269.6 358.82 269.47 358.07 269.27C357.36 269.02 356.36 268.35 355.9 267.77Z" id="l7ljW3yzh3"></path><path d="M348.77 266.31C348.77 256.51 348.77 251.06 348.77 249.97C348.77 237.43 348.9 233.47 349.32 233.06C349.73 232.64 349.48 232.27 348.15 231.1C348.04 231.01 347.48 230.53 346.48 229.68L350.86 229.68L355.23 229.68C354.48 230.31 354.07 230.66 353.98 230.72C353.32 231.27 352.61 231.72 352.44 231.77C352.23 231.77 352.11 239.6 352.11 249.14C352.11 250.3 352.11 256.09 352.11 266.52L353.44 267.89L354.77 269.27L350.48 269.27L346.19 269.27L347.48 267.81L348.77 266.31Z" id="b2BOTuyz31"></path><path d="M371.9 259.68C371.86 255.68 370.98 253.27 368.57 250.68C367.07 249.1 367.36 248.93 369.82 250.06C371.77 250.93 374.32 253.35 375.27 255.18C376.32 257.18 376.52 260.64 375.69 262.77C374.48 265.93 370.52 269.27 367.98 269.27C367.19 269.27 367.27 269.1 368.57 267.93C371.11 265.72 371.9 263.77 371.9 259.68Z" id="b32QuqBlC9"></path><path d="M364.73 246.6C366.57 245.39 367.94 242.52 367.94 239.89C367.94 236.22 366.94 233.72 364.48 231.31C364.34 231.16 363.62 230.44 362.32 229.14C363.42 229.32 364.03 229.41 364.15 229.43C367.19 229.89 369.36 231.72 371.11 235.31C373.69 240.64 370.9 246.39 364.98 247.77C364.4 247.89 363.77 247.89 363.65 247.77C363.52 247.6 363.98 247.1 364.73 246.6Z" id="b1PiPW8yhA"></path><path d="M355.02 239.43C355.02 238.93 355.02 236.4 355.02 231.85C355.8 231.2 356.23 230.84 356.32 230.77C359.52 228.06 364.48 230.47 366.48 235.68C368.02 239.68 366.61 245.1 363.65 246.64C362.23 247.39 355.9 247.93 355.36 247.35C355.15 247.18 355.02 243.64 355.02 239.43Z" id="b6diAuq6Nl"></path><path d="M387.94 267.14C387.94 257.04 387.94 251.43 387.94 250.31C387.94 235.68 388.02 233.47 388.57 233.02C389.15 232.52 389.07 232.31 387.86 231.06C387.77 230.97 387.32 230.51 386.52 229.68L390.48 229.68L394.4 229.68L393.07 230.77L391.69 231.81L391.69 248.97L391.69 266.14L392.98 267.72L394.23 269.27L389.73 269.27L385.23 269.27L386.61 268.18L387.94 267.14Z" id="e7bsIAJ25"></path><path d="M395.57 231.14C397.36 229.06 402.36 228.81 405.65 230.64C406.57 231.14 407.86 232.35 408.52 233.31C409.61 234.85 409.77 235.52 409.94 238.52C410.07 241.56 409.98 242.18 409.11 243.81C407.57 246.68 405.9 247.35 399.73 247.52C399.39 247.53 397.68 247.58 394.61 247.68L394.61 239.93C394.63 234.77 394.95 231.84 395.57 231.14Z" id="a1h8VfJxV"></path><path d="M410.82 240.06C410.98 236.06 410.23 233.64 408.15 231.56C408.06 231.47 407.6 231.01 406.77 230.18C407.62 230.46 408.1 230.61 408.19 230.64C410.19 231.27 412.9 233.68 413.82 235.68C415.86 240.14 413.65 245.47 409.32 246.72C409.23 246.75 408.8 246.87 408.02 247.1L409.32 245.22C410.2 243.72 410.7 242 410.82 240.06Z" id="acxnpr9tQ"></path><path d="M436.19 259.81C435.32 257.27 435.23 256.18 435.23 249.27C435.23 242.35 435.32 241.27 436.19 238.64C437.4 234.93 439.44 232.14 441.98 230.64C443.86 229.56 444.27 229.47 448.65 229.47C448.96 229.47 450.5 229.47 453.27 229.47C454.75 230.47 455.57 231.03 455.73 231.14C460.07 234.14 462.11 239.81 462.11 249.06C462.11 257.97 460.82 262.64 457.32 266.18C455.73 267.85 454.69 268.52 452.98 269.02C450.23 269.81 446.73 269.85 444.19 269.06C440.48 267.89 437.9 264.89 436.19 259.81Z" id="a3MIbN8sjb"></path><path d="M429.23 255.81C426.69 247.81 428.44 240.81 434.4 234.81C436.07 233.14 437.65 231.77 437.86 231.77C438.11 231.77 437.4 232.97 436.32 234.43C433.11 238.64 431.69 243.39 431.69 249.68C431.69 255.27 433.44 260.56 436.73 265.02C437.65 266.18 438.32 267.18 438.27 267.18C438.19 267.18 437.65 266.89 437.11 266.47C433.73 264.22 430.57 259.93 429.23 255.81Z" id="aewHrabJQ"></path><path d="M462.94 249.27C462.94 241.6 461.57 236.43 458.48 232.68C458.38 232.56 457.88 231.95 456.98 230.85C457.71 231.22 458.11 231.43 458.19 231.47C459.98 232.39 463.11 235.89 464.36 238.35C466.86 243.31 467.44 251.02 465.73 256.47C464.57 260.14 462.27 263.72 459.82 265.72C457.52 267.6 457.19 267.56 458.73 265.64C461.52 262.1 462.94 256.68 462.94 249.27Z" id="acbTDwTr"></path><path d="M478.19 234.18C477.89 233.88 476.39 232.38 473.69 229.68L476.15 229.68L478.57 229.68C481.22 232.38 482.69 233.88 482.98 234.18C488.07 239.35 494.07 245.85 504.15 257.06C504.63 257.59 507.02 260.27 511.32 265.1L511.19 267.39L511.07 269.72L504.19 262.1C490.13 246.77 481.47 237.46 478.19 234.18Z" id="bWdAkQi4G"></path><path d="M476.07 265.47C476.23 265.02 476.44 264.68 476.61 264.68C476.9 264.68 478.36 268.35 478.36 269.02C478.36 269.14 477.15 269.27 475.65 269.27C475.47 269.27 474.55 269.27 472.9 269.27L474.36 267.77C475.41 266.52 475.98 265.75 476.07 265.47Z" id="b9TBpph2P"></path><path d="M528.98 254.89C535.61 245.6 542.94 235.68 546.48 231.27C547.57 229.89 547.94 229.68 549.52 229.68C550.52 229.68 551.27 229.85 551.19 230.06C551.15 230.22 544.69 239.14 536.94 249.85C536 251.14 531.29 257.62 522.82 269.27L520.77 269.27L518.69 269.27L520.15 267.31C523.32 262.86 526.26 258.72 528.98 254.89Z" id="bo1FdJQAK"></path><path d="M554.11 262.43C554.23 262.32 554.82 261.77 555.9 260.77C555.22 262.52 554.85 263.49 554.77 263.68C554.19 265.27 553.48 267.18 553.23 267.93C553.2 268.02 553.07 268.47 552.82 269.27L548.4 269.27L543.98 269.27L546.07 268.1C550.04 265.6 552.72 263.71 554.11 262.43Z" id="a3Vmdtody"></path><path d="M522.52 232.43C522.58 232.25 522.87 231.33 523.4 229.68L526.36 229.68L529.36 229.68C528.18 230.43 527.53 230.85 527.4 230.93C526.32 231.6 524.61 232.93 523.57 233.89C522.52 234.85 521.69 235.52 521.69 235.39C521.69 235.27 522.07 233.93 522.52 232.43Z" id="a6that8dF"></path><path d="M566.69 265.93C566.69 256.31 566.69 250.96 566.69 249.89C566.69 237.89 566.82 233.64 567.19 233.02C567.65 232.31 567.52 232.06 566.27 230.97C566.18 230.89 565.69 230.47 564.82 229.72C567.39 229.7 568.82 229.69 569.11 229.68C571.44 229.68 573.36 229.77 573.36 229.89C573.36 230.02 572.61 230.6 571.69 231.18C571.58 231.26 571.01 231.63 569.98 232.31L570.11 249.39L570.23 266.43L571.86 267.85L573.48 269.27L568.61 269.27L563.69 269.27L565.19 267.6L566.69 265.93Z" id="f5XAGOYJP"></path><path d="M586.52 267.85C589.98 266.43 593.94 264.06 595.9 262.31C597.77 260.6 597.86 260.68 596.57 263.1C596.07 264.1 595.19 265.89 594.69 267.1C594.63 267.24 594.31 267.97 593.73 269.27C590.71 269.27 589.03 269.27 588.69 269.27C585.9 269.27 583.73 269.18 583.82 269.1C583.9 269.02 585.15 268.47 586.52 267.85Z" id="cDdkoFvKG"></path><path d="M582.32 247.93C582.11 247.72 585.15 245.52 585.65 245.52C585.77 245.52 585.86 246.47 585.86 247.6C585.86 249.89 585.52 250.1 583.65 248.89C583.02 248.47 582.44 248.06 582.32 247.93Z" id="h6kcdp8UZV"></path><path d="M588.36 231.14C588.18 231.04 587.27 230.56 585.65 229.68L589.36 229.77L593.11 229.89C593.43 231.14 593.61 231.84 593.65 231.97C594.52 235.31 594.23 235.81 592.52 234.1C591.73 233.27 589.86 231.97 588.36 231.14Z" id="b2FadyqnCY"></path><path d="M634.19 266.68C634.19 257.01 634.19 251.63 634.19 250.56C634.19 236.18 634.27 234.35 634.9 233.47C635.57 232.47 635.57 232.43 633.94 231.06C633.83 230.97 633.29 230.51 632.32 229.68L636.4 229.68L640.52 229.68L639.23 230.77L637.94 231.85L637.94 249.1L637.94 266.31L639.23 267.81L640.52 269.27L636.27 269.27L632.02 269.27L633.11 267.97L634.19 266.68Z" id="agO2O5AjO"></path><path d="M661.65 264.06C664.15 262.27 664.11 262.14 662.44 266.68C662.38 266.86 662.06 267.72 661.48 269.27L656.69 269.27L651.9 269.22L655.65 267.43C658.82 265.77 660.82 264.64 661.65 264.06Z" id="d36vLZDsR3"></path><path d="M675.82 266.47C676.15 265.85 676.27 260.68 676.27 249.72C676.27 237.85 676.4 233.64 676.77 233.02C677.23 232.31 677.11 232.06 675.86 230.97C675.76 230.89 675.27 230.47 674.4 229.72C676.97 229.7 678.4 229.69 678.69 229.68C681.02 229.68 682.94 229.77 682.94 229.89C682.94 230.02 682.19 230.6 681.27 231.18C681.16 231.26 680.61 231.63 679.61 232.31C679.61 242.16 679.61 247.63 679.61 248.72C679.61 266.6 679.61 266.6 681.98 268.39C682.06 268.45 682.45 268.72 683.15 269.22L678.15 269.22L673.15 269.22L674.23 268.31C675.12 267.42 675.65 266.81 675.82 266.47Z" id="b1oLvkaUAG"></path><path d="M695.82 268.02C699.02 266.77 703.65 263.97 705.73 262.06C705.85 261.95 706.45 261.39 707.52 260.39L705.44 264.72L703.4 269.06C700.32 269.13 698.62 269.17 698.27 269.18C695.48 269.22 693.27 269.22 693.4 269.1C693.48 269.02 694.57 268.52 695.82 268.02Z" id="e1lJIEYHE5"></path><path d="M691.9 247.93C691.77 247.81 692.4 247.22 693.32 246.64C694.19 246.06 695.07 245.68 695.19 245.81C695.32 245.97 695.44 246.89 695.44 247.89C695.44 249.89 695.07 250.06 693.23 248.89C692.61 248.47 692.02 248.06 691.9 247.93Z" id="d5FbnEJAh"></path><path d="M697.98 231.18C697.8 231.08 696.88 230.58 695.23 229.68L698.94 229.81L702.69 229.89C703.12 231.59 703.35 232.54 703.4 232.72C703.77 234.27 703.98 235.52 703.82 235.52C703.69 235.52 702.94 234.85 702.15 234.06C701.36 233.27 699.48 231.97 697.98 231.18Z" id="j4KWjTuxG"></path><path d="M726.9 256.14C717.02 233.56 716.69 232.89 714.9 231.06C714.81 230.97 714.38 230.51 713.61 229.68L719.11 229.68L724.61 229.68C723.73 230.83 723.25 231.47 723.15 231.6C720.32 235.27 721.07 238.18 728.57 252.81C734.36 264.06 734.57 264.72 733.48 267.22C733.43 267.35 733.15 267.96 732.65 269.06L731.52 266.56C729.72 262.53 728.18 259.06 726.9 256.14Z" id="a1WoOcWjJD"></path><path d="M764.19 265.93C764.19 256.31 764.19 250.96 764.19 249.89C764.19 238.43 764.32 233.6 764.69 233.06C765.07 232.39 764.94 232.1 763.73 231.02C763.64 230.93 763.17 230.5 762.32 229.72C764.89 229.7 766.32 229.69 766.61 229.68C768.94 229.68 770.86 229.77 770.86 229.89C770.86 230.02 770.11 230.56 769.19 231.14C769.08 231.21 768.52 231.56 767.52 232.18L767.52 249.14L767.52 266.06L769.19 267.68L770.9 269.27L766.02 269.27L761.19 269.27L762.69 267.6L764.19 265.93Z" id="abdTxh5Xxu"></path><path d="M793.9 261.85C794.94 260.85 794.9 261.06 793.07 265.02C792.93 265.3 792.28 266.72 791.11 269.27C788.08 269.24 786.4 269.23 786.07 269.22C782.02 269.22 781.27 269.1 782.11 268.77C787.44 266.39 791.61 263.93 793.9 261.85Z" id="aG1te2rpx"></path><path d="M780.61 248.52C780.51 248.47 780.04 248.23 779.19 247.81L781.07 246.68L782.94 245.52C782.94 246.89 782.94 247.66 782.94 247.81C782.94 250.1 782.82 250.47 782.32 249.68C782.19 249.43 781.4 248.93 780.61 248.52Z" id="altUtmj4i"></path><path d="M785.86 231.14C785.68 231.04 784.77 230.56 783.15 229.68L786.86 229.77L790.57 229.89C790.92 231.37 791.11 232.19 791.15 232.35C791.44 233.72 791.65 235.02 791.61 235.18C791.52 235.39 790.82 234.89 790.02 234.06C789.23 233.27 787.36 231.97 785.86 231.14Z" id="a1fAg9kUwQ"></path><path d="M805.02 266.68C805.02 256.93 805.02 251.52 805.02 250.43C805.02 235.47 805.07 234.06 805.73 233.31C806.44 232.56 806.44 232.47 804.82 231.1C804.7 231.01 804.15 230.53 803.15 229.68L807.23 229.68L811.36 229.68L810.07 230.77L808.77 231.85L808.77 249.1L808.77 266.31L810.07 267.81L811.36 269.27L807.11 269.27L802.86 269.27L803.94 267.97L805.02 266.68Z" id="b5VJ3qzZjd"></path><path d="M832.11 264.27C834.98 262.31 834.94 262.18 833.27 266.68C833.21 266.86 832.89 267.72 832.32 269.27L827.52 269.22L822.73 269.22L826.11 267.64C829.16 266.03 831.16 264.91 832.11 264.27Z" id="a18zXxW2Qz"></path><path d="M746.36 229.68L748.61 229.68L750.86 229.68C750.56 230.38 750.39 230.77 750.36 230.85C750.07 231.47 749.57 232.47 749.19 233.06C749.15 233.13 748.94 233.49 748.57 234.14L747.44 231.93L746.36 229.68Z" id="cMLLZ0MXW"></path></defs><g><g><g><use xlink:href="#b1Mqki4LDv" opacity="1" fill="#ffffff" fill-opacity="1"></use></g><g><use xlink:href="#b1YoPg5cFR" opacity="1" fill="#cd7f32" fill-opacity="1"></use><g><use xlink:href="#b1YoPg5cFR" opacity="1" fill-opacity="0" stroke="#000000" stroke-width="1" stroke-opacity="0"></use></g></g><g><use xlink:href="#ct0pffgv7" opacity="1" fill="#000000" fill-opacity="0"></use><g><use xlink:href="#ct0pffgv7" opacity="1" fill-opacity="0" stroke="#000000" stroke-width="6" stroke-opacity="1"></use></g></g><g><use xlink:href="#au3BgDUsI" opacity="1" fill="#000000" fill-opacity="1"></use><g><use xlink:href="#au3BgDUsI" opacity="1" fill-opacity="0" stroke="#000000" stroke-width="1" stroke-opacity="0"></use></g></g><g><use xlink:href="#aPyOLOqkV" opacity="1" fill="#1f7544" fill-opacity="1"></use><g><use xlink:href="#aPyOLOqkV" opacity="1" fill-opacity="0" stroke="#000000" stroke-width="1" stroke-opacity="0"></use></g></g><g><use xlink:href="#bvrBXNkSD" opacity="1" fill="#000000" fill-opacity="0"></use><g><use xlink:href="#bvrBXNkSD" opacity="1" fill-opacity="0" stroke="#000000" stroke-width="1" stroke-opacity="0"></use></g></g><g><use xlink:href="#grkoIyBql" opacity="1" fill="#f7c404" fill-opacity="1"></use><g><use xlink:href="#grkoIyBql" opacity="1" fill-opacity="0" stroke="#000000" stroke-width="1" stroke-opacity="0"></use></g></g><g><use xlink:href="#d43Bm2d4S" opacity="1" fill="#000000" fill-opacity="0"></use><g><use xlink:href="#d43Bm2d4S" opacity="1" fill-opacity="0" stroke="#000000" stroke-width="1" stroke-opacity="0"></use></g></g><g><use xlink:href="#b4RMXuiGoQ" opacity="1" fill="#f7c404" fill-opacity="1"></use><g><use xlink:href="#b4RMXuiGoQ" opacity="1" fill-opacity="0" stroke="#000000" stroke-width="1" stroke-opacity="0"></use></g></g><g><use xlink:href="#c2BqqHPNe7" opacity="1" fill="#000000" fill-opacity="0"></use><g><use xlink:href="#c2BqqHPNe7" opacity="1" fill-opacity="0" stroke="#000000" stroke-width="1" stroke-opacity="0"></use></g></g><g><use xlink:href="#c2EytMsFz5" opacity="1" fill="#f7c404" fill-opacity="1"></use><g><use xlink:href="#c2EytMsFz5" opacity="1" fill-opacity="0" stroke="#000000" stroke-width="1" stroke-opacity="0"></use></g></g><g><use xlink:href="#a1TiUvfSmi" opacity="1" fill="#000000" fill-opacity="0"></use><g><use xlink:href="#a1TiUvfSmi" opacity="1" fill-opacity="0" stroke="#000000" stroke-width="1" stroke-opacity="0"></use></g></g><g><use xlink:href="#b641qrAVS" opacity="1" fill="#6fc1cd" fill-opacity="1"></use><g><use xlink:href="#b641qrAVS" opacity="1" fill-opacity="0" stroke="#000000" stroke-width="1" stroke-opacity="0"></use></g></g><g><use xlink:href="#aiD43D8Fj" opacity="1" fill="#000000" fill-opacity="0"></use><g><use xlink:href="#aiD43D8Fj" opacity="1" fill-opacity="0" stroke="#000000" stroke-width="1" stroke-opacity="0"></use></g></g><g><use xlink:href="#a2VOHmsTKN" opacity="1" fill="#f4db4c" fill-opacity="1"></use><g><use xlink:href="#a2VOHmsTKN" opacity="1" fill-opacity="0" stroke="#000000" stroke-width="1" stroke-opacity="0"></use></g></g><g><use xlink:href="#c9yd2YyEjR" opacity="1" fill="#000000" fill-opacity="0"></use><g><use xlink:href="#c9yd2YyEjR" opacity="1" fill-opacity="0" stroke="#000000" stroke-width="1" stroke-opacity="0"></use></g></g><g><use xlink:href="#gps6c0NiD" opacity="1" fill="#f4db4c" fill-opacity="1"></use><g><use xlink:href="#gps6c0NiD" opacity="1" fill-opacity="0" stroke="#000000" stroke-width="1" stroke-opacity="0"></use></g></g><g><use xlink:href="#a57MPXwlSv" opacity="1" fill="#000000" fill-opacity="0"></use><g><use xlink:href="#a57MPXwlSv" opacity="1" fill-opacity="0" stroke="#000000" stroke-width="1" stroke-opacity="0"></use></g></g><g><use xlink:href="#aiD9xsH8e" opacity="1" fill="#f4db4c" fill-opacity="1"></use><g><use xlink:href="#aiD9xsH8e" opacity="1" fill-opacity="0" stroke="#000000" stroke-width="1" stroke-opacity="0"></use></g></g><g><use xlink:href="#b1g7bcYzv7" opacity="1" fill="#000000" fill-opacity="0"></use><g><use xlink:href="#b1g7bcYzv7" opacity="1" fill-opacity="0" stroke="#000000" stroke-width="1" stroke-opacity="0"></use></g></g><g><use xlink:href="#bLeh6cPDh" opacity="1" fill="#ffffff" fill-opacity="1"></use><g><use xlink:href="#bLeh6cPDh" opacity="1" fill-opacity="0" stroke="#000000" stroke-width="1" stroke-opacity="0"></use></g></g><g><use xlink:href="#eHGdkOzqL" opacity="1" fill="#000000" fill-opacity="0"></use><g><use xlink:href="#eHGdkOzqL" opacity="1" fill-opacity="0" stroke="#000000" stroke-width="1" stroke-opacity="0"></use></g></g><g><use xlink:href="#d2ej0MAZzC" opacity="1" fill="#ffffff" fill-opacity="1"></use><g><use xlink:href="#d2ej0MAZzC" opacity="1" fill-opacity="0" stroke="#000000" stroke-width="1" stroke-opacity="0"></use></g></g><g><use xlink:href="#alMSvZGOw" opacity="1" fill="#000000" fill-opacity="0"></use><g><use xlink:href="#alMSvZGOw" opacity="1" fill-opacity="0" stroke="#000000" stroke-width="1" stroke-opacity="0"></use></g></g><g><use xlink:href="#b26zwC7W2O" opacity="1" fill="#ffffff" fill-opacity="1"></use><g><use xlink:href="#b26zwC7W2O" opacity="1" fill-opacity="0" stroke="#000000" stroke-width="1" stroke-opacity="0"></use></g></g><g><use xlink:href="#e1HrzeQWFv" opacity="1" fill="#000000" fill-opacity="0"></use><g><use xlink:href="#e1HrzeQWFv" opacity="1" fill-opacity="0" stroke="#000000" stroke-width="1" stroke-opacity="0"></use></g></g><g><use xlink:href="#c64J62Jp5B" opacity="1" fill="#000000" fill-opacity="1"></use><g><use xlink:href="#c64J62Jp5B" opacity="1" fill-opacity="0" stroke="#000000" stroke-width="1" stroke-opacity="0"></use></g></g><g><use xlink:href="#fjEesoKPA" opacity="1" fill="#ffffff" fill-opacity="1"></use><g><use xlink:href="#fjEesoKPA" opacity="1" fill-opacity="0" stroke="#000000" stroke-width="1" stroke-opacity="0"></use></g></g><g><use xlink:href="#fOR0vvfGf" opacity="1" fill="#ffffff" fill-opacity="1"></use><g><use xlink:href="#fOR0vvfGf" opacity="1" fill-opacity="0" stroke="#000000" stroke-width="1" stroke-opacity="0"></use></g></g><g><use xlink:href="#cYWf0sA0I" opacity="1" fill="#ffffff" fill-opacity="1"></use><g><use xlink:href="#cYWf0sA0I" opacity="1" fill-opacity="0" stroke="#000000" stroke-width="1" stroke-opacity="0"></use></g></g><g><use xlink:href="#h96QA5tYg" opacity="1" fill="#ffffff" fill-opacity="1"></use><g><use xlink:href="#h96QA5tYg" opacity="1" fill-opacity="0" stroke="#000000" stroke-width="1" stroke-opacity="0"></use></g></g><g><use xlink:href="#b10nBJJ4L4" opacity="1" fill="#ffffff" fill-opacity="1"></use><g><use xlink:href="#b10nBJJ4L4" opacity="1" fill-opacity="0" stroke="#000000" stroke-width="1" stroke-opacity="0"></use></g></g><g><use xlink:href="#bzErsCcU" opacity="1" fill="#ffffff" fill-opacity="1"></use><g><use xlink:href="#bzErsCcU" opacity="1" fill-opacity="0" stroke="#000000" stroke-width="1" stroke-opacity="0"></use></g></g><g><use xlink:href="#a1LtVgXpDQ" opacity="1" fill="#cd7f32" fill-opacity="1"></use><g><use xlink:href="#a1LtVgXpDQ" opacity="1" fill-opacity="0" stroke="#000000" stroke-width="1" stroke-opacity="0"></use></g></g><g><use xlink:href="#a2VmSpeOXu" opacity="1" fill="#ffffff" fill-opacity="1"></use><g><use xlink:href="#a2VmSpeOXu" opacity="1" fill-opacity="0" stroke="#000000" stroke-width="1" stroke-opacity="0"></use></g></g><g><use xlink:href="#l7ljW3yzh3" opacity="1" fill="#ffffff" fill-opacity="1"></use><g><use xlink:href="#l7ljW3yzh3" opacity="1" fill-opacity="0" stroke="#000000" stroke-width="1" stroke-opacity="0"></use></g></g><g><use xlink:href="#b2BOTuyz31" opacity="1" fill="#ffffff" fill-opacity="1"></use><g><use xlink:href="#b2BOTuyz31" opacity="1" fill-opacity="0" stroke="#000000" stroke-width="1" stroke-opacity="0"></use></g></g><g><use xlink:href="#b32QuqBlC9" opacity="1" fill="#ffffff" fill-opacity="1"></use><g><use xlink:href="#b32QuqBlC9" opacity="1" fill-opacity="0" stroke="#000000" stroke-width="1" stroke-opacity="0"></use></g></g><g><use xlink:href="#b1PiPW8yhA" opacity="1" fill="#ffffff" fill-opacity="1"></use><g><use xlink:href="#b1PiPW8yhA" opacity="1" fill-opacity="0" stroke="#000000" stroke-width="1" stroke-opacity="0"></use></g></g><g><use xlink:href="#b6diAuq6Nl" opacity="1" fill="#ffffff" fill-opacity="1"></use><g><use xlink:href="#b6diAuq6Nl" opacity="1" fill-opacity="0" stroke="#000000" stroke-width="1" stroke-opacity="0"></use></g></g><g><use xlink:href="#e7bsIAJ25" opacity="1" fill="#ffffff" fill-opacity="1"></use><g><use xlink:href="#e7bsIAJ25" opacity="1" fill-opacity="0" stroke="#000000" stroke-width="1" stroke-opacity="0"></use></g></g><g><use xlink:href="#a1h8VfJxV" opacity="1" fill="#ffffff" fill-opacity="1"></use><g><use xlink:href="#a1h8VfJxV" opacity="1" fill-opacity="0" stroke="#000000" stroke-width="1" stroke-opacity="0"></use></g></g><g><use xlink:href="#acxnpr9tQ" opacity="1" fill="#ffffff" fill-opacity="1"></use><g><use xlink:href="#acxnpr9tQ" opacity="1" fill-opacity="0" stroke="#000000" stroke-width="1" stroke-opacity="0"></use></g></g><g><use xlink:href="#a3MIbN8sjb" opacity="1" fill="#ffffff" fill-opacity="1"></use><g><use xlink:href="#a3MIbN8sjb" opacity="1" fill-opacity="0" stroke="#000000" stroke-width="1" stroke-opacity="0"></use></g></g><g><use xlink:href="#aewHrabJQ" opacity="1" fill="#ffffff" fill-opacity="1"></use><g><use xlink:href="#aewHrabJQ" opacity="1" fill-opacity="0" stroke="#000000" stroke-width="1" stroke-opacity="0"></use></g></g><g><use xlink:href="#acbTDwTr" opacity="1" fill="#ffffff" fill-opacity="1"></use><g><use xlink:href="#acbTDwTr" opacity="1" fill-opacity="0" stroke="#000000" stroke-width="1" stroke-opacity="0"></use></g></g><g><use xlink:href="#bWdAkQi4G" opacity="1" fill="#ffffff" fill-opacity="1"></use><g><use xlink:href="#bWdAkQi4G" opacity="1" fill-opacity="0" stroke="#000000" stroke-width="1" stroke-opacity="0"></use></g></g><g><use xlink:href="#b9TBpph2P" opacity="1" fill="#ffffff" fill-opacity="1"></use><g><use xlink:href="#b9TBpph2P" opacity="1" fill-opacity="0" stroke="#000000" stroke-width="1" stroke-opacity="0"></use></g></g><g><use xlink:href="#bo1FdJQAK" opacity="1" fill="#ffffff" fill-opacity="1"></use><g><use xlink:href="#bo1FdJQAK" opacity="1" fill-opacity="0" stroke="#000000" stroke-width="1" stroke-opacity="0"></use></g></g><g><use xlink:href="#a3Vmdtody" opacity="1" fill="#ffffff" fill-opacity="1"></use><g><use xlink:href="#a3Vmdtody" opacity="1" fill-opacity="0" stroke="#000000" stroke-width="1" stroke-opacity="0"></use></g></g><g><use xlink:href="#a6that8dF" opacity="1" fill="#ffffff" fill-opacity="1"></use><g><use xlink:href="#a6that8dF" opacity="1" fill-opacity="0" stroke="#000000" stroke-width="1" stroke-opacity="0"></use></g></g><g><use xlink:href="#f5XAGOYJP" opacity="1" fill="#ffffff" fill-opacity="1"></use><g><use xlink:href="#f5XAGOYJP" opacity="1" fill-opacity="0" stroke="#000000" stroke-width="1" stroke-opacity="0"></use></g></g><g><use xlink:href="#cDdkoFvKG" opacity="1" fill="#ffffff" fill-opacity="1"></use><g><use xlink:href="#cDdkoFvKG" opacity="1" fill-opacity="0" stroke="#000000" stroke-width="1" stroke-opacity="0"></use></g></g><g><use xlink:href="#h6kcdp8UZV" opacity="1" fill="#ffffff" fill-opacity="1"></use><g><use xlink:href="#h6kcdp8UZV" opacity="1" fill-opacity="0" stroke="#000000" stroke-width="1" stroke-opacity="0"></use></g></g><g><use xlink:href="#b2FadyqnCY" opacity="1" fill="#ffffff" fill-opacity="1"></use><g><use xlink:href="#b2FadyqnCY" opacity="1" fill-opacity="0" stroke="#000000" stroke-width="1" stroke-opacity="0"></use></g></g><g><use xlink:href="#agO2O5AjO" opacity="1" fill="#ffffff" fill-opacity="1"></use><g><use xlink:href="#agO2O5AjO" opacity="1" fill-opacity="0" stroke="#000000" stroke-width="1" stroke-opacity="0"></use></g></g><g><use xlink:href="#d36vLZDsR3" opacity="1" fill="#ffffff" fill-opacity="1"></use><g><use xlink:href="#d36vLZDsR3" opacity="1" fill-opacity="0" stroke="#000000" stroke-width="1" stroke-opacity="0"></use></g></g><g><use xlink:href="#b1oLvkaUAG" opacity="1" fill="#ffffff" fill-opacity="1"></use><g><use xlink:href="#b1oLvkaUAG" opacity="1" fill-opacity="0" stroke="#000000" stroke-width="1" stroke-opacity="0"></use></g></g><g><use xlink:href="#e1lJIEYHE5" opacity="1" fill="#ffffff" fill-opacity="1"></use><g><use xlink:href="#e1lJIEYHE5" opacity="1" fill-opacity="0" stroke="#000000" stroke-width="1" stroke-opacity="0"></use></g></g><g><use xlink:href="#d5FbnEJAh" opacity="1" fill="#ffffff" fill-opacity="1"></use><g><use xlink:href="#d5FbnEJAh" opacity="1" fill-opacity="0" stroke="#000000" stroke-width="1" stroke-opacity="0"></use></g></g><g><use xlink:href="#j4KWjTuxG" opacity="1" fill="#ffffff" fill-opacity="1"></use><g><use xlink:href="#j4KWjTuxG" opacity="1" fill-opacity="0" stroke="#000000" stroke-width="1" stroke-opacity="0"></use></g></g><g><use xlink:href="#a1WoOcWjJD" opacity="1" fill="#ffffff" fill-opacity="1"></use><g><use xlink:href="#a1WoOcWjJD" opacity="1" fill-opacity="0" stroke="#000000" stroke-width="1" stroke-opacity="0"></use></g></g><g><use xlink:href="#abdTxh5Xxu" opacity="1" fill="#ffffff" fill-opacity="1"></use><g><use xlink:href="#abdTxh5Xxu" opacity="1" fill-opacity="0" stroke="#000000" stroke-width="1" stroke-opacity="0"></use></g></g><g><use xlink:href="#aG1te2rpx" opacity="1" fill="#ffffff" fill-opacity="1"></use><g><use xlink:href="#aG1te2rpx" opacity="1" fill-opacity="0" stroke="#000000" stroke-width="1" stroke-opacity="0"></use></g></g><g><use xlink:href="#altUtmj4i" opacity="1" fill="#ffffff" fill-opacity="1"></use><g><use xlink:href="#altUtmj4i" opacity="1" fill-opacity="0" stroke="#000000" stroke-width="1" stroke-opacity="0"></use></g></g><g><use xlink:href="#a1fAg9kUwQ" opacity="1" fill="#ffffff" fill-opacity="1"></use><g><use xlink:href="#a1fAg9kUwQ" opacity="1" fill-opacity="0" stroke="#000000" stroke-width="1" stroke-opacity="0"></use></g></g><g><use xlink:href="#b5VJ3qzZjd" opacity="1" fill="#ffffff" fill-opacity="1"></use><g><use xlink:href="#b5VJ3qzZjd" opacity="1" fill-opacity="0" stroke="#000000" stroke-width="1" stroke-opacity="0"></use></g></g><g><use xlink:href="#a18zXxW2Qz" opacity="1" fill="#ffffff" fill-opacity="1"></use><g><use xlink:href="#a18zXxW2Qz" opacity="1" fill-opacity="0" stroke="#000000" stroke-width="1" stroke-opacity="0"></use></g></g><g><use xlink:href="#cMLLZ0MXW" opacity="1" fill="#ffffff" fill-opacity="1"></use><g><use xlink:href="#cMLLZ0MXW" opacity="1" fill-opacity="0" stroke="#000000" stroke-width="1" stroke-opacity="0"></use></g></g></g></g></svg>