<?xml version="1.0" encoding="UTF-8" standalone="no"?>
<!DOCTYPE svg PUBLIC "-//W3C//DTD SVG 1.1//EN" "http://www.w3.org/Graphics/SVG/1.1/DTD/svg11.dtd">
<svg version="1.1" xmlns="http://www.w3.org/2000/svg" xmlns:xlink="http://www.w3.org/1999/xlink" preserveAspectRatio="xMidYMid meet" viewBox="0 0 888 320" width="300" height="108.11"><defs><path d="M0 0L888 0L888 320L0 320L0 0Z" id="brZEzrje7"></path><path d="M160 310C77.21 310 10 242.79 10 160C10 77.21 77.21 10 160 10C242.79 10 310 77.21 310 160C310 242.79 242.79 310 160 310Z" id="aO6zd2blC"></path><path d="M160 310C77.21 310 10 242.79 10 160C10 77.21 77.21 10 160 10C242.79 10 310 77.21 310 160C310 242.79 242.79 310 160 310Z" id="ct0pffgv7"></path><path d="M159 275.6C94.15 275.6 41.5 222.95 41.5 158.1C41.5 93.25 94.15 40.6 159 40.6C223.85 40.6 276.5 93.25 276.5 158.1C276.5 222.95 223.85 275.6 159 275.6Z" id="au3BgDUsI"></path><path d="M50.68 132.06C60.36 91.02 94.58 57.84 135.89 49.38C143.32 47.88 153.56 46.8 156.81 47.17C157.04 47.17 156.38 48.11 155.3 49.24C154.22 50.32 152.39 52.77 151.17 54.69C141.48 69.73 135.19 95.68 132.18 132.76C130.3 155.7 130.58 184.55 132.74 186.62C133.87 187.8 150.51 191.23 161.51 192.64C182.56 195.32 204.09 195.08 222.32 191.93C242.11 188.55 258.28 182.02 267.07 173.79C269.28 171.72 269.37 171.68 269.37 172.85C269.37 173.46 268.95 176.19 268.38 178.87C259.27 224.97 221.95 260.37 175.18 267.23C167.1 268.4 153.19 268.73 146.47 267.93C111.26 263.61 80.95 243.96 62.81 213.69C54.82 200.35 49.51 184.04 47.95 168.25C46.92 157.53 47.95 143.48 50.68 132.06Z" id="aPyOLOqkV"></path><path d="M50.68 132.06C60.36 91.02 94.58 57.84 135.89 49.38C143.32 47.88 153.56 46.8 156.81 47.17C157.04 47.17 156.38 48.11 155.3 49.24C154.22 50.32 152.39 52.77 151.17 54.69C141.48 69.73 135.19 95.68 132.18 132.76C130.3 155.7 130.58 184.55 132.74 186.62C133.87 187.8 150.51 191.23 161.51 192.64C182.56 195.32 204.09 195.08 222.32 191.93C242.11 188.55 258.28 182.02 267.07 173.79C269.28 171.72 269.37 171.68 269.37 172.85C269.37 173.46 268.95 176.19 268.38 178.87C259.27 224.97 221.95 260.37 175.18 267.23C167.1 268.4 153.19 268.73 146.47 267.93C111.26 263.61 80.95 243.96 62.81 213.69C54.82 200.35 49.51 184.04 47.95 168.25C46.92 157.53 47.95 143.48 50.68 132.06Z" id="bvrBXNkSD"></path><path d="M155.05 161.63C157.87 158.01 161.35 153.64 162.76 151.95C162.93 151.74 163.77 150.72 165.29 148.89C169.55 149.54 171.92 149.9 172.39 149.97C182.83 151.52 202.24 154.3 204.4 154.58C205.43 154.67 212.11 155.66 219.2 156.69C236.5 159.28 245.19 160.55 257.27 162.33C262.82 163.13 267.66 163.88 267.99 164.03C268.98 164.31 266.06 168.02 262.49 171.03C250.41 181.23 228.23 187.71 200.64 189.12C190.67 189.64 188.28 189.64 177.84 189.08C166.09 188.42 145.74 185.36 138.88 183.2C138.18 182.97 138.46 182.54 145.37 173.85C147.86 170.75 152.18 165.25 155.05 161.63Z" id="grkoIyBql"></path><path d="M155.05 161.63C157.87 158.01 161.35 153.64 162.76 151.95C162.93 151.74 163.77 150.72 165.29 148.89C169.55 149.54 171.92 149.9 172.39 149.97C182.83 151.52 202.24 154.3 204.4 154.58C205.43 154.67 212.11 155.66 219.2 156.69C236.5 159.28 245.19 160.55 257.27 162.33C262.82 163.13 267.66 163.88 267.99 164.03C268.98 164.31 266.06 168.02 262.49 171.03C250.41 181.23 228.23 187.71 200.64 189.12C190.67 189.64 188.28 189.64 177.84 189.08C166.09 188.42 145.74 185.36 138.88 183.2C138.18 182.97 138.46 182.54 145.37 173.85C147.86 170.75 152.18 165.25 155.05 161.63Z" id="d43Bm2d4S"></path><path d="M159.7 51.93C159.81 51.82 160.38 51.27 161.39 50.29C161.39 53.44 161.39 69.2 161.39 97.57C161.39 125.96 161.39 141.74 161.39 144.9C159.56 147.24 158.54 148.54 158.34 148.8C149.17 160.5 138.13 174.41 137.42 175.16C136.67 175.96 136.58 175.96 136.3 175.26C135.87 174.13 135.97 161.44 136.48 148.8C137.75 118.48 141.94 90.85 147.81 73.74C150.91 64.86 155.99 55.5 159.7 51.93Z" id="b4RMXuiGoQ"></path><path d="M159.7 51.93C159.81 51.82 160.38 51.27 161.39 50.29C161.39 53.44 161.39 69.2 161.39 97.57C161.39 125.96 161.39 141.74 161.39 144.9C159.56 147.24 158.54 148.54 158.34 148.8C149.17 160.5 138.13 174.41 137.42 175.16C136.67 175.96 136.58 175.96 136.3 175.26C135.87 174.13 135.97 161.44 136.48 148.8C137.75 118.48 141.94 90.85 147.81 73.74C150.91 64.86 155.99 55.5 159.7 51.93Z" id="c2BqqHPNe7"></path><path d="M166.56 95.64C166.56 57.85 166.7 47.7 167.17 47.56C168.21 47.18 180.52 48.97 185.69 50.24C200.87 54.05 216.48 61.66 228.27 71.01C230.15 72.47 234.06 76.04 236.97 78.91C246.7 88.36 253.09 97.14 259.15 109.41C266.2 123.7 269.68 137 270.29 152.13C270.31 152.56 270.41 154.71 270.57 158.57C269.47 158.55 268.86 158.53 268.74 158.53C267.75 158.48 260.14 157.45 251.87 156.22C236.03 153.83 228.27 152.7 190.3 147.01C177.37 145.13 166.75 143.53 166.7 143.53C166.61 143.53 166.56 121.96 166.56 95.64Z" id="c2EytMsFz5"></path><path d="M166.56 95.64C166.56 57.85 166.7 47.7 167.17 47.56C168.21 47.18 180.52 48.97 185.69 50.24C200.87 54.05 216.48 61.66 228.27 71.01C230.15 72.47 234.06 76.04 236.97 78.91C246.7 88.36 253.09 97.14 259.15 109.41C266.2 123.7 269.68 137 270.29 152.13C270.31 152.56 270.41 154.71 270.57 158.57C269.47 158.55 268.86 158.53 268.74 158.53C267.75 158.48 260.14 157.45 251.87 156.22C236.03 153.83 228.27 152.7 190.3 147.01C177.37 145.13 166.75 143.53 166.7 143.53C166.61 143.53 166.56 121.96 166.56 95.64Z" id="a1TiUvfSmi"></path><path d="M47.84 162.71C47.82 162.4 47.73 160.87 47.56 158.1C48.29 158.1 48.7 158.1 48.78 158.1C49.44 158.1 51.51 157.87 53.34 157.54C53.56 157.5 54.68 157.31 56.68 156.98C58.91 154.61 60.14 153.29 60.39 153.03C66.17 146.92 67.16 144.43 68.1 134.23C68.85 125.58 69.65 123.51 73.22 121.11C76.89 118.62 80.22 118.01 94.42 117.26C102.78 116.84 105.04 116.32 107.25 114.25C110.68 111.06 111.39 106.07 110.63 89.95C110.07 78.58 110.21 62.13 110.92 59.26C111.29 57.76 112.56 57.01 119.14 54.56C124.55 52.54 132.02 50.33 137.19 49.3C141.47 48.41 151.66 47.18 154.77 47.18C154.9 47.18 155.57 47.18 156.79 47.18C155.74 48.34 155.17 48.98 155.05 49.11C145.04 60.2 137.14 85.35 133.48 117.68C131.6 134.18 131.13 142.78 131.13 162.1C131.08 182.26 131.41 186.3 133.1 187.2C133.52 187.43 134.98 187.85 136.25 188.14C137.56 188.42 140.53 189.08 142.83 189.59C174.79 196.78 210.79 196.41 237.91 188.65C240.54 187.85 242.75 187.24 242.84 187.24C242.89 187.24 242.94 193.54 242.89 201.25C242.89 218.55 242.66 219.53 237.86 222.59C235.47 224.09 235.32 224.14 230.25 224.09C223.1 224.04 220.28 223.06 202.47 214.03C187.29 206.37 182.12 204.26 177.42 203.83C171.12 203.27 167.32 206.56 166.09 213.61C165.76 215.26 165.44 224 165.34 233.07C165.11 251.82 165.01 252.24 161.44 259.62C160.12 262.3 158.9 265.31 158.76 266.3C158.74 266.41 158.63 267.01 158.43 268.08C155.58 268.06 154 268.04 153.69 268.04C151.1 267.99 147.67 267.8 146.12 267.57C132.63 265.73 121.77 262.54 110.4 257.04C77.03 240.87 53.62 208.77 48.88 172.67C48.5 169.71 48.03 165.2 47.84 162.71Z" id="b641qrAVS"></path><path d="M47.84 162.71C47.82 162.4 47.73 160.87 47.56 158.1C48.29 158.1 48.7 158.1 48.78 158.1C49.44 158.1 51.51 157.87 53.34 157.54C53.56 157.5 54.68 157.31 56.68 156.98C58.91 154.61 60.14 153.29 60.39 153.03C66.17 146.92 67.16 144.43 68.1 134.23C68.85 125.58 69.65 123.51 73.22 121.11C76.89 118.62 80.22 118.01 94.42 117.26C102.78 116.84 105.04 116.32 107.25 114.25C110.68 111.06 111.39 106.07 110.63 89.95C110.07 78.58 110.21 62.13 110.92 59.26C111.29 57.76 112.56 57.01 119.14 54.56C124.55 52.54 132.02 50.33 137.19 49.3C141.47 48.41 151.66 47.18 154.77 47.18C154.9 47.18 155.57 47.18 156.79 47.18C155.74 48.34 155.17 48.98 155.05 49.11C145.04 60.2 137.14 85.35 133.48 117.68C131.6 134.18 131.13 142.78 131.13 162.1C131.08 182.26 131.41 186.3 133.1 187.2C133.52 187.43 134.98 187.85 136.25 188.14C137.56 188.42 140.53 189.08 142.83 189.59C174.79 196.78 210.79 196.41 237.91 188.65C240.54 187.85 242.75 187.24 242.84 187.24C242.89 187.24 242.94 193.54 242.89 201.25C242.89 218.55 242.66 219.53 237.86 222.59C235.47 224.09 235.32 224.14 230.25 224.09C223.1 224.04 220.28 223.06 202.47 214.03C187.29 206.37 182.12 204.26 177.42 203.83C171.12 203.27 167.32 206.56 166.09 213.61C165.76 215.26 165.44 224 165.34 233.07C165.11 251.82 165.01 252.24 161.44 259.62C160.12 262.3 158.9 265.31 158.76 266.3C158.74 266.41 158.63 267.01 158.43 268.08C155.58 268.06 154 268.04 153.69 268.04C151.1 267.99 147.67 267.8 146.12 267.57C132.63 265.73 121.77 262.54 110.4 257.04C77.03 240.87 53.62 208.77 48.88 172.67C48.5 169.71 48.03 165.2 47.84 162.71Z" id="aiD43D8Fj"></path><path d="M152.51 164.87C155.08 165.52 156.5 165.88 156.79 165.95C181.6 172.2 219.3 169.2 232.5 159.89C232.59 159.83 233.03 159.51 233.82 158.95C244.03 160.42 249.7 161.23 250.83 161.39C260.19 162.76 267.99 164.03 268.18 164.17C268.37 164.31 267.75 165.44 266.77 166.66C256.94 179.11 232.18 187.53 200.64 189.12C190.72 189.64 188.28 189.64 178.17 189.08C166.19 188.42 145.84 185.36 138.93 183.2C138.18 182.97 138.5 182.54 146.73 172.16C147.11 171.67 149.04 169.24 152.51 164.87Z" id="a2VOHmsTKN"></path><path d="M152.51 164.87C155.08 165.52 156.5 165.88 156.79 165.95C181.6 172.2 219.3 169.2 232.5 159.89C232.59 159.83 233.03 159.51 233.82 158.95C244.03 160.42 249.7 161.23 250.83 161.39C260.19 162.76 267.99 164.03 268.18 164.17C268.37 164.31 267.75 165.44 266.77 166.66C256.94 179.11 232.18 187.53 200.64 189.12C190.72 189.64 188.28 189.64 178.17 189.08C166.19 188.42 145.84 185.36 138.93 183.2C138.18 182.97 138.5 182.54 146.73 172.16C147.11 171.67 149.04 169.24 152.51 164.87Z" id="c9yd2YyEjR"></path><path d="M159.7 51.93C159.81 51.82 160.38 51.27 161.39 50.29C161.39 59.34 161.39 64.37 161.39 65.37C161.39 77.55 161.25 80.51 160.78 80.69C160.03 80.98 156.83 86.99 155.1 91.36C150.82 102.22 148 115.05 146.54 130.37C145.65 139.59 145.84 160.88 146.78 162.05C147.25 162.62 146.45 163.93 142.12 169.34C139.26 173 136.81 175.96 136.72 175.96C136.67 175.96 136.44 175.63 136.3 175.21C135.87 174.08 135.97 161.58 136.48 148.94C137.8 118.2 141.75 91.93 147.76 73.97C150.72 65.14 155.89 55.6 159.7 51.93Z" id="gps6c0NiD"></path><path d="M159.7 51.93C159.81 51.82 160.38 51.27 161.39 50.29C161.39 59.34 161.39 64.37 161.39 65.37C161.39 77.55 161.25 80.51 160.78 80.69C160.03 80.98 156.83 86.99 155.1 91.36C150.82 102.22 148 115.05 146.54 130.37C145.65 139.59 145.84 160.88 146.78 162.05C147.25 162.62 146.45 163.93 142.12 169.34C139.26 173 136.81 175.96 136.72 175.96C136.67 175.96 136.44 175.63 136.3 175.21C135.87 174.08 135.97 161.58 136.48 148.94C137.8 118.2 141.75 91.93 147.76 73.97C150.72 65.14 155.89 55.6 159.7 51.93Z" id="a57MPXwlSv"></path><path d="M232.36 132.49C228.6 117.59 221.04 104.9 210.79 96.39C205.95 92.4 204.92 91.74 199.37 88.78C191.1 84.41 180.33 81.4 170.75 80.69C170.47 80.68 169.07 80.58 166.56 80.41C166.56 79.32 166.56 73.87 166.56 64.06C166.56 54.21 166.56 48.75 166.56 47.65C167.92 47.65 168.67 47.65 168.82 47.65C178.78 47.7 196.13 52.49 208.63 58.7C219.53 64.06 227.85 69.98 236.97 78.91C246.7 88.31 253.09 97.14 259.15 109.41C266.34 123.93 270.43 140.43 270.43 154.81C270.43 155.06 270.43 156.32 270.43 158.57C269.39 158.55 268.81 158.53 268.69 158.53C267.71 158.48 259.76 157.4 251.07 156.08C248.95 155.76 243.66 154.96 235.18 153.69C235.18 152.36 235.18 151.62 235.18 151.48C235.18 147.67 233.73 137.89 232.36 132.49Z" id="aiD9xsH8e"></path><path d="M232.36 132.49C228.6 117.59 221.04 104.9 210.79 96.39C205.95 92.4 204.92 91.74 199.37 88.78C191.1 84.41 180.33 81.4 170.75 80.69C170.47 80.68 169.07 80.58 166.56 80.41C166.56 79.32 166.56 73.87 166.56 64.06C166.56 54.21 166.56 48.75 166.56 47.65C167.92 47.65 168.67 47.65 168.82 47.65C178.78 47.7 196.13 52.49 208.63 58.7C219.53 64.06 227.85 69.98 236.97 78.91C246.7 88.31 253.09 97.14 259.15 109.41C266.34 123.93 270.43 140.43 270.43 154.81C270.43 155.06 270.43 156.32 270.43 158.57C269.39 158.55 268.81 158.53 268.69 158.53C267.71 158.48 259.76 157.4 251.07 156.08C248.95 155.76 243.66 154.96 235.18 153.69C235.18 152.36 235.18 151.62 235.18 151.48C235.18 147.67 233.73 137.89 232.36 132.49Z" id="b1g7bcYzv7"></path><path d="M163.13 151.57C164.4 149.96 165.11 149.07 165.25 148.89C174.47 150.24 179.59 151 180.62 151.15C189.03 152.42 197.44 153.64 199.23 153.97C199.45 154 200.54 154.19 202.52 154.53C200.69 154.87 199.67 155.06 199.46 155.1C192.65 156.46 182.36 156.98 174.08 156.36C171.22 156.18 165.34 155.33 162.94 154.72C162.81 154.69 162.15 154.53 160.97 154.25C161.12 154.07 161.84 153.18 163.13 151.57Z" id="bLeh6cPDh"></path><path d="M163.13 151.57C164.4 149.96 165.11 149.07 165.25 148.89C174.47 150.24 179.59 151 180.62 151.15C189.03 152.42 197.44 153.64 199.23 153.97C199.45 154 200.54 154.19 202.52 154.53C200.69 154.87 199.67 155.06 199.46 155.1C192.65 156.46 182.36 156.98 174.08 156.36C171.22 156.18 165.34 155.33 162.94 154.72C162.81 154.69 162.15 154.53 160.97 154.25C161.12 154.07 161.84 153.18 163.13 151.57Z" id="eHGdkOzqL"></path><path d="M161.39 123.98C161.39 125.38 161.39 132.35 161.39 144.9C159.7 147.01 158.76 148.19 158.57 148.42C157.02 150.4 155.57 151.99 155.33 151.99C155.14 151.99 154.81 150.4 154.63 148.37C153.92 139.77 154.72 127.74 156.69 118.11C157.63 113.45 160.74 103.11 161.21 103.11C161.3 103.11 161.39 112.51 161.39 123.98Z" id="d2ej0MAZzC"></path><path d="M161.39 123.98C161.39 125.38 161.39 132.35 161.39 144.9C159.7 147.01 158.76 148.19 158.57 148.42C157.02 150.4 155.57 151.99 155.33 151.99C155.14 151.99 154.81 150.4 154.63 148.37C153.92 139.77 154.72 127.74 156.69 118.11C157.63 113.45 160.74 103.11 161.21 103.11C161.3 103.11 161.39 112.51 161.39 123.98Z" id="alMSvZGOw"></path><path d="M166.56 96.86C169.19 97.03 170.64 97.13 170.93 97.14C178.92 97.66 188.51 100.86 194.62 105.04C202.38 110.35 208.72 119.23 211.82 129.25C214.03 136.2 215.26 148.23 213.94 149.55C213.09 150.4 211.64 150.25 188.65 146.78C176.9 145.04 167.13 143.58 166.94 143.53C166.7 143.53 166.56 133.05 166.56 120.17C166.56 118.62 166.56 110.85 166.56 96.86Z" id="b26zwC7W2O"></path><path d="M166.56 96.86C169.19 97.03 170.64 97.13 170.93 97.14C178.92 97.66 188.51 100.86 194.62 105.04C202.38 110.35 208.72 119.23 211.82 129.25C214.03 136.2 215.26 148.23 213.94 149.55C213.09 150.4 211.64 150.25 188.65 146.78C176.9 145.04 167.13 143.58 166.94 143.53C166.7 143.53 166.56 133.05 166.56 120.17C166.56 118.62 166.56 110.85 166.56 96.86Z" id="e1HrzeQWFv"></path><path d="M359 31L580.5 31L802 31L802 100.77L802 170.54L580.5 170.54L359 170.54L359 100.77L359 31Z" id="c64J62Jp5B"></path><path d="M357 29L582 29L807 29L807 101.46L807 173.93L582 173.93L357 173.93L357 101.46L357 29ZM586.11 164.18C589.76 161.41 590.37 159.96 590.37 154.16C590.37 146.79 588.69 144.94 574.55 136.77C570.15 134.14 568.32 132.16 568.32 129.92C568.32 122.41 578.96 121.75 584.59 129C584.82 129.3 585.99 130.79 588.09 133.48C588.09 129.61 588.09 127.45 588.09 127.02C588.09 122.67 587.63 121.23 586.72 122.41C585.5 123.99 584.59 124.12 581.24 122.81C571.36 118.85 562.24 123.6 562.24 132.69C562.24 139.01 564.98 142.44 574.1 147.84C582.61 152.85 583.52 153.77 583.52 158.25C583.52 168.79 568.63 166.15 564.06 154.82C562.7 151.27 562.54 151.79 562.39 159.43C562.39 164.84 562.85 167.34 563.61 166.15C564.67 164.7 565.89 164.7 569.84 165.89C577.29 168.13 581.4 167.73 586.11 164.18ZM458.86 138.75C458.86 125.97 459.47 117.27 460.23 117.93C460.99 118.72 465.4 129.79 470.11 142.83C474.98 155.75 479.23 165.89 479.84 165.36C480.45 164.97 485.16 153.51 490.18 139.93C490.81 138.29 493.95 130.08 499.61 115.3C499.7 129.29 499.75 137.06 499.76 138.62C499.91 161.28 499.76 161.94 496.56 163.91C493.37 165.89 493.98 166.02 505.99 166.02C517.09 165.89 518.46 165.63 516.33 164.18C513.9 162.6 513.59 159.7 513.59 137.04C513.59 114.37 513.9 111.48 516.33 109.89C518.61 108.31 517.54 108.18 508.73 108.05C508.06 108.05 504.71 108.05 498.69 108.05C494.77 118.72 492.59 124.65 492.16 125.84C488.66 135.59 485.31 143.62 484.71 143.62C484.25 143.62 480.75 135.59 477.11 125.84C476.67 124.65 474.49 118.72 470.57 108.05C464.55 108.05 461.2 108.05 460.53 108.05C451.87 108.18 450.8 108.31 453.24 109.89C455.52 111.48 455.82 114.37 455.82 137.04C455.82 159.7 455.52 162.6 453.24 164.18C450.8 165.76 451.41 165.89 457.8 166.02C458.27 166.02 460.66 166.02 464.94 166.02L461.9 163.39C459.88 160.49 458.86 152.28 458.86 138.75ZM528.64 159.7C529.55 156.67 530.62 156.01 535.64 155.75C539.28 155.48 541.87 156.01 542.63 157.06C544.61 159.7 544.3 164.44 542.17 165.1C541.11 165.5 544.15 165.89 549.17 165.89C556.16 166.02 557.68 165.63 556.46 164.44C555.7 163.52 553.42 158.25 551.6 152.85C542.32 125.31 540.5 120.83 539.44 122.67C538.83 123.73 535.33 132.82 531.84 142.97C528.34 153.11 524.39 162.46 523.02 163.78C520.89 165.89 521.19 166.02 526.67 166.02C531.23 165.89 531.99 165.63 530.01 164.7C528.19 163.65 527.88 162.46 528.64 159.7ZM616.97 144.28C616.97 143 616.97 136.59 616.97 125.05C619.52 125.28 620.94 125.42 621.23 125.44C624.12 125.71 626.09 127.15 627.92 130.45C628.1 130.76 629.01 132.29 630.65 135.06L630.65 128.87L630.65 122.54L612.41 122.54L594.17 122.54L594.17 128.87L594.17 135.06C595.81 132.29 596.72 130.76 596.9 130.45C598.73 127.15 600.7 125.71 603.74 125.44C604.02 125.42 605.39 125.28 607.85 125.05C607.85 136.59 607.85 143 607.85 144.28C607.85 162.99 607.7 163.52 604.5 164.7C601.92 165.5 604.05 165.89 612.41 165.89C620.77 165.89 622.9 165.5 620.47 164.7C617.12 163.52 616.97 162.99 616.97 144.28ZM669.42 157.46C669.48 157.11 669.78 155.35 670.33 152.19C668.51 154.72 667.49 156.12 667.29 156.4C663.64 161.41 659.84 163.39 653.76 163.39C648.29 163.39 647.38 161.67 647.38 152.06C647.38 146.92 647.98 144.94 649.35 144.94C651.94 144.94 655.89 148.76 656.95 152.19C657.26 153.64 657.71 149.82 657.71 143.62C657.71 135.19 657.41 133.35 656.5 136.25C655.13 140.2 652.7 142.31 649.35 142.31C647.98 142.31 647.38 139.67 647.38 133.61C647.38 133.04 647.38 130.18 647.38 125.05C651.21 125.28 653.34 125.42 653.76 125.44C659.08 125.71 660.75 126.63 663.64 130.32C663.88 130.62 665.04 132.11 667.14 134.8L667.14 128.6L667.14 122.54C656.92 122.54 651.25 122.54 650.11 122.54C637.65 122.67 633.69 122.94 635.67 123.99C637.95 125.18 638.25 127.55 638.25 144.28C638.25 161.02 637.95 163.39 635.67 164.57C633.69 165.63 637.65 165.89 650.11 166.02C662.58 166.02 667.44 165.63 667.9 164.44C668.2 163.52 668.81 160.36 669.42 157.46ZM688.42 154.82C688.42 150.08 689.03 146.26 689.64 146.26C690.25 146.26 693.29 150.74 696.48 156.14C696.86 156.8 698.73 160.09 702.11 166.02C705.85 166.02 707.92 166.02 708.34 166.02C713.51 166.02 714.12 165.76 712.44 164.31C711.38 163.26 708.49 158.91 706.06 154.56C705.77 154.03 704.36 151.4 701.8 146.65C704.17 144.6 705.49 143.46 705.75 143.23C708.64 140.73 709.71 138.49 709.71 134.8C709.55 125.44 703.78 122.54 685.69 122.54C677.02 122.67 674.59 122.94 676.72 123.99C679 125.18 679.3 127.55 679.3 144.28C679.3 161.02 679 163.39 676.72 164.57C674.59 165.63 676.41 165.89 683.86 165.89C691.31 165.89 693.14 165.63 691.16 164.57C689.03 163.52 688.42 161.41 688.42 154.82ZM635.21 84.86C635.21 83.28 633.54 84.07 629.13 87.5C617.73 96.32 606.78 92.9 603.44 79.2C598.57 59.43 605.42 39.54 617.27 39.54C624.27 39.54 627.61 41.78 631.41 49.16C631.66 49.61 632.87 51.9 635.06 56.01C635.06 49.68 635.06 46.17 635.06 45.47C635.06 36.24 634.91 35.19 633.09 37.3C630.96 39.67 630.65 39.67 623.51 37.43C609.67 33.21 597.81 38.35 591.13 51.66C588.39 57.19 587.93 60.22 588.39 69.18C588.69 78.27 589.45 80.78 593.1 85.52C600.1 94.74 612.71 98.3 623.66 94.35C629.89 92.11 635.21 87.76 635.21 84.86ZM712.44 88.29C712.9 87.23 711.07 88.02 708.34 90C702.56 94.22 697.24 94.61 693.14 91.05C689.18 87.63 687.97 81.44 688.73 69.31C689.18 61.15 689.79 58.91 692.83 56.14C699.06 50.34 705.91 52.45 710.77 61.67C712.29 64.97 712.44 64.57 712.6 57.32C712.6 52.05 712.29 50.08 711.38 51.26C710.16 52.98 709.1 52.98 703.93 51.53C700.43 50.47 696.02 50.08 693.59 50.61C674.28 54.82 670.79 87.36 688.88 94.22C695.87 96.85 700.89 96.59 706.67 93.29C709.55 91.58 712.14 89.34 712.44 88.29ZM412.34 84.99C412.41 84.47 412.77 81.83 413.41 77.09C411.49 80.01 410.43 81.64 410.21 81.96C406.56 87.89 401.85 90.79 394.4 91.84C385.89 93.03 384.37 91.05 384.37 78.27C384.37 69.71 384.82 67.21 386.5 67.21C390.15 67.21 394.86 71.55 396.38 76.43C397.44 80.12 397.75 77.88 397.75 65.89C397.75 51 397.75 50.87 395.62 56.14C393.79 60.75 388.93 64.57 385.13 64.57C384.67 64.57 384.37 58.91 384.37 52.05C384.37 51.22 384.37 47.05 384.37 39.54C387.11 39.54 388.63 39.54 388.93 39.54C393.03 39.54 404.13 42.57 404.13 43.75C404.13 44.02 405.2 46.52 406.41 49.42C406.55 49.77 407.26 51.53 408.54 54.69L408.69 45.86L408.69 36.9C395.28 36.98 387.84 37.03 386.35 37.03C373.88 37.03 364.91 37.43 366.13 37.82C371.6 39.54 372.21 42.3 372.21 65.89C372.21 89.47 371.6 92.24 366.13 93.95C364.91 94.35 374.18 94.74 386.95 94.74C399.57 94.87 410.37 94.48 410.67 93.95C411.13 93.29 411.89 89.34 412.34 84.99ZM424.66 88.42C425.57 84.6 426.18 84.33 432.26 84.33C438.34 84.33 438.79 84.6 439.71 88.55C440.31 91.32 440.01 93.03 438.79 93.82C437.58 94.35 440.62 94.87 445.64 94.87C454.15 94.87 454.45 94.74 452.32 92.24C451.26 90.79 447.16 80.78 443.51 69.84C439.86 59.04 436.51 50.08 436.06 50.08C435.6 50.08 432.26 58.77 428.46 69.45C424.81 79.99 420.86 90.13 419.79 91.84C418.12 94.74 418.27 94.87 422.83 94.87C426.18 94.87 427.09 94.48 425.57 93.69C424.2 92.9 423.9 91.32 424.66 88.42ZM472.54 83.68C472.54 78.93 473.15 75.11 473.76 75.11C474.37 75.11 477.41 79.59 480.6 84.99C480.98 85.65 482.85 88.95 486.23 94.87C490.06 94.8 492.19 94.75 492.61 94.74C496.26 94.74 498.24 94.35 497.17 93.95C496.11 93.56 492.76 89.08 489.88 84.07C485.62 76.69 484.86 74.45 486.53 73.66C487.6 73 488.96 72.48 489.42 72.48C490.94 72.48 493.83 65.89 493.83 62.59C493.83 60.88 492.16 57.72 490.18 55.74C486.68 52.32 485.62 52.05 472.39 51.53C459.17 51.13 458.56 51.26 460.84 53.37C464.49 56.53 464.64 89.6 460.99 92.77C458.86 94.74 459.47 94.87 468.29 94.87C475.59 94.74 477.26 94.48 475.28 93.43C473.15 92.37 472.54 90.26 472.54 83.68ZM522.71 73.14C522.71 71.85 522.71 65.44 522.71 53.9C525.18 54.14 526.54 54.27 526.82 54.29C529.4 54.56 531.68 55.88 532.9 57.98C534.72 61.15 534.88 61.15 534.88 56.4C534.88 56.07 534.88 54.4 534.88 51.4L517.39 51.4L499.91 51.4C500 55.19 500.05 57.3 500.06 57.72C500.21 63.39 500.37 63.52 501.43 60.09C502.95 55.61 505.23 54.03 510.25 54.03C513.59 54.03 513.59 54.16 513.59 72.21C513.59 90.53 513.14 92.5 509.03 93.95C507.81 94.35 511.92 94.61 518.15 94.74C526.51 94.74 528.64 94.35 526.21 93.56C522.87 92.37 522.71 91.84 522.71 73.14ZM553.12 82.09C553.12 81.54 553.12 78.77 553.12 73.79L560.72 73.79L568.32 73.79C568.32 79.33 568.32 82.4 568.32 83.02C568.32 90.26 567.87 92.37 565.74 93.43C563.61 94.48 565.74 94.74 573.64 94.74C579.57 94.61 583.07 94.35 581.7 93.95C579.27 93.43 578.96 91.32 578.96 73.14C578.96 54.95 579.27 52.84 581.7 52.32C583.07 51.92 579.57 51.66 573.64 51.66C567.87 51.66 564.22 51.92 565.74 52.32C567.87 52.84 568.32 54.43 568.32 62.07C568.32 62.67 568.32 65.7 568.32 71.16L560.72 71.16L553.12 71.16C553.12 66.65 553.12 64.15 553.12 63.65C553.12 55.61 554.03 53.64 557.68 52.32C558.9 51.92 555.25 51.53 549.32 51.53C541.41 51.53 539.28 51.79 541.41 52.84C543.69 54.03 544 56.4 544 73.14C544 89.87 543.69 92.24 541.41 93.43C539.28 94.48 541.41 94.74 549.32 94.74C555.25 94.74 558.9 94.35 557.68 93.95C553.88 92.63 553.12 90.66 553.12 82.09ZM647.22 85.92C647.98 84.86 650.57 84.33 654.22 84.6C659.23 84.86 660.3 85.52 661.21 88.55C661.97 91.32 661.67 92.5 659.84 93.56C658.02 94.48 659.84 94.74 666.84 94.87C675.04 94.87 676.11 94.61 674.44 93.03C673.22 92.11 669.27 82.36 665.77 71.69C662.12 60.88 658.78 51.66 658.17 51C657.11 50.08 655.43 54.29 646.46 79.46C644.18 85.92 641.45 91.98 640.23 93.03C638.25 94.61 638.86 94.87 643.88 94.74C647.07 94.74 648.74 94.35 647.83 93.95C645.55 93.29 645.25 88.55 647.22 85.92ZM730.99 83.54C730.99 82.89 730.99 79.64 730.99 73.79L738.59 73.79L746.19 73.79C746.19 78.77 746.19 81.54 746.19 82.09C746.19 90.66 745.43 92.63 741.63 93.95C740.42 94.35 744.22 94.74 749.99 94.74C757.9 94.74 760.03 94.48 758.05 93.43C755.62 92.24 755.31 89.87 755.31 73.14C755.31 56.4 755.62 54.03 758.05 52.84C760.03 51.79 757.9 51.53 749.99 51.53C744.22 51.53 740.42 51.92 741.63 52.32C745.28 53.64 746.19 55.61 746.19 63.65C746.19 64.15 746.19 66.65 746.19 71.16L738.59 71.16L730.99 71.16C730.99 65.7 730.99 62.67 730.99 62.07C730.99 54.43 731.45 52.84 733.73 52.32C735.1 51.92 731.6 51.66 725.67 51.53C717.76 51.53 715.64 51.79 717.76 52.84C720.04 54.03 720.35 56.53 720.35 73.79C720.35 91.32 720.04 93.43 717.76 93.95C716.24 94.35 719.89 94.61 725.67 94.61C731.6 94.61 735.1 94.35 733.73 93.95C731.45 93.43 730.99 91.84 730.99 83.54ZM798.64 86.31C798.7 85.96 799.01 84.2 799.55 81.04C797.73 83.57 796.72 84.98 796.51 85.26C792.87 90.26 789.06 92.24 782.98 92.24C777.51 92.24 776.6 90.53 776.6 80.91C776.6 75.77 777.21 73.79 778.57 73.79C781.16 73.79 785.11 77.61 786.18 81.04C786.48 82.49 786.94 78.67 786.94 72.48C786.94 64.04 786.63 62.2 785.72 65.1C784.35 69.05 781.92 71.16 778.57 71.16C777.21 71.16 776.6 68.52 776.6 62.46C776.6 61.89 776.6 59.04 776.6 53.9C780.43 54.14 782.56 54.27 782.98 54.29C788.3 54.56 789.98 55.48 792.87 59.17C793.1 59.47 794.26 60.96 796.36 63.65L796.36 57.46L796.36 51.4C786.15 51.4 780.47 51.4 779.34 51.4C766.87 51.53 762.92 51.79 764.89 52.84C767.17 54.03 767.48 56.4 767.48 73.14C767.48 89.87 767.17 92.24 764.89 93.43C762.92 94.48 766.87 94.74 779.34 94.87C791.8 94.87 796.67 94.48 797.12 93.29C797.43 92.37 798.03 89.21 798.64 86.31Z" id="fjEesoKPA"></path><path d="M536.4 139.67C537 139.67 537.92 141.25 538.52 143.36C538.98 145.34 539.74 148.24 540.35 149.95C541.26 152.45 540.8 152.85 536.55 152.85C533.96 152.85 531.84 152.45 531.84 152.06C531.84 149.55 535.48 139.67 536.4 139.67Z" id="fOR0vvfGf"></path><path d="M688.42 134.14C688.42 125.71 688.57 125.18 691.92 125.18C697.24 125.18 699.06 127.68 699.06 134.53C699.06 139.54 698.3 141.25 695.72 142.83C691.92 145.2 690.86 145.34 689.49 144.02C688.88 143.62 688.42 139.14 688.42 134.14Z" id="cYWf0sA0I"></path><path d="M432.87 67.86C433.02 68.66 434.08 71.95 435.3 75.51C435.44 75.92 436.15 77.98 437.43 81.7C434.23 81.7 432.46 81.7 432.11 81.7C427.24 81.7 426.78 81.44 427.85 78.8C430.28 72.21 432.87 66.68 432.87 67.86Z" id="h96QA5tYg"></path><path d="M476.35 54.03C480.75 54.03 483.19 57.46 483.19 63.52C483.19 68.66 480.75 71.82 476.04 73.14C472.7 73.93 472.54 73.66 472.54 64.04C472.54 54.29 472.7 54.03 476.35 54.03Z" id="b10nBJJ4L4"></path><path d="M652.09 71.55C652.2 71.31 652.76 70.08 653.76 67.86C654.95 70.63 655.61 72.17 655.74 72.48C659.08 80.12 658.63 81.7 653.3 81.7C649.05 81.7 648.59 81.44 649.5 78.41C649.96 76.69 651.18 73.53 652.09 71.55Z" id="bzErsCcU"></path><path d="M375 228L582.5 228L790 228L790 249L790 270L582.5 270L375 270L375 249L375 228Z" id="a2FzeIISEm"></path><path d="M373.51 226.77L582.81 226.77L792.11 226.77L792.11 249.27L792.11 271.77L582.81 271.77L373.51 271.77L373.51 249.27L373.51 226.77ZM409.09 267.41C410.73 266.88 413.21 266.32 414.61 266.08C416.04 265.84 417.12 265.52 417.12 265.28C417.12 265.07 416.87 264.41 416.59 263.88C415.86 262.45 415.86 254.01 416.59 252.62C417.05 251.67 418.62 250.7 420.05 250.42C420.43 250.38 420.78 250.1 420.88 249.89C420.99 249.55 418.83 249.44 410.84 249.44C402.85 249.44 400.69 249.55 400.83 249.89C400.9 250.14 401.38 250.28 402.05 250.21C403.97 250 406.83 250.8 407.73 251.74C408.54 252.62 408.57 252.82 408.57 257.92C408.57 262.77 408.5 263.36 407.77 264.72C406.16 267.69 402.5 269.43 397.76 269.39C394.3 269.39 392.7 268.94 390.26 267.27C385.48 263.95 382.86 257.22 382.9 248.22C382.9 238.63 385.27 232.77 390.08 230.39C392.38 229.28 396.43 228.93 399.43 229.56C404.32 230.57 410.11 234.72 413.45 239.64C414.4 241 415.23 242.01 415.37 241.94C415.51 241.87 415.27 240.55 414.81 239.01C414.36 237.48 413.84 234.51 413.59 232.45C413.38 230.39 413.14 228.62 413.07 228.55C413.04 228.48 411.43 228.62 409.55 228.86C406.9 229.21 405.33 229.21 402.75 228.89C392.66 227.71 387.43 229.03 382.06 234.16C379.34 236.71 377.7 239.19 376.37 242.74C375.57 244.8 375.47 245.64 375.47 249.62C375.43 253.49 375.54 254.5 376.23 256.49C377.98 261.55 382.06 266.01 386.94 268.31C390.33 269.88 390.47 269.92 395.52 269.99C398.84 270.02 400.2 269.85 402.85 269.15C404.66 268.7 407.45 267.89 409.09 267.41ZM465.26 249.41C465.29 240.55 459.08 232.1 450.5 229.38C447.22 228.34 441.88 228.2 438.61 229.03C433.97 230.25 429.12 233.78 426.19 238.07C425.52 239.05 424.58 241.07 424.02 242.6C422.28 247.7 422.77 254.32 425.25 259C426.68 261.65 430.48 265.7 433.02 267.23C436.65 269.43 439.02 269.99 444.15 270.02C448.09 270.02 449 269.88 451.13 269.15C459.36 266.25 465.22 258.06 465.26 249.41ZM507.64 257.74C508.2 256.38 506.73 257.22 504.29 259.7C498.99 264.96 492.05 268.56 486.54 268.87C483.85 269.05 483.47 268.98 482.35 268.21C480.05 266.64 480.08 266.92 479.98 249.96C479.91 241.52 479.98 234.13 480.08 233.5C480.43 231.55 481.76 230.32 484.13 229.87C485.24 229.66 486.19 229.31 486.19 229.17C486.19 229 482.1 228.86 477.12 228.86C471.12 228.86 468.05 228.96 468.05 229.21C468.05 229.42 468.33 229.66 468.67 229.77C468.99 229.87 469.93 230.25 470.77 230.67C471.88 231.23 472.3 231.69 472.62 232.66C472.83 233.5 472.93 239.46 472.86 250.1C472.85 251.18 472.82 256.56 472.76 266.25C471.94 266.97 471.49 267.36 471.4 267.44C470.66 268.07 469.51 268.7 468.88 268.84C467.73 269.05 467.45 269.32 467.94 269.78C468.05 269.92 476.24 269.99 486.15 269.95C487.35 269.95 493.34 269.91 504.12 269.85L505.2 265.66C506.31 261.62 507.13 258.98 507.64 257.74ZM550.02 255.96C551.1 252.89 551.38 246.86 550.55 244.03C548.94 238.52 545.21 233.81 540.26 231.02C536.52 228.96 535.79 228.86 522.05 228.86C514.58 228.86 509.56 229 509.56 229.17C509.56 229.35 510.43 229.77 511.48 230.08C514.93 231.06 514.79 230.15 514.79 249.48C514.79 269.05 515.17 267.27 510.5 268.98C508.13 269.85 510.22 270.02 522.29 270.02C533.59 270.02 534.78 269.95 536.84 269.32C542.38 267.62 547.89 262.03 550.02 255.96ZM620.03 257.57C620.45 256.45 618.95 257.29 617.28 259.07C610.34 266.43 598.89 271.03 594.64 268.17C592.37 266.67 592.41 266.92 592.3 249.75C592.23 237.79 592.3 233.92 592.65 232.87C593.21 231.2 594.74 230.08 596.94 229.77C597.81 229.63 598.51 229.38 598.51 229.17C598.51 229 594.85 228.86 589.44 228.86C583.44 228.86 580.37 228.96 580.37 229.21C580.37 229.42 580.65 229.66 581 229.77C583.41 230.5 584.52 231.3 584.91 232.59C585.19 233.5 585.25 238.98 585.19 250.03C585.18 251.11 585.14 256.48 585.08 266.15C584.45 266.8 584.1 267.16 584.03 267.23C583.44 267.86 582.32 268.49 581.52 268.73C580.69 268.94 580.02 269.32 580.02 269.57C580.02 269.92 583.58 270.02 598.3 270.02C599.52 270.02 605.6 270.02 616.55 270.02L617 267.86C618.49 262.39 619.5 258.96 620.03 257.57ZM660.46 260.15C660.99 258.48 661.3 257.01 661.2 256.87C661.06 256.77 660.6 257.12 660.18 257.67C657.15 261.69 649.89 266.43 644.07 268.24C639.99 269.5 636.78 269.05 635.14 266.95C634.48 266.15 634.44 265.52 634.44 257.25C634.44 256.66 634.44 253.71 634.44 248.39C636.72 248.39 637.99 248.39 638.24 248.39C640.3 248.39 642.53 248.57 643.2 248.78C646.06 249.75 648.18 252.41 648.64 255.72C648.81 256.73 649.13 257.64 649.37 257.74C649.68 257.85 649.79 255.86 649.79 248.6C649.79 240.27 649.58 237.93 648.95 239.53C648.85 239.85 648.74 240.41 648.74 240.82C648.74 242.05 647.24 244.21 645.6 245.29C643.44 246.75 641.07 247.35 637.51 247.35C637.31 247.35 636.28 247.35 634.44 247.35L634.44 239.74L634.44 232.14C635.03 231.59 635.35 231.29 635.42 231.23C636.99 229.7 638.03 229.49 641.52 229.91C644.77 230.29 647.84 231.2 650.28 232.42C652.13 233.36 655.27 236.39 656.1 238C656.77 239.29 658.13 239.95 657.67 238.77C657.57 238.45 657.36 236.08 657.22 233.53C657.21 233.22 657.14 231.66 657.01 228.86C646.57 228.86 640.76 228.86 639.6 228.86C623.77 228.86 619.96 229.07 623.38 229.7C624.01 229.8 625.09 230.39 625.82 230.99C625.91 231.06 626.34 231.41 627.11 232.03L627.11 249.09L627.11 266.12C626.38 266.76 625.98 267.12 625.89 267.2C625.23 267.75 624.01 268.45 623.21 268.66C621.39 269.19 621.39 269.19 621.71 269.64C621.85 269.92 627.6 270.02 640.06 270.02C650 270.02 658.16 269.99 658.16 269.95C658.2 269.05 659.77 262.45 660.46 260.15ZM700.96 235.14C702.57 232.8 704.56 230.95 706.23 230.19C707.03 229.84 707.7 229.38 707.7 229.21C707.7 229 704.97 228.86 700.89 228.86C697.16 228.86 694.09 229 694.09 229.14C694.09 229.31 694.72 229.63 695.45 229.87C696.22 230.08 697.23 230.74 697.72 231.3C699.39 233.32 699.36 235.91 697.58 240.55C696.32 243.79 687.74 261.62 687.43 261.65C687.15 261.65 679.79 245.57 677.56 240.13C675.95 236.22 675.67 234.82 676.27 233.32C676.79 231.96 678.81 230.25 680.38 229.84C681.22 229.63 681.88 229.35 681.88 229.17C681.88 229 677.59 228.86 672.29 228.86C666.22 228.86 662.7 229 662.7 229.21C662.7 229.38 663.22 229.77 663.85 230.01C664.47 230.29 665.49 231.09 666.15 231.82C667.54 233.43 668.45 235.35 677.17 255.13C682.02 266.12 683.9 270.02 684.29 269.95C684.6 269.88 687.71 263.43 692.35 253.28C696.5 244.14 700.37 235.98 700.96 235.14ZM746.59 265.98C746.87 264.62 747.53 262.03 748.13 260.29C748.68 258.55 749 257.05 748.86 256.94C748.68 256.84 747.92 257.53 747.11 258.51C744.08 262.14 735.36 267.48 730.65 268.59C727.09 269.43 724.16 268.84 722.7 266.95C722.03 266.15 722 265.52 722 257.25C722 256.66 722 253.71 722 248.39C724.28 248.39 725.55 248.39 725.8 248.39C727.86 248.39 730.09 248.57 730.75 248.78C733.72 249.79 735.85 252.58 736.2 255.89C736.33 257.19 736.54 257.81 736.86 257.81C737.28 257.81 737.35 256.1 737.35 248.36C737.35 241.03 737.24 238.94 736.93 239.05C736.68 239.15 736.37 239.88 736.23 240.72C735.81 243.13 734.56 244.7 732.01 245.95C729.74 247.07 726.46 247.63 723.5 247.42C723.4 247.41 722.9 247.38 722 247.31L722 239.71L722 232.14C722.58 231.59 722.91 231.29 722.97 231.23C724.4 229.84 725.66 229.49 728.28 229.73C735.43 230.43 741.43 233.64 743.63 237.89C744.88 240.37 745.09 239.74 744.81 234.34C744.71 231.62 744.5 229.28 744.43 229.14C744.36 228.96 736.61 228.86 727.2 228.86C711.36 228.86 708.04 229.03 711.22 229.73C711.81 229.87 712.82 230.43 713.49 231.02C713.57 231.09 713.96 231.44 714.67 232.07L714.67 249.09L714.67 266.12C713.92 266.76 713.5 267.12 713.42 267.2C712.75 267.79 711.5 268.49 710.63 268.7C709.79 268.94 709.09 269.32 709.09 269.57C709.09 269.92 712.65 270.02 727.4 270.02C728.63 270.02 734.73 270.02 745.72 270.02L745.89 269.25C746.17 267.98 746.4 266.88 746.59 265.98ZM787.75 266.36C788.1 264.82 788.83 262.17 789.39 260.46C789.95 258.75 790.3 257.25 790.12 257.08C789.95 256.91 788.66 257.95 787.23 259.42C780.22 266.46 770.38 270.55 765.39 268.45C764.52 268.1 764 267.55 763.51 266.46C762.88 265.03 762.81 264.06 762.81 249.02C762.81 237.58 762.92 232.84 763.23 232.17C763.75 230.99 765.43 230.01 767.45 229.73C771.22 229.17 768.57 228.86 759.99 228.86C753.22 228.86 750.92 228.96 751.02 229.28C751.09 229.49 751.79 229.87 752.56 230.15C753.29 230.39 754.26 231.02 754.72 231.51C754.77 231.57 755.03 231.86 755.49 232.38L755.49 249.27L755.49 266.12C754.86 266.74 754.51 267.09 754.44 267.16C753.88 267.75 752.8 268.42 752.1 268.66C751.37 268.87 750.67 269.15 750.5 269.22C749.35 269.88 752.49 270.02 768.78 270.02C782.97 270.02 786.92 269.92 787.02 269.6C787.09 269.36 787.4 267.89 787.75 266.36Z" id="b16c0hrTOb"></path><path d="M377.18 256.17C374.63 248.92 376.51 240.89 382.09 235.21C384.95 232.31 386 231.89 384.19 234.41C382.58 236.57 381.01 239.92 380.28 242.81C379.48 245.85 379.48 251.99 380.25 254.99C381.61 260.01 384.92 264.69 389 267.23C390.08 267.89 390.95 268.56 390.95 268.73C390.95 269.08 390.68 269.05 388.65 268.35C383.66 266.6 379.13 261.82 377.18 256.17Z" id="j1FDZj0zZQ"></path><path d="M408.4 265C409.37 263.08 409.44 262.7 409.44 259C409.44 256.73 409.62 254.67 409.86 254.15C410.18 253.42 410.14 253.14 409.58 252.48C407.7 250.35 407.56 250.49 412.09 250.49C412.37 250.49 413.74 250.49 416.21 250.49C415.65 251.07 415.33 251.4 415.27 251.46C413.7 253.1 413.28 254.64 413.28 258.93C413.28 261.75 413.42 263.15 413.8 263.88C414.12 264.44 414.29 264.93 414.26 264.96C414.19 265 412.83 265.45 411.19 265.98C409.55 266.5 408.01 267.02 407.8 267.09C407.56 267.2 407.35 267.23 407.35 267.16C407.35 267.13 407.84 266.12 408.4 265Z" id="c1PtlC3LZs"></path><path d="M407.21 231.82C405.95 231.06 404.94 230.32 404.91 230.19C404.91 230.01 406.16 229.91 407.66 229.91C409.97 229.91 410.45 230.01 410.66 230.53C411.29 232.1 412.58 235.98 412.48 236.05C412.41 236.12 411.71 235.52 410.91 234.69C410.11 233.88 408.43 232.59 407.21 231.82Z" id="b7lFLZ8mS"></path><path d="M431.18 257.43C430.41 253.87 430.41 244.66 431.18 241.1C432.85 233.5 436.69 229.7 443.11 229.28C450.71 228.82 455.21 232.7 457.09 241.28C458 245.43 457.9 253.91 456.95 257.88C455.24 264.93 452.04 268.38 446.38 269.32C445.16 269.5 444.01 269.64 443.8 269.64C443.63 269.6 442.62 269.46 441.57 269.29C436.34 268.42 432.68 264.27 431.18 257.43Z" id="aUJ2oRGA4"></path><path d="M425.98 258.44C422.21 250.94 423.33 242.22 428.84 235.91C430.48 234.02 433.51 231.51 433.79 231.79C433.86 231.89 433.3 232.7 432.57 233.64C430.69 235.91 429.92 237.3 428.87 240.2C427.02 245.36 426.81 251.43 428.31 256.77C429.19 259.94 430.37 262.35 432.36 264.89C433.2 265.98 433.86 266.88 433.76 266.88C433.69 266.88 432.88 266.39 431.98 265.8C429.88 264.41 427.51 261.48 425.98 258.44Z" id="jSN1haQN6"></path><path d="M458.52 247.52C458.24 240.69 457.13 236.74 454.41 233.15C453.64 232.14 453.12 231.3 453.22 231.3C453.92 231.3 456.74 233.71 457.9 235.24C459.64 237.58 460.48 239.25 461.45 242.46C462.5 245.88 462.61 252.3 461.63 255.55C460.34 259.87 457.06 264.79 454.48 266.29C454.41 266.33 454.04 266.54 453.4 266.92L454.76 264.79C457.45 258.35 458.71 252.59 458.52 247.52Z" id="aNRL269Uu"></path><path d="M472.23 268.28C473.31 268.28 473.45 266.71 473.63 250.21C473.8 234.2 473.84 233.67 474.5 233.15C475.16 232.66 475.13 232.59 473.45 231.09C473.34 230.99 472.76 230.48 471.71 229.56L475.9 229.59L480.08 229.59L478.62 230.88L477.12 232.21C477.12 241.86 477.12 247.22 477.12 248.29C477.12 257.12 477.22 264.86 477.33 265.49C477.47 266.08 478.13 267.13 478.79 267.79C478.87 267.87 479.28 268.26 480.01 268.98C477.58 268.98 476.24 268.98 475.97 268.98C473.49 268.98 471.88 268.84 471.88 268.63C471.88 268.45 472.02 268.28 472.23 268.28Z" id="emkZ80G5m"></path><path d="M500.94 263.99C502.23 263.08 503.28 262.42 503.28 262.49C503.28 262.59 502.83 263.78 502.27 265.21C501.74 266.6 501.19 268.03 501.08 268.38C500.87 268.91 500.35 268.98 496.23 268.98C495.92 268.97 494.38 268.96 491.59 268.94L495.08 267.27C498.1 265.66 500.06 264.57 500.94 263.99Z" id="cBo8Ghj4V"></path><path d="M522.46 265.84C522.22 264.93 522.12 258.82 522.19 248.25C522.19 247.18 522.23 241.78 522.29 232.07C522.79 231.55 523.07 231.25 523.13 231.2C523.58 230.67 524.66 230.12 525.67 229.87C527.87 229.35 532.51 229.63 534.74 230.43C538.55 231.75 541.72 236.19 542.91 241.77C543.64 245.32 543.64 253.24 542.87 256.94C542.21 260.32 540.43 264.23 538.76 266.08C536.7 268.35 534.71 269.12 530.66 269.22C528.74 269.25 526.62 269.15 525.95 268.94C524.03 268.35 522.85 267.34 522.46 265.84Z" id="cTFQgMPq2"></path><path d="M515.49 266.5C515.49 256.68 515.49 251.23 515.49 250.14C515.49 236.08 515.56 233.71 516.01 233.25C516.74 232.52 516.67 232.31 515.14 231.13C514.41 230.57 513.78 229.98 513.74 229.84C513.74 229.66 515.59 229.56 517.83 229.56C518.1 229.56 519.46 229.56 521.91 229.56L520.62 230.74L519.33 231.93C519.33 241.62 519.33 247 519.33 248.08C519.33 257.64 519.46 264.75 519.67 265.45C519.85 266.12 520.51 267.2 521.14 267.82C521.21 267.9 521.59 268.29 522.26 268.98L517.79 268.98L513.33 268.98L514.41 267.75L515.49 266.5Z" id="b2QhjYPbom"></path><path d="M539.94 265.63C542.8 262.03 544.02 258.09 544.3 251.36C544.65 243.65 543.19 237.09 540.29 233.43C539.7 232.7 539.21 231.96 539.21 231.86C539.21 231.44 540.67 232.42 542.21 233.81C544.2 235.66 545.63 237.93 546.95 241.45C548 244.21 548.07 244.66 548.07 249.09C548.1 253.35 548 254.05 547.16 256.35C545.94 259.7 544.34 262.38 542.17 264.62C540.67 266.19 538.86 267.55 538.86 267.13C538.86 267.06 539.35 266.36 539.94 265.63Z" id="b8zwiqDKoE"></path><path d="M585.78 266.81C585.88 256.87 585.94 251.35 585.95 250.24C586.13 235 586.16 233.64 586.75 233.25C587.63 232.59 587.49 232.28 585.95 231.2C585.19 230.64 584.56 230.05 584.56 229.87C584.56 229.7 586.27 229.56 588.5 229.56C588.76 229.56 590.06 229.56 592.41 229.56L590.94 230.95L589.44 232.31C589.44 241.79 589.44 247.06 589.44 248.12C589.44 256.8 589.62 264.51 589.75 265.28C589.93 266.01 590.59 267.16 591.22 267.79C591.3 267.87 591.68 268.26 592.37 268.98L588.29 268.98L584.17 268.98L584.98 267.89L585.78 266.81Z" id="a6nVgBNZp"></path><path d="M613.34 263.95C614.59 263.08 615.6 262.42 615.6 262.52C615.6 262.59 615.15 263.78 614.59 265.21C614.07 266.6 613.51 268.03 613.41 268.38C613.2 268.91 612.67 268.98 608.56 268.98C608.25 268.97 606.7 268.96 603.92 268.94L607.51 267.23C610.58 265.63 612.52 264.53 613.34 263.95Z" id="a1lKFwKNF9"></path><path d="M627.78 265.94C628.06 265.42 628.16 260.39 628.16 249.48C628.16 237.51 628.27 233.57 628.61 233.01C629 232.38 628.89 232.17 627.71 231.2C627.01 230.57 626.42 229.98 626.42 229.84C626.42 229.66 628.3 229.56 630.6 229.56C632.91 229.56 634.79 229.7 634.79 229.84C634.79 229.98 634.3 230.39 633.71 230.74C631.13 232.28 631.3 230.92 631.3 248.5C631.3 257.71 631.44 264.79 631.65 265.49C631.82 266.19 632.56 267.2 633.29 267.82C633.38 267.9 633.82 268.29 634.61 268.98L629.94 268.98L625.23 268.98L626.31 267.86C627.15 266.86 627.64 266.22 627.78 265.94Z" id="fiONxl6bO"></path><path d="M647.66 267.79C650.66 266.57 654.95 264.02 656.91 262.28C657.81 261.51 658.58 260.92 658.65 260.99C658.72 261.06 657.92 262.91 656.87 265.07C656.74 265.33 656.1 266.63 654.95 268.98C652 268.98 650.36 268.98 650.03 268.98C647.35 268.98 645.22 268.91 645.29 268.84C645.36 268.77 646.44 268.28 647.66 267.79Z" id="brUSogmQ"></path><path d="M643.51 247.73C643.54 247.49 646.44 245.6 646.79 245.6C646.89 245.6 647 246.55 647 247.7C647 248.85 646.89 249.79 646.75 249.79C646.58 249.75 645.81 249.37 645.01 248.88C644.17 248.39 643.51 247.87 643.51 247.73Z" id="eqtAI7SLU"></path><path d="M649.89 231.37C648.5 230.67 647.35 229.98 647.35 229.84C647.35 229.66 648.92 229.56 650.8 229.56C651.03 229.56 652.18 229.56 654.25 229.56C654.69 231.38 654.94 232.39 654.99 232.59C655.37 234.27 655.65 235.66 655.61 235.73C655.54 235.77 654.81 235.1 653.98 234.27C653.1 233.39 651.29 232.1 649.89 231.37Z" id="b1zSWk18NG"></path><path d="M676.13 250.66C668.84 234.23 668.28 233.08 666.71 231.34C666.04 230.6 665.49 229.91 665.49 229.77C665.49 229.66 667.86 229.56 670.72 229.56C673.61 229.56 675.95 229.63 675.95 229.73C675.95 229.84 675.39 230.71 674.66 231.69C672.01 235.38 672.81 238.45 679.93 252.37C685.61 263.46 685.96 264.34 685.44 266.12C685.23 266.85 684.85 267.72 684.57 268.07C684.15 268.66 684.01 268.52 683.21 266.67C682.68 265.52 679.51 258.34 676.13 250.66Z" id="adENphlFM"></path><path d="M698.63 231.2C698.24 230.71 697.93 230.15 697.93 229.94C697.93 229.52 701.84 229.38 702.22 229.77C702.46 230.01 700.58 233.92 700.06 234.23C699.88 234.34 699.64 233.92 699.53 233.25C699.39 232.59 699.01 231.69 698.63 231.2Z" id="a1iOEDsfez"></path><path d="M715.33 265.94C715.61 265.42 715.72 260.36 715.72 249.41C715.72 235.59 715.79 233.53 716.28 233.01C716.77 232.45 716.7 232.31 715.4 231.27C714.6 230.64 713.97 230.01 713.97 229.84C713.97 229.7 715.86 229.56 718.16 229.56C720.46 229.56 722.35 229.7 722.35 229.87C722.35 230.05 721.65 230.64 720.78 231.2C720.67 231.26 720.15 231.59 719.21 232.17L719.21 249.13L719.21 266.12L720.67 267.55L722.17 268.98L717.46 268.98L712.79 268.98L713.87 267.86C714.71 266.86 715.2 266.22 715.33 265.94Z" id="b86HWrtjp8"></path><path d="M735.53 267.65C738.99 266.22 742.4 264.13 744.6 262.17C745.61 261.27 746.42 260.6 746.42 260.71C746.42 260.78 745.54 262.7 744.46 264.93C744.33 265.2 743.68 266.55 742.51 268.98C739.56 268.98 737.92 268.98 737.59 268.98C734.9 268.98 732.78 268.91 732.85 268.84C732.92 268.77 734.14 268.24 735.53 267.65Z" id="lUSoQyElV"></path><path d="M731.07 247.73C731.07 247.56 733.37 246.06 734.31 245.67C734.45 245.6 734.56 246.51 734.56 247.66C734.56 248.85 734.45 249.79 734.31 249.79C734.14 249.75 733.37 249.37 732.57 248.88C731.73 248.39 731.07 247.87 731.07 247.73Z" id="bTJKQ2Aol"></path><path d="M736.61 230.88C735.67 230.43 734.9 229.98 734.9 229.84C734.9 229.66 736.47 229.56 738.36 229.56C742.3 229.56 741.88 229.24 742.72 233.15C742.96 234.44 743.07 235.49 742.89 235.49C742.72 235.49 742.58 235.35 742.58 235.17C742.58 234.69 738.53 231.75 736.61 230.88Z" id="a7j8XNRRN"></path><path d="M756.15 266.43C756.39 265.77 756.53 259.98 756.53 249.65C756.53 236.01 756.6 233.78 757.06 233.39C757.89 232.7 757.68 232.17 756.18 231.13C755.42 230.6 754.79 230.01 754.79 229.87C754.79 229.7 756.53 229.56 758.63 229.56C760.75 229.56 762.46 229.66 762.46 229.84C762.46 229.98 761.9 230.46 761.24 230.95C761.16 231.01 760.75 231.3 760.02 231.82L760.13 249.16L760.19 266.5L761.38 267.72L762.6 268.98L758.45 268.98L754.33 268.98L755.07 268.21C755.65 267.37 756.01 266.78 756.15 266.43Z" id="bb70SaIIP"></path><path d="M777.32 267.51C778.89 266.81 781.33 265.52 782.73 264.58C784.16 263.64 785.52 262.73 785.76 262.59C786.08 262.38 786.04 262.7 785.62 263.64C785.31 264.37 784.72 265.87 784.3 266.95C784.25 267.09 784.01 267.76 783.57 268.98C780.76 268.98 779.2 268.98 778.89 268.98C776.31 268.98 774.29 268.91 774.36 268.84C774.43 268.77 775.79 268.17 777.32 267.51Z" id="biFcpNqPt"></path></defs><g><g><g><use xlink:href="#brZEzrje7" opacity="1" fill="#ffffff" fill-opacity="1"></use></g><g><use xlink:href="#aO6zd2blC" opacity="1" fill="#d4af37" fill-opacity="1"></use><g><use xlink:href="#aO6zd2blC" opacity="1" fill-opacity="0" stroke="#000000" stroke-width="1" stroke-opacity="0"></use></g></g><g><use xlink:href="#ct0pffgv7" opacity="1" fill="#000000" fill-opacity="0"></use><g><use xlink:href="#ct0pffgv7" opacity="1" fill-opacity="0" stroke="#000000" stroke-width="6" stroke-opacity="1"></use></g></g><g><use xlink:href="#au3BgDUsI" opacity="1" fill="#000000" fill-opacity="1"></use><g><use xlink:href="#au3BgDUsI" opacity="1" fill-opacity="0" stroke="#000000" stroke-width="1" stroke-opacity="0"></use></g></g><g><use xlink:href="#aPyOLOqkV" opacity="1" fill="#1f7544" fill-opacity="1"></use><g><use xlink:href="#aPyOLOqkV" opacity="1" fill-opacity="0" stroke="#000000" stroke-width="1" stroke-opacity="0"></use></g></g><g><use xlink:href="#bvrBXNkSD" opacity="1" fill="#000000" fill-opacity="0"></use><g><use xlink:href="#bvrBXNkSD" opacity="1" fill-opacity="0" stroke="#000000" stroke-width="1" stroke-opacity="0"></use></g></g><g><use xlink:href="#grkoIyBql" opacity="1" fill="#f7c404" fill-opacity="1"></use><g><use xlink:href="#grkoIyBql" opacity="1" fill-opacity="0" stroke="#000000" stroke-width="1" stroke-opacity="0"></use></g></g><g><use xlink:href="#d43Bm2d4S" opacity="1" fill="#000000" fill-opacity="0"></use><g><use xlink:href="#d43Bm2d4S" opacity="1" fill-opacity="0" stroke="#000000" stroke-width="1" stroke-opacity="0"></use></g></g><g><use xlink:href="#b4RMXuiGoQ" opacity="1" fill="#f7c404" fill-opacity="1"></use><g><use xlink:href="#b4RMXuiGoQ" opacity="1" fill-opacity="0" stroke="#000000" stroke-width="1" stroke-opacity="0"></use></g></g><g><use xlink:href="#c2BqqHPNe7" opacity="1" fill="#000000" fill-opacity="0"></use><g><use xlink:href="#c2BqqHPNe7" opacity="1" fill-opacity="0" stroke="#000000" stroke-width="1" stroke-opacity="0"></use></g></g><g><use xlink:href="#c2EytMsFz5" opacity="1" fill="#f7c404" fill-opacity="1"></use><g><use xlink:href="#c2EytMsFz5" opacity="1" fill-opacity="0" stroke="#000000" stroke-width="1" stroke-opacity="0"></use></g></g><g><use xlink:href="#a1TiUvfSmi" opacity="1" fill="#000000" fill-opacity="0"></use><g><use xlink:href="#a1TiUvfSmi" opacity="1" fill-opacity="0" stroke="#000000" stroke-width="1" stroke-opacity="0"></use></g></g><g><use xlink:href="#b641qrAVS" opacity="1" fill="#6fc1cd" fill-opacity="1"></use><g><use xlink:href="#b641qrAVS" opacity="1" fill-opacity="0" stroke="#000000" stroke-width="1" stroke-opacity="0"></use></g></g><g><use xlink:href="#aiD43D8Fj" opacity="1" fill="#000000" fill-opacity="0"></use><g><use xlink:href="#aiD43D8Fj" opacity="1" fill-opacity="0" stroke="#000000" stroke-width="1" stroke-opacity="0"></use></g></g><g><use xlink:href="#a2VOHmsTKN" opacity="1" fill="#f4db4c" fill-opacity="1"></use><g><use xlink:href="#a2VOHmsTKN" opacity="1" fill-opacity="0" stroke="#000000" stroke-width="1" stroke-opacity="0"></use></g></g><g><use xlink:href="#c9yd2YyEjR" opacity="1" fill="#000000" fill-opacity="0"></use><g><use xlink:href="#c9yd2YyEjR" opacity="1" fill-opacity="0" stroke="#000000" stroke-width="1" stroke-opacity="0"></use></g></g><g><use xlink:href="#gps6c0NiD" opacity="1" fill="#f4db4c" fill-opacity="1"></use><g><use xlink:href="#gps6c0NiD" opacity="1" fill-opacity="0" stroke="#000000" stroke-width="1" stroke-opacity="0"></use></g></g><g><use xlink:href="#a57MPXwlSv" opacity="1" fill="#000000" fill-opacity="0"></use><g><use xlink:href="#a57MPXwlSv" opacity="1" fill-opacity="0" stroke="#000000" stroke-width="1" stroke-opacity="0"></use></g></g><g><use xlink:href="#aiD9xsH8e" opacity="1" fill="#f4db4c" fill-opacity="1"></use><g><use xlink:href="#aiD9xsH8e" opacity="1" fill-opacity="0" stroke="#000000" stroke-width="1" stroke-opacity="0"></use></g></g><g><use xlink:href="#b1g7bcYzv7" opacity="1" fill="#000000" fill-opacity="0"></use><g><use xlink:href="#b1g7bcYzv7" opacity="1" fill-opacity="0" stroke="#000000" stroke-width="1" stroke-opacity="0"></use></g></g><g><use xlink:href="#bLeh6cPDh" opacity="1" fill="#ffffff" fill-opacity="1"></use><g><use xlink:href="#bLeh6cPDh" opacity="1" fill-opacity="0" stroke="#000000" stroke-width="1" stroke-opacity="0"></use></g></g><g><use xlink:href="#eHGdkOzqL" opacity="1" fill="#000000" fill-opacity="0"></use><g><use xlink:href="#eHGdkOzqL" opacity="1" fill-opacity="0" stroke="#000000" stroke-width="1" stroke-opacity="0"></use></g></g><g><use xlink:href="#d2ej0MAZzC" opacity="1" fill="#ffffff" fill-opacity="1"></use><g><use xlink:href="#d2ej0MAZzC" opacity="1" fill-opacity="0" stroke="#000000" stroke-width="1" stroke-opacity="0"></use></g></g><g><use xlink:href="#alMSvZGOw" opacity="1" fill="#000000" fill-opacity="0"></use><g><use xlink:href="#alMSvZGOw" opacity="1" fill-opacity="0" stroke="#000000" stroke-width="1" stroke-opacity="0"></use></g></g><g><use xlink:href="#b26zwC7W2O" opacity="1" fill="#ffffff" fill-opacity="1"></use><g><use xlink:href="#b26zwC7W2O" opacity="1" fill-opacity="0" stroke="#000000" stroke-width="1" stroke-opacity="0"></use></g></g><g><use xlink:href="#e1HrzeQWFv" opacity="1" fill="#000000" fill-opacity="0"></use><g><use xlink:href="#e1HrzeQWFv" opacity="1" fill-opacity="0" stroke="#000000" stroke-width="1" stroke-opacity="0"></use></g></g><g><use xlink:href="#c64J62Jp5B" opacity="1" fill="#000000" fill-opacity="1"></use><g><use xlink:href="#c64J62Jp5B" opacity="1" fill-opacity="0" stroke="#000000" stroke-width="1" stroke-opacity="0"></use></g></g><g><use xlink:href="#fjEesoKPA" opacity="1" fill="#ffffff" fill-opacity="1"></use><g><use xlink:href="#fjEesoKPA" opacity="1" fill-opacity="0" stroke="#000000" stroke-width="1" stroke-opacity="0"></use></g></g><g><use xlink:href="#fOR0vvfGf" opacity="1" fill="#ffffff" fill-opacity="1"></use><g><use xlink:href="#fOR0vvfGf" opacity="1" fill-opacity="0" stroke="#000000" stroke-width="1" stroke-opacity="0"></use></g></g><g><use xlink:href="#cYWf0sA0I" opacity="1" fill="#ffffff" fill-opacity="1"></use><g><use xlink:href="#cYWf0sA0I" opacity="1" fill-opacity="0" stroke="#000000" stroke-width="1" stroke-opacity="0"></use></g></g><g><use xlink:href="#h96QA5tYg" opacity="1" fill="#ffffff" fill-opacity="1"></use><g><use xlink:href="#h96QA5tYg" opacity="1" fill-opacity="0" stroke="#000000" stroke-width="1" stroke-opacity="0"></use></g></g><g><use xlink:href="#b10nBJJ4L4" opacity="1" fill="#ffffff" fill-opacity="1"></use><g><use xlink:href="#b10nBJJ4L4" opacity="1" fill-opacity="0" stroke="#000000" stroke-width="1" stroke-opacity="0"></use></g></g><g><use xlink:href="#bzErsCcU" opacity="1" fill="#ffffff" fill-opacity="1"></use><g><use xlink:href="#bzErsCcU" opacity="1" fill-opacity="0" stroke="#000000" stroke-width="1" stroke-opacity="0"></use></g></g><g><use xlink:href="#a2FzeIISEm" opacity="1" fill="#d4af37" fill-opacity="1"></use><g><use xlink:href="#a2FzeIISEm" opacity="1" fill-opacity="0" stroke="#000000" stroke-width="1" stroke-opacity="0"></use></g></g><g><use xlink:href="#b16c0hrTOb" opacity="1" fill="#ffffff" fill-opacity="1"></use><g><use xlink:href="#b16c0hrTOb" opacity="1" fill-opacity="0" stroke="#000000" stroke-width="1" stroke-opacity="0"></use></g></g><g><use xlink:href="#j1FDZj0zZQ" opacity="1" fill="#ffffff" fill-opacity="1"></use><g><use xlink:href="#j1FDZj0zZQ" opacity="1" fill-opacity="0" stroke="#000000" stroke-width="1" stroke-opacity="0"></use></g></g><g><use xlink:href="#c1PtlC3LZs" opacity="1" fill="#ffffff" fill-opacity="1"></use><g><use xlink:href="#c1PtlC3LZs" opacity="1" fill-opacity="0" stroke="#000000" stroke-width="1" stroke-opacity="0"></use></g></g><g><use xlink:href="#b7lFLZ8mS" opacity="1" fill="#ffffff" fill-opacity="1"></use><g><use xlink:href="#b7lFLZ8mS" opacity="1" fill-opacity="0" stroke="#000000" stroke-width="1" stroke-opacity="0"></use></g></g><g><use xlink:href="#aUJ2oRGA4" opacity="1" fill="#ffffff" fill-opacity="1"></use><g><use xlink:href="#aUJ2oRGA4" opacity="1" fill-opacity="0" stroke="#000000" stroke-width="1" stroke-opacity="0"></use></g></g><g><use xlink:href="#jSN1haQN6" opacity="1" fill="#ffffff" fill-opacity="1"></use><g><use xlink:href="#jSN1haQN6" opacity="1" fill-opacity="0" stroke="#000000" stroke-width="1" stroke-opacity="0"></use></g></g><g><use xlink:href="#aNRL269Uu" opacity="1" fill="#ffffff" fill-opacity="1"></use><g><use xlink:href="#aNRL269Uu" opacity="1" fill-opacity="0" stroke="#000000" stroke-width="1" stroke-opacity="0"></use></g></g><g><use xlink:href="#emkZ80G5m" opacity="1" fill="#ffffff" fill-opacity="1"></use><g><use xlink:href="#emkZ80G5m" opacity="1" fill-opacity="0" stroke="#000000" stroke-width="1" stroke-opacity="0"></use></g></g><g><use xlink:href="#cBo8Ghj4V" opacity="1" fill="#ffffff" fill-opacity="1"></use><g><use xlink:href="#cBo8Ghj4V" opacity="1" fill-opacity="0" stroke="#000000" stroke-width="1" stroke-opacity="0"></use></g></g><g><use xlink:href="#cTFQgMPq2" opacity="1" fill="#ffffff" fill-opacity="1"></use><g><use xlink:href="#cTFQgMPq2" opacity="1" fill-opacity="0" stroke="#000000" stroke-width="1" stroke-opacity="0"></use></g></g><g><use xlink:href="#b2QhjYPbom" opacity="1" fill="#ffffff" fill-opacity="1"></use><g><use xlink:href="#b2QhjYPbom" opacity="1" fill-opacity="0" stroke="#000000" stroke-width="1" stroke-opacity="0"></use></g></g><g><use xlink:href="#b8zwiqDKoE" opacity="1" fill="#ffffff" fill-opacity="1"></use><g><use xlink:href="#b8zwiqDKoE" opacity="1" fill-opacity="0" stroke="#000000" stroke-width="1" stroke-opacity="0"></use></g></g><g><use xlink:href="#a6nVgBNZp" opacity="1" fill="#ffffff" fill-opacity="1"></use><g><use xlink:href="#a6nVgBNZp" opacity="1" fill-opacity="0" stroke="#000000" stroke-width="1" stroke-opacity="0"></use></g></g><g><use xlink:href="#a1lKFwKNF9" opacity="1" fill="#ffffff" fill-opacity="1"></use><g><use xlink:href="#a1lKFwKNF9" opacity="1" fill-opacity="0" stroke="#000000" stroke-width="1" stroke-opacity="0"></use></g></g><g><use xlink:href="#fiONxl6bO" opacity="1" fill="#ffffff" fill-opacity="1"></use><g><use xlink:href="#fiONxl6bO" opacity="1" fill-opacity="0" stroke="#000000" stroke-width="1" stroke-opacity="0"></use></g></g><g><use xlink:href="#brUSogmQ" opacity="1" fill="#ffffff" fill-opacity="1"></use><g><use xlink:href="#brUSogmQ" opacity="1" fill-opacity="0" stroke="#000000" stroke-width="1" stroke-opacity="0"></use></g></g><g><use xlink:href="#eqtAI7SLU" opacity="1" fill="#ffffff" fill-opacity="1"></use><g><use xlink:href="#eqtAI7SLU" opacity="1" fill-opacity="0" stroke="#000000" stroke-width="1" stroke-opacity="0"></use></g></g><g><use xlink:href="#b1zSWk18NG" opacity="1" fill="#ffffff" fill-opacity="1"></use><g><use xlink:href="#b1zSWk18NG" opacity="1" fill-opacity="0" stroke="#000000" stroke-width="1" stroke-opacity="0"></use></g></g><g><use xlink:href="#adENphlFM" opacity="1" fill="#ffffff" fill-opacity="1"></use><g><use xlink:href="#adENphlFM" opacity="1" fill-opacity="0" stroke="#000000" stroke-width="1" stroke-opacity="0"></use></g></g><g><use xlink:href="#a1iOEDsfez" opacity="1" fill="#ffffff" fill-opacity="1"></use><g><use xlink:href="#a1iOEDsfez" opacity="1" fill-opacity="0" stroke="#000000" stroke-width="1" stroke-opacity="0"></use></g></g><g><use xlink:href="#b86HWrtjp8" opacity="1" fill="#ffffff" fill-opacity="1"></use><g><use xlink:href="#b86HWrtjp8" opacity="1" fill-opacity="0" stroke="#000000" stroke-width="1" stroke-opacity="0"></use></g></g><g><use xlink:href="#lUSoQyElV" opacity="1" fill="#ffffff" fill-opacity="1"></use><g><use xlink:href="#lUSoQyElV" opacity="1" fill-opacity="0" stroke="#000000" stroke-width="1" stroke-opacity="0"></use></g></g><g><use xlink:href="#bTJKQ2Aol" opacity="1" fill="#ffffff" fill-opacity="1"></use><g><use xlink:href="#bTJKQ2Aol" opacity="1" fill-opacity="0" stroke="#000000" stroke-width="1" stroke-opacity="0"></use></g></g><g><use xlink:href="#a7j8XNRRN" opacity="1" fill="#ffffff" fill-opacity="1"></use><g><use xlink:href="#a7j8XNRRN" opacity="1" fill-opacity="0" stroke="#000000" stroke-width="1" stroke-opacity="0"></use></g></g><g><use xlink:href="#bb70SaIIP" opacity="1" fill="#ffffff" fill-opacity="1"></use><g><use xlink:href="#bb70SaIIP" opacity="1" fill-opacity="0" stroke="#000000" stroke-width="1" stroke-opacity="0"></use></g></g><g><use xlink:href="#biFcpNqPt" opacity="1" fill="#ffffff" fill-opacity="1"></use><g><use xlink:href="#biFcpNqPt" opacity="1" fill-opacity="0" stroke="#000000" stroke-width="1" stroke-opacity="0"></use></g></g></g></g></svg>