<?xml version="1.0" encoding="UTF-8" standalone="no"?>
<!DOCTYPE svg PUBLIC "-//W3C//DTD SVG 1.1//EN" "http://www.w3.org/Graphics/SVG/1.1/DTD/svg11.dtd">
<svg version="1.1" xmlns="http://www.w3.org/2000/svg" xmlns:xlink="http://www.w3.org/1999/xlink" preserveAspectRatio="xMidYMid meet" viewBox="0 0 888 320" width="300" height="108.11"><defs><path d="M0 0L888 0L888 320L0 320L0 0Z" id="c1BKnJSop8"></path><path d="M160 310C77.21 310 10 242.79 10 160C10 77.21 77.21 10 160 10C242.79 10 310 77.21 310 160C310 242.79 242.79 310 160 310Z" id="c5lLOhrcBK"></path><path d="M160 310C77.21 310 10 242.79 10 160C10 77.21 77.21 10 160 10C242.79 10 310 77.21 310 160C310 242.79 242.79 310 160 310Z" id="ct0pffgv7"></path><path d="M159 275.6C94.15 275.6 41.5 222.95 41.5 158.1C41.5 93.25 94.15 40.6 159 40.6C223.85 40.6 276.5 93.25 276.5 158.1C276.5 222.95 223.85 275.6 159 275.6Z" id="au3BgDUsI"></path><path d="M50.68 132.06C60.36 91.02 94.58 57.84 135.89 49.38C143.32 47.88 153.56 46.8 156.81 47.17C157.04 47.17 156.38 48.11 155.3 49.24C154.22 50.32 152.39 52.77 151.17 54.69C141.48 69.73 135.19 95.68 132.18 132.76C130.3 155.7 130.58 184.55 132.74 186.62C133.87 187.8 150.51 191.23 161.51 192.64C182.56 195.32 204.09 195.08 222.32 191.93C242.11 188.55 258.28 182.02 267.07 173.79C269.28 171.72 269.37 171.68 269.37 172.85C269.37 173.46 268.95 176.19 268.38 178.87C259.27 224.97 221.95 260.37 175.18 267.23C167.1 268.4 153.19 268.73 146.47 267.93C111.26 263.61 80.95 243.96 62.81 213.69C54.82 200.35 49.51 184.04 47.95 168.25C46.92 157.53 47.95 143.48 50.68 132.06Z" id="aPyOLOqkV"></path><path d="M50.68 132.06C60.36 91.02 94.58 57.84 135.89 49.38C143.32 47.88 153.56 46.8 156.81 47.17C157.04 47.17 156.38 48.11 155.3 49.24C154.22 50.32 152.39 52.77 151.17 54.69C141.48 69.73 135.19 95.68 132.18 132.76C130.3 155.7 130.58 184.55 132.74 186.62C133.87 187.8 150.51 191.23 161.51 192.64C182.56 195.32 204.09 195.08 222.32 191.93C242.11 188.55 258.28 182.02 267.07 173.79C269.28 171.72 269.37 171.68 269.37 172.85C269.37 173.46 268.95 176.19 268.38 178.87C259.27 224.97 221.95 260.37 175.18 267.23C167.1 268.4 153.19 268.73 146.47 267.93C111.26 263.61 80.95 243.96 62.81 213.69C54.82 200.35 49.51 184.04 47.95 168.25C46.92 157.53 47.95 143.48 50.68 132.06Z" id="bvrBXNkSD"></path><path d="M155.05 161.63C157.87 158.01 161.35 153.64 162.76 151.95C162.93 151.74 163.77 150.72 165.29 148.89C169.55 149.54 171.92 149.9 172.39 149.97C182.83 151.52 202.24 154.3 204.4 154.58C205.43 154.67 212.11 155.66 219.2 156.69C236.5 159.28 245.19 160.55 257.27 162.33C262.82 163.13 267.66 163.88 267.99 164.03C268.98 164.31 266.06 168.02 262.49 171.03C250.41 181.23 228.23 187.71 200.64 189.12C190.67 189.64 188.28 189.64 177.84 189.08C166.09 188.42 145.74 185.36 138.88 183.2C138.18 182.97 138.46 182.54 145.37 173.85C147.86 170.75 152.18 165.25 155.05 161.63Z" id="grkoIyBql"></path><path d="M155.05 161.63C157.87 158.01 161.35 153.64 162.76 151.95C162.93 151.74 163.77 150.72 165.29 148.89C169.55 149.54 171.92 149.9 172.39 149.97C182.83 151.52 202.24 154.3 204.4 154.58C205.43 154.67 212.11 155.66 219.2 156.69C236.5 159.28 245.19 160.55 257.27 162.33C262.82 163.13 267.66 163.88 267.99 164.03C268.98 164.31 266.06 168.02 262.49 171.03C250.41 181.23 228.23 187.71 200.64 189.12C190.67 189.64 188.28 189.64 177.84 189.08C166.09 188.42 145.74 185.36 138.88 183.2C138.18 182.97 138.46 182.54 145.37 173.85C147.86 170.75 152.18 165.25 155.05 161.63Z" id="d43Bm2d4S"></path><path d="M159.7 51.93C159.81 51.82 160.38 51.27 161.39 50.29C161.39 53.44 161.39 69.2 161.39 97.57C161.39 125.96 161.39 141.74 161.39 144.9C159.56 147.24 158.54 148.54 158.34 148.8C149.17 160.5 138.13 174.41 137.42 175.16C136.67 175.96 136.58 175.96 136.3 175.26C135.87 174.13 135.97 161.44 136.48 148.8C137.75 118.48 141.94 90.85 147.81 73.74C150.91 64.86 155.99 55.5 159.7 51.93Z" id="b4RMXuiGoQ"></path><path d="M159.7 51.93C159.81 51.82 160.38 51.27 161.39 50.29C161.39 53.44 161.39 69.2 161.39 97.57C161.39 125.96 161.39 141.74 161.39 144.9C159.56 147.24 158.54 148.54 158.34 148.8C149.17 160.5 138.13 174.41 137.42 175.16C136.67 175.96 136.58 175.96 136.3 175.26C135.87 174.13 135.97 161.44 136.48 148.8C137.75 118.48 141.94 90.85 147.81 73.74C150.91 64.86 155.99 55.5 159.7 51.93Z" id="c2BqqHPNe7"></path><path d="M166.56 95.64C166.56 57.85 166.7 47.7 167.17 47.56C168.21 47.18 180.52 48.97 185.69 50.24C200.87 54.05 216.48 61.66 228.27 71.01C230.15 72.47 234.06 76.04 236.97 78.91C246.7 88.36 253.09 97.14 259.15 109.41C266.2 123.7 269.68 137 270.29 152.13C270.31 152.56 270.41 154.71 270.57 158.57C269.47 158.55 268.86 158.53 268.74 158.53C267.75 158.48 260.14 157.45 251.87 156.22C236.03 153.83 228.27 152.7 190.3 147.01C177.37 145.13 166.75 143.53 166.7 143.53C166.61 143.53 166.56 121.96 166.56 95.64Z" id="c2EytMsFz5"></path><path d="M166.56 95.64C166.56 57.85 166.7 47.7 167.17 47.56C168.21 47.18 180.52 48.97 185.69 50.24C200.87 54.05 216.48 61.66 228.27 71.01C230.15 72.47 234.06 76.04 236.97 78.91C246.7 88.36 253.09 97.14 259.15 109.41C266.2 123.7 269.68 137 270.29 152.13C270.31 152.56 270.41 154.71 270.57 158.57C269.47 158.55 268.86 158.53 268.74 158.53C267.75 158.48 260.14 157.45 251.87 156.22C236.03 153.83 228.27 152.7 190.3 147.01C177.37 145.13 166.75 143.53 166.7 143.53C166.61 143.53 166.56 121.96 166.56 95.64Z" id="a1TiUvfSmi"></path><path d="M47.84 162.71C47.82 162.4 47.73 160.87 47.56 158.1C48.29 158.1 48.7 158.1 48.78 158.1C49.44 158.1 51.51 157.87 53.34 157.54C53.56 157.5 54.68 157.31 56.68 156.98C58.91 154.61 60.14 153.29 60.39 153.03C66.17 146.92 67.16 144.43 68.1 134.23C68.85 125.58 69.65 123.51 73.22 121.11C76.89 118.62 80.22 118.01 94.42 117.26C102.78 116.84 105.04 116.32 107.25 114.25C110.68 111.06 111.39 106.07 110.63 89.95C110.07 78.58 110.21 62.13 110.92 59.26C111.29 57.76 112.56 57.01 119.14 54.56C124.55 52.54 132.02 50.33 137.19 49.3C141.47 48.41 151.66 47.18 154.77 47.18C154.9 47.18 155.57 47.18 156.79 47.18C155.74 48.34 155.17 48.98 155.05 49.11C145.04 60.2 137.14 85.35 133.48 117.68C131.6 134.18 131.13 142.78 131.13 162.1C131.08 182.26 131.41 186.3 133.1 187.2C133.52 187.43 134.98 187.85 136.25 188.14C137.56 188.42 140.53 189.08 142.83 189.59C174.79 196.78 210.79 196.41 237.91 188.65C240.54 187.85 242.75 187.24 242.84 187.24C242.89 187.24 242.94 193.54 242.89 201.25C242.89 218.55 242.66 219.53 237.86 222.59C235.47 224.09 235.32 224.14 230.25 224.09C223.1 224.04 220.28 223.06 202.47 214.03C187.29 206.37 182.12 204.26 177.42 203.83C171.12 203.27 167.32 206.56 166.09 213.61C165.76 215.26 165.44 224 165.34 233.07C165.11 251.82 165.01 252.24 161.44 259.62C160.12 262.3 158.9 265.31 158.76 266.3C158.74 266.41 158.63 267.01 158.43 268.08C155.58 268.06 154 268.04 153.69 268.04C151.1 267.99 147.67 267.8 146.12 267.57C132.63 265.73 121.77 262.54 110.4 257.04C77.03 240.87 53.62 208.77 48.88 172.67C48.5 169.71 48.03 165.2 47.84 162.71Z" id="b641qrAVS"></path><path d="M47.84 162.71C47.82 162.4 47.73 160.87 47.56 158.1C48.29 158.1 48.7 158.1 48.78 158.1C49.44 158.1 51.51 157.87 53.34 157.54C53.56 157.5 54.68 157.31 56.68 156.98C58.91 154.61 60.14 153.29 60.39 153.03C66.17 146.92 67.16 144.43 68.1 134.23C68.85 125.58 69.65 123.51 73.22 121.11C76.89 118.62 80.22 118.01 94.42 117.26C102.78 116.84 105.04 116.32 107.25 114.25C110.68 111.06 111.39 106.07 110.63 89.95C110.07 78.58 110.21 62.13 110.92 59.26C111.29 57.76 112.56 57.01 119.14 54.56C124.55 52.54 132.02 50.33 137.19 49.3C141.47 48.41 151.66 47.18 154.77 47.18C154.9 47.18 155.57 47.18 156.79 47.18C155.74 48.34 155.17 48.98 155.05 49.11C145.04 60.2 137.14 85.35 133.48 117.68C131.6 134.18 131.13 142.78 131.13 162.1C131.08 182.26 131.41 186.3 133.1 187.2C133.52 187.43 134.98 187.85 136.25 188.14C137.56 188.42 140.53 189.08 142.83 189.59C174.79 196.78 210.79 196.41 237.91 188.65C240.54 187.85 242.75 187.24 242.84 187.24C242.89 187.24 242.94 193.54 242.89 201.25C242.89 218.55 242.66 219.53 237.86 222.59C235.47 224.09 235.32 224.14 230.25 224.09C223.1 224.04 220.28 223.06 202.47 214.03C187.29 206.37 182.12 204.26 177.42 203.83C171.12 203.27 167.32 206.56 166.09 213.61C165.76 215.26 165.44 224 165.34 233.07C165.11 251.82 165.01 252.24 161.44 259.62C160.12 262.3 158.9 265.31 158.76 266.3C158.74 266.41 158.63 267.01 158.43 268.08C155.58 268.06 154 268.04 153.69 268.04C151.1 267.99 147.67 267.8 146.12 267.57C132.63 265.73 121.77 262.54 110.4 257.04C77.03 240.87 53.62 208.77 48.88 172.67C48.5 169.71 48.03 165.2 47.84 162.71Z" id="aiD43D8Fj"></path><path d="M152.51 164.87C155.08 165.52 156.5 165.88 156.79 165.95C181.6 172.2 219.3 169.2 232.5 159.89C232.59 159.83 233.03 159.51 233.82 158.95C244.03 160.42 249.7 161.23 250.83 161.39C260.19 162.76 267.99 164.03 268.18 164.17C268.37 164.31 267.75 165.44 266.77 166.66C256.94 179.11 232.18 187.53 200.64 189.12C190.72 189.64 188.28 189.64 178.17 189.08C166.19 188.42 145.84 185.36 138.93 183.2C138.18 182.97 138.5 182.54 146.73 172.16C147.11 171.67 149.04 169.24 152.51 164.87Z" id="a2VOHmsTKN"></path><path d="M152.51 164.87C155.08 165.52 156.5 165.88 156.79 165.95C181.6 172.2 219.3 169.2 232.5 159.89C232.59 159.83 233.03 159.51 233.82 158.95C244.03 160.42 249.7 161.23 250.83 161.39C260.19 162.76 267.99 164.03 268.18 164.17C268.37 164.31 267.75 165.44 266.77 166.66C256.94 179.11 232.18 187.53 200.64 189.12C190.72 189.64 188.28 189.64 178.17 189.08C166.19 188.42 145.84 185.36 138.93 183.2C138.18 182.97 138.5 182.54 146.73 172.16C147.11 171.67 149.04 169.24 152.51 164.87Z" id="c9yd2YyEjR"></path><path d="M159.7 51.93C159.81 51.82 160.38 51.27 161.39 50.29C161.39 59.34 161.39 64.37 161.39 65.37C161.39 77.55 161.25 80.51 160.78 80.69C160.03 80.98 156.83 86.99 155.1 91.36C150.82 102.22 148 115.05 146.54 130.37C145.65 139.59 145.84 160.88 146.78 162.05C147.25 162.62 146.45 163.93 142.12 169.34C139.26 173 136.81 175.96 136.72 175.96C136.67 175.96 136.44 175.63 136.3 175.21C135.87 174.08 135.97 161.58 136.48 148.94C137.8 118.2 141.75 91.93 147.76 73.97C150.72 65.14 155.89 55.6 159.7 51.93Z" id="gps6c0NiD"></path><path d="M159.7 51.93C159.81 51.82 160.38 51.27 161.39 50.29C161.39 59.34 161.39 64.37 161.39 65.37C161.39 77.55 161.25 80.51 160.78 80.69C160.03 80.98 156.83 86.99 155.1 91.36C150.82 102.22 148 115.05 146.54 130.37C145.65 139.59 145.84 160.88 146.78 162.05C147.25 162.62 146.45 163.93 142.12 169.34C139.26 173 136.81 175.96 136.72 175.96C136.67 175.96 136.44 175.63 136.3 175.21C135.87 174.08 135.97 161.58 136.48 148.94C137.8 118.2 141.75 91.93 147.76 73.97C150.72 65.14 155.89 55.6 159.7 51.93Z" id="a57MPXwlSv"></path><path d="M232.36 132.49C228.6 117.59 221.04 104.9 210.79 96.39C205.95 92.4 204.92 91.74 199.37 88.78C191.1 84.41 180.33 81.4 170.75 80.69C170.47 80.68 169.07 80.58 166.56 80.41C166.56 79.32 166.56 73.87 166.56 64.06C166.56 54.21 166.56 48.75 166.56 47.65C167.92 47.65 168.67 47.65 168.82 47.65C178.78 47.7 196.13 52.49 208.63 58.7C219.53 64.06 227.85 69.98 236.97 78.91C246.7 88.31 253.09 97.14 259.15 109.41C266.34 123.93 270.43 140.43 270.43 154.81C270.43 155.06 270.43 156.32 270.43 158.57C269.39 158.55 268.81 158.53 268.69 158.53C267.71 158.48 259.76 157.4 251.07 156.08C248.95 155.76 243.66 154.96 235.18 153.69C235.18 152.36 235.18 151.62 235.18 151.48C235.18 147.67 233.73 137.89 232.36 132.49Z" id="aiD9xsH8e"></path><path d="M232.36 132.49C228.6 117.59 221.04 104.9 210.79 96.39C205.95 92.4 204.92 91.74 199.37 88.78C191.1 84.41 180.33 81.4 170.75 80.69C170.47 80.68 169.07 80.58 166.56 80.41C166.56 79.32 166.56 73.87 166.56 64.06C166.56 54.21 166.56 48.75 166.56 47.65C167.92 47.65 168.67 47.65 168.82 47.65C178.78 47.7 196.13 52.49 208.63 58.7C219.53 64.06 227.85 69.98 236.97 78.91C246.7 88.31 253.09 97.14 259.15 109.41C266.34 123.93 270.43 140.43 270.43 154.81C270.43 155.06 270.43 156.32 270.43 158.57C269.39 158.55 268.81 158.53 268.69 158.53C267.71 158.48 259.76 157.4 251.07 156.08C248.95 155.76 243.66 154.96 235.18 153.69C235.18 152.36 235.18 151.62 235.18 151.48C235.18 147.67 233.73 137.89 232.36 132.49Z" id="b1g7bcYzv7"></path><path d="M163.13 151.57C164.4 149.96 165.11 149.07 165.25 148.89C174.47 150.24 179.59 151 180.62 151.15C189.03 152.42 197.44 153.64 199.23 153.97C199.45 154 200.54 154.19 202.52 154.53C200.69 154.87 199.67 155.06 199.46 155.1C192.65 156.46 182.36 156.98 174.08 156.36C171.22 156.18 165.34 155.33 162.94 154.72C162.81 154.69 162.15 154.53 160.97 154.25C161.12 154.07 161.84 153.18 163.13 151.57Z" id="bLeh6cPDh"></path><path d="M163.13 151.57C164.4 149.96 165.11 149.07 165.25 148.89C174.47 150.24 179.59 151 180.62 151.15C189.03 152.42 197.44 153.64 199.23 153.97C199.45 154 200.54 154.19 202.52 154.53C200.69 154.87 199.67 155.06 199.46 155.1C192.65 156.46 182.36 156.98 174.08 156.36C171.22 156.18 165.34 155.33 162.94 154.72C162.81 154.69 162.15 154.53 160.97 154.25C161.12 154.07 161.84 153.18 163.13 151.57Z" id="eHGdkOzqL"></path><path d="M161.39 123.98C161.39 125.38 161.39 132.35 161.39 144.9C159.7 147.01 158.76 148.19 158.57 148.42C157.02 150.4 155.57 151.99 155.33 151.99C155.14 151.99 154.81 150.4 154.63 148.37C153.92 139.77 154.72 127.74 156.69 118.11C157.63 113.45 160.74 103.11 161.21 103.11C161.3 103.11 161.39 112.51 161.39 123.98Z" id="d2ej0MAZzC"></path><path d="M161.39 123.98C161.39 125.38 161.39 132.35 161.39 144.9C159.7 147.01 158.76 148.19 158.57 148.42C157.02 150.4 155.57 151.99 155.33 151.99C155.14 151.99 154.81 150.4 154.63 148.37C153.92 139.77 154.72 127.74 156.69 118.11C157.63 113.45 160.74 103.11 161.21 103.11C161.3 103.11 161.39 112.51 161.39 123.98Z" id="alMSvZGOw"></path><path d="M166.56 96.86C169.19 97.03 170.64 97.13 170.93 97.14C178.92 97.66 188.51 100.86 194.62 105.04C202.38 110.35 208.72 119.23 211.82 129.25C214.03 136.2 215.26 148.23 213.94 149.55C213.09 150.4 211.64 150.25 188.65 146.78C176.9 145.04 167.13 143.58 166.94 143.53C166.7 143.53 166.56 133.05 166.56 120.17C166.56 118.62 166.56 110.85 166.56 96.86Z" id="b26zwC7W2O"></path><path d="M166.56 96.86C169.19 97.03 170.64 97.13 170.93 97.14C178.92 97.66 188.51 100.86 194.62 105.04C202.38 110.35 208.72 119.23 211.82 129.25C214.03 136.2 215.26 148.23 213.94 149.55C213.09 150.4 211.64 150.25 188.65 146.78C176.9 145.04 167.13 143.58 166.94 143.53C166.7 143.53 166.56 133.05 166.56 120.17C166.56 118.62 166.56 110.85 166.56 96.86Z" id="e1HrzeQWFv"></path><path d="M359 31L580.5 31L802 31L802 100.77L802 170.54L580.5 170.54L359 170.54L359 100.77L359 31Z" id="c64J62Jp5B"></path><path d="M357 29L582 29L807 29L807 101.46L807 173.93L582 173.93L357 173.93L357 101.46L357 29ZM586.11 164.18C589.76 161.41 590.37 159.96 590.37 154.16C590.37 146.79 588.69 144.94 574.55 136.77C570.15 134.14 568.32 132.16 568.32 129.92C568.32 122.41 578.96 121.75 584.59 129C584.82 129.3 585.99 130.79 588.09 133.48C588.09 129.61 588.09 127.45 588.09 127.02C588.09 122.67 587.63 121.23 586.72 122.41C585.5 123.99 584.59 124.12 581.24 122.81C571.36 118.85 562.24 123.6 562.24 132.69C562.24 139.01 564.98 142.44 574.1 147.84C582.61 152.85 583.52 153.77 583.52 158.25C583.52 168.79 568.63 166.15 564.06 154.82C562.7 151.27 562.54 151.79 562.39 159.43C562.39 164.84 562.85 167.34 563.61 166.15C564.67 164.7 565.89 164.7 569.84 165.89C577.29 168.13 581.4 167.73 586.11 164.18ZM458.86 138.75C458.86 125.97 459.47 117.27 460.23 117.93C460.99 118.72 465.4 129.79 470.11 142.83C474.98 155.75 479.23 165.89 479.84 165.36C480.45 164.97 485.16 153.51 490.18 139.93C490.81 138.29 493.95 130.08 499.61 115.3C499.7 129.29 499.75 137.06 499.76 138.62C499.91 161.28 499.76 161.94 496.56 163.91C493.37 165.89 493.98 166.02 505.99 166.02C517.09 165.89 518.46 165.63 516.33 164.18C513.9 162.6 513.59 159.7 513.59 137.04C513.59 114.37 513.9 111.48 516.33 109.89C518.61 108.31 517.54 108.18 508.73 108.05C508.06 108.05 504.71 108.05 498.69 108.05C494.77 118.72 492.59 124.65 492.16 125.84C488.66 135.59 485.31 143.62 484.71 143.62C484.25 143.62 480.75 135.59 477.11 125.84C476.67 124.65 474.49 118.72 470.57 108.05C464.55 108.05 461.2 108.05 460.53 108.05C451.87 108.18 450.8 108.31 453.24 109.89C455.52 111.48 455.82 114.37 455.82 137.04C455.82 159.7 455.52 162.6 453.24 164.18C450.8 165.76 451.41 165.89 457.8 166.02C458.27 166.02 460.66 166.02 464.94 166.02L461.9 163.39C459.88 160.49 458.86 152.28 458.86 138.75ZM528.64 159.7C529.55 156.67 530.62 156.01 535.64 155.75C539.28 155.48 541.87 156.01 542.63 157.06C544.61 159.7 544.3 164.44 542.17 165.1C541.11 165.5 544.15 165.89 549.17 165.89C556.16 166.02 557.68 165.63 556.46 164.44C555.7 163.52 553.42 158.25 551.6 152.85C542.32 125.31 540.5 120.83 539.44 122.67C538.83 123.73 535.33 132.82 531.84 142.97C528.34 153.11 524.39 162.46 523.02 163.78C520.89 165.89 521.19 166.02 526.67 166.02C531.23 165.89 531.99 165.63 530.01 164.7C528.19 163.65 527.88 162.46 528.64 159.7ZM616.97 144.28C616.97 143 616.97 136.59 616.97 125.05C619.52 125.28 620.94 125.42 621.23 125.44C624.12 125.71 626.09 127.15 627.92 130.45C628.1 130.76 629.01 132.29 630.65 135.06L630.65 128.87L630.65 122.54L612.41 122.54L594.17 122.54L594.17 128.87L594.17 135.06C595.81 132.29 596.72 130.76 596.9 130.45C598.73 127.15 600.7 125.71 603.74 125.44C604.02 125.42 605.39 125.28 607.85 125.05C607.85 136.59 607.85 143 607.85 144.28C607.85 162.99 607.7 163.52 604.5 164.7C601.92 165.5 604.05 165.89 612.41 165.89C620.77 165.89 622.9 165.5 620.47 164.7C617.12 163.52 616.97 162.99 616.97 144.28ZM669.42 157.46C669.48 157.11 669.78 155.35 670.33 152.19C668.51 154.72 667.49 156.12 667.29 156.4C663.64 161.41 659.84 163.39 653.76 163.39C648.29 163.39 647.38 161.67 647.38 152.06C647.38 146.92 647.98 144.94 649.35 144.94C651.94 144.94 655.89 148.76 656.95 152.19C657.26 153.64 657.71 149.82 657.71 143.62C657.71 135.19 657.41 133.35 656.5 136.25C655.13 140.2 652.7 142.31 649.35 142.31C647.98 142.31 647.38 139.67 647.38 133.61C647.38 133.04 647.38 130.18 647.38 125.05C651.21 125.28 653.34 125.42 653.76 125.44C659.08 125.71 660.75 126.63 663.64 130.32C663.88 130.62 665.04 132.11 667.14 134.8L667.14 128.6L667.14 122.54C656.92 122.54 651.25 122.54 650.11 122.54C637.65 122.67 633.69 122.94 635.67 123.99C637.95 125.18 638.25 127.55 638.25 144.28C638.25 161.02 637.95 163.39 635.67 164.57C633.69 165.63 637.65 165.89 650.11 166.02C662.58 166.02 667.44 165.63 667.9 164.44C668.2 163.52 668.81 160.36 669.42 157.46ZM688.42 154.82C688.42 150.08 689.03 146.26 689.64 146.26C690.25 146.26 693.29 150.74 696.48 156.14C696.86 156.8 698.73 160.09 702.11 166.02C705.85 166.02 707.92 166.02 708.34 166.02C713.51 166.02 714.12 165.76 712.44 164.31C711.38 163.26 708.49 158.91 706.06 154.56C705.77 154.03 704.36 151.4 701.8 146.65C704.17 144.6 705.49 143.46 705.75 143.23C708.64 140.73 709.71 138.49 709.71 134.8C709.55 125.44 703.78 122.54 685.69 122.54C677.02 122.67 674.59 122.94 676.72 123.99C679 125.18 679.3 127.55 679.3 144.28C679.3 161.02 679 163.39 676.72 164.57C674.59 165.63 676.41 165.89 683.86 165.89C691.31 165.89 693.14 165.63 691.16 164.57C689.03 163.52 688.42 161.41 688.42 154.82ZM635.21 84.86C635.21 83.28 633.54 84.07 629.13 87.5C617.73 96.32 606.78 92.9 603.44 79.2C598.57 59.43 605.42 39.54 617.27 39.54C624.27 39.54 627.61 41.78 631.41 49.16C631.66 49.61 632.87 51.9 635.06 56.01C635.06 49.68 635.06 46.17 635.06 45.47C635.06 36.24 634.91 35.19 633.09 37.3C630.96 39.67 630.65 39.67 623.51 37.43C609.67 33.21 597.81 38.35 591.13 51.66C588.39 57.19 587.93 60.22 588.39 69.18C588.69 78.27 589.45 80.78 593.1 85.52C600.1 94.74 612.71 98.3 623.66 94.35C629.89 92.11 635.21 87.76 635.21 84.86ZM712.44 88.29C712.9 87.23 711.07 88.02 708.34 90C702.56 94.22 697.24 94.61 693.14 91.05C689.18 87.63 687.97 81.44 688.73 69.31C689.18 61.15 689.79 58.91 692.83 56.14C699.06 50.34 705.91 52.45 710.77 61.67C712.29 64.97 712.44 64.57 712.6 57.32C712.6 52.05 712.29 50.08 711.38 51.26C710.16 52.98 709.1 52.98 703.93 51.53C700.43 50.47 696.02 50.08 693.59 50.61C674.28 54.82 670.79 87.36 688.88 94.22C695.87 96.85 700.89 96.59 706.67 93.29C709.55 91.58 712.14 89.34 712.44 88.29ZM412.34 84.99C412.41 84.47 412.77 81.83 413.41 77.09C411.49 80.01 410.43 81.64 410.21 81.96C406.56 87.89 401.85 90.79 394.4 91.84C385.89 93.03 384.37 91.05 384.37 78.27C384.37 69.71 384.82 67.21 386.5 67.21C390.15 67.21 394.86 71.55 396.38 76.43C397.44 80.12 397.75 77.88 397.75 65.89C397.75 51 397.75 50.87 395.62 56.14C393.79 60.75 388.93 64.57 385.13 64.57C384.67 64.57 384.37 58.91 384.37 52.05C384.37 51.22 384.37 47.05 384.37 39.54C387.11 39.54 388.63 39.54 388.93 39.54C393.03 39.54 404.13 42.57 404.13 43.75C404.13 44.02 405.2 46.52 406.41 49.42C406.55 49.77 407.26 51.53 408.54 54.69L408.69 45.86L408.69 36.9C395.28 36.98 387.84 37.03 386.35 37.03C373.88 37.03 364.91 37.43 366.13 37.82C371.6 39.54 372.21 42.3 372.21 65.89C372.21 89.47 371.6 92.24 366.13 93.95C364.91 94.35 374.18 94.74 386.95 94.74C399.57 94.87 410.37 94.48 410.67 93.95C411.13 93.29 411.89 89.34 412.34 84.99ZM424.66 88.42C425.57 84.6 426.18 84.33 432.26 84.33C438.34 84.33 438.79 84.6 439.71 88.55C440.31 91.32 440.01 93.03 438.79 93.82C437.58 94.35 440.62 94.87 445.64 94.87C454.15 94.87 454.45 94.74 452.32 92.24C451.26 90.79 447.16 80.78 443.51 69.84C439.86 59.04 436.51 50.08 436.06 50.08C435.6 50.08 432.26 58.77 428.46 69.45C424.81 79.99 420.86 90.13 419.79 91.84C418.12 94.74 418.27 94.87 422.83 94.87C426.18 94.87 427.09 94.48 425.57 93.69C424.2 92.9 423.9 91.32 424.66 88.42ZM472.54 83.68C472.54 78.93 473.15 75.11 473.76 75.11C474.37 75.11 477.41 79.59 480.6 84.99C480.98 85.65 482.85 88.95 486.23 94.87C490.06 94.8 492.19 94.75 492.61 94.74C496.26 94.74 498.24 94.35 497.17 93.95C496.11 93.56 492.76 89.08 489.88 84.07C485.62 76.69 484.86 74.45 486.53 73.66C487.6 73 488.96 72.48 489.42 72.48C490.94 72.48 493.83 65.89 493.83 62.59C493.83 60.88 492.16 57.72 490.18 55.74C486.68 52.32 485.62 52.05 472.39 51.53C459.17 51.13 458.56 51.26 460.84 53.37C464.49 56.53 464.64 89.6 460.99 92.77C458.86 94.74 459.47 94.87 468.29 94.87C475.59 94.74 477.26 94.48 475.28 93.43C473.15 92.37 472.54 90.26 472.54 83.68ZM522.71 73.14C522.71 71.85 522.71 65.44 522.71 53.9C525.18 54.14 526.54 54.27 526.82 54.29C529.4 54.56 531.68 55.88 532.9 57.98C534.72 61.15 534.88 61.15 534.88 56.4C534.88 56.07 534.88 54.4 534.88 51.4L517.39 51.4L499.91 51.4C500 55.19 500.05 57.3 500.06 57.72C500.21 63.39 500.37 63.52 501.43 60.09C502.95 55.61 505.23 54.03 510.25 54.03C513.59 54.03 513.59 54.16 513.59 72.21C513.59 90.53 513.14 92.5 509.03 93.95C507.81 94.35 511.92 94.61 518.15 94.74C526.51 94.74 528.64 94.35 526.21 93.56C522.87 92.37 522.71 91.84 522.71 73.14ZM553.12 82.09C553.12 81.54 553.12 78.77 553.12 73.79L560.72 73.79L568.32 73.79C568.32 79.33 568.32 82.4 568.32 83.02C568.32 90.26 567.87 92.37 565.74 93.43C563.61 94.48 565.74 94.74 573.64 94.74C579.57 94.61 583.07 94.35 581.7 93.95C579.27 93.43 578.96 91.32 578.96 73.14C578.96 54.95 579.27 52.84 581.7 52.32C583.07 51.92 579.57 51.66 573.64 51.66C567.87 51.66 564.22 51.92 565.74 52.32C567.87 52.84 568.32 54.43 568.32 62.07C568.32 62.67 568.32 65.7 568.32 71.16L560.72 71.16L553.12 71.16C553.12 66.65 553.12 64.15 553.12 63.65C553.12 55.61 554.03 53.64 557.68 52.32C558.9 51.92 555.25 51.53 549.32 51.53C541.41 51.53 539.28 51.79 541.41 52.84C543.69 54.03 544 56.4 544 73.14C544 89.87 543.69 92.24 541.41 93.43C539.28 94.48 541.41 94.74 549.32 94.74C555.25 94.74 558.9 94.35 557.68 93.95C553.88 92.63 553.12 90.66 553.12 82.09ZM647.22 85.92C647.98 84.86 650.57 84.33 654.22 84.6C659.23 84.86 660.3 85.52 661.21 88.55C661.97 91.32 661.67 92.5 659.84 93.56C658.02 94.48 659.84 94.74 666.84 94.87C675.04 94.87 676.11 94.61 674.44 93.03C673.22 92.11 669.27 82.36 665.77 71.69C662.12 60.88 658.78 51.66 658.17 51C657.11 50.08 655.43 54.29 646.46 79.46C644.18 85.92 641.45 91.98 640.23 93.03C638.25 94.61 638.86 94.87 643.88 94.74C647.07 94.74 648.74 94.35 647.83 93.95C645.55 93.29 645.25 88.55 647.22 85.92ZM730.99 83.54C730.99 82.89 730.99 79.64 730.99 73.79L738.59 73.79L746.19 73.79C746.19 78.77 746.19 81.54 746.19 82.09C746.19 90.66 745.43 92.63 741.63 93.95C740.42 94.35 744.22 94.74 749.99 94.74C757.9 94.74 760.03 94.48 758.05 93.43C755.62 92.24 755.31 89.87 755.31 73.14C755.31 56.4 755.62 54.03 758.05 52.84C760.03 51.79 757.9 51.53 749.99 51.53C744.22 51.53 740.42 51.92 741.63 52.32C745.28 53.64 746.19 55.61 746.19 63.65C746.19 64.15 746.19 66.65 746.19 71.16L738.59 71.16L730.99 71.16C730.99 65.7 730.99 62.67 730.99 62.07C730.99 54.43 731.45 52.84 733.73 52.32C735.1 51.92 731.6 51.66 725.67 51.53C717.76 51.53 715.64 51.79 717.76 52.84C720.04 54.03 720.35 56.53 720.35 73.79C720.35 91.32 720.04 93.43 717.76 93.95C716.24 94.35 719.89 94.61 725.67 94.61C731.6 94.61 735.1 94.35 733.73 93.95C731.45 93.43 730.99 91.84 730.99 83.54ZM798.64 86.31C798.7 85.96 799.01 84.2 799.55 81.04C797.73 83.57 796.72 84.98 796.51 85.26C792.87 90.26 789.06 92.24 782.98 92.24C777.51 92.24 776.6 90.53 776.6 80.91C776.6 75.77 777.21 73.79 778.57 73.79C781.16 73.79 785.11 77.61 786.18 81.04C786.48 82.49 786.94 78.67 786.94 72.48C786.94 64.04 786.63 62.2 785.72 65.1C784.35 69.05 781.92 71.16 778.57 71.16C777.21 71.16 776.6 68.52 776.6 62.46C776.6 61.89 776.6 59.04 776.6 53.9C780.43 54.14 782.56 54.27 782.98 54.29C788.3 54.56 789.98 55.48 792.87 59.17C793.1 59.47 794.26 60.96 796.36 63.65L796.36 57.46L796.36 51.4C786.15 51.4 780.47 51.4 779.34 51.4C766.87 51.53 762.92 51.79 764.89 52.84C767.17 54.03 767.48 56.4 767.48 73.14C767.48 89.87 767.17 92.24 764.89 93.43C762.92 94.48 766.87 94.74 779.34 94.87C791.8 94.87 796.67 94.48 797.12 93.29C797.43 92.37 798.03 89.21 798.64 86.31Z" id="fjEesoKPA"></path><path d="M536.4 139.67C537 139.67 537.92 141.25 538.52 143.36C538.98 145.34 539.74 148.24 540.35 149.95C541.26 152.45 540.8 152.85 536.55 152.85C533.96 152.85 531.84 152.45 531.84 152.06C531.84 149.55 535.48 139.67 536.4 139.67Z" id="fOR0vvfGf"></path><path d="M688.42 134.14C688.42 125.71 688.57 125.18 691.92 125.18C697.24 125.18 699.06 127.68 699.06 134.53C699.06 139.54 698.3 141.25 695.72 142.83C691.92 145.2 690.86 145.34 689.49 144.02C688.88 143.62 688.42 139.14 688.42 134.14Z" id="cYWf0sA0I"></path><path d="M432.87 67.86C433.02 68.66 434.08 71.95 435.3 75.51C435.44 75.92 436.15 77.98 437.43 81.7C434.23 81.7 432.46 81.7 432.11 81.7C427.24 81.7 426.78 81.44 427.85 78.8C430.28 72.21 432.87 66.68 432.87 67.86Z" id="h96QA5tYg"></path><path d="M476.35 54.03C480.75 54.03 483.19 57.46 483.19 63.52C483.19 68.66 480.75 71.82 476.04 73.14C472.7 73.93 472.54 73.66 472.54 64.04C472.54 54.29 472.7 54.03 476.35 54.03Z" id="b10nBJJ4L4"></path><path d="M652.09 71.55C652.2 71.31 652.76 70.08 653.76 67.86C654.95 70.63 655.61 72.17 655.74 72.48C659.08 80.12 658.63 81.7 653.3 81.7C649.05 81.7 648.59 81.44 649.5 78.41C649.96 76.69 651.18 73.53 652.09 71.55Z" id="bzErsCcU"></path><path d="M311 228L594 228L877 228L877 249L877 270L594 270L311 270L311 249L311 228Z" id="b5FwcjqYkS"></path><path d="M310 227L594.21 227L878.42 227L878.42 249.5L878.42 272L594.21 272L310 272L310 249.5L310 227ZM542.86 233.35C546.32 228.66 549.73 229.89 550.63 236.19C550.66 236.35 550.78 237.16 551.01 238.61C551.04 237.16 551.05 236.35 551.06 236.19C551.06 234.91 551.39 233.54 551.72 233.21C552.19 232.73 551.96 232.36 550.63 231.22C550.52 231.13 549.99 230.67 549.02 229.85L553.24 229.85L557.5 229.89L556.17 231.03L554.85 232.21L554.99 246.28L555.13 260.4C555.9 261.73 556.32 262.48 556.41 262.62C557.26 264.05 558.73 265.51 560.67 266.84C563.42 268.69 563.52 268.78 562.05 268.5C558.4 267.83 554.52 264.38 552.48 260.07C551.53 258.03 551.53 258.03 551.86 259.69C552.62 263.71 555.08 266.75 559.02 268.55C562.62 270.2 569.34 270.3 573.42 268.73C577.63 267.12 581.37 262.62 581.42 259.21C581.42 258.31 581.14 258.6 580.28 260.45C577.16 267.12 570.24 269.78 564.08 266.65C561.57 265.37 558.92 262.77 558.16 260.78C557.93 260.16 557.74 253.39 557.74 245.76C557.74 230.08 557.64 230.51 561.48 229.99C562.52 229.85 563.28 229.56 563.14 229.32C562.8 228.8 531.21 228.76 531.21 229.28C531.21 229.47 532.16 229.89 533.34 230.22C535.76 230.84 539.31 233.82 540.16 235.91C540.54 236.76 540.64 240.93 540.59 248.65C540.58 249.41 540.53 253.22 540.45 260.07L526 244.62L511.55 229.13C507.91 229.05 505.89 229 505.49 228.99C499.38 228.85 498.05 229.28 501.27 230.22C502.22 230.56 503.74 231.22 504.59 231.74C504.69 231.8 505.2 232.12 506.1 232.69C506.1 241.64 506.1 246.61 506.1 247.61C506.1 261.58 506.06 262.67 505.16 264.38C504.12 266.41 502.27 268.07 500.56 268.5C497.67 269.26 500.18 269.63 507.76 269.63C512.31 269.63 516.05 269.45 516.05 269.26C516.05 269.07 515.1 268.64 513.97 268.31C511.22 267.6 508.76 265.37 507.76 262.86C507.15 261.2 507.05 258.83 507.15 247.75C507.16 246.88 507.2 242.5 507.29 234.63C517.18 245.26 522.67 251.16 523.77 252.35C532.82 262.1 540.54 270.11 540.92 270.11C541.49 270.11 541.63 267.46 541.73 252.39C541.87 235.34 541.92 234.58 542.86 233.35ZM778.9 255.47C780.75 251.45 782.26 248.03 782.21 247.89C782.21 247.75 780.6 250.78 778.66 254.67C778.43 255.14 777.24 257.49 775.11 261.72C772.69 256.49 771.35 253.59 771.08 253.01C766.06 242.11 763.79 236.48 763.79 234.91C763.79 233.3 766.3 230.46 768.05 230.08C771.56 229.32 768.86 228.9 760.24 228.9C755.17 228.9 751 229.04 751 229.28C751 229.47 751.61 229.94 752.37 230.41C754.55 231.65 755.74 233.82 762.56 249.27C771.56 269.78 771.84 270.3 772.27 269.82C772.46 269.59 773.26 267.93 774.11 266.08C774.92 264.28 777.05 259.5 778.9 255.47ZM327.72 268.69C327.01 268.69 325.92 268.12 325.11 267.31C325.02 267.22 324.56 266.76 323.74 265.94C323.74 261.65 323.74 259.26 323.74 258.79C323.74 253.39 323.88 251.63 324.35 251.63C324.64 251.63 326.11 251.97 327.53 252.35C335.39 254.48 343.44 251.92 346.33 246.47C348.75 241.88 347.28 234.49 343.39 231.5C340.03 228.99 339.46 228.9 325.16 228.9C316.63 228.9 311.89 229.09 311.89 229.37C311.89 229.66 312.27 229.85 312.75 229.85C313.17 229.85 314.26 230.27 315.12 230.79C315.22 230.86 315.72 231.17 316.63 231.74L316.63 248.98L316.63 266.27C315.86 266.84 315.44 267.16 315.35 267.22C314.69 267.79 313.6 268.36 312.98 268.5C310.09 269.26 312.65 269.63 320.42 269.63C325.77 269.63 328.95 269.45 328.95 269.16C328.95 268.92 328.38 268.69 327.72 268.69ZM387.26 262.1C388.02 259.4 388.54 257.08 388.39 256.94C388.25 256.8 386.78 257.98 385.17 259.55C379.39 265.23 373.19 268.31 367.46 268.4C364.47 268.45 363.91 268.31 362.96 267.36C361.87 266.27 361.87 266.27 361.73 249.36C361.72 248.23 361.67 242.58 361.58 232.4C362.29 231.75 362.69 231.39 362.77 231.31C363.38 230.75 364.76 230.13 365.85 229.99C366.89 229.85 367.65 229.56 367.51 229.32C367.17 228.76 349.79 228.76 349.79 229.28C349.79 229.51 350.64 230.03 351.68 230.46C352.92 230.93 353.72 231.65 354.05 232.45C354.34 233.21 354.53 240.03 354.53 249.46C354.53 264.61 354.48 265.28 353.58 266.46C353.06 267.12 351.87 267.98 350.97 268.26C350.07 268.59 349.32 269.07 349.32 269.26C349.32 269.45 357.42 269.63 367.32 269.63C368.52 269.63 374.52 269.63 385.32 269.63L385.55 268.36C386.15 265.99 386.72 263.9 387.26 262.1ZM402.61 268.31C398.63 267.27 398.11 263.81 400.95 257.65C401.05 257.44 401.55 256.38 402.46 254.48L410.28 254.48L418.05 254.48C419.04 256.58 419.59 257.75 419.71 257.98C422.5 264.14 421.6 267.79 417.1 268.5C416.06 268.69 415.3 268.97 415.44 269.21C415.77 269.78 436 269.78 436 269.21C436 268.97 435.38 268.64 434.67 268.45C432.83 268.07 430.65 265.7 428.99 262.29C428.23 260.73 424.54 252.44 420.84 243.91C415.39 231.5 413.93 228.52 413.45 228.99C413.17 229.32 409.85 236.33 406.16 244.53C402.46 252.72 398.77 260.54 398.01 261.91C396.4 264.8 392.94 268.02 390.95 268.45C387.68 269.16 390.05 269.63 397.16 269.63C401.33 269.63 404.74 269.45 404.74 269.26C404.74 269.07 403.79 268.64 402.61 268.31ZM465.08 268.45C464.14 268.31 462.86 267.65 462.24 267.03C462.17 266.95 461.79 266.57 461.1 265.89L461.1 249.03L461.1 232.17C461.82 231.48 462.21 231.11 462.29 231.03C463.71 229.56 464.94 229.56 468.16 231.03C470.96 232.36 477.21 238.23 477.21 239.56C477.21 239.98 477.49 240.27 477.83 240.12C478.2 240.03 478.3 239.37 478.16 238.32C478.02 237.42 477.92 234.96 477.97 232.78C477.97 232.52 477.97 231.23 477.97 228.9L457.84 228.99L437.66 229.13C437.52 232.35 437.44 234.13 437.42 234.49C437.28 237.85 437.37 239.79 437.66 239.79C437.94 239.79 438.65 239.03 439.27 238.09C440.78 235.91 445.24 231.93 447.46 230.75C449.78 229.56 450.78 229.61 452.53 231.08C452.63 231.16 453.12 231.57 454 232.31C454 242.28 454 247.83 454 248.93C453.95 261.3 453.81 265.8 453.38 266.37C452.63 267.36 450.02 268.69 448.79 268.69C448.22 268.69 447.94 268.92 448.08 269.16C448.46 269.78 466.79 269.82 466.79 269.21C466.79 268.97 466.03 268.64 465.08 268.45ZM497.67 268.55C496.92 268.4 495.83 267.83 495.16 267.36C495.09 267.3 494.71 266.98 494.03 266.41C493.94 256.13 493.89 250.41 493.88 249.27C493.74 230.18 493.65 230.65 496.92 230.03C500.7 229.32 497.91 228.9 489.76 228.9C484.22 228.9 481 229.09 481 229.37C481 229.66 481.33 229.85 481.76 229.85C483.18 229.85 485.59 231.31 486.16 232.5C486.49 233.3 486.68 238.75 486.68 249.79C486.68 250.86 486.68 256.23 486.68 265.89C485.97 266.6 485.58 267 485.5 267.08C484.88 267.69 483.7 268.36 482.89 268.5C479.39 269.21 482.14 269.63 490.24 269.63C495.07 269.63 499 269.45 499 269.21C499 268.97 498.38 268.69 497.67 268.55ZM602.55 268.5C598.99 267.83 597.1 264.99 597 260.3C596.96 258.79 596.86 258.08 596.77 258.74C596.06 263.38 594.4 266.08 591.13 267.79C589.95 268.4 589 269.07 589 269.26C589 269.49 592.41 269.63 596.58 269.63C600.75 269.63 604.16 269.45 604.16 269.21C604.16 268.97 603.45 268.64 602.55 268.5ZM641.25 268.69C639.78 268.64 636.46 266.89 635.89 265.85C634.76 263.76 633.05 247.32 633.05 238.7C633.05 233.49 633.15 233.07 634.14 232.02C634.76 231.41 636.37 230.65 637.69 230.32C639.07 229.94 640.16 229.51 640.16 229.28C640.16 229.09 637.03 228.9 633.19 228.9C632.73 228.9 630.39 228.9 626.18 228.9C625.59 230.97 625.26 232.13 625.19 232.36C624.67 234.2 624.05 236.19 623.86 236.71C623.67 237.23 624.1 236.62 624.81 235.29C624.9 235.13 625.34 234.35 626.14 232.92C626.76 239.18 627.11 242.65 627.18 243.35C627.75 249.08 628.32 256.37 628.41 259.55C628.55 265.13 628.5 265.32 627.37 266.56C626.7 267.22 625.28 268.02 624.19 268.36C623.06 268.64 622.16 269.07 622.16 269.26C622.16 269.45 626.66 269.63 632.1 269.63C638.4 269.63 642.05 269.45 642.05 269.16C642.05 268.92 641.67 268.69 641.25 268.69ZM708.13 258.93C708.98 256.89 708.98 256.85 708.37 256.85C708.13 256.85 707.04 257.79 705.9 259.02C703.63 261.49 697.43 265.7 693.68 267.27C691.84 268.07 690.13 268.4 687.67 268.4C684.54 268.45 684.12 268.36 682.93 267.12C682.84 267.04 682.4 266.61 681.6 265.85C681.52 256.27 681.47 250.95 681.46 249.88C681.37 238.42 681.51 233.54 681.89 232.59C682.5 231.08 684.49 229.85 686.34 229.85C687 229.85 687.53 229.66 687.53 229.37C687.53 229.09 684.21 228.9 678.53 228.9C670.33 228.9 667.68 229.28 670.62 230.03C671.23 230.18 672.32 230.75 672.98 231.31C673.07 231.38 673.5 231.69 674.26 232.26C674.26 242.35 674.26 247.96 674.26 249.08C674.26 265.42 674.22 265.89 673.27 266.84C672.75 267.36 671.66 268.02 670.9 268.31C670.14 268.55 669.53 268.97 669.53 269.21C669.53 269.49 676.82 269.59 687.38 269.54C688.57 269.53 694.51 269.48 705.19 269.4L706.28 265.04C707.26 261.6 707.88 259.56 708.13 258.93ZM748.73 259.73C749.2 258.31 749.48 257.08 749.39 256.94C749.25 256.85 748.11 257.79 746.88 259.07C742.76 263.24 735.84 267.22 730.58 268.31C727.55 268.92 725.94 268.64 724.14 267.08C724.05 267 723.61 266.62 722.82 265.94L722.67 257.08L722.53 248.22C725.37 248.34 726.95 248.4 727.27 248.41C731.15 248.51 732.24 248.75 733.28 249.55C735.27 251.02 736.27 252.58 736.88 255.33C737.21 256.66 737.64 257.79 737.83 257.79C738.07 257.79 738.21 253.62 738.21 248.56C738.21 243.49 738.07 239.32 737.83 239.32C737.64 239.32 737.12 240.41 736.65 241.69C735.27 245.52 731.06 247.61 725.42 247.28C725.25 247.27 724.38 247.22 722.82 247.13C722.73 243.44 722.68 241.39 722.67 240.98C722.48 233.07 722.72 231.93 724.62 230.79C726.42 229.66 728.88 229.61 732.9 230.56C738.11 231.79 742.43 234.63 744.18 237.99C745.41 240.41 745.79 239.51 745.5 234.68C745.36 232.17 745.17 229.8 745.03 229.51C744.89 229.04 741.1 228.9 728.03 228.9C712.63 228.9 708.94 229.18 712.44 230.03C713.1 230.22 714.19 230.89 714.81 231.5C714.89 231.58 715.26 231.96 715.95 232.64C715.95 242.16 715.95 247.45 715.95 248.51C715.95 257.93 715.76 264.85 715.47 265.61C715.14 266.46 714.24 267.17 712.63 267.88C711.35 268.45 710.26 269.07 710.26 269.3C710.26 269.49 718.36 269.63 728.26 269.63C729.46 269.63 735.46 269.63 746.26 269.63L746.45 268.59C747.43 264.17 748.19 261.22 748.73 259.73ZM834.08 263.48C836.12 255.52 836.17 255.8 833.89 258.36C830.01 262.86 820.68 268.02 815.66 268.55C812.96 268.83 810.59 267.93 809.74 266.37C809.45 265.8 809.26 261.82 809.26 256.89C809.26 256.32 809.26 253.46 809.26 248.32C811.51 248.32 812.75 248.32 813 248.32C817.13 248.32 818.83 248.79 820.58 250.36C822 251.63 823.43 254.76 823.47 256.51C823.47 257.22 823.71 257.79 823.95 257.79C824.23 257.79 824.42 254.38 824.42 248.56C824.42 239.84 823.99 237.09 823.24 241.07C822.57 244.77 817.93 247.37 812.01 247.37C811.83 247.37 810.91 247.37 809.26 247.37C809.26 242.99 809.26 240.56 809.26 240.08C809.26 236.05 809.4 232.4 809.55 231.98C810.73 228.95 818.45 229.28 824.75 232.64C827.64 234.25 830.48 237 831.19 238.94C831.76 240.6 831.95 238.51 831.67 233.97C831.65 233.63 831.55 231.94 831.38 228.9C821.18 228.9 815.51 228.9 814.38 228.9C803.39 228.9 797.42 229.09 797.42 229.37C797.42 229.66 797.85 229.85 798.32 229.85C798.84 229.85 799.88 230.41 800.69 231.08C800.79 231.16 801.28 231.57 802.16 232.31C802.16 242.2 802.16 247.69 802.16 248.79C802.16 264.66 802.11 265.28 801.16 266.46C800.64 267.17 799.36 267.98 798.32 268.26C797.33 268.59 796.47 269.02 796.47 269.26C796.47 269.45 804.57 269.63 814.47 269.63C828.49 269.63 832.52 269.49 832.66 269.07C832.71 268.73 833.37 266.22 834.08 263.48ZM875.15 262.1C875.91 259.4 876.43 257.08 876.29 256.94C876.15 256.8 874.68 257.98 873.07 259.55C867.29 265.23 861.08 268.31 855.35 268.4C852.37 268.45 851.8 268.31 850.85 267.36C849.76 266.27 849.76 266.27 849.62 249.55C849.61 248.43 849.56 242.84 849.48 232.78C850.13 232.01 850.49 231.59 850.57 231.5C851.33 230.65 852.32 230.18 853.69 229.99C858.24 229.37 855.16 228.9 846.68 228.9C841.52 228.9 837.68 229.09 837.68 229.32C837.68 229.56 838.44 230.03 839.34 230.32C842.47 231.36 842.42 231.12 842.42 249.08C842.42 264.61 842.37 265.28 841.47 266.46C840.95 267.12 839.77 267.98 838.87 268.26C837.97 268.59 837.21 269.07 837.21 269.26C837.21 269.45 845.31 269.63 855.21 269.63C856.41 269.63 862.41 269.63 873.21 269.63L873.45 268.36C874.05 265.99 874.61 263.9 875.15 262.1ZM620.55 244.67C623.15 238.99 621.92 240.74 618.46 247.66C618.25 248.09 617.17 250.23 615.24 254.1L609.94 241.64L604.68 229.13C600.7 229.05 598.49 229 598.05 228.99C593.69 228.9 591.37 229.04 591.37 229.37C591.37 229.61 591.7 229.85 592.13 229.85C593.74 229.85 596.63 230.98 597.76 232.02C598.8 233.02 598.95 233.54 598.99 237.05C599.04 240.41 599.14 240.65 599.37 238.75C599.56 237.52 599.8 236.38 599.99 236.24C600.13 236.1 600.94 237.61 601.79 239.65C602.64 241.69 605.01 247.42 607.09 252.35C609.18 257.32 611.07 261.87 611.31 262.48C611.55 263.1 611.83 263.52 611.93 263.43C612.02 263.33 613.63 259.83 615.53 255.66C617.42 251.49 619.69 246.52 620.55 244.67ZM581.52 256.85C581.52 257.51 581.61 257.75 581.75 257.46C581.85 257.13 581.85 256.56 581.75 256.28C581.61 255.95 581.52 256.18 581.52 256.85ZM550.82 248.56C550.82 250.92 550.87 251.78 550.96 250.55C551.06 249.31 551.06 247.37 550.96 246.28C550.87 245.19 550.82 246.23 550.82 248.56ZM584.07 235.06C584.93 232.97 587.48 230.51 589.24 230.03C589.9 229.89 590.28 229.56 590.14 229.32C589.8 228.71 572.42 228.76 572.42 229.37C572.42 229.66 572.8 229.85 573.27 229.85C574.69 229.85 578.77 232.02 580.24 233.59C580.33 233.69 580.8 234.19 581.66 235.1C581.8 239.99 581.88 242.71 581.89 243.25C581.99 247.75 582.13 250.55 582.23 249.5C582.32 248.46 582.6 245.19 582.84 242.26C583.13 239.32 583.69 236.05 584.07 235.06ZM783.92 243.58C783.54 244.25 783.26 245 783.26 245.24C783.26 245.52 783.54 245.19 783.92 244.53C784.3 243.87 784.58 243.16 784.58 242.87C784.58 242.63 784.3 242.92 783.92 243.58ZM793.68 230.27C794.44 229.99 795.05 229.56 795.05 229.32C795.05 229.09 792.07 228.9 788.42 228.9C782.17 228.9 779.99 229.37 783.21 229.99C785.01 230.37 786.53 232.73 786.53 235.15C786.53 236.15 786.1 238.04 785.58 239.41C784.2 243.06 784.39 242.87 786.76 238.42C787.9 236.24 789.6 233.63 790.6 232.64C791.55 231.65 792.97 230.6 793.68 230.27ZM622.87 238.85C622.49 239.51 622.2 240.27 622.2 240.5C622.2 240.79 622.49 240.46 622.87 239.79C623.25 239.13 623.53 238.42 623.53 238.13C623.53 237.9 623.25 238.18 622.87 238.85Z" id="bhNooiGcm"></path><path d="M511.6 238.04C511.07 237.49 508.4 234.76 503.59 229.85L505.96 229.85L508.33 229.85C511.86 233.45 513.81 235.46 514.2 235.86C517.47 239.22 524.77 247.04 530.4 253.29C531.09 254.05 534.52 257.82 540.68 264.61C540.68 265.98 540.68 266.74 540.68 266.89C540.68 268.12 540.64 269.16 540.54 269.16C540.49 269.16 535.76 264 530.03 257.7C524.29 251.4 516 242.54 511.6 238.04Z" id="d97lqJf6Q"></path><path d="M506.1 264.57C506.1 263.43 506.82 263.95 507.34 265.51C507.62 266.32 508 267.41 508.24 267.88C508.52 268.59 508.28 268.69 505.87 268.69C505.69 268.69 504.81 268.69 503.22 268.69L504.64 266.93C505.62 265.58 506.1 264.79 506.1 264.57Z" id="acQzIGvcB"></path><path d="M536.99 230.84C536.9 230.78 536.48 230.46 535.71 229.89C537.78 229.86 538.94 229.85 539.17 229.85C541.02 229.85 542.58 229.94 542.58 229.99C542.58 230.08 542.29 230.79 541.96 231.55C541.58 232.31 541.11 233.45 540.83 234.06C540.8 234.14 540.66 234.52 540.4 235.2L539.31 233.49C538.24 232.07 537.46 231.19 536.99 230.84Z" id="aMjwFWmTK"></path><path d="M762.79 247.89C758.77 238.8 755.88 232.88 754.88 231.69C754.78 231.57 754.24 230.95 753.27 229.85C756.43 229.85 758.18 229.85 758.53 229.85C761.42 229.85 763.79 229.99 763.79 230.13C763.79 230.27 763.27 231.03 762.6 231.79C759.86 235.1 760.76 238.61 768.24 253.2C773.45 263.29 773.93 264.85 772.55 267.27C771.94 268.45 771.89 268.45 770.56 265.37C769.8 263.67 766.3 255.8 762.79 247.89Z" id="dkn0jTgJW"></path><path d="M317.58 249.83C317.58 238.09 317.72 233.87 318.15 233.11C318.72 232.26 318.57 232.02 317.34 230.98C317.25 230.91 316.77 230.53 315.92 229.85L319.95 229.85L323.97 229.89L322.69 230.93L321.37 232.02L321.37 249.36L321.37 266.7L322.69 267.69L323.97 268.64L319.85 268.69L315.68 268.69L316.63 267.17C317.26 265.53 317.58 259.75 317.58 249.83Z" id="b79B2MHqQ"></path><path d="M325.87 251.02C325.74 250.97 325.11 250.75 323.97 250.36C323.89 245.1 323.84 242.18 323.83 241.59C323.74 233.35 323.78 232.78 324.68 231.6C326.39 229.42 332.22 228.61 335.39 230.13C337.52 231.17 339.75 234.77 340.41 238.28C340.84 240.65 340.79 241.69 340.17 244.34C338.61 250.59 335.01 253.25 329.66 252.11C328.62 251.87 326.91 251.4 325.87 251.02Z" id="c4cqHSj6Ns"></path><path d="M341.26 240.88C341.26 236.81 340.22 233.63 338.18 231.5C336.57 229.75 337 229.32 339.27 230.51C342.87 232.4 345.19 236.52 345.19 240.98C345.15 245.71 343.02 249.27 339.13 251.11C337.95 251.63 336.91 252.11 336.72 252.11C336.57 252.11 337.28 251.16 338.28 250.02C340.55 247.47 341.26 245.24 341.26 240.88Z" id="a1rYe4Bys1"></path><path d="M355.24 266.22C355.32 256.53 355.37 251.15 355.38 250.07C355.47 238.61 355.66 233.73 356.04 233.26C356.52 232.73 356.28 232.31 355 231.22C354.89 231.13 354.34 230.69 353.34 229.89L357.37 229.89L361.39 229.89L360.12 231.03L358.79 232.17L358.79 249.03L358.79 265.94L360.16 267.31L361.54 268.69L357.23 268.69L352.96 268.69L354.1 267.46L355.24 266.22Z" id="arwjkeLv0"></path><path d="M382.66 263.29C383.61 262.58 384.37 262.06 384.37 262.15C384.37 262.25 383.85 263.67 383.23 265.37C383.16 265.58 382.78 266.6 382.09 268.45L377.45 268.59L372.76 268.69L376.88 266.65C380.14 264.88 382.06 263.76 382.66 263.29Z" id="dnXl4qaBH"></path><path d="M397.58 263.86C397.73 263.67 397.87 264.71 397.87 266.13C397.87 266.3 397.87 267.15 397.87 268.69L395.55 268.69L393.23 268.69L395.26 266.46C396.72 264.85 397.49 263.98 397.58 263.86Z" id="guhK84UPw"></path><path d="M421.32 266.93C422.55 265.32 422.55 262.39 421.27 258.88C420.7 257.37 418.14 251.59 415.58 246.05C415.27 245.37 413.73 242.01 410.94 235.96C411.4 234.99 411.65 234.45 411.7 234.35C412.13 233.45 412.6 232.69 412.74 232.69C412.93 232.69 416.11 239.7 419.85 248.27C424.16 258.12 427.33 264.76 428.47 266.27C428.59 266.43 429.21 267.24 430.32 268.69C427.33 268.69 425.67 268.69 425.34 268.69C422.59 268.69 420.37 268.55 420.37 268.4C420.37 268.26 420.79 267.6 421.32 266.93Z" id="a3fzMTwZc"></path><path d="M410.28 252.2C416.48 252.35 417.29 252.44 417.43 253.2C417.57 253.96 417.01 254 410.47 254C403.6 254 403.32 253.96 403.32 253.06C403.32 252.11 403.55 252.11 410.28 252.2Z" id="casE8LgZm"></path><path d="M410.37 237.8C410.61 237.52 414.31 245.38 416.48 250.78C416.58 250.97 413.88 251.16 410.47 251.16C407.06 251.16 404.26 251.07 404.26 250.97C404.26 250.64 410.04 238.13 410.37 237.8Z" id="b2jOzfhmt"></path><path d="M454.71 266.22L454.95 249.36L455.18 232.45L454.05 231.12L452.86 229.85C455.19 229.85 456.49 229.85 456.75 229.85C458.88 229.85 460.63 229.99 460.63 230.13C460.63 230.27 460.11 230.84 459.45 231.36C459.37 231.42 458.97 231.72 458.26 232.26L458.26 248.93L458.26 265.56L459.78 267.12L461.29 268.69L456.84 268.69L452.44 268.69L453.57 267.46L454.71 266.22Z" id="dMQlYMgBh"></path><path d="M438.84 229.85L441.49 229.85L444.19 229.85C443.09 231.04 442.47 231.7 442.35 231.83C441.31 232.97 440.12 234.39 439.69 235.06C438.89 236.24 438.89 236.19 438.89 233.07C438.88 232.64 438.87 231.56 438.84 229.85Z" id="d3va0E7kH"></path><path d="M470.58 231.36C470.44 231.28 469.73 230.85 468.45 230.08C470.27 230 471.28 229.95 471.48 229.94C473.14 229.85 474.56 229.89 474.7 229.99C475.08 230.41 476.12 235.53 475.84 235.53C475.65 235.53 474.89 234.87 474.08 234.06C473.33 233.26 471.76 232.02 470.58 231.36Z" id="fPSNVOSE6"></path><path d="M486.45 267.27C487.06 266.75 487.16 264.28 487.16 250.26C487.16 237.76 487.3 233.68 487.77 233.21C488.25 232.73 488.1 232.45 487.06 231.65C486.3 231.12 485.74 230.51 485.74 230.27C485.74 230.03 487.49 229.85 489.62 229.85C489.88 229.85 491.17 229.85 493.5 229.85L492.23 231.17L490.95 232.5L490.95 249.12L490.95 265.75L492.18 267.22L493.41 268.69C491.11 268.69 489.83 268.69 489.57 268.69C487.44 268.69 485.74 268.5 485.74 268.26C485.74 268.02 486.07 267.6 486.45 267.27Z" id="d1uxfi9aHp"></path><path d="M595.16 265.37C595.22 265.29 595.54 264.9 596.1 264.19L596.1 266.46L596.1 268.69L593.88 268.69L591.6 268.69L592.93 267.6C594.1 266.56 594.84 265.81 595.16 265.37Z" id="a45A7DJ54"></path><path d="M629.07 265.04C629.55 263.29 628.93 251.97 627.84 241.45C627.32 236.52 626.89 231.88 626.89 231.17C626.89 231.08 626.89 230.64 626.89 229.85L630.59 229.85L634.24 229.85L632.34 231.46L630.45 233.07C630.53 236.16 630.58 237.89 630.59 238.23C630.73 244.25 632.44 262.01 633.1 264.52C633.38 265.56 634.14 266.75 635.09 267.46C635.19 267.54 635.7 267.95 636.6 268.69L631.39 268.69L626.18 268.69L627.46 267.5C628.44 266.33 628.98 265.51 629.07 265.04Z" id="a1V47ANk4a"></path><path d="M675.21 250.17C675.21 236.67 675.3 234.06 675.92 233.49C676.54 232.83 676.44 232.59 674.93 231.31C674.82 231.22 674.26 230.73 673.27 229.85L677.44 229.85L681.56 229.85L680.04 231.12L678.48 232.45L678.62 249.12L678.76 265.8L680.14 267.22L681.56 268.69L677.39 268.69L673.27 268.69L674.22 267.46C674.88 266.26 675.21 260.49 675.21 250.17Z" id="c615JJLRo8"></path><path d="M701.93 263.76C702.73 263.19 703.63 262.58 703.92 262.39C704.2 262.2 703.92 263.57 703.2 265.37C703.12 265.59 702.71 266.7 701.97 268.69L697.24 268.69L692.5 268.64L696.48 266.75C699.6 265.17 701.42 264.17 701.93 263.76Z" id="aE1V1u2dP"></path><path d="M716.37 265.28C716.66 264.47 716.89 257.7 716.89 248.03C716.99 232.12 716.94 232.12 715.9 230.98C715.83 230.91 715.48 230.53 714.86 229.85L719.31 229.85L723.76 229.85L721.96 231.12L720.21 232.36L720.21 249.12L720.21 265.89L721.73 267.31L723.24 268.69L718.55 268.69L713.91 268.69L714.9 267.65C715.69 266.54 716.18 265.75 716.37 265.28Z" id="c3QetlR04B"></path><path d="M744.79 262.25C745.93 261.25 746.78 260.63 746.69 260.92C746.59 261.2 745.74 263.05 744.84 265.04C744.73 265.28 744.18 266.5 743.18 268.69L738.21 268.69L733.24 268.69L737.97 266.37C741.76 264.28 744.04 262.91 744.79 262.25Z" id="e1oVW422jA"></path><path d="M731.53 247.75C732.47 247.1 732.99 246.73 733.09 246.66C733.95 246.05 734.8 245.67 735.04 245.81C735.23 245.9 735.37 246.85 735.37 247.89C735.37 249.98 735.27 250.02 733.09 248.7C732.89 248.57 732.36 248.26 731.53 247.75Z" id="b1EPaOswqa"></path><path d="M737.64 231.27C737.47 231.17 736.64 230.7 735.13 229.85L738.78 229.85L742.43 229.85C742.71 230.93 742.87 231.53 742.9 231.65C743.56 234.3 743.8 235.53 743.75 235.53C743.7 235.48 742.85 234.87 741.9 234.06C740.91 233.26 739.01 232.02 737.64 231.27Z" id="a7qjgqE9I"></path><path d="M802.87 265.8L803.1 248.89L803.34 231.98L802.16 230.93L800.97 229.89C803.62 229.86 805.08 229.85 805.38 229.85C807.75 229.85 809.74 229.94 809.74 230.03C809.74 230.13 808.98 230.7 808.08 231.27C807.97 231.34 807.41 231.68 806.42 232.31L806.42 248.93L806.42 265.56L807.94 267.12L809.45 268.69L804.76 268.69L800.07 268.69L801.49 267.22L802.87 265.8Z" id="hCspOeI1c"></path><path d="M821.96 267.5C824.75 266.41 828.26 264.42 831.1 262.29C831.25 262.18 831.99 261.63 833.33 260.63L831.38 264.66L829.39 268.69C826.49 268.69 824.88 268.69 824.56 268.69C821.86 268.69 819.68 268.59 819.68 268.5C819.68 268.4 820.68 267.98 821.96 267.5Z" id="acD8SJGJN"></path><path d="M817.69 247.75L819.49 246.66L821.34 245.52C821.43 246.23 821.47 246.63 821.48 246.71C821.58 247.32 821.58 248.27 821.48 248.75C821.34 249.65 821.29 249.65 819.49 248.7C819.25 248.57 818.65 248.26 817.69 247.75Z" id="aiaEgrC1G"></path><path d="M823.95 231.22C823.77 231.13 822.9 230.67 821.34 229.85L825.13 229.99L828.92 230.08C829.26 231.65 829.45 232.51 829.49 232.69C829.77 234.11 830.01 235.29 829.96 235.34C829.91 235.39 829.11 234.82 828.21 234.01C827.31 233.26 825.37 231.98 823.95 231.22Z" id="d2MKmRH5Zz"></path><path d="M843.13 266.22C843.22 256.53 843.26 251.15 843.27 250.07C843.37 238.61 843.56 233.73 843.94 233.26C844.41 232.73 844.17 232.31 842.89 231.22C842.78 231.13 842.23 230.69 841.24 229.89L845.26 229.89L849.29 229.89L848.01 231.03L846.68 232.17L846.68 249.03L846.68 265.94L848.06 267.31L849.43 268.69L845.12 268.69L840.86 268.69L841.99 267.46L843.13 266.22Z" id="dfJA8sWDy"></path><path d="M870.56 263.29C871.5 262.58 872.26 262.06 872.26 262.15C872.26 262.25 871.74 263.67 871.13 265.37C871.05 265.58 870.67 266.6 869.99 268.45L865.35 268.59L860.66 268.69L864.78 266.65C868.03 264.88 869.96 263.76 870.56 263.29Z" id="bOquCMPG9"></path><path d="M608.33 253.29C606.76 249.65 604.3 243.68 602.83 240.03C600.79 235.06 599.7 232.97 598.33 231.6C598.21 231.48 597.61 230.88 596.53 229.8L599.47 229.94L602.36 230.08C605.43 237.33 607.13 241.36 607.47 242.16C614.29 258.46 613.92 257.13 612.78 259.69C611.97 261.53 611.78 261.68 611.45 260.87C611.26 260.35 609.84 256.94 608.33 253.29Z" id="aTBM52zLn"></path><path d="M578.67 230.84C578.59 230.78 578.16 230.46 577.39 229.89C579.5 229.86 580.67 229.85 580.9 229.85C584.03 229.85 584.31 229.94 584.03 230.65C583.84 231.12 583.46 232.17 583.22 232.92C582.42 235.15 582.08 235.25 580.99 233.45C580.43 232.55 579.38 231.36 578.67 230.84Z" id="k16T5XkW9K"></path><path d="M785.67 230.7C785.01 229.89 785.1 229.85 787.38 229.85C788.75 229.85 789.84 229.99 789.84 230.22C789.79 230.41 789.32 231.5 788.7 232.64C788.63 232.78 788.27 233.45 787.61 234.68L787 233.11C786.37 231.79 785.93 230.98 785.67 230.7Z" id="d3SW2ZkMnu"></path></defs><g><g><g><use xlink:href="#c1BKnJSop8" opacity="1" fill="#ffffff" fill-opacity="1"></use></g><g><use xlink:href="#c5lLOhrcBK" opacity="1" fill="#e5e4e2" fill-opacity="1"></use><g><use xlink:href="#c5lLOhrcBK" opacity="1" fill-opacity="0" stroke="#000000" stroke-width="1" stroke-opacity="0"></use></g></g><g><use xlink:href="#ct0pffgv7" opacity="1" fill="#000000" fill-opacity="0"></use><g><use xlink:href="#ct0pffgv7" opacity="1" fill-opacity="0" stroke="#000000" stroke-width="6" stroke-opacity="1"></use></g></g><g><use xlink:href="#au3BgDUsI" opacity="1" fill="#000000" fill-opacity="1"></use><g><use xlink:href="#au3BgDUsI" opacity="1" fill-opacity="0" stroke="#000000" stroke-width="1" stroke-opacity="0"></use></g></g><g><use xlink:href="#aPyOLOqkV" opacity="1" fill="#1f7544" fill-opacity="1"></use><g><use xlink:href="#aPyOLOqkV" opacity="1" fill-opacity="0" stroke="#000000" stroke-width="1" stroke-opacity="0"></use></g></g><g><use xlink:href="#bvrBXNkSD" opacity="1" fill="#000000" fill-opacity="0"></use><g><use xlink:href="#bvrBXNkSD" opacity="1" fill-opacity="0" stroke="#000000" stroke-width="1" stroke-opacity="0"></use></g></g><g><use xlink:href="#grkoIyBql" opacity="1" fill="#f7c404" fill-opacity="1"></use><g><use xlink:href="#grkoIyBql" opacity="1" fill-opacity="0" stroke="#000000" stroke-width="1" stroke-opacity="0"></use></g></g><g><use xlink:href="#d43Bm2d4S" opacity="1" fill="#000000" fill-opacity="0"></use><g><use xlink:href="#d43Bm2d4S" opacity="1" fill-opacity="0" stroke="#000000" stroke-width="1" stroke-opacity="0"></use></g></g><g><use xlink:href="#b4RMXuiGoQ" opacity="1" fill="#f7c404" fill-opacity="1"></use><g><use xlink:href="#b4RMXuiGoQ" opacity="1" fill-opacity="0" stroke="#000000" stroke-width="1" stroke-opacity="0"></use></g></g><g><use xlink:href="#c2BqqHPNe7" opacity="1" fill="#000000" fill-opacity="0"></use><g><use xlink:href="#c2BqqHPNe7" opacity="1" fill-opacity="0" stroke="#000000" stroke-width="1" stroke-opacity="0"></use></g></g><g><use xlink:href="#c2EytMsFz5" opacity="1" fill="#f7c404" fill-opacity="1"></use><g><use xlink:href="#c2EytMsFz5" opacity="1" fill-opacity="0" stroke="#000000" stroke-width="1" stroke-opacity="0"></use></g></g><g><use xlink:href="#a1TiUvfSmi" opacity="1" fill="#000000" fill-opacity="0"></use><g><use xlink:href="#a1TiUvfSmi" opacity="1" fill-opacity="0" stroke="#000000" stroke-width="1" stroke-opacity="0"></use></g></g><g><use xlink:href="#b641qrAVS" opacity="1" fill="#6fc1cd" fill-opacity="1"></use><g><use xlink:href="#b641qrAVS" opacity="1" fill-opacity="0" stroke="#000000" stroke-width="1" stroke-opacity="0"></use></g></g><g><use xlink:href="#aiD43D8Fj" opacity="1" fill="#000000" fill-opacity="0"></use><g><use xlink:href="#aiD43D8Fj" opacity="1" fill-opacity="0" stroke="#000000" stroke-width="1" stroke-opacity="0"></use></g></g><g><use xlink:href="#a2VOHmsTKN" opacity="1" fill="#f4db4c" fill-opacity="1"></use><g><use xlink:href="#a2VOHmsTKN" opacity="1" fill-opacity="0" stroke="#000000" stroke-width="1" stroke-opacity="0"></use></g></g><g><use xlink:href="#c9yd2YyEjR" opacity="1" fill="#000000" fill-opacity="0"></use><g><use xlink:href="#c9yd2YyEjR" opacity="1" fill-opacity="0" stroke="#000000" stroke-width="1" stroke-opacity="0"></use></g></g><g><use xlink:href="#gps6c0NiD" opacity="1" fill="#f4db4c" fill-opacity="1"></use><g><use xlink:href="#gps6c0NiD" opacity="1" fill-opacity="0" stroke="#000000" stroke-width="1" stroke-opacity="0"></use></g></g><g><use xlink:href="#a57MPXwlSv" opacity="1" fill="#000000" fill-opacity="0"></use><g><use xlink:href="#a57MPXwlSv" opacity="1" fill-opacity="0" stroke="#000000" stroke-width="1" stroke-opacity="0"></use></g></g><g><use xlink:href="#aiD9xsH8e" opacity="1" fill="#f4db4c" fill-opacity="1"></use><g><use xlink:href="#aiD9xsH8e" opacity="1" fill-opacity="0" stroke="#000000" stroke-width="1" stroke-opacity="0"></use></g></g><g><use xlink:href="#b1g7bcYzv7" opacity="1" fill="#000000" fill-opacity="0"></use><g><use xlink:href="#b1g7bcYzv7" opacity="1" fill-opacity="0" stroke="#000000" stroke-width="1" stroke-opacity="0"></use></g></g><g><use xlink:href="#bLeh6cPDh" opacity="1" fill="#ffffff" fill-opacity="1"></use><g><use xlink:href="#bLeh6cPDh" opacity="1" fill-opacity="0" stroke="#000000" stroke-width="1" stroke-opacity="0"></use></g></g><g><use xlink:href="#eHGdkOzqL" opacity="1" fill="#000000" fill-opacity="0"></use><g><use xlink:href="#eHGdkOzqL" opacity="1" fill-opacity="0" stroke="#000000" stroke-width="1" stroke-opacity="0"></use></g></g><g><use xlink:href="#d2ej0MAZzC" opacity="1" fill="#ffffff" fill-opacity="1"></use><g><use xlink:href="#d2ej0MAZzC" opacity="1" fill-opacity="0" stroke="#000000" stroke-width="1" stroke-opacity="0"></use></g></g><g><use xlink:href="#alMSvZGOw" opacity="1" fill="#000000" fill-opacity="0"></use><g><use xlink:href="#alMSvZGOw" opacity="1" fill-opacity="0" stroke="#000000" stroke-width="1" stroke-opacity="0"></use></g></g><g><use xlink:href="#b26zwC7W2O" opacity="1" fill="#ffffff" fill-opacity="1"></use><g><use xlink:href="#b26zwC7W2O" opacity="1" fill-opacity="0" stroke="#000000" stroke-width="1" stroke-opacity="0"></use></g></g><g><use xlink:href="#e1HrzeQWFv" opacity="1" fill="#000000" fill-opacity="0"></use><g><use xlink:href="#e1HrzeQWFv" opacity="1" fill-opacity="0" stroke="#000000" stroke-width="1" stroke-opacity="0"></use></g></g><g><use xlink:href="#c64J62Jp5B" opacity="1" fill="#000000" fill-opacity="1"></use><g><use xlink:href="#c64J62Jp5B" opacity="1" fill-opacity="0" stroke="#000000" stroke-width="1" stroke-opacity="0"></use></g></g><g><use xlink:href="#fjEesoKPA" opacity="1" fill="#ffffff" fill-opacity="1"></use><g><use xlink:href="#fjEesoKPA" opacity="1" fill-opacity="0" stroke="#000000" stroke-width="1" stroke-opacity="0"></use></g></g><g><use xlink:href="#fOR0vvfGf" opacity="1" fill="#ffffff" fill-opacity="1"></use><g><use xlink:href="#fOR0vvfGf" opacity="1" fill-opacity="0" stroke="#000000" stroke-width="1" stroke-opacity="0"></use></g></g><g><use xlink:href="#cYWf0sA0I" opacity="1" fill="#ffffff" fill-opacity="1"></use><g><use xlink:href="#cYWf0sA0I" opacity="1" fill-opacity="0" stroke="#000000" stroke-width="1" stroke-opacity="0"></use></g></g><g><use xlink:href="#h96QA5tYg" opacity="1" fill="#ffffff" fill-opacity="1"></use><g><use xlink:href="#h96QA5tYg" opacity="1" fill-opacity="0" stroke="#000000" stroke-width="1" stroke-opacity="0"></use></g></g><g><use xlink:href="#b10nBJJ4L4" opacity="1" fill="#ffffff" fill-opacity="1"></use><g><use xlink:href="#b10nBJJ4L4" opacity="1" fill-opacity="0" stroke="#000000" stroke-width="1" stroke-opacity="0"></use></g></g><g><use xlink:href="#bzErsCcU" opacity="1" fill="#ffffff" fill-opacity="1"></use><g><use xlink:href="#bzErsCcU" opacity="1" fill-opacity="0" stroke="#000000" stroke-width="1" stroke-opacity="0"></use></g></g><g><use xlink:href="#b5FwcjqYkS" opacity="1" fill="#585858" fill-opacity="1"></use><g><use xlink:href="#b5FwcjqYkS" opacity="1" fill-opacity="0" stroke="#000000" stroke-width="1" stroke-opacity="0"></use></g></g><g><use xlink:href="#bhNooiGcm" opacity="1" fill="#ffffff" fill-opacity="1"></use><g><use xlink:href="#bhNooiGcm" opacity="1" fill-opacity="0" stroke="#000000" stroke-width="1" stroke-opacity="0"></use></g></g><g><use xlink:href="#d97lqJf6Q" opacity="1" fill="#ffffff" fill-opacity="1"></use><g><use xlink:href="#d97lqJf6Q" opacity="1" fill-opacity="0" stroke="#000000" stroke-width="1" stroke-opacity="0"></use></g></g><g><use xlink:href="#acQzIGvcB" opacity="1" fill="#ffffff" fill-opacity="1"></use><g><use xlink:href="#acQzIGvcB" opacity="1" fill-opacity="0" stroke="#000000" stroke-width="1" stroke-opacity="0"></use></g></g><g><use xlink:href="#aMjwFWmTK" opacity="1" fill="#ffffff" fill-opacity="1"></use><g><use xlink:href="#aMjwFWmTK" opacity="1" fill-opacity="0" stroke="#000000" stroke-width="1" stroke-opacity="0"></use></g></g><g><use xlink:href="#dkn0jTgJW" opacity="1" fill="#ffffff" fill-opacity="1"></use><g><use xlink:href="#dkn0jTgJW" opacity="1" fill-opacity="0" stroke="#000000" stroke-width="1" stroke-opacity="0"></use></g></g><g><use xlink:href="#b79B2MHqQ" opacity="1" fill="#ffffff" fill-opacity="1"></use><g><use xlink:href="#b79B2MHqQ" opacity="1" fill-opacity="0" stroke="#000000" stroke-width="1" stroke-opacity="0"></use></g></g><g><use xlink:href="#c4cqHSj6Ns" opacity="1" fill="#ffffff" fill-opacity="1"></use><g><use xlink:href="#c4cqHSj6Ns" opacity="1" fill-opacity="0" stroke="#000000" stroke-width="1" stroke-opacity="0"></use></g></g><g><use xlink:href="#a1rYe4Bys1" opacity="1" fill="#ffffff" fill-opacity="1"></use><g><use xlink:href="#a1rYe4Bys1" opacity="1" fill-opacity="0" stroke="#000000" stroke-width="1" stroke-opacity="0"></use></g></g><g><use xlink:href="#arwjkeLv0" opacity="1" fill="#ffffff" fill-opacity="1"></use><g><use xlink:href="#arwjkeLv0" opacity="1" fill-opacity="0" stroke="#000000" stroke-width="1" stroke-opacity="0"></use></g></g><g><use xlink:href="#dnXl4qaBH" opacity="1" fill="#ffffff" fill-opacity="1"></use><g><use xlink:href="#dnXl4qaBH" opacity="1" fill-opacity="0" stroke="#000000" stroke-width="1" stroke-opacity="0"></use></g></g><g><use xlink:href="#guhK84UPw" opacity="1" fill="#ffffff" fill-opacity="1"></use><g><use xlink:href="#guhK84UPw" opacity="1" fill-opacity="0" stroke="#000000" stroke-width="1" stroke-opacity="0"></use></g></g><g><use xlink:href="#a3fzMTwZc" opacity="1" fill="#ffffff" fill-opacity="1"></use><g><use xlink:href="#a3fzMTwZc" opacity="1" fill-opacity="0" stroke="#000000" stroke-width="1" stroke-opacity="0"></use></g></g><g><use xlink:href="#casE8LgZm" opacity="1" fill="#ffffff" fill-opacity="1"></use><g><use xlink:href="#casE8LgZm" opacity="1" fill-opacity="0" stroke="#000000" stroke-width="1" stroke-opacity="0"></use></g></g><g><use xlink:href="#b2jOzfhmt" opacity="1" fill="#ffffff" fill-opacity="1"></use><g><use xlink:href="#b2jOzfhmt" opacity="1" fill-opacity="0" stroke="#000000" stroke-width="1" stroke-opacity="0"></use></g></g><g><use xlink:href="#dMQlYMgBh" opacity="1" fill="#ffffff" fill-opacity="1"></use><g><use xlink:href="#dMQlYMgBh" opacity="1" fill-opacity="0" stroke="#000000" stroke-width="1" stroke-opacity="0"></use></g></g><g><use xlink:href="#d3va0E7kH" opacity="1" fill="#ffffff" fill-opacity="1"></use><g><use xlink:href="#d3va0E7kH" opacity="1" fill-opacity="0" stroke="#000000" stroke-width="1" stroke-opacity="0"></use></g></g><g><use xlink:href="#fPSNVOSE6" opacity="1" fill="#ffffff" fill-opacity="1"></use><g><use xlink:href="#fPSNVOSE6" opacity="1" fill-opacity="0" stroke="#000000" stroke-width="1" stroke-opacity="0"></use></g></g><g><use xlink:href="#d1uxfi9aHp" opacity="1" fill="#ffffff" fill-opacity="1"></use><g><use xlink:href="#d1uxfi9aHp" opacity="1" fill-opacity="0" stroke="#000000" stroke-width="1" stroke-opacity="0"></use></g></g><g><use xlink:href="#a45A7DJ54" opacity="1" fill="#ffffff" fill-opacity="1"></use><g><use xlink:href="#a45A7DJ54" opacity="1" fill-opacity="0" stroke="#000000" stroke-width="1" stroke-opacity="0"></use></g></g><g><use xlink:href="#a1V47ANk4a" opacity="1" fill="#ffffff" fill-opacity="1"></use><g><use xlink:href="#a1V47ANk4a" opacity="1" fill-opacity="0" stroke="#000000" stroke-width="1" stroke-opacity="0"></use></g></g><g><use xlink:href="#c615JJLRo8" opacity="1" fill="#ffffff" fill-opacity="1"></use><g><use xlink:href="#c615JJLRo8" opacity="1" fill-opacity="0" stroke="#000000" stroke-width="1" stroke-opacity="0"></use></g></g><g><use xlink:href="#aE1V1u2dP" opacity="1" fill="#ffffff" fill-opacity="1"></use><g><use xlink:href="#aE1V1u2dP" opacity="1" fill-opacity="0" stroke="#000000" stroke-width="1" stroke-opacity="0"></use></g></g><g><use xlink:href="#c3QetlR04B" opacity="1" fill="#ffffff" fill-opacity="1"></use><g><use xlink:href="#c3QetlR04B" opacity="1" fill-opacity="0" stroke="#000000" stroke-width="1" stroke-opacity="0"></use></g></g><g><use xlink:href="#e1oVW422jA" opacity="1" fill="#ffffff" fill-opacity="1"></use><g><use xlink:href="#e1oVW422jA" opacity="1" fill-opacity="0" stroke="#000000" stroke-width="1" stroke-opacity="0"></use></g></g><g><use xlink:href="#b1EPaOswqa" opacity="1" fill="#ffffff" fill-opacity="1"></use><g><use xlink:href="#b1EPaOswqa" opacity="1" fill-opacity="0" stroke="#000000" stroke-width="1" stroke-opacity="0"></use></g></g><g><use xlink:href="#a7qjgqE9I" opacity="1" fill="#ffffff" fill-opacity="1"></use><g><use xlink:href="#a7qjgqE9I" opacity="1" fill-opacity="0" stroke="#000000" stroke-width="1" stroke-opacity="0"></use></g></g><g><use xlink:href="#hCspOeI1c" opacity="1" fill="#ffffff" fill-opacity="1"></use><g><use xlink:href="#hCspOeI1c" opacity="1" fill-opacity="0" stroke="#000000" stroke-width="1" stroke-opacity="0"></use></g></g><g><use xlink:href="#acD8SJGJN" opacity="1" fill="#ffffff" fill-opacity="1"></use><g><use xlink:href="#acD8SJGJN" opacity="1" fill-opacity="0" stroke="#000000" stroke-width="1" stroke-opacity="0"></use></g></g><g><use xlink:href="#aiaEgrC1G" opacity="1" fill="#ffffff" fill-opacity="1"></use><g><use xlink:href="#aiaEgrC1G" opacity="1" fill-opacity="0" stroke="#000000" stroke-width="1" stroke-opacity="0"></use></g></g><g><use xlink:href="#d2MKmRH5Zz" opacity="1" fill="#ffffff" fill-opacity="1"></use><g><use xlink:href="#d2MKmRH5Zz" opacity="1" fill-opacity="0" stroke="#000000" stroke-width="1" stroke-opacity="0"></use></g></g><g><use xlink:href="#dfJA8sWDy" opacity="1" fill="#ffffff" fill-opacity="1"></use><g><use xlink:href="#dfJA8sWDy" opacity="1" fill-opacity="0" stroke="#000000" stroke-width="1" stroke-opacity="0"></use></g></g><g><use xlink:href="#bOquCMPG9" opacity="1" fill="#ffffff" fill-opacity="1"></use><g><use xlink:href="#bOquCMPG9" opacity="1" fill-opacity="0" stroke="#000000" stroke-width="1" stroke-opacity="0"></use></g></g><g><use xlink:href="#aTBM52zLn" opacity="1" fill="#ffffff" fill-opacity="1"></use><g><use xlink:href="#aTBM52zLn" opacity="1" fill-opacity="0" stroke="#000000" stroke-width="1" stroke-opacity="0"></use></g></g><g><use xlink:href="#k16T5XkW9K" opacity="1" fill="#ffffff" fill-opacity="1"></use><g><use xlink:href="#k16T5XkW9K" opacity="1" fill-opacity="0" stroke="#000000" stroke-width="1" stroke-opacity="0"></use></g></g><g><use xlink:href="#d3SW2ZkMnu" opacity="1" fill="#ffffff" fill-opacity="1"></use><g><use xlink:href="#d3SW2ZkMnu" opacity="1" fill-opacity="0" stroke="#000000" stroke-width="1" stroke-opacity="0"></use></g></g></g></g></svg>