<?xml version="1.0" encoding="UTF-8" standalone="no"?>
<!DOCTYPE svg PUBLIC "-//W3C//DTD SVG 1.1//EN" "http://www.w3.org/Graphics/SVG/1.1/DTD/svg11.dtd">
<svg version="1.1" xmlns="http://www.w3.org/2000/svg" xmlns:xlink="http://www.w3.org/1999/xlink" preserveAspectRatio="xMidYMid meet" viewBox="0 0 888 320" width="300" height="108.11"><defs><path d="M0 0L888 0L888 320L0 320L0 0Z" id="c3ocSooULf"></path><path d="M160 310C77.21 310 10 242.79 10 160C10 77.21 77.21 10 160 10C242.79 10 310 77.21 310 160C310 242.79 242.79 310 160 310Z" id="a2J7xtMjcy"></path><path d="M160 310C77.21 310 10 242.79 10 160C10 77.21 77.21 10 160 10C242.79 10 310 77.21 310 160C310 242.79 242.79 310 160 310Z" id="ct0pffgv7"></path><path d="M159 275.6C94.15 275.6 41.5 222.95 41.5 158.1C41.5 93.25 94.15 40.6 159 40.6C223.85 40.6 276.5 93.25 276.5 158.1C276.5 222.95 223.85 275.6 159 275.6Z" id="au3BgDUsI"></path><path d="M50.68 132.06C60.36 91.02 94.58 57.84 135.89 49.38C143.32 47.88 153.56 46.8 156.81 47.17C157.04 47.17 156.38 48.11 155.3 49.24C154.22 50.32 152.39 52.77 151.17 54.69C141.48 69.73 135.19 95.68 132.18 132.76C130.3 155.7 130.58 184.55 132.74 186.62C133.87 187.8 150.51 191.23 161.51 192.64C182.56 195.32 204.09 195.08 222.32 191.93C242.11 188.55 258.28 182.02 267.07 173.79C269.28 171.72 269.37 171.68 269.37 172.85C269.37 173.46 268.95 176.19 268.38 178.87C259.27 224.97 221.95 260.37 175.18 267.23C167.1 268.4 153.19 268.73 146.47 267.93C111.26 263.61 80.95 243.96 62.81 213.69C54.82 200.35 49.51 184.04 47.95 168.25C46.92 157.53 47.95 143.48 50.68 132.06Z" id="aPyOLOqkV"></path><path d="M50.68 132.06C60.36 91.02 94.58 57.84 135.89 49.38C143.32 47.88 153.56 46.8 156.81 47.17C157.04 47.17 156.38 48.11 155.3 49.24C154.22 50.32 152.39 52.77 151.17 54.69C141.48 69.73 135.19 95.68 132.18 132.76C130.3 155.7 130.58 184.55 132.74 186.62C133.87 187.8 150.51 191.23 161.51 192.64C182.56 195.32 204.09 195.08 222.32 191.93C242.11 188.55 258.28 182.02 267.07 173.79C269.28 171.72 269.37 171.68 269.37 172.85C269.37 173.46 268.95 176.19 268.38 178.87C259.27 224.97 221.95 260.37 175.18 267.23C167.1 268.4 153.19 268.73 146.47 267.93C111.26 263.61 80.95 243.96 62.81 213.69C54.82 200.35 49.51 184.04 47.95 168.25C46.92 157.53 47.95 143.48 50.68 132.06Z" id="bvrBXNkSD"></path><path d="M155.05 161.63C157.87 158.01 161.35 153.64 162.76 151.95C162.93 151.74 163.77 150.72 165.29 148.89C169.55 149.54 171.92 149.9 172.39 149.97C182.83 151.52 202.24 154.3 204.4 154.58C205.43 154.67 212.11 155.66 219.2 156.69C236.5 159.28 245.19 160.55 257.27 162.33C262.82 163.13 267.66 163.88 267.99 164.03C268.98 164.31 266.06 168.02 262.49 171.03C250.41 181.23 228.23 187.71 200.64 189.12C190.67 189.64 188.28 189.64 177.84 189.08C166.09 188.42 145.74 185.36 138.88 183.2C138.18 182.97 138.46 182.54 145.37 173.85C147.86 170.75 152.18 165.25 155.05 161.63Z" id="grkoIyBql"></path><path d="M155.05 161.63C157.87 158.01 161.35 153.64 162.76 151.95C162.93 151.74 163.77 150.72 165.29 148.89C169.55 149.54 171.92 149.9 172.39 149.97C182.83 151.52 202.24 154.3 204.4 154.58C205.43 154.67 212.11 155.66 219.2 156.69C236.5 159.28 245.19 160.55 257.27 162.33C262.82 163.13 267.66 163.88 267.99 164.03C268.98 164.31 266.06 168.02 262.49 171.03C250.41 181.23 228.23 187.71 200.64 189.12C190.67 189.64 188.28 189.64 177.84 189.08C166.09 188.42 145.74 185.36 138.88 183.2C138.18 182.97 138.46 182.54 145.37 173.85C147.86 170.75 152.18 165.25 155.05 161.63Z" id="d43Bm2d4S"></path><path d="M159.7 51.93C159.81 51.82 160.38 51.27 161.39 50.29C161.39 53.44 161.39 69.2 161.39 97.57C161.39 125.96 161.39 141.74 161.39 144.9C159.56 147.24 158.54 148.54 158.34 148.8C149.17 160.5 138.13 174.41 137.42 175.16C136.67 175.96 136.58 175.96 136.3 175.26C135.87 174.13 135.97 161.44 136.48 148.8C137.75 118.48 141.94 90.85 147.81 73.74C150.91 64.86 155.99 55.5 159.7 51.93Z" id="b4RMXuiGoQ"></path><path d="M159.7 51.93C159.81 51.82 160.38 51.27 161.39 50.29C161.39 53.44 161.39 69.2 161.39 97.57C161.39 125.96 161.39 141.74 161.39 144.9C159.56 147.24 158.54 148.54 158.34 148.8C149.17 160.5 138.13 174.41 137.42 175.16C136.67 175.96 136.58 175.96 136.3 175.26C135.87 174.13 135.97 161.44 136.48 148.8C137.75 118.48 141.94 90.85 147.81 73.74C150.91 64.86 155.99 55.5 159.7 51.93Z" id="c2BqqHPNe7"></path><path d="M166.56 95.64C166.56 57.85 166.7 47.7 167.17 47.56C168.21 47.18 180.52 48.97 185.69 50.24C200.87 54.05 216.48 61.66 228.27 71.01C230.15 72.47 234.06 76.04 236.97 78.91C246.7 88.36 253.09 97.14 259.15 109.41C266.2 123.7 269.68 137 270.29 152.13C270.31 152.56 270.41 154.71 270.57 158.57C269.47 158.55 268.86 158.53 268.74 158.53C267.75 158.48 260.14 157.45 251.87 156.22C236.03 153.83 228.27 152.7 190.3 147.01C177.37 145.13 166.75 143.53 166.7 143.53C166.61 143.53 166.56 121.96 166.56 95.64Z" id="c2EytMsFz5"></path><path d="M166.56 95.64C166.56 57.85 166.7 47.7 167.17 47.56C168.21 47.18 180.52 48.97 185.69 50.24C200.87 54.05 216.48 61.66 228.27 71.01C230.15 72.47 234.06 76.04 236.97 78.91C246.7 88.36 253.09 97.14 259.15 109.41C266.2 123.7 269.68 137 270.29 152.13C270.31 152.56 270.41 154.71 270.57 158.57C269.47 158.55 268.86 158.53 268.74 158.53C267.75 158.48 260.14 157.45 251.87 156.22C236.03 153.83 228.27 152.7 190.3 147.01C177.37 145.13 166.75 143.53 166.7 143.53C166.61 143.53 166.56 121.96 166.56 95.64Z" id="a1TiUvfSmi"></path><path d="M47.84 162.71C47.82 162.4 47.73 160.87 47.56 158.1C48.29 158.1 48.7 158.1 48.78 158.1C49.44 158.1 51.51 157.87 53.34 157.54C53.56 157.5 54.68 157.31 56.68 156.98C58.91 154.61 60.14 153.29 60.39 153.03C66.17 146.92 67.16 144.43 68.1 134.23C68.85 125.58 69.65 123.51 73.22 121.11C76.89 118.62 80.22 118.01 94.42 117.26C102.78 116.84 105.04 116.32 107.25 114.25C110.68 111.06 111.39 106.07 110.63 89.95C110.07 78.58 110.21 62.13 110.92 59.26C111.29 57.76 112.56 57.01 119.14 54.56C124.55 52.54 132.02 50.33 137.19 49.3C141.47 48.41 151.66 47.18 154.77 47.18C154.9 47.18 155.57 47.18 156.79 47.18C155.74 48.34 155.17 48.98 155.05 49.11C145.04 60.2 137.14 85.35 133.48 117.68C131.6 134.18 131.13 142.78 131.13 162.1C131.08 182.26 131.41 186.3 133.1 187.2C133.52 187.43 134.98 187.85 136.25 188.14C137.56 188.42 140.53 189.08 142.83 189.59C174.79 196.78 210.79 196.41 237.91 188.65C240.54 187.85 242.75 187.24 242.84 187.24C242.89 187.24 242.94 193.54 242.89 201.25C242.89 218.55 242.66 219.53 237.86 222.59C235.47 224.09 235.32 224.14 230.25 224.09C223.1 224.04 220.28 223.06 202.47 214.03C187.29 206.37 182.12 204.26 177.42 203.83C171.12 203.27 167.32 206.56 166.09 213.61C165.76 215.26 165.44 224 165.34 233.07C165.11 251.82 165.01 252.24 161.44 259.62C160.12 262.3 158.9 265.31 158.76 266.3C158.74 266.41 158.63 267.01 158.43 268.08C155.58 268.06 154 268.04 153.69 268.04C151.1 267.99 147.67 267.8 146.12 267.57C132.63 265.73 121.77 262.54 110.4 257.04C77.03 240.87 53.62 208.77 48.88 172.67C48.5 169.71 48.03 165.2 47.84 162.71Z" id="b641qrAVS"></path><path d="M47.84 162.71C47.82 162.4 47.73 160.87 47.56 158.1C48.29 158.1 48.7 158.1 48.78 158.1C49.44 158.1 51.51 157.87 53.34 157.54C53.56 157.5 54.68 157.31 56.68 156.98C58.91 154.61 60.14 153.29 60.39 153.03C66.17 146.92 67.16 144.43 68.1 134.23C68.85 125.58 69.65 123.51 73.22 121.11C76.89 118.62 80.22 118.01 94.42 117.26C102.78 116.84 105.04 116.32 107.25 114.25C110.68 111.06 111.39 106.07 110.63 89.95C110.07 78.58 110.21 62.13 110.92 59.26C111.29 57.76 112.56 57.01 119.14 54.56C124.55 52.54 132.02 50.33 137.19 49.3C141.47 48.41 151.66 47.18 154.77 47.18C154.9 47.18 155.57 47.18 156.79 47.18C155.74 48.34 155.17 48.98 155.05 49.11C145.04 60.2 137.14 85.35 133.48 117.68C131.6 134.18 131.13 142.78 131.13 162.1C131.08 182.26 131.41 186.3 133.1 187.2C133.52 187.43 134.98 187.85 136.25 188.14C137.56 188.42 140.53 189.08 142.83 189.59C174.79 196.78 210.79 196.41 237.91 188.65C240.54 187.85 242.75 187.24 242.84 187.24C242.89 187.24 242.94 193.54 242.89 201.25C242.89 218.55 242.66 219.53 237.86 222.59C235.47 224.09 235.32 224.14 230.25 224.09C223.1 224.04 220.28 223.06 202.47 214.03C187.29 206.37 182.12 204.26 177.42 203.83C171.12 203.27 167.32 206.56 166.09 213.61C165.76 215.26 165.44 224 165.34 233.07C165.11 251.82 165.01 252.24 161.44 259.62C160.12 262.3 158.9 265.31 158.76 266.3C158.74 266.41 158.63 267.01 158.43 268.08C155.58 268.06 154 268.04 153.69 268.04C151.1 267.99 147.67 267.8 146.12 267.57C132.63 265.73 121.77 262.54 110.4 257.04C77.03 240.87 53.62 208.77 48.88 172.67C48.5 169.71 48.03 165.2 47.84 162.71Z" id="aiD43D8Fj"></path><path d="M152.51 164.87C155.08 165.52 156.5 165.88 156.79 165.95C181.6 172.2 219.3 169.2 232.5 159.89C232.59 159.83 233.03 159.51 233.82 158.95C244.03 160.42 249.7 161.23 250.83 161.39C260.19 162.76 267.99 164.03 268.18 164.17C268.37 164.31 267.75 165.44 266.77 166.66C256.94 179.11 232.18 187.53 200.64 189.12C190.72 189.64 188.28 189.64 178.17 189.08C166.19 188.42 145.84 185.36 138.93 183.2C138.18 182.97 138.5 182.54 146.73 172.16C147.11 171.67 149.04 169.24 152.51 164.87Z" id="a2VOHmsTKN"></path><path d="M152.51 164.87C155.08 165.52 156.5 165.88 156.79 165.95C181.6 172.2 219.3 169.2 232.5 159.89C232.59 159.83 233.03 159.51 233.82 158.95C244.03 160.42 249.7 161.23 250.83 161.39C260.19 162.76 267.99 164.03 268.18 164.17C268.37 164.31 267.75 165.44 266.77 166.66C256.94 179.11 232.18 187.53 200.64 189.12C190.72 189.64 188.28 189.64 178.17 189.08C166.19 188.42 145.84 185.36 138.93 183.2C138.18 182.97 138.5 182.54 146.73 172.16C147.11 171.67 149.04 169.24 152.51 164.87Z" id="c9yd2YyEjR"></path><path d="M159.7 51.93C159.81 51.82 160.38 51.27 161.39 50.29C161.39 59.34 161.39 64.37 161.39 65.37C161.39 77.55 161.25 80.51 160.78 80.69C160.03 80.98 156.83 86.99 155.1 91.36C150.82 102.22 148 115.05 146.54 130.37C145.65 139.59 145.84 160.88 146.78 162.05C147.25 162.62 146.45 163.93 142.12 169.34C139.26 173 136.81 175.96 136.72 175.96C136.67 175.96 136.44 175.63 136.3 175.21C135.87 174.08 135.97 161.58 136.48 148.94C137.8 118.2 141.75 91.93 147.76 73.97C150.72 65.14 155.89 55.6 159.7 51.93Z" id="gps6c0NiD"></path><path d="M159.7 51.93C159.81 51.82 160.38 51.27 161.39 50.29C161.39 59.34 161.39 64.37 161.39 65.37C161.39 77.55 161.25 80.51 160.78 80.69C160.03 80.98 156.83 86.99 155.1 91.36C150.82 102.22 148 115.05 146.54 130.37C145.65 139.59 145.84 160.88 146.78 162.05C147.25 162.62 146.45 163.93 142.12 169.34C139.26 173 136.81 175.96 136.72 175.96C136.67 175.96 136.44 175.63 136.3 175.21C135.87 174.08 135.97 161.58 136.48 148.94C137.8 118.2 141.75 91.93 147.76 73.97C150.72 65.14 155.89 55.6 159.7 51.93Z" id="a57MPXwlSv"></path><path d="M232.36 132.49C228.6 117.59 221.04 104.9 210.79 96.39C205.95 92.4 204.92 91.74 199.37 88.78C191.1 84.41 180.33 81.4 170.75 80.69C170.47 80.68 169.07 80.58 166.56 80.41C166.56 79.32 166.56 73.87 166.56 64.06C166.56 54.21 166.56 48.75 166.56 47.65C167.92 47.65 168.67 47.65 168.82 47.65C178.78 47.7 196.13 52.49 208.63 58.7C219.53 64.06 227.85 69.98 236.97 78.91C246.7 88.31 253.09 97.14 259.15 109.41C266.34 123.93 270.43 140.43 270.43 154.81C270.43 155.06 270.43 156.32 270.43 158.57C269.39 158.55 268.81 158.53 268.69 158.53C267.71 158.48 259.76 157.4 251.07 156.08C248.95 155.76 243.66 154.96 235.18 153.69C235.18 152.36 235.18 151.62 235.18 151.48C235.18 147.67 233.73 137.89 232.36 132.49Z" id="aiD9xsH8e"></path><path d="M232.36 132.49C228.6 117.59 221.04 104.9 210.79 96.39C205.95 92.4 204.92 91.74 199.37 88.78C191.1 84.41 180.33 81.4 170.75 80.69C170.47 80.68 169.07 80.58 166.56 80.41C166.56 79.32 166.56 73.87 166.56 64.06C166.56 54.21 166.56 48.75 166.56 47.65C167.92 47.65 168.67 47.65 168.82 47.65C178.78 47.7 196.13 52.49 208.63 58.7C219.53 64.06 227.85 69.98 236.97 78.91C246.7 88.31 253.09 97.14 259.15 109.41C266.34 123.93 270.43 140.43 270.43 154.81C270.43 155.06 270.43 156.32 270.43 158.57C269.39 158.55 268.81 158.53 268.69 158.53C267.71 158.48 259.76 157.4 251.07 156.08C248.95 155.76 243.66 154.96 235.18 153.69C235.18 152.36 235.18 151.62 235.18 151.48C235.18 147.67 233.73 137.89 232.36 132.49Z" id="b1g7bcYzv7"></path><path d="M163.13 151.57C164.4 149.96 165.11 149.07 165.25 148.89C174.47 150.24 179.59 151 180.62 151.15C189.03 152.42 197.44 153.64 199.23 153.97C199.45 154 200.54 154.19 202.52 154.53C200.69 154.87 199.67 155.06 199.46 155.1C192.65 156.46 182.36 156.98 174.08 156.36C171.22 156.18 165.34 155.33 162.94 154.72C162.81 154.69 162.15 154.53 160.97 154.25C161.12 154.07 161.84 153.18 163.13 151.57Z" id="bLeh6cPDh"></path><path d="M163.13 151.57C164.4 149.96 165.11 149.07 165.25 148.89C174.47 150.24 179.59 151 180.62 151.15C189.03 152.42 197.44 153.64 199.23 153.97C199.45 154 200.54 154.19 202.52 154.53C200.69 154.87 199.67 155.06 199.46 155.1C192.65 156.46 182.36 156.98 174.08 156.36C171.22 156.18 165.34 155.33 162.94 154.72C162.81 154.69 162.15 154.53 160.97 154.25C161.12 154.07 161.84 153.18 163.13 151.57Z" id="eHGdkOzqL"></path><path d="M161.39 123.98C161.39 125.38 161.39 132.35 161.39 144.9C159.7 147.01 158.76 148.19 158.57 148.42C157.02 150.4 155.57 151.99 155.33 151.99C155.14 151.99 154.81 150.4 154.63 148.37C153.92 139.77 154.72 127.74 156.69 118.11C157.63 113.45 160.74 103.11 161.21 103.11C161.3 103.11 161.39 112.51 161.39 123.98Z" id="d2ej0MAZzC"></path><path d="M161.39 123.98C161.39 125.38 161.39 132.35 161.39 144.9C159.7 147.01 158.76 148.19 158.57 148.42C157.02 150.4 155.57 151.99 155.33 151.99C155.14 151.99 154.81 150.4 154.63 148.37C153.92 139.77 154.72 127.74 156.69 118.11C157.63 113.45 160.74 103.11 161.21 103.11C161.3 103.11 161.39 112.51 161.39 123.98Z" id="alMSvZGOw"></path><path d="M166.56 96.86C169.19 97.03 170.64 97.13 170.93 97.14C178.92 97.66 188.51 100.86 194.62 105.04C202.38 110.35 208.72 119.23 211.82 129.25C214.03 136.2 215.26 148.23 213.94 149.55C213.09 150.4 211.64 150.25 188.65 146.78C176.9 145.04 167.13 143.58 166.94 143.53C166.7 143.53 166.56 133.05 166.56 120.17C166.56 118.62 166.56 110.85 166.56 96.86Z" id="b26zwC7W2O"></path><path d="M166.56 96.86C169.19 97.03 170.64 97.13 170.93 97.14C178.92 97.66 188.51 100.86 194.62 105.04C202.38 110.35 208.72 119.23 211.82 129.25C214.03 136.2 215.26 148.23 213.94 149.55C213.09 150.4 211.64 150.25 188.65 146.78C176.9 145.04 167.13 143.58 166.94 143.53C166.7 143.53 166.56 133.05 166.56 120.17C166.56 118.62 166.56 110.85 166.56 96.86Z" id="e1HrzeQWFv"></path><path d="M359 31L580.5 31L802 31L802 100.77L802 170.54L580.5 170.54L359 170.54L359 100.77L359 31Z" id="c64J62Jp5B"></path><path d="M357 29L582 29L807 29L807 101.46L807 173.93L582 173.93L357 173.93L357 101.46L357 29ZM586.11 164.18C589.76 161.41 590.37 159.96 590.37 154.16C590.37 146.79 588.69 144.94 574.55 136.77C570.15 134.14 568.32 132.16 568.32 129.92C568.32 122.41 578.96 121.75 584.59 129C584.82 129.3 585.99 130.79 588.09 133.48C588.09 129.61 588.09 127.45 588.09 127.02C588.09 122.67 587.63 121.23 586.72 122.41C585.5 123.99 584.59 124.12 581.24 122.81C571.36 118.85 562.24 123.6 562.24 132.69C562.24 139.01 564.98 142.44 574.1 147.84C582.61 152.85 583.52 153.77 583.52 158.25C583.52 168.79 568.63 166.15 564.06 154.82C562.7 151.27 562.54 151.79 562.39 159.43C562.39 164.84 562.85 167.34 563.61 166.15C564.67 164.7 565.89 164.7 569.84 165.89C577.29 168.13 581.4 167.73 586.11 164.18ZM458.86 138.75C458.86 125.97 459.47 117.27 460.23 117.93C460.99 118.72 465.4 129.79 470.11 142.83C474.98 155.75 479.23 165.89 479.84 165.36C480.45 164.97 485.16 153.51 490.18 139.93C490.81 138.29 493.95 130.08 499.61 115.3C499.7 129.29 499.75 137.06 499.76 138.62C499.91 161.28 499.76 161.94 496.56 163.91C493.37 165.89 493.98 166.02 505.99 166.02C517.09 165.89 518.46 165.63 516.33 164.18C513.9 162.6 513.59 159.7 513.59 137.04C513.59 114.37 513.9 111.48 516.33 109.89C518.61 108.31 517.54 108.18 508.73 108.05C508.06 108.05 504.71 108.05 498.69 108.05C494.77 118.72 492.59 124.65 492.16 125.84C488.66 135.59 485.31 143.62 484.71 143.62C484.25 143.62 480.75 135.59 477.11 125.84C476.67 124.65 474.49 118.72 470.57 108.05C464.55 108.05 461.2 108.05 460.53 108.05C451.87 108.18 450.8 108.31 453.24 109.89C455.52 111.48 455.82 114.37 455.82 137.04C455.82 159.7 455.52 162.6 453.24 164.18C450.8 165.76 451.41 165.89 457.8 166.02C458.27 166.02 460.66 166.02 464.94 166.02L461.9 163.39C459.88 160.49 458.86 152.28 458.86 138.75ZM528.64 159.7C529.55 156.67 530.62 156.01 535.64 155.75C539.28 155.48 541.87 156.01 542.63 157.06C544.61 159.7 544.3 164.44 542.17 165.1C541.11 165.5 544.15 165.89 549.17 165.89C556.16 166.02 557.68 165.63 556.46 164.44C555.7 163.52 553.42 158.25 551.6 152.85C542.32 125.31 540.5 120.83 539.44 122.67C538.83 123.73 535.33 132.82 531.84 142.97C528.34 153.11 524.39 162.46 523.02 163.78C520.89 165.89 521.19 166.02 526.67 166.02C531.23 165.89 531.99 165.63 530.01 164.7C528.19 163.65 527.88 162.46 528.64 159.7ZM616.97 144.28C616.97 143 616.97 136.59 616.97 125.05C619.52 125.28 620.94 125.42 621.23 125.44C624.12 125.71 626.09 127.15 627.92 130.45C628.1 130.76 629.01 132.29 630.65 135.06L630.65 128.87L630.65 122.54L612.41 122.54L594.17 122.54L594.17 128.87L594.17 135.06C595.81 132.29 596.72 130.76 596.9 130.45C598.73 127.15 600.7 125.71 603.74 125.44C604.02 125.42 605.39 125.28 607.85 125.05C607.85 136.59 607.85 143 607.85 144.28C607.85 162.99 607.7 163.52 604.5 164.7C601.92 165.5 604.05 165.89 612.41 165.89C620.77 165.89 622.9 165.5 620.47 164.7C617.12 163.52 616.97 162.99 616.97 144.28ZM669.42 157.46C669.48 157.11 669.78 155.35 670.33 152.19C668.51 154.72 667.49 156.12 667.29 156.4C663.64 161.41 659.84 163.39 653.76 163.39C648.29 163.39 647.38 161.67 647.38 152.06C647.38 146.92 647.98 144.94 649.35 144.94C651.94 144.94 655.89 148.76 656.95 152.19C657.26 153.64 657.71 149.82 657.71 143.62C657.71 135.19 657.41 133.35 656.5 136.25C655.13 140.2 652.7 142.31 649.35 142.31C647.98 142.31 647.38 139.67 647.38 133.61C647.38 133.04 647.38 130.18 647.38 125.05C651.21 125.28 653.34 125.42 653.76 125.44C659.08 125.71 660.75 126.63 663.64 130.32C663.88 130.62 665.04 132.11 667.14 134.8L667.14 128.6L667.14 122.54C656.92 122.54 651.25 122.54 650.11 122.54C637.65 122.67 633.69 122.94 635.67 123.99C637.95 125.18 638.25 127.55 638.25 144.28C638.25 161.02 637.95 163.39 635.67 164.57C633.69 165.63 637.65 165.89 650.11 166.02C662.58 166.02 667.44 165.63 667.9 164.44C668.2 163.52 668.81 160.36 669.42 157.46ZM688.42 154.82C688.42 150.08 689.03 146.26 689.64 146.26C690.25 146.26 693.29 150.74 696.48 156.14C696.86 156.8 698.73 160.09 702.11 166.02C705.85 166.02 707.92 166.02 708.34 166.02C713.51 166.02 714.12 165.76 712.44 164.31C711.38 163.26 708.49 158.91 706.06 154.56C705.77 154.03 704.36 151.4 701.8 146.65C704.17 144.6 705.49 143.46 705.75 143.23C708.64 140.73 709.71 138.49 709.71 134.8C709.55 125.44 703.78 122.54 685.69 122.54C677.02 122.67 674.59 122.94 676.72 123.99C679 125.18 679.3 127.55 679.3 144.28C679.3 161.02 679 163.39 676.72 164.57C674.59 165.63 676.41 165.89 683.86 165.89C691.31 165.89 693.14 165.63 691.16 164.57C689.03 163.52 688.42 161.41 688.42 154.82ZM635.21 84.86C635.21 83.28 633.54 84.07 629.13 87.5C617.73 96.32 606.78 92.9 603.44 79.2C598.57 59.43 605.42 39.54 617.27 39.54C624.27 39.54 627.61 41.78 631.41 49.16C631.66 49.61 632.87 51.9 635.06 56.01C635.06 49.68 635.06 46.17 635.06 45.47C635.06 36.24 634.91 35.19 633.09 37.3C630.96 39.67 630.65 39.67 623.51 37.43C609.67 33.21 597.81 38.35 591.13 51.66C588.39 57.19 587.93 60.22 588.39 69.18C588.69 78.27 589.45 80.78 593.1 85.52C600.1 94.74 612.71 98.3 623.66 94.35C629.89 92.11 635.21 87.76 635.21 84.86ZM712.44 88.29C712.9 87.23 711.07 88.02 708.34 90C702.56 94.22 697.24 94.61 693.14 91.05C689.18 87.63 687.97 81.44 688.73 69.31C689.18 61.15 689.79 58.91 692.83 56.14C699.06 50.34 705.91 52.45 710.77 61.67C712.29 64.97 712.44 64.57 712.6 57.32C712.6 52.05 712.29 50.08 711.38 51.26C710.16 52.98 709.1 52.98 703.93 51.53C700.43 50.47 696.02 50.08 693.59 50.61C674.28 54.82 670.79 87.36 688.88 94.22C695.87 96.85 700.89 96.59 706.67 93.29C709.55 91.58 712.14 89.34 712.44 88.29ZM412.34 84.99C412.41 84.47 412.77 81.83 413.41 77.09C411.49 80.01 410.43 81.64 410.21 81.96C406.56 87.89 401.85 90.79 394.4 91.84C385.89 93.03 384.37 91.05 384.37 78.27C384.37 69.71 384.82 67.21 386.5 67.21C390.15 67.21 394.86 71.55 396.38 76.43C397.44 80.12 397.75 77.88 397.75 65.89C397.75 51 397.75 50.87 395.62 56.14C393.79 60.75 388.93 64.57 385.13 64.57C384.67 64.57 384.37 58.91 384.37 52.05C384.37 51.22 384.37 47.05 384.37 39.54C387.11 39.54 388.63 39.54 388.93 39.54C393.03 39.54 404.13 42.57 404.13 43.75C404.13 44.02 405.2 46.52 406.41 49.42C406.55 49.77 407.26 51.53 408.54 54.69L408.69 45.86L408.69 36.9C395.28 36.98 387.84 37.03 386.35 37.03C373.88 37.03 364.91 37.43 366.13 37.82C371.6 39.54 372.21 42.3 372.21 65.89C372.21 89.47 371.6 92.24 366.13 93.95C364.91 94.35 374.18 94.74 386.95 94.74C399.57 94.87 410.37 94.48 410.67 93.95C411.13 93.29 411.89 89.34 412.34 84.99ZM424.66 88.42C425.57 84.6 426.18 84.33 432.26 84.33C438.34 84.33 438.79 84.6 439.71 88.55C440.31 91.32 440.01 93.03 438.79 93.82C437.58 94.35 440.62 94.87 445.64 94.87C454.15 94.87 454.45 94.74 452.32 92.24C451.26 90.79 447.16 80.78 443.51 69.84C439.86 59.04 436.51 50.08 436.06 50.08C435.6 50.08 432.26 58.77 428.46 69.45C424.81 79.99 420.86 90.13 419.79 91.84C418.12 94.74 418.27 94.87 422.83 94.87C426.18 94.87 427.09 94.48 425.57 93.69C424.2 92.9 423.9 91.32 424.66 88.42ZM472.54 83.68C472.54 78.93 473.15 75.11 473.76 75.11C474.37 75.11 477.41 79.59 480.6 84.99C480.98 85.65 482.85 88.95 486.23 94.87C490.06 94.8 492.19 94.75 492.61 94.74C496.26 94.74 498.24 94.35 497.17 93.95C496.11 93.56 492.76 89.08 489.88 84.07C485.62 76.69 484.86 74.45 486.53 73.66C487.6 73 488.96 72.48 489.42 72.48C490.94 72.48 493.83 65.89 493.83 62.59C493.83 60.88 492.16 57.72 490.18 55.74C486.68 52.32 485.62 52.05 472.39 51.53C459.17 51.13 458.56 51.26 460.84 53.37C464.49 56.53 464.64 89.6 460.99 92.77C458.86 94.74 459.47 94.87 468.29 94.87C475.59 94.74 477.26 94.48 475.28 93.43C473.15 92.37 472.54 90.26 472.54 83.68ZM522.71 73.14C522.71 71.85 522.71 65.44 522.71 53.9C525.18 54.14 526.54 54.27 526.82 54.29C529.4 54.56 531.68 55.88 532.9 57.98C534.72 61.15 534.88 61.15 534.88 56.4C534.88 56.07 534.88 54.4 534.88 51.4L517.39 51.4L499.91 51.4C500 55.19 500.05 57.3 500.06 57.72C500.21 63.39 500.37 63.52 501.43 60.09C502.95 55.61 505.23 54.03 510.25 54.03C513.59 54.03 513.59 54.16 513.59 72.21C513.59 90.53 513.14 92.5 509.03 93.95C507.81 94.35 511.92 94.61 518.15 94.74C526.51 94.74 528.64 94.35 526.21 93.56C522.87 92.37 522.71 91.84 522.71 73.14ZM553.12 82.09C553.12 81.54 553.12 78.77 553.12 73.79L560.72 73.79L568.32 73.79C568.32 79.33 568.32 82.4 568.32 83.02C568.32 90.26 567.87 92.37 565.74 93.43C563.61 94.48 565.74 94.74 573.64 94.74C579.57 94.61 583.07 94.35 581.7 93.95C579.27 93.43 578.96 91.32 578.96 73.14C578.96 54.95 579.27 52.84 581.7 52.32C583.07 51.92 579.57 51.66 573.64 51.66C567.87 51.66 564.22 51.92 565.74 52.32C567.87 52.84 568.32 54.43 568.32 62.07C568.32 62.67 568.32 65.7 568.32 71.16L560.72 71.16L553.12 71.16C553.12 66.65 553.12 64.15 553.12 63.65C553.12 55.61 554.03 53.64 557.68 52.32C558.9 51.92 555.25 51.53 549.32 51.53C541.41 51.53 539.28 51.79 541.41 52.84C543.69 54.03 544 56.4 544 73.14C544 89.87 543.69 92.24 541.41 93.43C539.28 94.48 541.41 94.74 549.32 94.74C555.25 94.74 558.9 94.35 557.68 93.95C553.88 92.63 553.12 90.66 553.12 82.09ZM647.22 85.92C647.98 84.86 650.57 84.33 654.22 84.6C659.23 84.86 660.3 85.52 661.21 88.55C661.97 91.32 661.67 92.5 659.84 93.56C658.02 94.48 659.84 94.74 666.84 94.87C675.04 94.87 676.11 94.61 674.44 93.03C673.22 92.11 669.27 82.36 665.77 71.69C662.12 60.88 658.78 51.66 658.17 51C657.11 50.08 655.43 54.29 646.46 79.46C644.18 85.92 641.45 91.98 640.23 93.03C638.25 94.61 638.86 94.87 643.88 94.74C647.07 94.74 648.74 94.35 647.83 93.95C645.55 93.29 645.25 88.55 647.22 85.92ZM730.99 83.54C730.99 82.89 730.99 79.64 730.99 73.79L738.59 73.79L746.19 73.79C746.19 78.77 746.19 81.54 746.19 82.09C746.19 90.66 745.43 92.63 741.63 93.95C740.42 94.35 744.22 94.74 749.99 94.74C757.9 94.74 760.03 94.48 758.05 93.43C755.62 92.24 755.31 89.87 755.31 73.14C755.31 56.4 755.62 54.03 758.05 52.84C760.03 51.79 757.9 51.53 749.99 51.53C744.22 51.53 740.42 51.92 741.63 52.32C745.28 53.64 746.19 55.61 746.19 63.65C746.19 64.15 746.19 66.65 746.19 71.16L738.59 71.16L730.99 71.16C730.99 65.7 730.99 62.67 730.99 62.07C730.99 54.43 731.45 52.84 733.73 52.32C735.1 51.92 731.6 51.66 725.67 51.53C717.76 51.53 715.64 51.79 717.76 52.84C720.04 54.03 720.35 56.53 720.35 73.79C720.35 91.32 720.04 93.43 717.76 93.95C716.24 94.35 719.89 94.61 725.67 94.61C731.6 94.61 735.1 94.35 733.73 93.95C731.45 93.43 730.99 91.84 730.99 83.54ZM798.64 86.31C798.7 85.96 799.01 84.2 799.55 81.04C797.73 83.57 796.72 84.98 796.51 85.26C792.87 90.26 789.06 92.24 782.98 92.24C777.51 92.24 776.6 90.53 776.6 80.91C776.6 75.77 777.21 73.79 778.57 73.79C781.16 73.79 785.11 77.61 786.18 81.04C786.48 82.49 786.94 78.67 786.94 72.48C786.94 64.04 786.63 62.2 785.72 65.1C784.35 69.05 781.92 71.16 778.57 71.16C777.21 71.16 776.6 68.52 776.6 62.46C776.6 61.89 776.6 59.04 776.6 53.9C780.43 54.14 782.56 54.27 782.98 54.29C788.3 54.56 789.98 55.48 792.87 59.17C793.1 59.47 794.26 60.96 796.36 63.65L796.36 57.46L796.36 51.4C786.15 51.4 780.47 51.4 779.34 51.4C766.87 51.53 762.92 51.79 764.89 52.84C767.17 54.03 767.48 56.4 767.48 73.14C767.48 89.87 767.17 92.24 764.89 93.43C762.92 94.48 766.87 94.74 779.34 94.87C791.8 94.87 796.67 94.48 797.12 93.29C797.43 92.37 798.03 89.21 798.64 86.31Z" id="fjEesoKPA"></path><path d="M536.4 139.67C537 139.67 537.92 141.25 538.52 143.36C538.98 145.34 539.74 148.24 540.35 149.95C541.26 152.45 540.8 152.85 536.55 152.85C533.96 152.85 531.84 152.45 531.84 152.06C531.84 149.55 535.48 139.67 536.4 139.67Z" id="fOR0vvfGf"></path><path d="M688.42 134.14C688.42 125.71 688.57 125.18 691.92 125.18C697.24 125.18 699.06 127.68 699.06 134.53C699.06 139.54 698.3 141.25 695.72 142.83C691.92 145.2 690.86 145.34 689.49 144.02C688.88 143.62 688.42 139.14 688.42 134.14Z" id="cYWf0sA0I"></path><path d="M432.87 67.86C433.02 68.66 434.08 71.95 435.3 75.51C435.44 75.92 436.15 77.98 437.43 81.7C434.23 81.7 432.46 81.7 432.11 81.7C427.24 81.7 426.78 81.44 427.85 78.8C430.28 72.21 432.87 66.68 432.87 67.86Z" id="h96QA5tYg"></path><path d="M476.35 54.03C480.75 54.03 483.19 57.46 483.19 63.52C483.19 68.66 480.75 71.82 476.04 73.14C472.7 73.93 472.54 73.66 472.54 64.04C472.54 54.29 472.7 54.03 476.35 54.03Z" id="b10nBJJ4L4"></path><path d="M652.09 71.55C652.2 71.31 652.76 70.08 653.76 67.86C654.95 70.63 655.61 72.17 655.74 72.48C659.08 80.12 658.63 81.7 653.3 81.7C649.05 81.7 648.59 81.44 649.5 78.41C649.96 76.69 651.18 73.53 652.09 71.55Z" id="bzErsCcU"></path><path d="M359 228L586.5 228L814 228L814 249L814 270L586.5 270L359 270L359 249L359 228Z" id="axGdDeSu4"></path><path d="M357.32 226.77L586.13 226.77L814.95 226.77L814.95 249.27L814.95 271.77L586.13 271.77L357.32 271.77L357.32 249.27L357.32 226.77ZM577.78 268.64C574.69 268.94 572.78 267.04 568.78 259.64C565.54 253.65 563.33 250.91 560.5 249.3C560.38 249.23 559.76 248.88 558.63 248.24C560.3 248.08 561.23 247.99 561.42 247.97C569.16 247.25 572.4 244.69 572.4 239.35C572.4 234.58 568.78 230.85 562.6 229.25C560.88 228.79 557.91 228.67 549.06 228.67C542.77 228.67 537.7 228.83 537.7 229.02C537.7 229.21 538.42 229.55 539.34 229.78C540.21 230.01 541.13 230.31 541.36 230.47C542.58 231.3 542.66 232.52 542.66 248.81C542.66 249.9 542.66 255.37 542.66 265.21C541.83 265.92 541.37 266.31 541.28 266.39C540.52 267.08 539.41 267.69 538.8 267.84C538.19 267.95 537.7 268.3 537.7 268.56C537.7 269.02 539.3 269.1 546.7 269.1C553.71 269.1 555.66 268.98 555.55 268.64C555.43 268.37 554.52 268.03 553.49 267.88C552.15 267.69 551.39 267.34 550.78 266.62C549.94 265.66 549.9 265.4 549.9 256.86C549.9 256.27 549.9 253.36 549.9 248.12C551.16 248.12 551.86 248.12 552 248.12C556.19 248.12 557.99 249.99 562.18 258.76C564.13 262.8 565.69 265.63 566.6 266.54C568.09 268.07 570.27 269.4 572.21 269.9C573.43 270.24 577.51 270.05 578.62 269.67C579.88 269.17 579.34 268.49 577.78 268.64ZM383.21 265.09C387.98 260.63 388.4 252.85 384.05 248.5C382.56 247.02 381.42 246.41 376.76 244.54C370.01 241.87 368.3 240.88 367.04 239.05C365.93 237.41 365.74 234.62 366.66 232.91C367.76 230.69 370.66 229.05 373.33 229.05C376.76 229.05 380.2 231.8 382.9 236.68C384.66 239.85 385.42 240.34 385.19 238.17C385.12 237.44 384.89 235 384.62 232.72C384.59 232.44 384.45 231.05 384.2 228.56C379.97 228.54 377.62 228.52 377.15 228.52C370.17 228.48 370.05 228.48 367.8 229.55C366.54 230.12 364.94 231.15 364.22 231.84C361.28 234.66 360.25 239.58 361.93 243.05C363.23 245.72 365.21 247.09 372.3 250.07C379.59 253.16 381.34 254.45 382.1 257.35C382.71 259.49 381.76 263.38 380.23 265.28C377.72 268.41 372.72 269.48 369.21 267.61C366.01 265.97 362.23 260.97 360.86 256.63C360.14 254.34 359.22 253.92 359.22 255.86C359.22 256.51 359.49 259.41 359.79 262.23C360.1 265.05 360.37 267.5 360.37 267.65C360.37 267.91 365.06 268.98 367.23 269.21C370.01 269.52 372.46 269.44 374.86 269.06C378.18 268.52 380.92 267.23 383.21 265.09ZM482.59 248.2C482.52 248.12 480.99 250.98 479.2 254.61C476.53 260.02 475.92 261.05 475.61 260.48C474.62 258.61 468.02 244.04 466.54 240.42C464.74 236.11 464.52 234.28 465.43 232.49C466.04 231.34 467.87 230.05 469.55 229.66C470.12 229.55 470.58 229.25 470.58 229.05C470.58 228.83 467.07 228.67 461.24 228.67C455.44 228.67 451.89 228.83 451.89 229.05C451.89 229.25 452.39 229.66 453 229.97C454.49 230.77 456.2 232.79 457.35 235.19C458.41 237.41 471.57 267.19 472.14 268.64C472.33 269.1 472.6 269.48 472.79 269.48C472.98 269.48 475.27 264.71 477.94 258.91C480.61 253.12 482.71 248.27 482.59 248.2ZM721.02 244.31C721.09 244 719.3 247.55 716.97 252.24C714.69 256.89 712.66 260.71 712.47 260.71C712.32 260.71 710.38 256.82 708.16 252.01C701.15 236.76 700.5 234.66 701.99 232.37C702.94 230.96 703.89 230.27 705.61 229.82C708.7 228.94 706.91 228.67 697.68 228.67C692.11 228.67 688.33 228.83 688.33 229.02C688.33 229.25 688.98 229.74 689.78 230.2C691.69 231.27 693.18 233.55 695.89 239.73C697.14 242.55 700.19 249.42 702.64 254.99C705.08 260.55 707.52 266.08 708.05 267.3C708.58 268.49 709.16 269.48 709.31 269.48C709.42 269.48 709.84 268.83 710.22 268.07C711.56 265.36 720.83 244.88 721.02 244.31ZM406.85 267.95C406.01 267.95 405.29 267.57 404.37 266.66C404.29 266.57 403.86 266.14 403.08 265.36C403.08 255.29 403.08 249.7 403.08 248.58C403.08 229.74 402.96 230.5 405.9 229.89C406.74 229.74 407.46 229.4 407.58 229.13C407.69 228.79 405.71 228.67 399.11 228.67C394.42 228.67 390.46 228.83 390.34 229.02C390.23 229.21 390.87 229.55 391.83 229.78C392.74 230.01 394 230.62 394.57 231.11C394.65 231.17 395 231.48 395.64 232.03C395.71 241.62 395.75 246.94 395.76 248.01C395.83 256.78 395.76 264.48 395.64 265.17C395.41 266.47 394.08 267.57 392.25 267.91C391.64 268.07 391.07 268.37 390.95 268.64C390.84 268.98 392.78 269.1 399.42 269.1C406.82 269.1 408.04 269.02 408.04 268.52C408.04 268.14 407.65 267.95 406.85 267.95ZM449.83 258.46C450.9 255.9 450.1 255.86 447.77 258.3C442.24 264.06 434.73 267.99 429.09 267.99C426.04 268.03 424.66 267.27 423.9 265.21C423.33 263.76 423.29 261.62 423.37 247.86C423.37 246.81 423.41 241.59 423.48 232.18C424.03 231.59 424.34 231.26 424.4 231.19C424.97 230.58 426.04 230.08 427.33 229.82C431.41 228.98 429.47 228.67 420.54 228.75C415.66 228.83 411.66 229.02 411.66 229.17C411.66 229.36 412.35 229.74 413.15 230.01C413.99 230.31 415.01 230.89 415.43 231.34C416.24 232.11 416.24 232.49 416.35 248.47C416.36 249.56 416.4 255.01 416.46 264.83C415.89 265.51 415.57 265.89 415.51 265.97C414.63 266.96 413.87 267.42 411.74 268.11C411.35 268.22 411.16 268.49 411.28 268.72C411.43 268.94 417.76 269.1 429.2 269.1C430.38 269.1 436.29 269.1 446.93 269.1L447.16 268.07C448.61 262.42 449.5 259.22 449.83 258.46ZM535.94 257.2C536.17 256.47 536.1 256.13 535.83 256.13C535.6 256.13 535.41 256.28 535.41 256.44C535.41 257.01 532.17 260.14 529.92 261.81C523.24 266.73 515.58 269.14 512.15 267.38C509.93 266.24 509.86 265.93 509.86 256.36C509.86 255.78 509.86 252.87 509.86 247.63C512.33 247.74 513.7 247.8 513.98 247.82C517.37 247.97 518.36 248.12 519.7 248.89C521.83 250.07 523.17 252.13 523.7 254.95C523.93 256.25 524.27 257.27 524.43 257.27C524.62 257.27 524.73 253.16 524.73 248.12C524.73 239.69 524.43 236.87 523.85 240.34C523.17 244.46 518.93 246.98 512.64 246.98C512.46 246.98 511.53 246.98 509.86 246.98C509.86 242.45 509.86 239.93 509.86 239.43C509.86 231.99 509.86 231.84 510.74 231.04C512.11 229.74 513.63 229.47 517.07 229.86C523.32 230.54 528.85 233.63 530.87 237.52C531.6 238.89 533.08 239.66 532.59 238.4C532.47 238.09 532.28 235.77 532.13 233.25C532.11 232.94 532.02 231.42 531.86 228.67C521.7 228.67 516.06 228.67 514.93 228.67C499.37 228.67 495.82 228.9 499.1 229.63C499.71 229.74 500.78 230.35 501.51 230.92C501.59 231 502.03 231.37 502.8 232.03C502.87 241.32 502.91 246.48 502.92 247.51C502.99 257.5 502.88 263.53 502.61 264.52C502.19 266.05 500.67 267.34 498.53 267.91C497.96 268.07 497.43 268.41 497.35 268.64C497.24 268.98 501.28 269.1 515.05 269.02C516.23 269.01 522.18 268.97 532.89 268.91L534.27 263.57C535.28 259.7 535.84 257.58 535.94 257.2ZM645.39 260.02C646.73 256.05 646.35 255.41 644.21 257.96C641.24 261.47 635.25 265.44 630.56 267C627.09 268.18 623.2 268.33 621.79 267.42C619.46 265.89 619.5 266.16 619.38 249.23C619.27 232.18 619.35 231.57 621.48 230.47C622.05 230.16 623.27 229.78 624.19 229.63C627.77 229.05 624.91 228.67 616.6 228.67C609.43 228.67 607.87 228.75 607.87 229.21C607.87 229.47 608.4 229.82 609.05 229.97C609.7 230.08 610.73 230.69 611.34 231.3C611.41 231.38 611.78 231.75 612.44 232.41L612.44 248.69L612.44 264.98C611.67 265.76 611.23 266.19 611.15 266.27C610.42 267 609.32 267.69 608.67 267.8C608.02 267.95 607.49 268.3 607.49 268.56C607.49 269.02 610.35 269.1 625.3 269.02C626.49 269.01 632.43 268.97 643.14 268.91L643.75 266.05C644.47 263.17 645.01 261.16 645.39 260.02ZM686.16 259.26C686.66 257.77 687 256.47 686.92 256.36C686.81 256.25 685.66 257.24 684.37 258.57C677.89 265.21 667.17 269.63 662.86 267.42C660.53 266.24 660.5 265.97 660.5 256.44C660.5 255.86 660.5 252.96 660.5 247.74C662.39 247.74 663.45 247.74 663.66 247.74C667.55 247.78 669.84 248.27 671.44 249.5C672.97 250.64 674.22 253 674.57 255.25C674.68 256.17 674.99 256.93 675.18 256.89C675.79 256.89 675.67 239.27 675.1 239.08C674.8 238.97 674.61 239.27 674.61 239.92C674.61 241.64 673.16 243.89 671.33 245.07C669.23 246.41 666.71 246.98 663.16 246.98C662.99 246.98 662.1 246.98 660.5 246.98C660.5 242.61 660.5 240.18 660.5 239.69C660.5 235.19 660.65 232.14 660.91 231.65C661.14 231.23 662.06 230.58 662.97 230.16C664.42 229.51 664.96 229.47 667.74 229.86C673.08 230.5 676.28 231.88 679.41 234.85C680.48 235.88 681.58 237.22 681.85 237.83C682.42 239.2 683.57 239.43 683.26 238.13C683.15 237.64 682.92 235.31 682.77 232.94C682.75 232.66 682.66 231.24 682.5 228.67C672.48 228.67 666.91 228.67 665.8 228.67C656.61 228.67 649.02 228.83 648.9 229.02C648.79 229.17 649.36 229.51 650.2 229.78C651 230.01 652.11 230.73 652.64 231.38C652.71 231.46 653.04 231.85 653.63 232.56C653.63 242.08 653.63 247.37 653.63 248.43C653.63 260.36 653.52 264.56 653.13 265.28C652.72 266.12 650.39 267.57 648.56 268.11C648.18 268.22 647.99 268.49 648.1 268.72C648.25 268.98 654.36 269.06 666.1 269.02C667.29 269.01 673.21 268.97 683.87 268.91L684.56 265.44C685.27 262.33 685.8 260.27 686.16 259.26ZM771.36 261.28C772.65 256.74 772.77 256.13 772.39 256.13C772.19 256.13 771.58 256.82 770.97 257.66C768.8 260.75 760.6 265.97 755.76 267.38C751.68 268.56 748.32 268.03 746.91 265.97C746.42 265.25 746.3 263.68 746.3 256.36C746.3 255.78 746.3 252.87 746.3 247.63C748.79 247.74 750.18 247.8 750.46 247.82C754.27 247.97 754.81 248.08 756.44 249.11C758.54 250.41 759.99 252.85 760.33 255.56C760.45 256.59 760.68 257.24 760.94 257.16C761.59 256.93 761.52 239.27 760.91 239.05C760.6 238.97 760.41 239.24 760.41 239.77C760.41 241.3 758.92 243.81 757.32 244.88C755.38 246.25 752.52 246.98 749.08 246.98C748.9 246.98 747.97 246.98 746.3 246.98L746.3 239.39L746.3 231.76C747.06 231.21 747.48 230.91 747.56 230.85C749.24 229.59 749.96 229.47 753.55 229.86C759.69 230.54 765.37 233.71 767.47 237.6C767.89 238.36 768.34 238.97 768.53 238.97C768.88 238.97 768.5 229.55 768.15 228.98C767.92 228.56 734.48 228.6 734.48 228.98C734.48 229.17 735.13 229.51 735.93 229.74C736.73 230.01 737.8 230.62 738.33 231.19C738.39 231.26 738.7 231.59 739.25 232.18C739.31 241.47 739.35 246.63 739.36 247.66C739.44 258.08 739.36 263.64 739.05 264.6C738.75 265.66 738.25 266.27 737 267C736.12 267.53 735.01 267.95 734.55 267.95C734.06 267.95 733.72 268.18 733.72 268.52C733.72 269.02 735.97 269.1 751.6 269.1C752.8 269.1 758.77 269.1 769.53 269.1L769.94 266.92C770.53 264.43 771 262.55 771.36 261.28ZM812.43 259.11C812.92 257.66 813.23 256.44 813.04 256.32C812.89 256.25 811.32 257.58 809.53 259.3C804 264.67 797.36 267.95 791.95 267.99C789.05 268.03 787.75 267.42 786.84 265.63C786.23 264.44 786.11 232.83 786.72 231.69C787.26 230.77 788.78 229.97 790.84 229.63C794.58 229.02 791.99 228.67 783.48 228.67C776.08 228.67 774.52 228.75 774.52 229.21C774.52 229.51 775.09 229.86 775.82 229.97C776.62 230.12 777.53 230.69 778.11 231.38C778.17 231.46 778.5 231.85 779.1 232.56C779.1 242.31 779.1 247.73 779.1 248.81C779.06 266.5 779.17 265.78 776.92 267.27C776.31 267.65 775.47 267.95 775.02 267.95C774.48 267.95 774.14 268.18 774.14 268.52C774.14 269.02 776.28 269.1 791.95 269.02C793.13 269.01 799.06 268.97 809.72 268.91L810.64 265.28C811.5 262.11 812.1 260.05 812.43 259.11ZM483.74 245.45C483.24 246.41 482.82 247.36 482.82 247.55C482.82 247.78 483.24 247.17 483.74 246.22C484.23 245.26 484.65 244.35 484.65 244.12C484.65 243.93 484.23 244.5 483.74 245.45ZM494.03 230.2C494.99 229.74 495.75 229.21 495.75 229.02C495.75 228.83 492.85 228.67 489.07 228.67C485.41 228.67 482.4 228.83 482.4 228.98C482.4 229.13 483.13 229.51 484 229.82C487.36 231.04 488.16 234.2 486.29 239.16C484.5 244 484.54 244 486.94 239.16C488.2 236.64 489.91 233.78 490.75 232.79C491.63 231.84 493.08 230.66 494.03 230.2ZM731.24 229.82C733.49 228.94 732.08 228.67 725.52 228.67C721.78 228.67 718.84 228.83 718.84 229.02C718.84 229.21 719.57 229.59 720.44 229.89C722.81 230.66 723.61 231.99 723.57 235.08C723.53 237.02 723.27 238.32 722.35 240.5C721.66 242.06 721.13 243.43 721.17 243.55C721.17 243.66 722.08 241.91 723.15 239.69C724.26 237.48 725.82 234.77 726.62 233.71C728.19 231.65 729.67 230.43 731.24 229.82Z" id="d6N7XuVF2"></path><path d="M561.88 257.16C560.46 254.38 559.02 251.67 558.63 251.1C557.53 249.57 557.72 249.11 559.09 249.91C560.62 250.79 562.14 252.93 565.54 258.8C568.63 264.18 570.3 266.39 572.52 267.99C572.62 268.06 573.13 268.43 574.04 269.1C573.38 269.1 573.01 269.1 572.94 269.1C572.33 269.1 570.91 268.56 569.81 267.95C567.21 266.47 565.19 263.68 561.88 257.16Z" id="anzewrLF0"></path><path d="M542.27 266.92C542.35 266.86 542.73 266.54 543.42 265.97C543.42 256.27 543.42 250.88 543.42 249.8C543.42 237.71 543.53 233.44 543.88 232.87C544.3 232.22 544.18 231.95 543.04 230.77C542.95 230.68 542.52 230.24 541.74 229.44C544.07 229.44 545.37 229.44 545.63 229.44C547.77 229.44 549.52 229.51 549.52 229.63C549.52 229.74 548.91 230.35 548.19 231C548.1 231.08 547.65 231.47 546.85 232.18L546.85 248.54L546.85 264.9C547.65 265.79 548.1 266.29 548.19 266.39C548.91 267.19 549.52 267.95 549.52 268.11C549.52 268.22 547.65 268.33 545.32 268.33C543.04 268.33 541.13 268.22 541.13 268.11C541.13 267.99 541.66 267.46 542.27 266.92Z" id="a1k76lxGt9"></path><path d="M549.9 246.94C549.9 242.52 549.9 240.07 549.9 239.58C549.9 232.72 549.94 232.14 550.7 231.23C552.23 229.25 557.3 228.9 560.5 230.54C563.86 232.26 565.65 236.61 564.85 240.99C564.01 245.38 561.91 246.86 555.96 247.13C553.98 247.21 551.81 247.21 551.16 247.09C550.99 247.07 550.57 247.02 549.9 246.94Z" id="a1pD5mMeUX"></path><path d="M565.69 238.97C565.65 235.46 565.12 233.82 563.4 231.76C562.75 230.96 562.6 230.58 562.94 230.58C563.97 230.58 566.87 232.75 568.02 234.39C569.05 235.88 569.16 236.34 569.16 238.97C569.16 241.52 569.05 242.1 568.09 243.51C567.41 244.54 566.41 245.41 565.42 245.87C563.21 246.86 562.52 246.83 563.52 245.76C565.27 243.85 565.73 242.36 565.69 238.97Z" id="fP2UrwWeH"></path><path d="M361.24 266.43C360.79 265.55 360.56 262.23 360.94 262.23C361.01 262.23 361.93 263.11 362.92 264.22C363.91 265.28 365.51 266.66 366.43 267.27C366.54 267.34 367.12 267.69 368.15 268.33C367.34 268.31 366.9 268.3 366.81 268.3C366.12 268.3 364.68 268.07 363.61 267.84C362.23 267.5 361.59 267.11 361.24 266.43Z" id="e1r4QoC0SB"></path><path d="M382.1 263.57C384.09 259.45 382.9 254.64 379.28 252.39C378.4 251.82 375.32 250.41 372.42 249.27C364.48 246.06 362.31 244 361.97 239.27C361.82 237.44 361.97 236.72 362.81 235C363.76 233.06 365.67 230.96 366.47 230.96C366.66 230.96 366.28 231.8 365.63 232.87C364.87 234.09 364.37 235.46 364.26 236.68C363.87 240.91 365.86 242.78 374.32 246.14C381.15 248.81 382.9 249.99 384.24 252.85C386.03 256.74 384.96 262.54 381.91 265.28C381.34 265.82 380.92 266.08 381.04 265.86C381.11 265.66 381.61 264.64 382.1 263.57Z" id="aqGq8B4g"></path><path d="M379.05 230.39C378.44 229.97 377.91 229.55 377.91 229.44C377.91 229.32 378.75 229.32 379.82 229.36C381.65 229.51 381.72 229.55 382.07 230.89C382.79 233.63 382.94 234.39 382.79 234.39C382.71 234.39 382.07 233.67 381.42 232.79C380.73 231.88 379.66 230.81 379.05 230.39Z" id="b2nc7Wxjuj"></path><path d="M455.55 231C455.02 230.47 454.56 229.93 454.56 229.74C454.56 229.59 456.89 229.44 459.71 229.44C462.53 229.44 464.86 229.55 464.86 229.66C464.86 229.78 464.32 230.5 463.71 231.3C460.82 234.93 461.31 237.06 468.29 250.98C471.23 256.86 473.82 262.27 474.01 263C474.32 263.99 474.24 264.71 473.78 265.93C473.44 266.85 473.02 267.57 472.9 267.57C472.75 267.57 469.59 260.67 465.81 252.24C457.88 234.28 456.89 232.22 455.55 231Z" id="bjHKc23FJ"></path><path d="M694.25 234.39C693.56 233.02 692.53 231.5 692 231C691.46 230.47 691 229.93 691 229.74C691 229.59 693.33 229.44 696.15 229.44C698.97 229.44 701.3 229.55 701.3 229.66C701.3 229.78 700.77 230.58 700.12 231.38C697.22 235.04 697.91 237.75 705.27 252.05C707.63 256.7 709.88 261.32 710.26 262.35C710.91 264.06 710.91 264.22 710.3 265.86C709.92 266.81 709.5 267.57 709.31 267.57C709.16 267.57 708.62 266.66 708.16 265.59C705.8 259.98 695.31 236.57 694.25 234.39Z" id="e9uzuSLYhH"></path><path d="M395.64 266.73C395.71 266.66 396.02 266.27 396.6 265.59C396.6 255.93 396.6 250.57 396.6 249.5C396.6 237.14 396.71 233.29 397.09 232.91C397.47 232.52 397.28 232.18 396.14 231.19C395.34 230.5 394.8 229.82 394.96 229.7C395.3 229.32 402.32 229.4 402.32 229.74C402.32 229.93 401.9 230.47 401.36 230.96C401.3 231.02 400.98 231.31 400.41 231.84L400.41 248.73L400.41 265.59C401.1 266.27 401.48 266.66 401.55 266.73C402.16 267.34 402.54 267.95 402.43 268.11C402.12 268.41 395.26 268.41 394.96 268.11C394.8 267.95 395.15 267.34 395.64 266.73Z" id="a1KM4pgMCe"></path><path d="M416.24 266.73C416.3 266.66 416.62 266.27 417.19 265.59C417.19 256.09 417.19 250.82 417.19 249.76C417.19 235.16 417.23 233.82 417.87 233.14C418.49 232.45 418.49 232.37 417.11 231.15C416.31 230.47 415.66 229.82 415.66 229.66C415.66 229.55 417.3 229.44 419.29 229.44C421.38 229.44 422.91 229.59 422.91 229.82C422.91 230.01 422.41 230.54 421.76 231.04C421.69 231.09 421.31 231.37 420.62 231.88C420.62 241.72 420.62 247.18 420.62 248.27C420.62 264.06 420.66 264.75 421.38 265.97C421.8 266.66 422.41 267.3 422.72 267.42C423.02 267.57 423.18 267.8 423.06 267.99C422.83 268.37 415.93 268.49 415.55 268.11C415.4 267.95 415.74 267.34 416.24 266.73Z" id="b2lKozWmk"></path><path d="M437.71 266.58C439.31 265.86 441.9 264.44 443.43 263.38C444.99 262.35 446.17 261.62 446.1 261.77C446.02 261.93 445.49 263.38 444.91 264.98C444.84 265.17 444.47 266.12 443.81 267.84C442.64 268 441.99 268.09 441.86 268.11C439.27 268.41 435.3 268.41 435 268.11C434.85 267.95 436.07 267.27 437.71 266.58Z" id="atIwjfYwB"></path><path d="M501.89 266.96C503.68 265.36 503.76 264.71 503.76 248.58C503.76 236.95 503.87 233.29 504.25 232.91C504.63 232.52 504.44 232.18 503.3 231.11C502.5 230.39 501.85 229.74 501.85 229.63C501.85 229.51 503.76 229.44 506.04 229.44C508.37 229.44 510.24 229.59 510.24 229.74C510.24 229.89 509.74 230.35 509.1 230.69C506.66 232.14 506.81 231.08 506.81 248.16C506.81 265.09 506.88 265.7 508.87 267C509.4 267.38 509.74 267.8 509.63 267.99C509.36 268.41 501.09 268.45 501.09 268.03C501.09 267.84 501.47 267.38 501.89 266.96Z" id="a3IHAJBI3N"></path><path d="M523.36 266.62C526.75 265.13 529.65 263.41 532.09 261.39C532.21 261.29 532.81 260.78 533.88 259.87C532.74 262.22 532.1 263.53 531.98 263.8C530.38 267.11 529.88 267.8 529 267.99C527.59 268.33 521.11 268.41 520.8 268.11C520.65 267.95 521.83 267.3 523.36 266.62Z" id="a7ADH6mxjU"></path><path d="M518.74 247.25C518.78 247.09 519.55 246.52 520.46 245.99C520.57 245.92 521.1 245.61 522.06 245.03C522.06 246.29 522.06 246.99 522.06 247.13C522.06 248.31 521.95 249.27 521.8 249.23C521.6 249.19 520.84 248.81 520.08 248.35C519.28 247.93 518.67 247.4 518.74 247.25Z" id="aNgaQrwH"></path><path d="M524.31 230.96C523.28 230.47 522.44 229.93 522.44 229.74C522.44 229.59 523.97 229.44 525.84 229.44C526.06 229.44 527.2 229.44 529.23 229.44C529.62 231.04 529.84 231.93 529.88 232.11C530.26 233.59 530.49 234.85 530.41 234.93C530.34 235 529.35 234.32 528.24 233.44C527.1 232.56 525.34 231.42 524.31 230.96Z" id="bl4VgFYlM"></path><path d="M612.25 266.73C612.32 266.66 612.63 266.27 613.21 265.59C613.21 256.16 613.21 250.92 613.21 249.88C613.21 235.8 613.28 234.09 613.85 233.25C614.47 232.37 614.47 232.33 613.09 231.15C612.33 230.47 611.68 229.82 611.68 229.66C611.68 229.55 613.44 229.44 615.61 229.44C615.87 229.44 617.17 229.45 619.5 229.47L618.09 230.73L616.64 231.99C616.64 241.65 616.64 247.01 616.64 248.08C616.64 265.25 616.75 266.24 618.51 267.19C618.97 267.42 619.23 267.76 619.12 267.99C618.85 268.37 611.95 268.49 611.57 268.11C611.41 267.95 611.76 267.34 612.25 266.73Z" id="aUi2bC9p6"></path><path d="M634.87 265.97C636.93 265.02 639.41 263.61 640.4 262.84C641.39 262.08 642.19 261.58 642.19 261.74C642.19 261.85 641.66 263.3 641.01 264.9C640.93 265.1 640.53 266.08 639.83 267.84C638.8 268 638.22 268.09 638.11 268.11C635.71 268.41 631.13 268.41 631.13 268.07C631.13 267.88 632.81 266.96 634.87 265.97Z" id="dvlM9E8rv"></path><path d="M653.06 266.39C653.15 266.29 653.59 265.79 654.39 264.9C654.39 255.45 654.39 250.2 654.39 249.15C654.39 237.41 654.51 233.29 654.85 232.94C655.19 232.6 654.97 232.14 653.82 230.96C653.72 230.86 653.23 230.35 652.33 229.44C654.9 229.44 656.32 229.44 656.61 229.44C658.97 229.44 660.88 229.59 660.88 229.78C660.88 229.93 660.19 230.54 659.35 231.11C659.25 231.18 658.74 231.51 657.83 232.11L657.83 248.69L657.83 265.25C658.63 266.02 659.07 266.46 659.16 266.54C659.88 267.27 660.5 267.95 660.5 268.11C660.5 268.22 658.51 268.33 656.11 268.33C653.71 268.33 651.72 268.22 651.72 268.11C651.72 267.95 652.33 267.19 653.06 266.39Z" id="bDbtvAPuQ"></path><path d="M674.07 266.58C677.73 264.98 680.71 263.22 682.92 261.28C683.87 260.44 684.56 259.94 684.48 260.14C684.41 260.36 683.61 262 682.69 263.83C681.81 265.66 681.09 267.3 681.09 267.5C681.09 268.18 672.09 268.72 671.44 268.11C671.29 267.95 672.51 267.27 674.07 266.58Z" id="a2mlwwyj7L"></path><path d="M669.27 247.36C669.3 247.25 670.07 246.71 670.98 246.14C671.1 246.07 671.67 245.73 672.7 245.11C672.7 246.35 672.7 247.03 672.7 247.17C672.7 248.31 672.58 249.27 672.43 249.23C672.24 249.19 671.48 248.81 670.72 248.35C669.91 247.93 669.27 247.47 669.27 247.36Z" id="a7oH9YYs1"></path><path d="M675.29 230.96C674.07 230.31 673.08 229.7 673.08 229.59C673.08 229.51 674.61 229.44 676.51 229.44C676.74 229.44 677.87 229.44 679.91 229.44C680.14 230.31 680.26 230.79 680.29 230.89C680.75 232.6 681.39 235.54 681.32 235.54C681.32 235.5 680.44 234.74 679.41 233.82C678.38 232.91 676.51 231.61 675.29 230.96Z" id="ayM7D8SE8"></path><path d="M738.33 266.96C740.2 265.28 740.2 265.17 740.2 248.77C740.2 237.33 740.31 233.29 740.66 232.94C741 232.6 740.77 232.14 739.63 230.96C739.53 230.86 739.03 230.35 738.14 229.44C740.7 229.44 742.13 229.44 742.41 229.44C744.78 229.44 746.68 229.55 746.68 229.74C746.64 229.89 745.96 230.47 745.16 231.04C745.05 231.11 744.55 231.46 743.63 232.11L743.63 248.73L743.63 265.4C744.43 266.15 744.88 266.57 744.97 266.66C745.69 267.34 746.3 267.99 746.3 268.11C746.3 268.22 744.32 268.33 741.92 268.33C739.51 268.33 737.53 268.18 737.53 268.03C737.53 267.84 737.87 267.38 738.33 266.96Z" id="b1ErClCVg7"></path><path d="M759.42 266.81C762.74 265.4 765.86 263.57 768.27 261.62C768.4 261.51 769.06 260.97 770.25 259.98C769.15 262.32 768.54 263.61 768.42 263.87C766.82 267.15 766.36 267.8 765.48 267.99C764.03 268.33 757.55 268.41 757.25 268.07C757.09 267.95 758.08 267.38 759.42 266.81Z" id="d1LqH7MpkL"></path><path d="M755.26 247.59C754.84 247.44 755.72 246.67 757.47 245.64C757.54 245.6 757.89 245.4 758.5 245.03C758.5 246.29 758.5 246.99 758.5 247.13C758.5 248.31 758.39 249.27 758.24 249.23C758.05 249.23 757.44 248.89 756.79 248.47C756.18 248.08 755.49 247.66 755.26 247.59Z" id="g2kXMAfM2r"></path><path d="M760.83 230.89C759.76 230.43 758.92 229.89 758.89 229.74C758.89 229.55 760.41 229.44 762.28 229.44C765.22 229.44 765.71 229.51 765.86 230.12C766.4 231.99 766.97 234.81 766.86 234.93C766.78 235 765.79 234.32 764.72 233.44C763.61 232.52 761.86 231.38 760.83 230.89Z" id="iYjKtCMMq"></path><path d="M778.95 266.92C779.01 266.86 779.31 266.53 779.86 265.93C779.86 256.46 779.86 251.2 779.86 250.14C779.86 236.07 779.94 234.2 780.51 233.25C781.12 232.18 781.12 232.14 780.01 231.19C779.4 230.66 778.79 230.2 778.64 230.2C778.45 230.2 778.33 230.05 778.33 229.82C778.33 229.59 779.86 229.44 782.15 229.44C784.25 229.44 785.96 229.51 785.96 229.63C785.96 229.74 785.35 230.35 784.63 231C784.54 231.08 784.09 231.47 783.29 232.18C783.29 241.38 783.29 246.49 783.29 247.51C783.29 255.9 783.41 263.45 783.56 264.25C783.67 265.13 784.25 266.16 784.86 266.81C785.47 267.42 785.96 267.99 785.96 268.11C785.96 268.41 778.53 268.41 778.26 268.11C778.14 267.99 778.45 267.46 778.95 266.92Z" id="evpY9Wa5H"></path><path d="M800.76 266.43C802.36 265.7 804.8 264.37 806.17 263.45C807.55 262.54 808.77 261.74 808.88 261.62C809 261.55 808.54 262.92 807.85 264.64C806.63 267.65 806.52 267.76 805.14 268.03C803.16 268.37 797.78 268.41 797.78 268.07C797.78 267.88 799.12 267.15 800.76 266.43Z" id="epINZGHxa"></path><path d="M487.17 231.57C486.63 230.58 486.21 229.7 486.21 229.59C486.21 229.51 487.17 229.44 488.31 229.44C489.76 229.44 490.41 229.59 490.41 229.93C490.37 230.66 488.16 234.66 488.12 233.97C488.12 233.63 487.7 232.56 487.17 231.57Z" id="h19YEE0Rql"></path><path d="M723.61 231.57C723.08 230.58 722.66 229.7 722.66 229.59C722.66 229.32 726.81 229.44 727 229.74C727.08 229.89 726.58 231.04 725.86 232.3C725.17 233.55 724.56 234.32 724.56 233.97C724.56 233.63 724.14 232.56 723.61 231.57Z" id="a1T47tOklJ"></path></defs><g><g><g><use xlink:href="#c3ocSooULf" opacity="1" fill="#ffffff" fill-opacity="1"></use></g><g><use xlink:href="#a2J7xtMjcy" opacity="1" fill="#aaa9ad" fill-opacity="1"></use><g><use xlink:href="#a2J7xtMjcy" opacity="1" fill-opacity="0" stroke="#000000" stroke-width="1" stroke-opacity="0"></use></g></g><g><use xlink:href="#ct0pffgv7" opacity="1" fill="#000000" fill-opacity="0"></use><g><use xlink:href="#ct0pffgv7" opacity="1" fill-opacity="0" stroke="#000000" stroke-width="6" stroke-opacity="1"></use></g></g><g><use xlink:href="#au3BgDUsI" opacity="1" fill="#000000" fill-opacity="1"></use><g><use xlink:href="#au3BgDUsI" opacity="1" fill-opacity="0" stroke="#000000" stroke-width="1" stroke-opacity="0"></use></g></g><g><use xlink:href="#aPyOLOqkV" opacity="1" fill="#1f7544" fill-opacity="1"></use><g><use xlink:href="#aPyOLOqkV" opacity="1" fill-opacity="0" stroke="#000000" stroke-width="1" stroke-opacity="0"></use></g></g><g><use xlink:href="#bvrBXNkSD" opacity="1" fill="#000000" fill-opacity="0"></use><g><use xlink:href="#bvrBXNkSD" opacity="1" fill-opacity="0" stroke="#000000" stroke-width="1" stroke-opacity="0"></use></g></g><g><use xlink:href="#grkoIyBql" opacity="1" fill="#f7c404" fill-opacity="1"></use><g><use xlink:href="#grkoIyBql" opacity="1" fill-opacity="0" stroke="#000000" stroke-width="1" stroke-opacity="0"></use></g></g><g><use xlink:href="#d43Bm2d4S" opacity="1" fill="#000000" fill-opacity="0"></use><g><use xlink:href="#d43Bm2d4S" opacity="1" fill-opacity="0" stroke="#000000" stroke-width="1" stroke-opacity="0"></use></g></g><g><use xlink:href="#b4RMXuiGoQ" opacity="1" fill="#f7c404" fill-opacity="1"></use><g><use xlink:href="#b4RMXuiGoQ" opacity="1" fill-opacity="0" stroke="#000000" stroke-width="1" stroke-opacity="0"></use></g></g><g><use xlink:href="#c2BqqHPNe7" opacity="1" fill="#000000" fill-opacity="0"></use><g><use xlink:href="#c2BqqHPNe7" opacity="1" fill-opacity="0" stroke="#000000" stroke-width="1" stroke-opacity="0"></use></g></g><g><use xlink:href="#c2EytMsFz5" opacity="1" fill="#f7c404" fill-opacity="1"></use><g><use xlink:href="#c2EytMsFz5" opacity="1" fill-opacity="0" stroke="#000000" stroke-width="1" stroke-opacity="0"></use></g></g><g><use xlink:href="#a1TiUvfSmi" opacity="1" fill="#000000" fill-opacity="0"></use><g><use xlink:href="#a1TiUvfSmi" opacity="1" fill-opacity="0" stroke="#000000" stroke-width="1" stroke-opacity="0"></use></g></g><g><use xlink:href="#b641qrAVS" opacity="1" fill="#6fc1cd" fill-opacity="1"></use><g><use xlink:href="#b641qrAVS" opacity="1" fill-opacity="0" stroke="#000000" stroke-width="1" stroke-opacity="0"></use></g></g><g><use xlink:href="#aiD43D8Fj" opacity="1" fill="#000000" fill-opacity="0"></use><g><use xlink:href="#aiD43D8Fj" opacity="1" fill-opacity="0" stroke="#000000" stroke-width="1" stroke-opacity="0"></use></g></g><g><use xlink:href="#a2VOHmsTKN" opacity="1" fill="#f4db4c" fill-opacity="1"></use><g><use xlink:href="#a2VOHmsTKN" opacity="1" fill-opacity="0" stroke="#000000" stroke-width="1" stroke-opacity="0"></use></g></g><g><use xlink:href="#c9yd2YyEjR" opacity="1" fill="#000000" fill-opacity="0"></use><g><use xlink:href="#c9yd2YyEjR" opacity="1" fill-opacity="0" stroke="#000000" stroke-width="1" stroke-opacity="0"></use></g></g><g><use xlink:href="#gps6c0NiD" opacity="1" fill="#f4db4c" fill-opacity="1"></use><g><use xlink:href="#gps6c0NiD" opacity="1" fill-opacity="0" stroke="#000000" stroke-width="1" stroke-opacity="0"></use></g></g><g><use xlink:href="#a57MPXwlSv" opacity="1" fill="#000000" fill-opacity="0"></use><g><use xlink:href="#a57MPXwlSv" opacity="1" fill-opacity="0" stroke="#000000" stroke-width="1" stroke-opacity="0"></use></g></g><g><use xlink:href="#aiD9xsH8e" opacity="1" fill="#f4db4c" fill-opacity="1"></use><g><use xlink:href="#aiD9xsH8e" opacity="1" fill-opacity="0" stroke="#000000" stroke-width="1" stroke-opacity="0"></use></g></g><g><use xlink:href="#b1g7bcYzv7" opacity="1" fill="#000000" fill-opacity="0"></use><g><use xlink:href="#b1g7bcYzv7" opacity="1" fill-opacity="0" stroke="#000000" stroke-width="1" stroke-opacity="0"></use></g></g><g><use xlink:href="#bLeh6cPDh" opacity="1" fill="#ffffff" fill-opacity="1"></use><g><use xlink:href="#bLeh6cPDh" opacity="1" fill-opacity="0" stroke="#000000" stroke-width="1" stroke-opacity="0"></use></g></g><g><use xlink:href="#eHGdkOzqL" opacity="1" fill="#000000" fill-opacity="0"></use><g><use xlink:href="#eHGdkOzqL" opacity="1" fill-opacity="0" stroke="#000000" stroke-width="1" stroke-opacity="0"></use></g></g><g><use xlink:href="#d2ej0MAZzC" opacity="1" fill="#ffffff" fill-opacity="1"></use><g><use xlink:href="#d2ej0MAZzC" opacity="1" fill-opacity="0" stroke="#000000" stroke-width="1" stroke-opacity="0"></use></g></g><g><use xlink:href="#alMSvZGOw" opacity="1" fill="#000000" fill-opacity="0"></use><g><use xlink:href="#alMSvZGOw" opacity="1" fill-opacity="0" stroke="#000000" stroke-width="1" stroke-opacity="0"></use></g></g><g><use xlink:href="#b26zwC7W2O" opacity="1" fill="#ffffff" fill-opacity="1"></use><g><use xlink:href="#b26zwC7W2O" opacity="1" fill-opacity="0" stroke="#000000" stroke-width="1" stroke-opacity="0"></use></g></g><g><use xlink:href="#e1HrzeQWFv" opacity="1" fill="#000000" fill-opacity="0"></use><g><use xlink:href="#e1HrzeQWFv" opacity="1" fill-opacity="0" stroke="#000000" stroke-width="1" stroke-opacity="0"></use></g></g><g><use xlink:href="#c64J62Jp5B" opacity="1" fill="#000000" fill-opacity="1"></use><g><use xlink:href="#c64J62Jp5B" opacity="1" fill-opacity="0" stroke="#000000" stroke-width="1" stroke-opacity="0"></use></g></g><g><use xlink:href="#fjEesoKPA" opacity="1" fill="#ffffff" fill-opacity="1"></use><g><use xlink:href="#fjEesoKPA" opacity="1" fill-opacity="0" stroke="#000000" stroke-width="1" stroke-opacity="0"></use></g></g><g><use xlink:href="#fOR0vvfGf" opacity="1" fill="#ffffff" fill-opacity="1"></use><g><use xlink:href="#fOR0vvfGf" opacity="1" fill-opacity="0" stroke="#000000" stroke-width="1" stroke-opacity="0"></use></g></g><g><use xlink:href="#cYWf0sA0I" opacity="1" fill="#ffffff" fill-opacity="1"></use><g><use xlink:href="#cYWf0sA0I" opacity="1" fill-opacity="0" stroke="#000000" stroke-width="1" stroke-opacity="0"></use></g></g><g><use xlink:href="#h96QA5tYg" opacity="1" fill="#ffffff" fill-opacity="1"></use><g><use xlink:href="#h96QA5tYg" opacity="1" fill-opacity="0" stroke="#000000" stroke-width="1" stroke-opacity="0"></use></g></g><g><use xlink:href="#b10nBJJ4L4" opacity="1" fill="#ffffff" fill-opacity="1"></use><g><use xlink:href="#b10nBJJ4L4" opacity="1" fill-opacity="0" stroke="#000000" stroke-width="1" stroke-opacity="0"></use></g></g><g><use xlink:href="#bzErsCcU" opacity="1" fill="#ffffff" fill-opacity="1"></use><g><use xlink:href="#bzErsCcU" opacity="1" fill-opacity="0" stroke="#000000" stroke-width="1" stroke-opacity="0"></use></g></g><g><use xlink:href="#axGdDeSu4" opacity="1" fill="#aaa9ad" fill-opacity="1"></use><g><use xlink:href="#axGdDeSu4" opacity="1" fill-opacity="0" stroke="#000000" stroke-width="1" stroke-opacity="0"></use></g></g><g><use xlink:href="#d6N7XuVF2" opacity="1" fill="#ffffff" fill-opacity="1"></use><g><use xlink:href="#d6N7XuVF2" opacity="1" fill-opacity="0" stroke="#000000" stroke-width="1" stroke-opacity="0"></use></g></g><g><use xlink:href="#anzewrLF0" opacity="1" fill="#ffffff" fill-opacity="1"></use><g><use xlink:href="#anzewrLF0" opacity="1" fill-opacity="0" stroke="#000000" stroke-width="1" stroke-opacity="0"></use></g></g><g><use xlink:href="#a1k76lxGt9" opacity="1" fill="#ffffff" fill-opacity="1"></use><g><use xlink:href="#a1k76lxGt9" opacity="1" fill-opacity="0" stroke="#000000" stroke-width="1" stroke-opacity="0"></use></g></g><g><use xlink:href="#a1pD5mMeUX" opacity="1" fill="#ffffff" fill-opacity="1"></use><g><use xlink:href="#a1pD5mMeUX" opacity="1" fill-opacity="0" stroke="#000000" stroke-width="1" stroke-opacity="0"></use></g></g><g><use xlink:href="#fP2UrwWeH" opacity="1" fill="#ffffff" fill-opacity="1"></use><g><use xlink:href="#fP2UrwWeH" opacity="1" fill-opacity="0" stroke="#000000" stroke-width="1" stroke-opacity="0"></use></g></g><g><use xlink:href="#e1r4QoC0SB" opacity="1" fill="#ffffff" fill-opacity="1"></use><g><use xlink:href="#e1r4QoC0SB" opacity="1" fill-opacity="0" stroke="#000000" stroke-width="1" stroke-opacity="0"></use></g></g><g><use xlink:href="#aqGq8B4g" opacity="1" fill="#ffffff" fill-opacity="1"></use><g><use xlink:href="#aqGq8B4g" opacity="1" fill-opacity="0" stroke="#000000" stroke-width="1" stroke-opacity="0"></use></g></g><g><use xlink:href="#b2nc7Wxjuj" opacity="1" fill="#ffffff" fill-opacity="1"></use><g><use xlink:href="#b2nc7Wxjuj" opacity="1" fill-opacity="0" stroke="#000000" stroke-width="1" stroke-opacity="0"></use></g></g><g><use xlink:href="#bjHKc23FJ" opacity="1" fill="#ffffff" fill-opacity="1"></use><g><use xlink:href="#bjHKc23FJ" opacity="1" fill-opacity="0" stroke="#000000" stroke-width="1" stroke-opacity="0"></use></g></g><g><use xlink:href="#e9uzuSLYhH" opacity="1" fill="#ffffff" fill-opacity="1"></use><g><use xlink:href="#e9uzuSLYhH" opacity="1" fill-opacity="0" stroke="#000000" stroke-width="1" stroke-opacity="0"></use></g></g><g><use xlink:href="#a1KM4pgMCe" opacity="1" fill="#ffffff" fill-opacity="1"></use><g><use xlink:href="#a1KM4pgMCe" opacity="1" fill-opacity="0" stroke="#000000" stroke-width="1" stroke-opacity="0"></use></g></g><g><use xlink:href="#b2lKozWmk" opacity="1" fill="#ffffff" fill-opacity="1"></use><g><use xlink:href="#b2lKozWmk" opacity="1" fill-opacity="0" stroke="#000000" stroke-width="1" stroke-opacity="0"></use></g></g><g><use xlink:href="#atIwjfYwB" opacity="1" fill="#ffffff" fill-opacity="1"></use><g><use xlink:href="#atIwjfYwB" opacity="1" fill-opacity="0" stroke="#000000" stroke-width="1" stroke-opacity="0"></use></g></g><g><use xlink:href="#a3IHAJBI3N" opacity="1" fill="#ffffff" fill-opacity="1"></use><g><use xlink:href="#a3IHAJBI3N" opacity="1" fill-opacity="0" stroke="#000000" stroke-width="1" stroke-opacity="0"></use></g></g><g><use xlink:href="#a7ADH6mxjU" opacity="1" fill="#ffffff" fill-opacity="1"></use><g><use xlink:href="#a7ADH6mxjU" opacity="1" fill-opacity="0" stroke="#000000" stroke-width="1" stroke-opacity="0"></use></g></g><g><use xlink:href="#aNgaQrwH" opacity="1" fill="#ffffff" fill-opacity="1"></use><g><use xlink:href="#aNgaQrwH" opacity="1" fill-opacity="0" stroke="#000000" stroke-width="1" stroke-opacity="0"></use></g></g><g><use xlink:href="#bl4VgFYlM" opacity="1" fill="#ffffff" fill-opacity="1"></use><g><use xlink:href="#bl4VgFYlM" opacity="1" fill-opacity="0" stroke="#000000" stroke-width="1" stroke-opacity="0"></use></g></g><g><use xlink:href="#aUi2bC9p6" opacity="1" fill="#ffffff" fill-opacity="1"></use><g><use xlink:href="#aUi2bC9p6" opacity="1" fill-opacity="0" stroke="#000000" stroke-width="1" stroke-opacity="0"></use></g></g><g><use xlink:href="#dvlM9E8rv" opacity="1" fill="#ffffff" fill-opacity="1"></use><g><use xlink:href="#dvlM9E8rv" opacity="1" fill-opacity="0" stroke="#000000" stroke-width="1" stroke-opacity="0"></use></g></g><g><use xlink:href="#bDbtvAPuQ" opacity="1" fill="#ffffff" fill-opacity="1"></use><g><use xlink:href="#bDbtvAPuQ" opacity="1" fill-opacity="0" stroke="#000000" stroke-width="1" stroke-opacity="0"></use></g></g><g><use xlink:href="#a2mlwwyj7L" opacity="1" fill="#ffffff" fill-opacity="1"></use><g><use xlink:href="#a2mlwwyj7L" opacity="1" fill-opacity="0" stroke="#000000" stroke-width="1" stroke-opacity="0"></use></g></g><g><use xlink:href="#a7oH9YYs1" opacity="1" fill="#ffffff" fill-opacity="1"></use><g><use xlink:href="#a7oH9YYs1" opacity="1" fill-opacity="0" stroke="#000000" stroke-width="1" stroke-opacity="0"></use></g></g><g><use xlink:href="#ayM7D8SE8" opacity="1" fill="#ffffff" fill-opacity="1"></use><g><use xlink:href="#ayM7D8SE8" opacity="1" fill-opacity="0" stroke="#000000" stroke-width="1" stroke-opacity="0"></use></g></g><g><use xlink:href="#b1ErClCVg7" opacity="1" fill="#ffffff" fill-opacity="1"></use><g><use xlink:href="#b1ErClCVg7" opacity="1" fill-opacity="0" stroke="#000000" stroke-width="1" stroke-opacity="0"></use></g></g><g><use xlink:href="#d1LqH7MpkL" opacity="1" fill="#ffffff" fill-opacity="1"></use><g><use xlink:href="#d1LqH7MpkL" opacity="1" fill-opacity="0" stroke="#000000" stroke-width="1" stroke-opacity="0"></use></g></g><g><use xlink:href="#g2kXMAfM2r" opacity="1" fill="#ffffff" fill-opacity="1"></use><g><use xlink:href="#g2kXMAfM2r" opacity="1" fill-opacity="0" stroke="#000000" stroke-width="1" stroke-opacity="0"></use></g></g><g><use xlink:href="#iYjKtCMMq" opacity="1" fill="#ffffff" fill-opacity="1"></use><g><use xlink:href="#iYjKtCMMq" opacity="1" fill-opacity="0" stroke="#000000" stroke-width="1" stroke-opacity="0"></use></g></g><g><use xlink:href="#evpY9Wa5H" opacity="1" fill="#ffffff" fill-opacity="1"></use><g><use xlink:href="#evpY9Wa5H" opacity="1" fill-opacity="0" stroke="#000000" stroke-width="1" stroke-opacity="0"></use></g></g><g><use xlink:href="#epINZGHxa" opacity="1" fill="#ffffff" fill-opacity="1"></use><g><use xlink:href="#epINZGHxa" opacity="1" fill-opacity="0" stroke="#000000" stroke-width="1" stroke-opacity="0"></use></g></g><g><use xlink:href="#h19YEE0Rql" opacity="1" fill="#ffffff" fill-opacity="1"></use><g><use xlink:href="#h19YEE0Rql" opacity="1" fill-opacity="0" stroke="#000000" stroke-width="1" stroke-opacity="0"></use></g></g><g><use xlink:href="#a1T47tOklJ" opacity="1" fill="#ffffff" fill-opacity="1"></use><g><use xlink:href="#a1T47tOklJ" opacity="1" fill-opacity="0" stroke="#000000" stroke-width="1" stroke-opacity="0"></use></g></g></g></g></svg>