<!DOCTYPE svg PUBLIC "-//W3C//DTD SVG 20010904//EN" "http://www.w3.org/TR/2001/REC-SVG-20010904/DTD/svg10.dtd">
<svg version="1.0" xmlns="http://www.w3.org/2000/svg" width="1255px" height="135px" viewBox="0 0 12000 1290" preserveAspectRatio="xMidYMid meet">
<g id="layer101" fill="#d4af37" stroke="none">
 <path d="M0 645 l0 -645 6000 0 6000 0 0 645 0 645 -6000 0 -6000 0 0 -645z"/>
 </g>
<g id="layer102" fill="#ffffff" stroke="none">
 <path d="M0 645 l0 -645 6000 0 6000 0 0 645 0 645 -6000 0 -6000 0 0 -645z m841 570 c52 -13 132 -36 179 -50 47 -15 118 -31 158 -38 41 -7 72 -16 72 -23 0 -6 -7 -25 -15 -40 -21 -41 -21 -283 0 -323 13 -27 58 -55 99 -63 11 -1 21 -9 24 -15 3 -10 -59 -13 -288 -13 -229 0 -291 3 -287 13 2 7 16 11 35 9 55 -6 137 17 163 44 23 25 24 31 24 177 0 139 -2 156 -23 195 -46 85 -151 135 -287 134 -99 0 -145 -13 -215 -61 -137 -95 -212 -288 -211 -546 0 -275 68 -443 206 -511 66 -32 182 -42 268 -24 140 29 306 148 402 289 27 39 51 68 55 66 4 -2 -3 -40 -16 -84 -13 -44 -28 -129 -35 -188 -6 -59 -13 -110 -15 -112 -1 -2 -47 2 -101 9 -76 10 -121 10 -195 1 -289 -34 -439 4 -593 151 -78 73 -125 144 -163 246 -23 59 -26 83 -26 197 -1 111 2 140 22 197 50 145 167 273 307 339 97 45 101 46 246 48 95 1 134 -4 210 -24z m1384 0 c236 -83 404 -318 405 -566 1 -254 -177 -496 -423 -574 -94 -30 -247 -34 -341 -10 -133 35 -272 136 -356 259 -19 28 -46 86 -62 130 -50 146 -36 336 35 470 41 76 150 192 223 236 104 63 172 79 319 80 113 0 139 -4 200 -25z m1550 -100 c28 -107 48 -174 70 -227 16 -39 -26 -15 -96 56 -152 151 -351 254 -509 263 -77 5 -88 3 -120 -19 -66 -45 -65 -37 -68 -523 -2 -242 0 -454 3 -472 10 -56 48 -91 116 -104 32 -6 59 -16 59 -20 0 -5 -117 -9 -260 -9 -172 0 -260 3 -260 10 0 6 8 13 18 16 9 3 36 14 60 26 32 16 44 29 53 57 6 24 9 195 7 500 l-3 463 -39 34 c-21 18 -54 36 -72 40 -33 6 -41 14 -27 27 3 4 238 6 522 5 l515 -3 31 -120z m907 105 c159 -49 317 -209 378 -383 31 -88 39 -261 15 -342 -46 -158 -153 -293 -295 -373 -107 -59 -128 -62 -522 -62 -214 0 -358 4 -358 9 0 5 25 17 55 26 99 28 95 2 95 556 0 561 11 510 -123 559 -68 25 -8 30 338 30 324 0 358 -2 417 -20z m2298 -42 c9 -50 64 -235 87 -295 12 -32 -31 -8 -79 43 -199 211 -527 343 -649 261 -65 -43 -64 -36 -67 -528 -2 -343 0 -454 10 -484 16 -48 60 -80 123 -89 25 -4 45 -11 45 -17 0 -5 -105 -9 -260 -9 -172 0 -260 3 -260 10 0 6 8 13 18 16 69 21 101 44 112 81 8 26 10 183 8 500 l-3 462 -30 31 c-17 18 -49 36 -72 43 -24 6 -43 17 -43 24 0 10 102 13 524 13 l523 0 13 -62z m1180 60 c1 -26 46 -215 66 -281 15 -48 24 -90 21 -94 -4 -3 -17 7 -29 23 -87 115 -295 251 -462 303 -117 36 -209 23 -256 -37 -19 -23 -20 -41 -20 -278 l0 -254 109 0 c59 0 123 5 142 11 82 28 143 104 156 199 5 29 14 55 21 58 9 3 12 -54 12 -262 0 -239 -6 -306 -24 -260 -3 9 -6 25 -6 37 0 35 -43 97 -90 128 -62 42 -130 59 -232 59 l-88 0 0 -218 0 -218 28 -26 c45 -44 75 -50 175 -38 93 11 181 37 251 72 53 27 143 114 167 160 19 37 58 56 45 22 -3 -9 -9 -77 -13 -150 l-6 -134 -499 0 c-454 0 -563 6 -465 24 18 3 49 20 70 37 l37 30 0 489 0 488 -35 31 c-19 16 -54 36 -77 42 -52 15 -52 15 -43 28 4 8 169 11 526 11 285 0 519 -1 519 -2z m980 -478 c119 -262 230 -496 247 -520 46 -67 103 -120 151 -142 23 -10 42 -23 42 -28 0 -6 -78 -10 -195 -10 -107 0 -195 4 -195 8 0 5 18 14 39 21 22 6 51 25 65 41 48 58 47 132 -4 265 -36 93 -282 604 -291 605 -8 0 -219 -461 -283 -617 -46 -112 -54 -152 -37 -195 15 -39 73 -88 118 -100 24 -6 43 -14 43 -19 0 -5 -123 -9 -275 -9 -174 0 -275 4 -275 10 0 5 15 16 33 23 18 8 47 31 66 52 40 46 66 101 316 668 139 315 193 427 204 425 9 -2 98 -187 231 -478z m1535 458 c3 -13 12 -55 20 -94 8 -39 27 -113 44 -163 16 -50 25 -93 21 -96 -5 -3 -27 17 -50 45 -87 104 -337 257 -472 289 -102 24 -186 7 -228 -47 -19 -23 -20 -41 -20 -278 l0 -254 109 0 c59 0 123 5 142 11 85 29 146 109 156 204 4 37 10 55 19 55 12 0 14 -49 14 -271 0 -210 -3 -270 -12 -267 -7 3 -16 24 -20 48 -12 69 -48 114 -121 150 -65 32 -159 48 -244 42 l-43 -3 0 -218 0 -217 28 -26 c41 -40 77 -50 152 -43 205 20 377 112 440 234 36 71 42 53 34 -102 -3 -78 -9 -145 -11 -149 -2 -5 -224 -8 -494 -8 -454 0 -549 5 -458 25 17 4 46 20 65 37 l34 30 0 488 0 488 -36 31 c-19 17 -55 37 -80 43 -24 7 -44 18 -44 25 0 10 102 13 525 13 l525 0 5 -22z m1179 10 c2 -7 11 -49 21 -93 10 -44 31 -120 47 -169 16 -49 26 -92 21 -97 -5 -5 -42 25 -83 67 -201 202 -483 319 -626 259 -25 -10 -40 -26 -54 -57 -18 -41 -20 -69 -20 -500 0 -328 3 -464 12 -483 15 -34 63 -62 121 -70 108 -16 32 -25 -214 -25 -194 0 -260 3 -257 12 2 6 22 17 44 25 21 7 49 25 62 39 l22 25 0 484 0 483 -30 30 c-16 17 -47 36 -67 43 -21 6 -41 14 -46 16 -33 19 57 23 524 23 407 0 520 -3 523 -12z"/>
 <path d="M434 1192 c-143 -50 -273 -187 -329 -349 -73 -208 -19 -438 141 -601 82 -83 112 -95 60 -23 -46 62 -91 158 -112 241 -23 87 -23 263 -1 349 39 144 134 278 251 351 31 19 56 38 56 43 0 10 -8 9 -66 -11z"/>
 <path d="M970 1158 c0 -1 14 -30 30 -62 28 -55 30 -66 30 -172 0 -65 5 -124 12 -139 9 -21 8 -29 -8 -48 -54 -61 -58 -57 72 -57 l118 0 -27 28 c-45 47 -57 91 -57 214 0 81 4 121 15 142 9 16 14 30 13 31 -2 1 -41 14 -88 29 -47 15 -91 30 -97 32 -7 3 -13 4 -13 2z"/>
 <path d="M1072 227 c-23 -23 -71 -60 -106 -82 -36 -22 -65 -43 -66 -47 0 -5 36 -8 79 -8 66 0 80 3 86 18 18 45 55 156 52 158 -2 2 -22 -15 -45 -39z"/>
 <path d="M1951 1219 c-150 -25 -255 -144 -298 -340 -22 -102 -22 -366 0 -468 48 -218 158 -327 342 -339 218 -13 347 98 401 344 26 119 23 362 -4 476 -49 202 -141 301 -303 328 -35 5 -68 9 -74 9 -5 -1 -34 -5 -64 -10z"/>
 <path d="M1676 1119 c-60 -40 -128 -124 -172 -211 -108 -215 -76 -465 82 -646 47 -54 134 -126 142 -118 2 3 -14 26 -35 53 -54 65 -76 105 -106 188 -53 148 -59 322 -16 475 25 91 59 160 116 233 24 31 43 57 40 57 -2 0 -25 -14 -51 -31z"/>
 <path d="M2329 1090 c85 -131 116 -277 108 -495 -8 -196 -40 -309 -118 -412 -22 -29 -37 -53 -34 -53 20 0 101 69 134 113 50 67 74 115 102 207 30 98 33 282 5 375 -37 124 -131 265 -205 308 l-31 18 39 -61z"/>
 <path d="M2820 1200 c0 -5 4 -10 10 -10 31 0 35 -45 40 -518 5 -459 6 -474 25 -489 19 -14 18 -16 -30 -59 l-50 -44 120 1 120 0 -42 37 -43 38 0 461 c0 253 3 475 6 493 4 17 23 47 42 66 l35 34 -116 0 c-71 0 -117 -4 -117 -10z"/>
 <path d="M3485 1161 c55 -26 130 -69 168 -94 37 -26 67 -45 67 -43 0 3 -13 37 -29 78 -15 40 -31 81 -34 91 -6 15 -21 17 -139 17 l-133 -1 100 -48z"/>
 <path d="M4370 1209 c-55 -17 -89 -46 -100 -89 -7 -26 -10 -201 -8 -504 l3 -464 24 -25 c13 -15 44 -31 73 -38 63 -15 196 -7 260 16 109 38 200 165 234 325 21 102 21 329 -1 435 -19 97 -70 209 -118 262 -59 65 -116 87 -232 90 -55 1 -116 -2 -135 -8z"/>
 <path d="M4039 1175 l31 -36 0 -469 c0 -403 2 -471 15 -484 21 -21 19 -27 -25 -61 -21 -16 -39 -33 -40 -37 0 -5 53 -8 117 -8 l117 0 -37 34 -37 34 0 463 c0 274 4 478 10 498 5 19 24 50 42 68 l32 33 -128 0 -128 0 31 -35z"/>
 <path d="M4740 1157 c0 -2 14 -22 31 -43 82 -103 117 -216 125 -409 10 -221 -32 -409 -115 -514 -17 -21 -31 -42 -31 -45 0 -12 42 16 86 56 57 53 98 118 136 219 30 79 32 92 32 219 1 122 -2 142 -26 208 -35 96 -81 173 -143 237 -43 45 -95 84 -95 72z"/>
 <path d="M6062 1179 l23 -31 5 -475 c5 -437 6 -476 23 -487 25 -19 21 -28 -23 -59 -22 -16 -40 -33 -40 -38 0 -5 49 -9 113 -9 l112 0 -42 40 -43 39 0 453 c0 249 5 470 9 492 5 21 24 54 42 72 l33 34 -117 0 -118 0 23 -31z"/>
 <path d="M6708 1160 c57 -27 132 -69 167 -94 36 -25 65 -44 65 -41 0 2 -13 36 -29 77 -15 40 -31 81 -34 91 -6 15 -21 17 -139 17 l-133 -1 103 -49z"/>
 <path d="M7247 1178 c17 -18 36 -43 42 -55 8 -15 11 -159 11 -472 0 -343 3 -456 13 -472 11 -18 8 -24 -26 -52 -20 -18 -37 -35 -37 -39 0 -5 54 -8 120 -8 66 0 120 4 120 8 0 4 -14 16 -31 26 -74 44 -69 5 -69 509 0 264 4 467 10 487 5 20 26 49 47 67 l38 33 -134 0 -135 0 31 -32z"/>
 <path d="M7791 1206 c2 -2 33 -16 68 -30 86 -35 209 -108 265 -158 26 -22 48 -39 50 -37 2 2 -21 55 -51 117 l-55 112 -141 0 c-77 0 -138 -2 -136 -4z"/>
 <path d="M7783 634 c-24 -14 -43 -29 -43 -33 1 -7 84 -61 94 -61 3 0 6 27 6 60 0 33 -3 60 -7 60 -5 -1 -27 -12 -50 -26z"/>
 <path d="M8040 215 c-25 -25 -77 -62 -117 -83 -40 -20 -73 -40 -73 -44 0 -5 45 -8 99 -8 l99 0 21 87 c11 48 19 88 18 90 -2 1 -23 -18 -47 -42z"/>
 <path d="M8878 1144 c-15 -33 -106 -239 -203 -459 -209 -471 -225 -504 -270 -554 -19 -21 -35 -41 -35 -45 0 -3 68 -6 150 -6 83 0 150 2 150 5 0 3 -16 28 -37 56 -76 106 -53 194 151 593 163 318 173 343 158 394 -6 21 -17 46 -25 56 -12 17 -16 13 -39 -40z"/>
 <path d="M9346 186 c-4 -19 -15 -45 -26 -59 -11 -14 -20 -30 -20 -36 0 -12 112 -16 123 -5 7 7 -47 119 -62 128 -5 3 -12 -9 -15 -28z"/>
 <path d="M9757 1178 c17 -18 36 -43 42 -55 8 -15 11 -160 11 -474 0 -396 2 -455 16 -470 14 -16 12 -20 -25 -50 -23 -18 -41 -36 -41 -41 0 -4 54 -8 120 -8 66 0 120 4 120 9 0 5 -20 22 -45 38 l-45 28 0 486 0 487 42 41 43 41 -135 0 -134 0 31 -32z"/>
 <path d="M10301 1206 c2 -2 37 -17 77 -34 99 -41 197 -101 260 -157 29 -26 52 -45 52 -42 0 2 -25 57 -56 121 l-56 116 -141 0 c-77 0 -138 -2 -136 -4z"/>
 <path d="M10293 634 c-24 -14 -43 -29 -43 -33 0 -5 66 -48 93 -59 4 -2 7 24 7 57 0 34 -3 61 -7 61 -5 -1 -27 -12 -50 -26z"/>
 <path d="M10580 241 c0 -14 -116 -98 -171 -123 -27 -13 -49 -26 -49 -30 0 -5 45 -8 99 -8 113 0 101 -9 125 103 7 37 10 67 5 67 -5 0 -9 -4 -9 -9z"/>
 <path d="M10938 1188 c11 -13 25 -36 31 -51 7 -19 11 -185 11 -481 0 -391 2 -455 15 -466 24 -20 18 -35 -25 -65 -22 -15 -40 -32 -40 -36 0 -5 50 -9 110 -9 61 0 110 3 110 8 0 4 -16 18 -35 32 l-35 25 3 497 2 497 34 35 35 36 -119 0 -118 0 21 -22z"/>
 <path d="M11491 1206 c2 -2 41 -19 85 -38 45 -20 115 -57 155 -84 41 -27 80 -53 87 -57 9 -6 8 3 -4 30 -9 21 -26 64 -38 95 l-21 58 -134 0 c-74 0 -132 -2 -130 -4z"/>
 </g>

</svg>