<!DOCTYPE svg PUBLIC "-//W3C//DTD SVG 20010904//EN" "http://www.w3.org/TR/2001/REC-SVG-20010904/DTD/svg10.dtd">
<svg version="1.0" xmlns="http://www.w3.org/2000/svg" width="1729px" height="137px" viewBox="0 0 12000 950" preserveAspectRatio="xMidYMid meet">
<g id="layer101" fill="#585858" stroke="none">
 <path d="M0 475 l0 -475 6000 0 6000 0 0 475 0 475 -6000 0 -6000 0 0 -475z"/>
 </g>
<g id="layer102" fill="#ffffff" stroke="none">
 <path d="M0 475 l0 -475 6000 0 6000 0 0 475 0 475 -6000 0 -6000 0 0 -475z m4892 61 c3 -360 4 -376 24 -402 73 -99 145 -73 164 60 l8 51 1 -51 c0 -27 7 -56 14 -63 10 -10 5 -18 -23 -42 l-34 -29 89 0 90 1 -28 24 -28 25 3 297 3 298 27 47 c18 30 49 61 90 89 58 39 60 41 29 35 -77 -14 -159 -87 -202 -178 -20 -43 -20 -43 -13 -8 16 85 68 149 151 187 76 35 218 37 304 4 89 -34 168 -129 169 -201 0 -19 -6 -13 -24 26 -66 141 -212 197 -342 131 -53 -27 -109 -82 -125 -124 -5 -13 -9 -156 -9 -317 0 -331 -2 -322 79 -333 22 -3 38 -9 35 -14 -7 -11 -674 -12 -674 -1 0 4 20 13 45 20 51 13 126 76 144 120 8 18 10 106 9 269 l-3 241 -305 -326 -305 -327 -128 -3 c-129 -3 -157 6 -89 26 20 7 52 21 70 32 l32 20 0 315 c0 295 -1 318 -20 354 -22 43 -61 78 -97 87 -61 16 -8 24 152 24 96 0 175 -4 175 -8 0 -4 -20 -13 -44 -20 -58 -15 -110 -62 -131 -115 -13 -35 -15 -85 -13 -319 l3 -277 348 374 c191 206 354 375 362 375 12 0 15 -56 17 -374z m4906 289 c17 -38 62 -139 101 -224 39 -85 71 -157 70 -160 0 -3 -34 61 -75 143 l-75 149 -85 -184 c-106 -230 -154 -349 -154 -382 0 -34 53 -94 90 -102 74 -16 17 -25 -165 -25 -107 0 -195 3 -195 8 0 4 13 14 29 24 46 26 71 72 215 398 190 433 196 444 205 434 4 -5 21 -40 39 -79z m-9398 65 c0 -5 -12 -10 -26 -10 -15 0 -38 -12 -55 -29 l-29 -29 0 -151 c0 -114 3 -151 13 -151 6 0 37 7 67 15 166 45 336 -9 397 -124 51 -97 20 -253 -62 -316 -71 -53 -83 -55 -385 -55 -180 0 -280 4 -280 10 0 6 8 10 18 10 9 0 32 9 50 20 l32 20 0 364 0 365 -27 20 c-14 12 -37 24 -50 27 -61 16 -7 24 157 24 113 0 180 -4 180 -10z m1195 -17 c3 -16 19 -75 36 -132 16 -57 27 -106 24 -109 -3 -3 -34 22 -68 55 -122 120 -253 185 -374 187 -63 1 -75 -2 -95 -22 -23 -23 -23 -23 -26 -380 l-3 -358 25 -23 c13 -12 42 -25 65 -28 22 -3 38 -9 35 -14 -7 -12 -374 -12 -374 -1 0 5 18 16 40 25 26 10 43 25 50 42 6 16 10 160 10 359 0 320 -1 334 -20 359 -11 14 -36 32 -55 38 -19 7 -35 17 -35 21 0 4 171 8 380 8 l380 0 5 -27z m405 19 c0 -4 -20 -13 -45 -20 -84 -22 -95 -95 -35 -225 l32 -67 165 0 164 0 35 74 c59 130 40 207 -55 222 -22 4 -38 10 -35 15 7 12 434 12 434 0 0 -5 -13 -12 -28 -16 -39 -8 -85 -58 -120 -130 -16 -33 -94 -208 -172 -388 -115 -262 -146 -325 -156 -315 -6 7 -76 155 -154 328 -78 173 -156 338 -172 367 -34 61 -107 129 -149 138 -69 15 -19 25 131 25 88 0 160 -4 160 -8z m1310 -1 c0 -5 -16 -12 -36 -16 -20 -3 -47 -17 -60 -30 l-24 -24 0 -356 0 -356 25 -24 c30 -31 56 -31 124 0 59 28 191 152 191 180 0 9 6 15 13 12 8 -2 10 -16 7 -38 -3 -19 -5 -71 -4 -117 l0 -82 -425 2 -426 3 -5 113 c-3 71 -1 112 5 112 6 0 21 -16 34 -36 32 -46 126 -130 173 -155 49 -25 70 -24 107 7 l31 26 0 351 c-1 261 -4 356 -13 368 -16 21 -71 49 -97 49 -12 0 -18 5 -15 10 8 13 395 14 395 1z m680 0 c0 -5 -13 -11 -28 -14 -16 -3 -39 -15 -53 -25 l-24 -20 -3 -362 c-3 -403 -5 -393 64 -406 80 -15 21 -24 -151 -24 -117 0 -185 4 -185 10 0 6 7 10 16 10 30 0 81 31 93 56 7 17 11 132 11 365 l0 340 -25 25 c-13 13 -38 27 -55 30 -74 15 -16 24 155 24 102 0 185 -4 185 -9z m2220 0 c0 -5 -15 -12 -34 -15 -75 -14 -115 -74 -117 -173 -1 -32 -3 -47 -5 -33 -15 98 -50 155 -119 191 -25 13 -45 27 -45 31 0 5 72 8 160 8 88 0 160 -4 160 -9z m800 -1 c0 -5 -8 -10 -17 -10 -31 -1 -101 -38 -113 -60 -24 -44 -60 -391 -60 -573 0 -110 2 -119 23 -141 13 -13 47 -29 75 -36 29 -8 52 -17 52 -22 0 -4 -66 -8 -147 -8 l-148 0 -21 73 c-11 39 -24 81 -28 92 -4 11 5 -2 20 -30 l28 -50 22 220 c12 121 24 275 26 342 3 118 2 122 -22 148 -14 14 -44 31 -67 38 -24 6 -43 15 -43 19 0 4 95 8 210 8 133 0 210 -4 210 -10z m1356 -87 c13 -51 31 -109 39 -129 18 -43 18 -44 5 -44 -5 0 -28 20 -52 46 -48 52 -179 141 -258 174 -39 17 -75 24 -127 24 -66 1 -75 -1 -100 -27 l-28 -27 -3 -337 c-2 -242 1 -345 9 -365 13 -32 55 -58 94 -58 14 0 25 -4 25 -10 0 -6 -70 -10 -190 -10 -173 0 -229 8 -167 24 13 3 36 15 50 27 l27 20 0 355 c0 345 -1 355 -21 375 -11 11 -34 25 -50 31 -16 5 -29 14 -29 19 0 6 154 8 377 7 l376 -3 23 -92z m848 75 c18 -87 31 -140 48 -187 10 -30 16 -56 14 -59 -3 -2 -27 18 -53 45 -87 88 -233 172 -344 195 -64 13 -98 7 -136 -26 l-28 -24 -3 -187 -3 -187 100 4 c82 2 105 7 127 24 42 31 63 64 76 122 7 28 16 52 20 52 5 0 8 -88 8 -195 0 -107 -3 -195 -8 -195 -4 0 -15 23 -25 50 -29 81 -118 125 -237 118 l-55 -3 -3 -130 c-4 -167 1 -191 41 -215 38 -24 90 -25 175 -5 110 26 201 86 238 157 26 51 34 32 28 -70 -3 -53 -7 -103 -10 -109 -3 -10 -83 -13 -359 -13 -325 0 -403 6 -329 24 14 4 37 18 50 31 l24 24 0 335 c0 199 -4 345 -10 361 -7 18 -26 33 -60 48 -27 12 -50 25 -50 30 0 4 171 7 380 7 l380 0 4 -22z m1820 10 c1 -7 15 -60 30 -118 43 -168 44 -162 -4 -108 -82 95 -279 204 -385 215 -57 6 -107 -13 -125 -46 -6 -12 -10 -96 -10 -200 l0 -181 79 0 c87 0 123 10 160 43 30 27 60 93 61 130 0 15 5 27 10 27 6 0 10 -72 10 -195 0 -184 -9 -242 -25 -158 -14 78 -112 133 -237 133 l-58 0 0 -154 c0 -85 3 -162 6 -171 25 -64 188 -57 321 14 61 34 121 92 136 133 12 35 16 -9 10 -105 l-6 -107 -359 0 c-232 0 -358 4 -358 10 0 6 9 10 19 10 11 0 33 12 50 26 l31 26 0 348 c0 335 -1 348 -21 373 -11 15 -38 32 -60 38 -21 7 -39 16 -39 21 0 4 171 8 380 8 296 0 381 -3 384 -12z m861 -15 c3 -16 19 -75 36 -132 16 -57 27 -106 24 -109 -3 -3 -34 22 -68 55 -122 120 -253 185 -374 187 -63 1 -75 -2 -95 -22 -23 -23 -23 -23 -26 -376 l-3 -354 23 -27 c16 -18 37 -28 66 -32 96 -13 31 -23 -148 -23 -109 0 -190 4 -190 9 0 5 16 15 35 21 66 22 65 17 65 396 0 328 -1 342 -20 367 -11 14 -36 32 -55 38 -19 7 -35 17 -35 21 0 4 171 8 380 8 l380 0 5 -27z m-5445 -268 c40 -88 88 -193 106 -232 55 -120 29 -83 -44 63 l-68 136 -112 -263 -111 -264 -140 -3 c-92 -2 -141 1 -141 8 0 5 7 10 16 10 34 0 95 24 119 46 22 21 25 32 26 106 1 71 3 76 8 36 4 -26 9 -50 13 -53 3 -3 20 29 38 72 18 43 68 164 112 268 44 105 84 201 89 214 5 13 11 22 13 20 2 -2 36 -76 76 -164z m-713 13 c-3 -7 -5 -2 -5 12 0 14 2 19 5 13 2 -7 2 -19 0 -25z m-650 -211 c-2 -23 -3 -1 -3 48 0 50 1 68 3 42 2 -26 2 -67 0 -90z m673 -85 c6 -62 18 -131 26 -152 18 -44 72 -96 109 -106 14 -3 22 -10 19 -15 -7 -13 -374 -12 -374 1 0 6 8 10 18 10 30 0 116 46 147 79 l30 32 5 172 c2 95 5 154 7 132 2 -22 8 -91 13 -153z m4259 13 c0 -5 -6 1 -14 15 -8 14 -14 30 -14 35 0 6 6 -1 14 -15 8 -14 14 -29 14 -35z m127 -216 c20 -21 50 -43 65 -50 16 -6 29 -15 29 -20 0 -5 -63 -9 -140 -9 -132 0 -178 10 -110 23 38 8 70 58 70 109 0 21 -9 61 -20 90 -29 77 -25 73 25 -21 24 -46 60 -101 81 -122z m-3527 116 c0 -5 -6 1 -14 15 -8 14 -14 30 -14 35 0 6 6 -1 14 -15 8 -14 14 -29 14 -35z"/>
 <path d="M4645 648 c-121 -133 -296 -320 -389 -415 l-169 -173 50 0 50 0 124 127 c69 71 223 236 342 368 l217 239 0 48 c0 26 -1 48 -3 48 -1 0 -101 -109 -222 -242z"/>
 <path d="M4109 843 c17 -21 31 -43 31 -50 0 -24 15 -13 26 20 6 17 14 40 19 50 6 15 1 17 -50 17 l-56 0 30 -37z"/>
 <path d="M4841 137 c-12 -20 -34 -45 -49 -56 l-27 -20 73 -1 c39 0 72 2 72 3 0 2 -6 17 -13 33 -8 16 -18 40 -24 53 l-9 24 -23 -36z"/>
 <path d="M9723 810 c-16 -36 -90 -202 -164 -369 -85 -192 -146 -317 -167 -342 l-34 -39 111 0 c61 0 111 3 111 6 0 3 -11 19 -25 35 -58 70 -39 144 119 452 110 213 120 246 91 297 -13 25 -14 25 -42 -40z"/>
 <path d="M140 848 c19 -31 20 -52 20 -366 0 -248 3 -337 12 -353 12 -18 9 -23 -17 -45 l-30 -24 85 0 85 1 -27 22 -28 23 0 366 0 366 28 21 27 20 -87 1 -88 0 20 -32z"/>
 <path d="M415 530 c-22 -5 -58 -15 -80 -23 l-40 -14 -3 -185 c-2 -174 -1 -186 18 -211 36 -46 159 -63 226 -31 45 22 92 98 106 172 9 50 8 72 -5 128 -33 132 -109 188 -222 164z"/>
 <path d="M597 486 c48 -54 63 -101 63 -193 0 -86 -22 -153 -65 -198 -34 -37 -25 -46 23 -21 76 40 125 127 125 221 -1 100 -46 175 -128 214 -25 11 -47 21 -51 21 -3 0 12 -20 33 -44z"/>
 <path d="M931 854 l24 -26 3 -341 c2 -242 6 -345 14 -355 10 -11 5 -20 -22 -43 l-35 -28 85 0 85 0 -27 24 -28 24 0 356 0 357 29 29 29 29 -91 0 -90 0 24 -26z"/>
 <path d="M1412 837 c47 -24 103 -56 122 -71 20 -15 36 -26 36 -24 0 2 -11 32 -24 68 l-24 65 -98 3 -99 2 87 -43z"/>
 <path d="M1800 833 c24 -27 46 -51 49 -55 3 -4 6 18 6 48 l0 54 -49 0 -49 0 43 -47z"/>
 <path d="M2330 874 c0 -3 9 -17 20 -31 26 -34 26 -96 -1 -170 -12 -32 -66 -154 -120 -271 l-98 -213 16 -34 c9 -19 19 -35 22 -35 4 0 71 148 150 329 91 208 158 348 182 380 l39 51 -105 0 c-58 0 -105 -3 -105 -6z"/>
 <path d="M1970 550 c0 -20 5 -20 147 -18 131 3 148 5 151 21 3 16 -9 17 -147 17 -145 0 -151 -1 -151 -20z"/>
 <path d="M1990 506 c0 -7 122 -271 129 -278 5 -6 83 160 129 274 2 4 -55 8 -127 8 -72 0 -131 -2 -131 -4z"/>
 <path d="M3031 854 l24 -26 5 -356 5 -357 -24 -28 -25 -27 82 0 c45 0 82 3 82 6 0 3 -11 15 -25 26 l-25 19 0 352 0 351 32 33 32 33 -94 0 -93 0 24 -26z"/>
 <path d="M2721 128 l-1 -68 56 0 57 0 -39 42 c-22 24 -47 54 -56 68 -17 25 -17 24 -17 -42z"/>
 <path d="M3464 149 c-16 -17 -49 -43 -74 -57 l-45 -27 64 -3 c35 -2 65 -1 68 1 8 9 30 117 24 117 -4 0 -20 -14 -37 -31z"/>
 <path d="M3710 871 c0 -5 7 -14 15 -21 13 -11 15 -63 15 -359 0 -264 3 -350 13 -360 10 -10 7 -16 -15 -33 -16 -11 -28 -24 -28 -29 0 -5 37 -9 82 -9 l82 0 -27 28 -27 28 0 351 0 351 26 31 26 31 -81 0 c-45 0 -81 -4 -81 -9z"/>
 <path d="M5973 857 c16 -12 37 -33 47 -47 l20 -25 0 48 0 47 -47 0 -48 0 28 -23z"/>
 <path d="M6702 855 c15 -14 31 -37 34 -52 10 -37 -3 -276 -26 -498 -11 -104 -20 -202 -20 -217 l0 -28 78 0 77 0 -40 34 -40 34 3 109 c3 127 39 502 53 555 6 22 22 47 42 62 l32 26 -110 0 -110 0 27 -25z"/>
 <path d="M7689 854 c20 -26 21 -38 21 -365 0 -285 2 -340 15 -352 13 -14 11 -19 -21 -46 l-35 -31 88 0 87 0 -32 27 -33 28 3 352 3 352 29 30 30 31 -88 0 -87 0 20 -26z"/>
 <path d="M8159 839 c47 -22 99 -50 115 -63 17 -12 36 -25 42 -29 6 -4 0 25 -15 63 l-26 70 -100 0 -100 -1 84 -40z"/>
 <path d="M8548 858 c11 -13 25 -35 31 -50 6 -17 11 -160 11 -364 2 -336 1 -336 -21 -360 l-22 -24 94 0 94 0 -38 27 -37 26 0 354 0 354 32 30 32 29 -99 0 -98 0 21 -22z"/>
 <path d="M9035 831 c55 -27 120 -66 144 -87 24 -21 42 -34 40 -28 -2 6 -20 45 -39 87 l-35 77 -105 0 -105 0 100 -49z"/>
 <path d="M8932 458 l-33 -20 33 -23 c18 -13 36 -21 41 -18 4 2 7 22 7 44 0 44 -2 45 -48 17z"/>
 <path d="M9118 149 c-21 -17 -61 -43 -90 -59 l-53 -30 77 0 77 0 10 38 c14 56 19 82 18 82 -1 -1 -19 -14 -39 -31z"/>
 <path d="M10376 849 l29 -30 5 -357 5 -357 -25 -22 -25 -22 93 -1 c50 0 92 2 92 4 0 2 -16 14 -35 26 l-35 22 0 351 0 351 32 33 32 33 -99 0 -99 0 30 -31z"/>
 <path d="M10760 876 c0 -2 21 -11 48 -21 59 -23 133 -65 193 -110 l47 -35 -41 85 -42 85 -102 0 c-57 0 -103 -2 -103 -4z"/>
 <path d="M10756 458 l-38 -20 38 -23 39 -24 3 25 c2 13 2 33 0 43 -3 19 -4 19 -42 -1z"/>
 <path d="M10940 148 c-19 -16 -60 -43 -90 -59 l-55 -29 80 3 80 2 12 55 c6 30 11 55 10 56 -1 1 -18 -11 -37 -28z"/>
 <path d="M11231 854 l24 -26 3 -341 c2 -242 6 -345 14 -355 10 -11 5 -20 -22 -43 l-35 -28 85 0 85 0 -27 24 -28 24 0 356 0 357 29 29 29 29 -91 0 -90 0 24 -26z"/>
 <path d="M11712 837 c47 -24 103 -56 122 -71 20 -15 36 -26 36 -24 0 2 -11 32 -24 68 l-24 65 -98 3 -99 2 87 -43z"/>
 <path d="M6364 715 c-4 -11 -34 -83 -66 -160 -33 -77 -85 -203 -116 -280 -43 -105 -66 -149 -95 -178 l-38 -38 62 3 61 3 108 255 c144 344 136 316 112 370 -17 39 -21 42 -28 25z"/>
 <path d="M5721 136 c-12 -19 -34 -44 -49 -55 l-27 -20 74 -1 c66 0 72 2 66 17 -4 10 -12 32 -17 48 -17 47 -24 49 -47 11z"/>
 <path d="M10070 129 c-7 -19 -20 -42 -28 -51 -14 -17 -12 -18 36 -18 29 0 52 3 52 8 -1 4 -11 27 -24 51 l-23 43 -13 -33z"/>
 </g>

</svg>