<!DOCTYPE svg PUBLIC "-//W3C//DTD SVG 20010904//EN" "http://www.w3.org/TR/2001/REC-SVG-20010904/DTD/svg10.dtd">
<svg version="1.0" xmlns="http://www.w3.org/2000/svg" width="1402px" height="138px" viewBox="0 0 12000 1180" preserveAspectRatio="xMidYMid meet">
<g id="layer101" fill="#aaa9ad" stroke="none">
 <path d="M0 590 l0 -590 6000 0 6000 0 0 590 0 590 -6000 0 -6000 0 0 -590z"/>
 </g>
<g id="layer102" fill="#ffffff" stroke="none">
 <path d="M0 590 l0 -590 6000 0 6000 0 0 590 0 590 -6000 0 -6000 0 0 -590z m5803 535 c33 -13 19 -31 -22 -27 -81 8 -131 -42 -236 -236 -85 -157 -143 -229 -217 -271 l-49 -28 73 -7 c203 -19 288 -86 288 -226 0 -125 -95 -223 -257 -265 -45 -12 -123 -15 -355 -15 -165 0 -298 4 -298 9 0 5 19 14 43 20 23 6 47 14 53 18 32 22 34 54 34 481 l0 430 -36 31 c-20 18 -49 34 -65 38 -16 3 -29 12 -29 19 0 12 42 14 236 14 184 0 235 -3 232 -12 -3 -7 -27 -16 -54 -20 -35 -5 -55 -14 -71 -33 -22 -25 -23 -32 -23 -256 l0 -229 55 0 c110 0 157 49 267 279 51 106 92 180 116 204 39 40 96 75 147 88 32 9 139 4 168 -6z m-5343 -16 c87 -14 159 -48 219 -104 125 -117 136 -321 22 -435 -39 -39 -69 -55 -191 -104 -177 -70 -222 -96 -255 -144 -29 -43 -34 -116 -10 -161 29 -58 105 -101 175 -101 90 0 180 72 251 200 46 83 66 96 60 39 -2 -19 -8 -83 -15 -143 l-11 -109 -185 -1 c-183 -1 -186 -1 -245 27 -33 15 -75 42 -94 60 -77 74 -104 203 -60 294 34 70 86 106 272 184 191 81 237 115 257 191 16 56 -9 158 -49 208 -66 82 -197 110 -289 61 -84 -43 -183 -174 -219 -288 -19 -60 -43 -71 -43 -20 0 17 7 93 15 167 8 74 15 138 15 142 0 7 123 35 180 41 73 8 137 6 200 -4z m2703 -266 c70 -152 125 -279 122 -281 -2 -2 -42 73 -89 168 -70 142 -86 169 -94 154 -26 -49 -199 -431 -238 -526 -47 -113 -53 -161 -29 -208 16 -30 64 -64 108 -74 15 -3 27 -11 27 -16 0 -6 -92 -10 -245 -10 -152 0 -245 4 -245 10 0 5 13 16 29 24 39 21 84 74 114 137 28 58 373 839 388 877 5 12 12 22 17 22 5 0 65 -125 135 -277z m6091 240 c35 -71 278 -608 283 -623 2 -8 -45 85 -106 208 -60 122 -113 222 -118 222 -4 0 -55 -102 -113 -228 -184 -400 -201 -455 -162 -515 25 -37 50 -55 95 -67 81 -23 34 -30 -208 -30 -146 0 -245 4 -245 9 0 6 17 19 38 31 50 28 89 88 160 250 33 74 113 254 177 400 64 146 128 291 142 323 14 31 29 57 33 57 3 0 14 -17 24 -37z m-7924 12 c0 -10 -10 -15 -31 -15 -22 0 -41 -10 -65 -34 l-34 -34 0 -440 c0 -494 -3 -474 74 -490 22 -4 41 -13 44 -20 3 -9 -49 -12 -222 -12 -123 0 -227 4 -230 9 -3 5 14 14 39 20 24 6 57 22 72 35 l28 24 3 419 c2 230 0 432 -3 450 -6 34 -41 63 -89 72 -16 4 -31 12 -34 19 -3 9 48 12 222 12 194 0 226 -2 226 -15z m1026 -12 c16 -73 57 -222 70 -252 28 -67 7 -68 -54 -4 -145 151 -342 254 -490 254 -80 1 -116 -19 -136 -73 -15 -38 -16 -94 -14 -455 l3 -411 24 -26 c15 -16 43 -29 77 -36 107 -22 56 -30 -178 -28 -128 2 -233 7 -233 11 0 5 18 15 39 22 22 8 49 23 60 35 21 20 21 30 24 449 l3 429 -25 30 c-23 26 -43 38 -99 56 -10 3 -15 10 -12 16 4 6 170 10 470 10 l465 0 6 -27z m2284 -118 c20 -77 40 -152 44 -167 6 -19 4 -28 -3 -28 -6 0 -11 4 -11 8 0 15 -85 97 -144 141 -175 129 -376 192 -466 146 -58 -30 -60 -38 -60 -289 l0 -229 108 5 c89 4 115 8 150 28 56 31 91 85 105 159 6 34 15 61 19 61 5 0 8 -108 8 -240 0 -221 -8 -295 -23 -204 -18 108 -129 174 -294 174 l-73 0 0 -198 c0 -195 0 -199 23 -220 36 -34 76 -41 166 -31 164 18 309 99 362 201 19 36 58 56 45 23 -3 -8 -8 -69 -12 -135 l-7 -120 -444 0 c-408 0 -501 6 -415 25 16 3 44 19 63 34 l34 29 3 406 c2 262 -1 420 -8 446 -11 40 -51 74 -107 89 -15 4 -29 13 -31 19 -3 9 103 12 464 10 l468 -3 36 -140z m2871 65 c9 -41 28 -113 43 -158 35 -104 25 -121 -31 -54 -78 92 -235 196 -358 237 -91 31 -193 35 -230 11 -61 -40 -60 -33 -63 -477 -3 -447 -1 -463 55 -492 15 -8 47 -18 71 -22 94 -15 19 -25 -199 -25 -188 0 -229 2 -229 14 0 7 14 16 31 20 17 3 44 19 60 35 l29 29 0 427 0 427 -34 34 c-19 19 -48 37 -65 40 -17 4 -31 13 -31 20 0 12 75 14 467 12 l468 -3 16 -75z m1070 -16 c9 -49 28 -122 42 -162 13 -39 22 -73 20 -76 -3 -3 -33 23 -67 58 -170 174 -451 290 -564 232 -61 -31 -62 -38 -62 -288 l0 -228 83 0 c102 1 162 14 204 46 40 30 73 92 82 151 3 24 11 44 16 43 16 0 13 -462 -2 -467 -8 -3 -13 5 -13 22 0 45 -38 104 -86 135 -55 35 -121 50 -214 50 l-70 0 0 -191 c0 -118 4 -198 11 -211 6 -11 30 -28 54 -39 38 -17 52 -18 125 -8 140 17 224 53 306 131 28 27 57 62 64 78 15 36 45 42 37 8 -3 -13 -9 -74 -13 -136 l-7 -112 -438 0 c-241 0 -440 4 -443 9 -3 4 12 13 34 20 21 6 50 25 64 42 l26 31 0 416 c0 313 -3 423 -13 442 -11 22 -72 60 -120 74 -10 3 -15 10 -12 16 4 7 164 9 472 8 l466 -3 18 -91z m2239 39 c6 -32 23 -98 37 -148 34 -119 37 -135 27 -135 -5 0 -21 18 -37 40 -57 81 -272 218 -399 255 -107 31 -195 17 -232 -37 -13 -19 -16 -60 -16 -252 l0 -229 109 5 c100 4 114 7 157 34 55 34 93 98 102 169 3 27 9 44 16 42 17 -6 15 -469 -1 -475 -8 -2 -13 5 -13 19 0 40 -39 106 -81 134 -51 36 -126 55 -216 55 l-73 0 0 -199 0 -200 33 -24 c44 -33 63 -36 157 -26 161 18 310 101 365 203 11 20 23 36 28 36 9 0 -1 -247 -10 -262 -6 -11 -883 -10 -883 0 0 5 17 14 38 20 21 7 49 23 63 38 l24 26 3 406 c2 273 0 419 -8 444 -8 28 -21 44 -54 63 -23 14 -52 25 -64 25 -13 0 -22 6 -22 15 0 13 59 15 469 15 l470 0 11 -57z m1067 -43 c13 -52 34 -125 47 -162 13 -38 21 -70 16 -73 -4 -2 -45 33 -92 78 -145 141 -319 227 -461 228 -76 1 -110 -15 -134 -62 -16 -31 -19 -860 -3 -890 14 -24 54 -45 108 -54 98 -16 30 -25 -193 -25 -194 0 -235 2 -235 14 0 8 15 17 34 20 21 4 45 19 60 37 l26 31 0 426 c-1 464 2 445 -57 484 -16 10 -38 18 -50 18 -14 0 -23 6 -23 15 0 13 56 15 467 13 l466 -3 24 -95z m-8548 -555 c0 -5 -11 10 -24 35 -13 25 -24 50 -24 55 0 6 11 -10 24 -35 13 -25 24 -49 24 -55z m160 -297 c23 -25 61 -56 86 -68 25 -12 45 -26 45 -31 0 -5 -76 -9 -175 -9 -96 0 -175 4 -175 8 0 4 19 14 42 22 88 32 109 115 60 245 -47 127 -46 127 17 0 33 -66 78 -141 100 -167z m6185 24 c41 -54 80 -86 121 -102 59 -23 22 -30 -150 -30 -98 0 -175 4 -175 9 0 5 19 15 42 23 62 20 83 55 82 136 -1 51 -8 85 -32 142 -18 41 -32 77 -31 80 0 3 24 -43 52 -101 29 -58 70 -129 91 -157z"/>
 <path d="M5572 1080 c-68 -39 -121 -112 -208 -283 -37 -73 -75 -144 -85 -159 -29 -40 -24 -52 12 -31 40 23 80 79 169 233 81 141 125 199 183 241 l40 29 -29 0 c-16 0 -53 -14 -82 -30z"/>
 <path d="M4820 1084 c0 -3 14 -17 30 -31 l30 -25 0 -424 c0 -317 3 -429 12 -444 11 -17 8 -24 -22 -55 l-34 -35 102 0 c56 0 102 2 102 5 0 3 -16 19 -35 36 l-35 31 0 429 0 429 35 39 c19 21 35 41 35 45 0 3 -49 6 -110 6 -60 0 -110 -3 -110 -6z"/>
 <path d="M5083 533 l-33 -4 0 -193 c0 -180 1 -195 21 -219 40 -52 173 -61 257 -18 88 45 135 159 114 274 -22 115 -77 154 -233 161 -52 2 -109 2 -126 -1z"/>
 <path d="M5407 498 c46 -50 58 -89 57 -178 -1 -92 -15 -135 -60 -189 -17 -21 -21 -31 -12 -31 27 0 103 57 133 100 27 39 30 51 30 120 0 67 -3 82 -28 119 -18 27 -44 50 -70 62 -58 26 -76 25 -50 -3z"/>
 <path d="M165 1077 c-36 -9 -53 -19 -62 -37 -12 -23 -18 -110 -8 -110 2 0 26 23 52 52 26 28 68 64 92 80 l45 28 -35 -1 c-18 0 -56 -6 -84 -12z"/>
 <path d="M622 1025 c2 -5 15 -32 28 -60 52 -108 21 -234 -74 -293 -23 -15 -104 -52 -180 -82 -208 -84 -265 -138 -274 -262 -4 -48 0 -67 22 -112 25 -51 75 -106 96 -106 5 0 -5 22 -22 50 -20 32 -33 68 -36 100 -10 111 42 160 264 248 179 70 225 101 260 176 47 102 19 254 -61 326 -15 14 -26 21 -23 15z"/>
 <path d="M632 158 c-18 -24 -46 -52 -62 -63 -16 -11 -30 -22 -30 -25 0 -3 22 -3 50 -2 48 4 50 5 59 40 19 72 23 92 19 92 -2 0 -19 -19 -36 -42z"/>
 <path d="M2845 668 c-208 -471 -234 -525 -269 -557 -14 -14 -26 -28 -26 -33 0 -4 61 -8 135 -8 74 0 135 3 135 6 0 3 -14 22 -30 43 -76 95 -63 151 120 516 77 154 145 296 150 315 8 26 6 45 -6 77 -9 24 -20 43 -23 43 -4 0 -87 -181 -186 -402z"/>
 <path d="M9200 1018 c-62 -147 -337 -761 -365 -818 -18 -36 -45 -76 -59 -89 -14 -14 -26 -28 -26 -33 0 -4 61 -8 135 -8 74 0 135 3 135 6 0 3 -14 24 -31 45 -76 96 -58 167 135 542 62 122 121 243 131 270 17 45 17 49 1 92 -10 25 -21 45 -26 45 -4 0 -18 -24 -30 -52z"/>
 <path d="M987 1084 c-4 -4 5 -20 18 -36 l25 -30 0 -422 c0 -324 3 -425 13 -435 10 -10 5 -19 -25 -45 -21 -18 -35 -36 -31 -39 9 -10 193 -8 193 1 0 5 -11 19 -25 32 l-25 23 0 443 0 442 30 30 c16 16 26 32 23 36 -8 8 -188 8 -196 0z"/>
 <path d="M1527 1084 c-4 -4 5 -20 18 -36 l25 -30 0 -415 c0 -383 1 -418 18 -436 16 -18 16 -20 -20 -52 -21 -18 -38 -35 -38 -39 0 -3 43 -6 95 -6 55 0 95 4 95 10 0 5 -13 19 -30 32 l-30 22 0 430 c0 414 1 432 20 464 11 18 27 35 35 38 8 4 12 10 9 15 -6 10 -187 13 -197 3z"/>
 <path d="M2037 1084 c-4 -4 28 -22 71 -40 42 -19 110 -56 150 -84 41 -27 72 -46 70 -42 -2 4 -16 42 -31 84 l-29 75 -51 7 c-68 8 -172 8 -180 0z"/>
 <path d="M3770 1082 c0 -5 10 -17 21 -28 47 -42 49 -59 49 -482 0 -305 3 -401 13 -411 10 -10 5 -19 -25 -47 -21 -19 -38 -36 -38 -39 0 -3 50 -5 110 -5 61 0 110 4 110 8 0 4 -13 16 -30 25 -64 38 -60 10 -60 458 0 444 2 460 54 494 14 10 23 21 20 26 -7 11 -224 12 -224 1z"/>
 <path d="M4287 1084 c-4 -4 27 -21 67 -39 89 -39 165 -84 229 -137 l47 -40 -50 103 c-42 87 -55 105 -78 110 -37 9 -207 11 -215 3z"/>
 <path d="M4268 566 c-21 -11 -37 -25 -35 -29 1 -4 21 -19 45 -33 l42 -25 0 55 c0 31 -3 56 -7 55 -5 -1 -25 -11 -45 -23z"/>
 <path d="M4482 175 c-30 -23 -76 -53 -103 -65 -27 -13 -49 -27 -49 -32 0 -4 40 -8 89 -8 l89 0 17 70 c10 39 16 72 14 74 -2 2 -28 -16 -57 -39z"/>
 <path d="M6667 1084 c-4 -4 5 -20 18 -36 l25 -30 0 -412 c0 -369 2 -414 17 -436 16 -23 16 -24 -20 -55 -20 -18 -37 -35 -37 -39 0 -3 46 -6 103 -6 l102 1 -37 33 -38 33 0 422 c0 450 3 476 49 501 12 6 19 15 16 21 -7 10 -188 13 -198 3z"/>
 <path d="M7180 1083 c0 -5 44 -29 98 -55 54 -25 119 -62 145 -82 26 -20 47 -33 47 -29 0 3 -14 41 -31 83 l-31 77 -45 7 c-63 8 -183 8 -183 -1z"/>
 <path d="M7720 1084 c0 -4 16 -24 35 -45 l35 -39 0 -413 c0 -308 3 -416 12 -425 9 -9 3 -21 -27 -52 l-39 -40 112 0 c62 0 112 4 112 9 0 4 -18 20 -40 35 l-40 26 0 435 0 434 35 34 c19 19 35 37 35 41 0 3 -52 6 -115 6 -63 0 -115 -3 -115 -6z"/>
 <path d="M8237 1084 c-4 -4 28 -22 69 -40 96 -42 174 -88 232 -139 25 -22 43 -35 41 -30 -2 6 -23 49 -47 97 -23 48 -42 91 -42 96 0 18 -236 32 -253 16z"/>
 <path d="M8218 566 c-21 -11 -38 -23 -38 -26 1 -3 21 -17 45 -32 l45 -27 0 54 c0 30 -3 55 -7 54 -5 -1 -25 -11 -45 -23z"/>
 <path d="M8446 185 c-27 -24 -76 -58 -108 -75 -32 -17 -58 -33 -58 -36 0 -2 40 -4 90 -4 l89 0 10 38 c12 45 29 122 27 122 0 -1 -23 -21 -50 -45z"/>
 <path d="M9970 1082 c0 -5 9 -17 21 -28 49 -44 49 -47 49 -477 0 -300 3 -406 12 -415 9 -9 3 -21 -27 -52 l-39 -40 112 0 c62 0 112 3 112 8 -1 4 -19 19 -40 34 l-40 28 0 436 0 437 35 33 c19 18 35 35 35 38 0 3 -52 6 -115 6 -63 0 -115 -4 -115 -8z"/>
 <path d="M10487 1083 c-4 -3 22 -18 57 -33 87 -37 169 -85 232 -136 l52 -43 -48 102 c-42 86 -54 103 -77 108 -38 9 -208 11 -216 2z"/>
 <path d="M10475 569 c-16 -10 -34 -21 -40 -23 -11 -4 12 -24 58 -51 l27 -16 0 55 c0 31 -3 56 -7 55 -5 0 -21 -9 -38 -20z"/>
 <path d="M10683 175 c-29 -24 -75 -54 -102 -67 -28 -12 -50 -26 -51 -30 0 -5 40 -8 89 -8 77 0 90 2 94 18 14 49 29 123 26 126 -2 2 -28 -16 -56 -39z"/>
 <path d="M11038 1084 c-3 -3 5 -17 18 -31 l24 -26 0 -414 c0 -369 2 -418 17 -443 16 -28 16 -29 -13 -54 -16 -14 -32 -26 -36 -26 -5 0 -8 -4 -8 -10 0 -6 40 -10 100 -10 55 0 100 2 100 5 0 3 -16 19 -35 36 l-35 31 0 402 c0 220 3 418 7 439 3 23 18 50 34 67 16 16 29 31 29 34 0 8 -195 8 -202 0z"/>
 <path d="M11550 1083 c0 -5 35 -24 78 -43 42 -19 106 -54 142 -78 36 -24 68 -45 71 -48 3 -2 -9 34 -27 79 -32 79 -35 82 -71 89 -52 9 -193 10 -193 1z"/>
 <path d="M3430 189 c0 -9 -11 -37 -25 -63 -14 -26 -25 -49 -25 -52 0 -2 25 -4 55 -4 38 0 55 4 55 13 -1 19 -59 124 -60 106z"/>
 <path d="M9630 189 c0 -9 -11 -37 -25 -63 -14 -26 -25 -49 -25 -52 0 -7 109 -4 114 4 2 4 -11 34 -30 67 -18 33 -34 53 -34 44z"/>
 </g>

</svg>