<!DOCTYPE svg PUBLIC "-//W3C//DTD SVG 20010904//EN" "http://www.w3.org/TR/2001/REC-SVG-20010904/DTD/svg10.dtd">
<svg version="1.0" xmlns="http://www.w3.org/2000/svg" width="750px" height="750px" viewBox="0 0 7500 7500" preserveAspectRatio="xMidYMid meet">
<g id="layer101" fill="#000000" stroke="none">
 <path d="M3775 7153 c-372 -24 -812 -137 -1334 -343 -413 -163 -839 -448 -1181 -790 -202 -201 -345 -384 -492 -630 -303 -504 -451 -1022 -451 -1580 0 -447 81 -874 245 -1292 59 -150 241 -524 325 -668 326 -556 798 -1102 1118 -1292 205 -122 342 -172 612 -222 196 -37 299 -46 668 -56 429 -12 862 1 1059 30 500 75 806 174 1296 420 229 115 635 357 780 464 101 75 198 173 238 240 87 143 143 329 125 416 -8 44 -111 101 -296 166 -81 28 -159 61 -172 74 -35 33 -56 22 -95 -51 -69 -126 -148 -236 -268 -375 -183 -213 -242 -259 -512 -397 -102 -52 -257 -132 -345 -178 -601 -313 -1093 -489 -1545 -550 -52 -7 -187 -13 -300 -14 -181 0 -224 3 -370 29 -192 33 -272 57 -468 137 -229 95 -378 176 -533 290 -352 259 -647 617 -858 1039 -106 213 -154 335 -227 573 -162 531 -199 1041 -118 1647 40 303 155 654 309 947 126 240 200 345 354 506 79 82 126 120 266 212 602 397 1035 643 1355 770 510 202 834 257 1310 221 318 -24 530 -61 775 -132 97 -29 387 -164 500 -234 228 -140 466 -365 659 -620 218 -289 410 -710 516 -1130 95 -374 129 -810 89 -1145 -5 -44 -14 -153 -18 -241 -5 -89 -14 -171 -20 -182 -6 -11 -27 -26 -46 -32 -40 -13 -84 -9 -245 21 -91 18 -174 21 -625 29 -286 5 -594 14 -685 20 -359 24 -713 85 -923 161 -62 22 -141 50 -177 61 -36 11 -71 25 -77 30 -22 18 -14 52 27 119 73 118 213 383 281 529 173 376 292 801 334 1189 9 75 20 153 26 173 12 48 -2 106 -33 135 -13 12 -61 44 -108 73 -108 65 -137 65 -162 0 -10 -25 -42 -108 -72 -185 -59 -151 -158 -492 -201 -695 -132 -618 -237 -943 -381 -1180 -37 -60 -43 -65 -72 -63 -134 11 -1015 370 -1163 475 -35 24 -137 97 -226 161 -267 192 -375 254 -523 302 -62 20 -107 28 -167 29 -76 1 -83 -1 -120 -30 -29 -23 -54 -63 -103 -161 -39 -79 -82 -149 -107 -177 -24 -25 -43 -52 -43 -59 0 -19 28 -42 71 -60 20 -8 92 -46 160 -84 140 -78 274 -138 399 -178 127 -40 631 -166 920 -230 528 -117 870 -214 870 -248 0 -18 -118 -301 -192 -462 -251 -543 -367 -823 -427 -1028 -52 -177 -101 -417 -101 -490 l0 -57 43 7 c54 9 57 9 220 -13 136 -18 137 -18 156 1 11 12 31 72 50 150 30 127 43 195 136 738 71 414 119 587 244 887 91 217 99 224 203 167 68 -38 187 -83 478 -182 521 -178 942 -272 1925 -430 388 -62 530 -78 555 -65 27 14 43 63 124 381 148 584 195 940 183 1407 -9 400 -80 782 -192 1048 -156 368 -393 713 -699 1020 -179 178 -287 269 -422 352 -292 181 -563 264 -1044 321 -511 60 -831 79 -1065 64z"/>
 </g>

</svg>